<?xml version="1.0" standalone="no"?>
<!DOCTYPE svg PUBLIC "-//W3C//DTD SVG 1.1//EN" "http://www.w3.org/Graphics/SVG/1.1/DTD/svg11.dtd" >
<svg xmlns="http://www.w3.org/2000/svg" xmlns:xlink="http://www.w3.org/1999/xlink" version="1.1">
<metadata>
Created by FontForge 20170731 at Tue Feb  9 03:11:32 2016
 By Aleksey,,,
Made in 2016 by Stewart C. Russell - scruss.com

Licence: Dual-licensed CC0/WTFPL (srsly)

Derived from character stroke coordinates by Allen V. Hershey published in "Calligraphy for Computers" (US Naval Weapons Laboratory, 1967-08-01, NWL Report No. 2101, NTIS accession number AD-662 398) and elsewhere. These coordinates were published without copyright.

The efforts of the Usenet Font Consortium (James Hurt, et al) who reformatted Hershey's data and published it to mod.sources on 1986-04-01 [Volume 4, Issue 42] are greatly appreciated.
</metadata>
<defs>
<font id="AVHersheyDuplexHeavy" horiz-adv-x="492" >
  <font-face 
    font-family="AVHershey Duplex"
    font-weight="800"
    font-stretch="normal"
    units-per-em="1000"
    panose-1="2 0 9 3 0 0 0 0 0 0"
    ascent="800"
    descent="-200"
    x-height="428"
    cap-height="600"
    bbox="7 -172 705 698"
    underline-thickness="50"
    underline-position="-200"
    unicode-range="U+0020-2033"
  />
<missing-glyph horiz-adv-x="500" 
d="M50 0v533h400v-533h-400zM100 50h300v433h-300v-433z" />
    <glyph glyph-name=".notdef" horiz-adv-x="500" 
d="M50 0v533h400v-533h-400zM100 50h300v433h-300v-433z" />
    <glyph glyph-name=".null" horiz-adv-x="0" 
 />
    <glyph glyph-name="nonmarkingreturn" horiz-adv-x="333" 
 />
    <glyph glyph-name="space" unicode=" " horiz-adv-x="245" 
 />
    <glyph glyph-name="exclam" unicode="!" horiz-adv-x="270" 
d="M69 121l24 24l14 10l41 3l16 -3l13 -10l25 -24l9 -14l3 -40l-3 -17l-9 -13l-25 -25l-13 -9l-41 -3l-16 3l-14 9l-24 25l-9 13l-4 41l4 16zM81 558l3 16l6 9l17 14l41 3l16 -3l13 -9l9 -14l4 -16v-344l-4 -16l-9 -14l-13 -9l-16 -3l-41 3l-14 9l-9 14l-3 16v344z" />
    <glyph glyph-name="dollar" unicode="$" horiz-adv-x="466" 
d="M151 145l27 -23v164l-75 38l-36 32l-32 60l-4 19v49l3 16l9 14l49 49l16 10l70 23v60l3 16l9 14l14 9l41 3l16 -3l13 -9l9 -14l4 -16v-60l69 -23l17 -10l49 -49l9 -14l3 -16l-3 -16l-9 -13l-14 -10l-16 -3h-49l-16 3l-40 33v-127l61 -34l57 -60l25 -49l4 -19v-49l-4 -18
l-25 -50l-32 -35l-17 -10l-69 -23v-60l-4 -16l-9 -14l-13 -9l-41 -3l-16 3l-14 9l-9 14l-3 16v60l-70 23l-16 10l-49 49l-9 14l-3 16l3 16l9 13l13 10l17 3h49l16 -3zM178 405v78l-34 -11l-5 -5v-22l14 -28zM300 121l16 11l9 18v30l-17 34l-21 18v-115z" />
    <glyph glyph-name="ampersand" unicode="&#x26;" horiz-adv-x="614" 
d="M158 344l-29 91v49l5 19l32 60l60 33l19 4h24l19 -4l49 -25l11 -8l8 -11l25 -49l4 -19v-49l-4 -19l-33 -60l-44 -44l49 -59l26 78l33 60l60 33l19 4h49l16 -3l13 -9l10 -14l3 -16l-3 -41l-10 -13l-13 -9l-16 -4h-40l-11 -5l-9 -18l-46 -138l32 -32l34 -17h40l16 -4l13 -9
l10 -13l3 -41l-3 -16l-10 -14l-13 -9l-16 -3h-49l-19 4l-49 25l-43 40l-43 -40l-49 -25l-19 -4h-98l-19 4l-60 33l-32 35l-25 50l-4 18v49l4 19l33 60l49 49zM243 486l-5 -12v-32l13 -40l8 9l18 34v29l-6 12l-11 5zM217 256l-44 -26l-16 -16l-18 -34v-30l14 -28l28 -13h79
l34 17l16 18z" />
    <glyph glyph-name="parenleft" unicode="(" horiz-adv-x="343" 
d="M166 637l49 49l14 9l16 3l40 -3l14 -9l9 -14l3 -16l-3 -16l-9 -13l-46 -47l-46 -68l-45 -91l-23 -113v-90l23 -113l45 -91l46 -68l46 -46l9 -14l3 -16l-3 -16l-9 -14l-14 -9l-16 -3l-40 3l-14 9l-54 56l-50 74l-55 113l-24 123v115l24 122l53 109z" />
    <glyph glyph-name="parenright" unicode=")" horiz-adv-x="343" 
d="M31 656l3 16l9 14l14 9l40 3l16 -3l14 -9l54 -56l52 -78l49 -98l29 -142l-1 -106l-28 -134l-49 -98l-52 -78l-54 -56l-14 -9l-16 -3l-40 3l-14 9l-9 14l-3 16l3 16l9 14l46 46l46 68l45 91l23 113v90l-23 113l-45 91l-46 68l-46 47l-9 13z" />
    <glyph glyph-name="asterisk" unicode="*" horiz-adv-x="395" 
d="M32 484l3 16l9 14l20 11l48 -1l22 -14l-3 29l4 13l8 11l24 25l14 9l16 3l16 -3l14 -9l32 -36l4 -13l-3 -29l22 14l38 2l10 -1l15 -7l11 -12l6 -22l-3 -41l-10 -13l-14 -9l-25 -10l25 -11l14 -9l10 -13l3 -41l-6 -22l-11 -12l-15 -7l-10 -1l-38 2l-22 14l3 -29l-4 -13
l-8 -11l-24 -25l-14 -9l-16 -3l-16 3l-14 9l-32 36l-4 13l3 29l-22 -14l-38 -2l-10 1l-15 7l-11 12l-6 22l3 41l10 13l14 9l25 11l-25 10l-14 9l-10 13z" />
    <glyph glyph-name="plus" unicode="+" horiz-adv-x="614" 
d="M56 288l4 16l9 13l13 10l16 3h155v154l3 16l9 14l14 9l41 3l16 -3l13 -9l9 -14l4 -16v-154h154l16 -3l14 -10l9 -13l3 -41l-3 -16l-9 -14l-14 -9l-16 -3h-154v-154l-4 -17l-9 -13l-13 -9l-41 -3l-16 3l-14 9l-9 13l-3 17v154h-155l-16 3l-13 9l-9 14z" />
    <glyph glyph-name="comma" unicode="," horiz-adv-x="270" 
d="M214 67v-50l-3 -16l-34 -62l-60 -33l-16 -4l-16 2l-14 8l-10 13l-4 16l2 16l8 14l13 10l32 16l1 5l-20 10l-24 25l-9 13l-4 41l4 16l9 14l24 24l14 10l41 3l16 -3l13 -10l25 -24l9 -14z" />
    <glyph glyph-name="hyphen" unicode="-" horiz-adv-x="614" 
d="M56 288l4 16l9 13l13 10l16 3h418l16 -3l14 -10l9 -13l3 -41l-3 -16l-9 -14l-14 -9l-16 -3h-418l-16 3l-13 9l-9 14z" />
    <glyph glyph-name="period" unicode="." horiz-adv-x="270" 
d="M69 121l24 24l14 10l41 3l16 -3l13 -10l25 -24l9 -14l3 -40l-3 -17l-9 -13l-25 -25l-13 -9l-41 -3l-16 3l-14 9l-24 25l-9 13l-4 41l4 16z" />
    <glyph glyph-name="slash" unicode="/" horiz-adv-x="566" 
d="M12 -109l443 786l10 12l15 8l36 1l17 -3l14 -10l9 -15l2 -18l-6 -16l-442 -787l-11 -12l-14 -7l-36 -2l-17 4l-14 10l-9 15l-2 17z" />
    <glyph glyph-name="zero" unicode="0" 
d="M215 599l69 -1l74 -25l12 -6l9 -10l49 -74l7 -15l25 -131l-1 -82l-24 -123l-7 -15l-58 -84l-12 -6l-87 -27l-63 2l-74 25l-12 6l-9 10l-49 74l-7 15l-25 131l1 82l24 123l7 15l58 84l12 6zM185 477l-22 -34l-22 -110v-66l22 -110l22 -34l43 -14h36l43 14l22 34l22 110v66
l-22 110l-22 34l-43 14h-36z" />
    <glyph glyph-name="one" unicode="1" 
d="M105 435l2 38l8 14l13 10l43 22l69 69l13 9l17 3l16 -3l13 -9l9 -14l4 -16v-516l-4 -16l-9 -14l-13 -9l-41 -3l-16 3l-14 9l-9 14l-3 16v374l-38 -18l-16 -5l-17 3l-14 9l-10 14z" />
    <glyph glyph-name="two" unicode="2" 
d="M32 41l2 15l9 14l219 244l46 69l19 37v30l-14 28l-28 13h-78l-28 -13l-14 -28l-3 -31l-9 -14l-14 -9l-16 -3l-41 3l-13 9l-9 14l-3 41l4 18l25 50l32 35l11 8l49 25l19 4h98l19 -4l49 -25l36 -32l32 -61l4 -18v-49l-4 -19l-27 -54l-49 -74l-140 -155h203l16 -4l14 -9
l9 -13l3 -41l-3 -16l-9 -14l-14 -9l-16 -3h-344l-16 3l-14 9l-9 14z" />
    <glyph glyph-name="three" unicode="3" 
d="M132 164l18 -32l16 -11l38 -12h60l37 12l23 15l15 23l12 37v11l-12 38l-15 22l-23 15l-37 13l-78 1l-15 8l-11 12l-5 21l3 16l6 10l100 128h-141l-16 4l-14 9l-9 13l-3 16l3 41l9 14l14 9l16 3h270l16 -3l13 -8l9 -13l4 -15l-1 -15l-7 -14l-111 -142l42 -13l16 -10
l49 -50l10 -16l25 -74l2 -38l-27 -87l-10 -16l-49 -49l-16 -10l-87 -27l-87 2l-74 25l-17 10l-32 35l-25 50l-4 16l3 17l8 14l14 10l17 3l38 -2l14 -8z" />
    <glyph glyph-name="four" unicode="4" horiz-adv-x="493" 
d="M39 189l271 393l11 11l16 6h16l15 -6l15 -19l3 -16v-327h57l16 -3l13 -9l9 -13l4 -17l-4 -40l-9 -14l-13 -9l-16 -3h-57v-81l-3 -16l-9 -14l-14 -9l-40 -3l-16 3l-14 9l-9 14l-3 16v81h-204l-15 3l-13 7l-9 12l-5 15l1 15zM278 350l-82 -119h82v119z" />
    <glyph glyph-name="five" unicode="5" 
d="M57 341l24 222l5 15l11 13l14 7l12 2h246l16 -3l14 -9l9 -14l3 -41l-3 -16l-9 -13l-14 -9l-16 -4h-185l-10 -68l23 5l87 -2l74 -25l16 -10l49 -49l10 -16l25 -74l2 -63l-27 -87l-10 -16l-49 -49l-16 -10l-87 -27l-87 2l-74 25l-17 10l-32 35l-25 50l-4 16l3 17l8 14
l14 10l17 3l38 -2l16 -10l22 -38l16 -11l38 -12h60l37 12l23 15l15 23l12 37v36l-12 37l-15 23l-23 15l-37 12h-82l-40 -20l-19 -4h-29l-16 5l-12 11l-8 14z" />
    <glyph glyph-name="six" unicode="6" horiz-adv-x="491" 
d="M174 382l58 19l38 2l13 -2l74 -24l16 -10l49 -50l10 -16l25 -74l2 -38l-2 -13l-25 -74l-10 -16l-49 -49l-16 -10l-74 -25l-38 -2l-13 2l-74 25l-16 10l-50 49l-11 20l-24 98l-1 133l25 131l6 15l59 84l86 31l62 2l87 -27l14 -8l10 -13l25 -49l4 -16l-2 -17l-9 -15l-14 -9
l-17 -4l-39 3l-13 8l-17 26l-36 12h-35l-43 -14l-23 -34zM177 245l-11 -33l15 -59l11 -17l22 -15l38 -12h11l37 12l23 15l15 23l12 37v11l-12 38l-15 22l-23 15l-37 13h-11l-38 -13l-22 -15z" />
    <glyph glyph-name="seven" unicode="7" horiz-adv-x="493" 
d="M32 558l3 16l9 14l14 9l16 3h344l16 -3l14 -10l9 -14l3 -17l-4 -16l-246 -516l-10 -13l-14 -9l-38 -2l-17 3l-14 10l-9 14l-2 17l4 16l205 431h-241l-16 4l-14 9l-9 13z" />
    <glyph glyph-name="eight" unicode="8" 
d="M190 599l105 1l87 -27l14 -8l10 -13l25 -49l4 -19v-49l-4 -19l-25 -49l-27 -30l44 -44l33 -60l4 -19v-74l-4 -18l-25 -50l-32 -35l-17 -10l-74 -25l-111 -2l-87 27l-17 10l-32 35l-25 50l-4 18v74l4 19l33 60l44 44l-27 30l-25 49l-4 19v49l4 19l25 49l10 13l14 8z
M246 281l-34 -8l-39 -20l-15 -15l-17 -34v-54l9 -18l16 -11l38 -12h84l38 12l16 11l9 18v54l-17 34l-15 15l-39 20zM246 392l34 9l33 16l14 28v29l-3 5l-36 12h-84l-36 -12l-3 -5v-29l14 -28l33 -16z" />
    <glyph glyph-name="nine" unicode="9" 
d="M317 218l-58 -19l-38 -2l-13 2l-74 24l-16 10l-49 50l-10 16l-25 74l-2 38l2 13l25 74l10 16l49 49l16 10l74 25l38 2l13 -2l74 -25l16 -10l50 -49l11 -20l24 -98l1 -133l-25 -131l-6 -15l-59 -84l-86 -31l-62 -2l-87 27l-14 8l-10 13l-25 49l-4 16l2 17l9 15l14 9l17 4
l39 -3l13 -8l17 -26l36 -12h35l43 14l23 34zM277 318l22 15l15 22l11 33l-15 59l-11 17l-22 15l-38 12h-11l-37 -12l-23 -15l-15 -23l-12 -37v-11l12 -38l15 -22l23 -15l37 -13h11z" />
    <glyph glyph-name="colon" unicode=":" horiz-adv-x="270" 
d="M69 391l24 25l14 9l41 3l16 -3l13 -9l25 -25l9 -13l3 -41l-3 -16l-9 -14l-25 -24l-13 -10l-41 -3l-16 3l-14 10l-24 24l-9 14l-4 40l4 17zM69 121l24 24l14 10l41 3l16 -3l13 -10l25 -24l9 -14l3 -40l-3 -17l-9 -13l-25 -25l-13 -9l-41 -3l-16 3l-14 9l-24 25l-9 13
l-4 41l4 16z" />
    <glyph glyph-name="semicolon" unicode=";" horiz-adv-x="270" 
d="M69 391l24 25l14 9l41 3l16 -3l13 -9l25 -25l9 -13l3 -41l-3 -16l-9 -14l-25 -24l-13 -10l-41 -3l-16 3l-14 10l-24 24l-9 14l-4 40l4 17zM214 67v-50l-3 -16l-34 -62l-60 -33l-16 -4l-16 2l-14 8l-10 13l-4 16l2 16l8 14l13 10l32 16l1 5l-20 10l-24 25l-9 13l-4 41
l4 16l9 14l24 24l14 10l41 3l16 -3l13 -10l25 -24l9 -14z" />
    <glyph glyph-name="equal" unicode="=" horiz-adv-x="614" 
d="M56 386l4 16l9 14l13 9l16 3h418l16 -3l14 -9l9 -14l3 -41l-3 -16l-9 -13l-14 -9l-16 -4h-418l-16 4l-13 9l-9 13zM56 189l4 17l9 13l13 9l16 3h418l16 -3l14 -9l9 -13l3 -41l-3 -16l-9 -14l-14 -9l-16 -3h-418l-16 3l-13 9l-9 14z" />
    <glyph glyph-name="question" unicode="?" horiz-adv-x="466" 
d="M31 435v25l4 18l25 50l32 35l16 10l74 25l87 2l87 -27l17 -10l24 -24l33 -61l4 -18v-49l-4 -19l-25 -49l-32 -36l-61 -32l-25 -9v-52l-4 -16l-9 -14l-13 -9l-41 -3l-16 3l-14 9l-9 14l-3 16v98l3 16l9 14l14 9l74 25l37 23l10 21v30l-9 18l-16 11l-38 12h-60l-37 -12
l-17 -11l-9 -18l-3 -31l-9 -14l-14 -9l-16 -3l-41 3l-13 9l-6 9zM166 121l24 24l14 10l41 3l16 -3l13 -10l25 -24l9 -14l3 -40l-3 -17l-9 -13l-25 -25l-13 -9l-41 -3l-16 3l-14 9l-24 25l-9 13l-4 41l4 16z" />
    <glyph glyph-name="A" unicode="A" 
d="M7 41l2 16l198 518l9 14l14 8l16 3l16 -4l14 -9l8 -14l197 -516l3 -16l-4 -16l-9 -13l-13 -9l-16 -3l-41 3l-14 10l-9 14l-38 96h-190l-38 -96l-9 -14l-14 -10l-16 -3l-41 3l-13 9l-9 13zM245 368l-53 -137h106z" />
    <glyph glyph-name="B" unicode="B" horiz-adv-x="491" 
d="M56 558l3 16l9 14l13 9l17 3h196l87 -27l17 -10l32 -35l25 -50l4 -18v-74l-4 -19l-25 -49l-15 -18l15 -18l25 -49l4 -19v-74l-4 -18l-25 -50l-32 -35l-17 -10l-87 -27h-196l-17 3l-13 9l-9 14l-3 16v516zM164 491v-137h123l51 17l12 25v54l-12 25l-51 16h-123zM164 246
v-137h123l51 16l12 25v54l-12 25l-51 17h-123z" />
    <glyph glyph-name="C" unicode="C" horiz-adv-x="516" 
d="M481 148l-33 -62l-49 -49l-61 -33l-18 -4h-99l-18 4l-60 33l-50 49l-32 60l-27 79l-2 136l27 87l27 55l57 60l60 33l18 4h99l18 -4l61 -33l49 -49l32 -60l4 -16l-3 -19l-9 -14l-11 -7l-15 -5h-28l-15 3l-13 8l-10 12l-21 43l-15 15l-34 17h-79l-30 -15l-40 -59l-20 -62
v-110l20 -62l40 -59l30 -15h79l34 17l15 15l21 43l10 12l13 8l15 3h28l13 -3l13 -9l10 -17l2 -16z" />
    <glyph glyph-name="D" unicode="D" horiz-adv-x="516" 
d="M56 558l3 16l9 14l13 9l17 3h172l87 -27l16 -10l57 -60l27 -55l24 -73l3 -136l-27 -87l-27 -55l-57 -60l-16 -10l-87 -27h-172l-17 3l-13 9l-9 14l-3 16v516zM164 491v-382h99l58 19l12 13l21 40l21 64v110l-21 64l-21 40l-12 13l-58 19h-99z" />
    <glyph glyph-name="E" unicode="E" horiz-adv-x="467" 
d="M56 558l3 16l9 14l14 9l16 3h295l16 -3l14 -9l9 -14l3 -41l-3 -16l-9 -13l-14 -9l-16 -4h-228v-137h105l16 -3l14 -9l9 -14l3 -40l-3 -16l-9 -14l-14 -9l-16 -3h-105v-137h228l16 -4l14 -9l9 -13l3 -41l-3 -16l-9 -14l-14 -9l-16 -3h-295l-16 3l-14 9l-9 14l-3 16v516z
" />
    <glyph glyph-name="F" unicode="F" horiz-adv-x="442" 
d="M56 558l3 16l9 14l14 9l16 3h295l16 -3l14 -9l9 -14l3 -16l-3 -41l-9 -13l-14 -9l-16 -4h-228v-137h105l16 -3l14 -9l9 -14l3 -40l-3 -16l-9 -14l-14 -9l-16 -3h-105v-204l-3 -16l-10 -14l-13 -9l-16 -3l-41 3l-14 9l-6 9l-6 21v516z" />
    <glyph glyph-name="G" unicode="G" horiz-adv-x="517" 
d="M278 263l3 16l9 14l14 9l16 3h123l16 -3l13 -9l9 -14l4 -16v-98l-5 -19l-32 -60l-60 -57l-50 -25l-18 -4h-99l-18 4l-60 33l-50 49l-32 60l-29 93v122l27 87l34 66l61 57l49 25l18 4h99l18 -4l50 -25l60 -57l32 -60l4 -16l-3 -19l-9 -14l-11 -7l-15 -5h-28l-15 3l-13 8
l-10 12l-21 43l-15 15l-34 17h-79l-34 -17l-15 -15l-20 -40l-21 -64v-110l21 -64l20 -40l15 -15l34 -17h79l34 17l15 15l17 34v22h-56l-16 3l-14 9l-9 13z" />
    <glyph glyph-name="H" unicode="H" horiz-adv-x="540" 
d="M56 558l3 16l9 14l14 9l16 3l41 -3l13 -9l9 -14l4 -16v-204h210v204l4 16l9 14l13 9l16 3l41 -3l14 -9l9 -14l3 -16v-516l-3 -16l-9 -14l-14 -9l-41 -3l-16 3l-13 9l-9 14l-4 16v204h-210v-204l-4 -16l-9 -14l-13 -9l-16 -3l-41 3l-14 9l-9 14l-3 16v516z" />
    <glyph glyph-name="I" unicode="I" horiz-adv-x="222" 
d="M56 558l3 16l6 9l17 14l41 3l16 -3l13 -9l9 -14l4 -16v-516l-4 -16l-9 -14l-13 -9l-16 -3l-41 3l-14 9l-9 14l-3 16v516z" />
    <glyph glyph-name="J" unicode="J" horiz-adv-x="419" 
d="M32 166l5 18l10 13l11 7l41 3l17 -4l14 -10l9 -15l19 -57l24 -12h30l24 12l17 51v386l3 16l10 14l13 8l16 4l41 -3l14 -9l9 -14l3 -16v-393l-27 -87l-10 -17l-36 -32l-49 -25l-18 -4h-50l-18 4l-49 25l-36 32l-10 17l-25 74z" />
    <glyph glyph-name="K" unicode="K" horiz-adv-x="516" 
d="M56 558l3 16l9 14l13 9l17 3l40 -3l14 -9l9 -14l3 -16v-193l223 223l14 9l41 3l16 -3l13 -9l9 -14l4 -16l-4 -16l-9 -14l-195 -195l199 -266l7 -15l1 -16l-5 -15l-11 -13l-15 -7l-35 -1l-19 4l-15 13l-181 242l-38 -38v-179l-3 -16l-9 -14l-14 -9l-16 -3l-41 3l-13 9
l-9 14l-3 16v516z" />
    <glyph glyph-name="L" unicode="L" horiz-adv-x="418" 
d="M56 558l3 16l9 14l14 9l16 3l41 -3l13 -9l10 -14l3 -16v-449h228l16 -4l14 -9l9 -13l3 -41l-3 -16l-9 -14l-14 -9l-16 -3h-295l-16 3l-14 9l-9 14l-3 16v516z" />
    <glyph glyph-name="M" unicode="M" horiz-adv-x="591" 
d="M56 42v516l3 15l9 14l13 9l17 4l17 -3l12 -9l10 -13l158 -356l158 356l10 13l12 9l17 3l16 -3l13 -9l9 -14l4 -16v-516l-4 -16l-9 -14l-13 -9l-41 -3l-16 3l-14 9l-9 14l-3 16v192l-92 -209l-9 -13l-12 -8l-16 -4l-16 3l-14 9l-9 13l-92 209v-192l-3 -16l-9 -14l-14 -9
l-41 -3l-16 3l-13 9l-9 14z" />
    <glyph glyph-name="N" unicode="N" horiz-adv-x="540" 
d="M56 42v516l6 22l11 12l15 7l26 -2l14 -9l247 -342v312l4 16l9 14l13 9l16 3l41 -3l14 -9l9 -14l3 -16v-516l-6 -22l-11 -12l-15 -7h-17l-23 11l-247 342v-312l-4 -16l-9 -14l-13 -9l-41 -3l-16 3l-14 9l-9 14z" />
    <glyph glyph-name="O" unicode="O" horiz-adv-x="541" 
d="M153 571l52 26l13 3h101l19 -4l49 -25l60 -57l8 -11l27 -55l24 -73l3 -136l-29 -93l-33 -60l-49 -49l-60 -33l-19 -4h-98l-19 4l-60 33l-57 60l-27 55l-24 73l-3 136l27 87l35 66zM252 491l-53 -17l-38 -57l-21 -62v-110l21 -62l38 -57l53 -17h36l53 17l38 57l21 62v110
l-21 62l-38 57l-53 17h-36z" />
    <glyph glyph-name="P" unicode="P" horiz-adv-x="491" 
d="M56 558l3 16l9 14l13 9l17 3h221l18 -4l50 -25l35 -32l33 -61l4 -18v-74l-4 -19l-25 -49l-32 -35l-61 -33l-18 -4h-155v-204l-3 -16l-9 -14l-14 -9l-16 -3l-41 3l-13 9l-9 14l-3 16v516zM164 491v-137h145l28 14l13 28v54l-13 28l-28 13h-145z" />
    <glyph glyph-name="Q" unicode="Q" horiz-adv-x="541" 
d="M153 571l52 26l13 3h101l19 -4l60 -33l49 -49l33 -60l29 -93v-122l-29 -93l-25 -49l-27 -30l44 -44l9 -14l3 -16l-3 -16l-9 -14l-14 -9l-41 -3l-16 3l-13 9l-44 44l-25 -7h-98l-19 4l-60 33l-49 49l-33 60l-29 93l3 136l24 73l27 55l8 11zM252 491l-53 -17l-38 -57
l-21 -62v-110l21 -62l38 -57l55 -17l2 23l9 13l13 10l41 3l16 -3l17 -13l27 41l21 62v110l-21 62l-38 57l-53 17h-36z" />
    <glyph glyph-name="R" unicode="R" horiz-adv-x="491" 
d="M56 558l3 16l9 14l13 9l17 3h196l87 -27l17 -10l32 -35l25 -50l4 -18v-74l-4 -19l-25 -49l-32 -35l-17 -11l-44 -14l119 -200l3 -16l-3 -16l-9 -14l-8 -6l-16 -6h-31l-14 2l-12 8l-10 10l-135 226h-57v-204l-3 -16l-9 -14l-14 -9l-16 -3l-41 3l-13 9l-9 14l-3 16v516z
M164 491v-137h123l51 17l12 25v54l-12 25l-51 16h-123z" />
    <glyph glyph-name="S" unicode="S" 
d="M32 116l3 16l9 13l14 10l16 3h49l16 -3l14 -10l20 -19l34 -17h81l58 19l5 5v47l-17 34l-15 15l-41 20l-121 49l-53 26l-35 32l-33 60l-4 19v49l3 16l9 14l49 49l17 10l87 27l111 -2l74 -25l17 -10l49 -49l9 -14l3 -16l-3 -16l-9 -13l-14 -10l-16 -3h-49l-16 3l-14 10
l-20 19l-34 17h-81l-58 -19l-5 -5v-22l13 -28l36 -17l121 -49l52 -26l60 -57l33 -60l4 -19v-73l-3 -16l-9 -14l-49 -49l-17 -10l-87 -27h-98l-87 27l-17 10l-49 49l-9 14z" />
    <glyph glyph-name="T" unicode="T" horiz-adv-x="417" 
d="M7 558l3 16l9 14l13 9l17 3h319l16 -3l14 -9l9 -14l3 -41l-3 -16l-9 -13l-14 -9l-16 -4h-105v-449l-4 -16l-9 -14l-13 -9l-41 -3l-16 3l-14 9l-9 14l-3 16v449h-105l-17 4l-13 9l-9 13z" />
    <glyph glyph-name="U" unicode="U" horiz-adv-x="540" 
d="M56 558l3 16l9 14l14 9l16 3l41 -3l13 -9l9 -14l4 -16v-362l19 -58l10 -10l58 -19h36l58 19l10 10l19 58v362l4 16l9 14l13 9l41 3l16 -3l14 -9l9 -14l3 -16v-369l-27 -87l-10 -16l-49 -49l-16 -10l-74 -25l-63 -2l-87 27l-16 10l-49 49l-10 16l-27 87v369z" />
    <glyph glyph-name="V" unicode="V" 
d="M7 559l3 15l9 14l14 9l40 3l16 -3l14 -10l9 -14l133 -341l133 341l9 14l14 10l41 3l16 -3l12 -8l10 -14l4 -16l-3 -16l-197 -516l-8 -14l-14 -9l-16 -4l-16 3l-14 8l-9 14l-198 518z" />
    <glyph glyph-name="W" unicode="W" horiz-adv-x="638" 
d="M7 560l3 14l9 14l18 10l36 2l18 -4l14 -11l9 -16l82 -296l86 306l11 12l15 7l16 2l16 -5l12 -11l7 -15l83 -296l82 296l9 16l14 11l18 4l36 -2l18 -10l9 -14l3 -11l-1 -17l-148 -516l-14 -21l-15 -7l-16 -2l-21 9l-11 13l-86 305l-86 -305l-11 -13l-21 -9l-16 2l-22 14
l-7 14l-148 516z" />
    <glyph glyph-name="X" unicode="X" 
d="M33 555v13l7 15l18 14l41 3l14 -2l12 -7l9 -11l112 -180l112 180l9 11l12 7l14 2l32 -1l15 -5l12 -11l8 -25l-3 -16l-149 -242l149 -242l3 -16l-3 -16l-17 -20l-15 -5l-32 -1l-14 2l-12 7l-9 11l-112 180l-112 -180l-9 -11l-12 -7l-14 -2l-32 1l-15 5l-12 11l-8 25l3 16
l149 242l-146 236z" />
    <glyph glyph-name="Y" unicode="Y" horiz-adv-x="467" 
d="M7 562l6 19l19 16l41 3l19 -5l15 -13l125 -179l126 179l15 13l19 5l34 -1l15 -7l14 -18l3 -25l-7 -15l-164 -235v-257l-4 -16l-9 -14l-13 -9l-41 -3l-16 3l-14 9l-9 14l-3 16v257l-164 235l-7 15v13z" />
    <glyph glyph-name="Z" unicode="Z" 
d="M32 558l3 16l9 14l14 9l16 3h344l22 -6l12 -11l8 -25l-6 -22l-265 -427h229l16 -4l14 -9l9 -13l3 -16l-3 -41l-9 -14l-14 -9l-16 -3h-344l-16 3l-18 14l-8 25l6 22l265 427h-229l-16 4l-14 9l-9 13z" />
    <glyph glyph-name="a" unicode="a" 
d="M369 428l41 -3l13 -9l9 -14l3 -16v-344l-3 -16l-9 -14l-13 -9l-17 -3l-40 3l-14 9l-8 13l-42 -21l-18 -4h-74l-19 4l-49 25l-60 57l-10 16l-25 74l-2 63l2 13l25 74l10 16l49 49l60 33l19 4h74l18 -4l42 -21l8 13l14 9zM327 286l-66 33h-54l-34 -17l-13 -12l-19 -58v-36
l19 -58l13 -12l34 -17h54l66 33v144z" />
    <glyph glyph-name="b" unicode="b" horiz-adv-x="491" 
d="M56 558l3 16l4 7l5 7l13 9l41 3l16 -3l14 -9l9 -14l3 -16v-153l38 19l18 4h74l19 -4l60 -33l49 -49l10 -16l25 -74l2 -63l-2 -13l-25 -74l-10 -16l-60 -57l-49 -25l-19 -4h-74l-18 4l-42 21l-8 -13l-14 -9l-40 -3l-17 3l-13 9l-9 14l-3 16v516zM164 142l66 -33h54l34 17
l13 12l19 58v36l-19 58l-13 12l-34 17h-54l-66 -33v-144z" />
    <glyph glyph-name="c" unicode="c" horiz-adv-x="441" 
d="M402 335l4 -7l3 -16l-3 -16l-9 -13l-24 -25l-14 -9l-15 -3l-16 2l-13 8l-10 13l-18 37l-28 13h-54l-34 -17l-13 -12l-19 -58v-36l19 -58l13 -12l34 -17h54l28 13l18 37l10 13l13 8l16 2l15 -3l14 -9l24 -25l9 -13l3 -16l-3 -16l-9 -14l-49 -49l-60 -33l-19 -4h-74l-18 4
l-49 25l-61 57l-10 16l-24 74l-2 63l26 87l10 16l50 49l60 33l18 4h74l19 -4l49 -25l11 -8z" />
    <glyph glyph-name="d" unicode="d" 
d="M369 600l41 -3l13 -9l9 -14l3 -16v-516l-3 -16l-9 -14l-13 -9l-17 -3l-40 3l-14 9l-8 13l-42 -21l-18 -4h-74l-19 4l-60 33l-49 49l-10 16l-25 74l-2 63l2 13l25 74l10 16l60 57l49 25l19 4h74l18 -4l38 -19v153l3 16l9 14l14 9zM327 286l-66 33h-54l-34 -17l-13 -12
l-19 -58v-36l19 -58l13 -12l34 -17h54l66 33v144z" />
    <glyph glyph-name="e" unicode="e" horiz-adv-x="441" 
d="M397 86l-60 -57l-49 -25l-19 -4h-74l-18 4l-60 33l-50 49l-10 16l-26 87l2 63l24 74l10 16l61 57l49 25l18 4h74l19 -4l60 -33l32 -35l25 -50l4 -18v-74l-3 -16l-9 -14l-13 -9l-15 -3l28 -27l9 -13l3 -16l-3 -16zM155 281h144l-12 25l-28 13h-54l-34 -17l-13 -12z
M316 172h-169l11 -34l13 -12l34 -17h54l28 13l18 37z" />
    <glyph glyph-name="f" unicode="f" horiz-adv-x="345" 
d="M31 386l3 16l10 14l13 9l16 3h32l2 45l25 74l8 14l13 10l49 25l19 4h49l16 -3l14 -9l9 -14l3 -16l-3 -41l-9 -13l-14 -9l-16 -4h-39l-5 -2l-12 -36v-25h31l16 -3l14 -9l9 -14l3 -41l-3 -16l-9 -13l-14 -9l-16 -4h-31v-277l-4 -16l-9 -14l-13 -9l-41 -3l-16 3l-14 9l-9 14
l-3 16v277h-32l-16 4l-13 9l-10 13z" />
    <glyph glyph-name="g" unicode="g" 
d="M57 -56l3 16l9 13l13 10l17 3h49l16 -3l13 -10l20 -19l34 -17h30l34 17l13 12l18 57l-37 -19l-18 -4h-74l-19 4l-60 33l-49 49l-10 16l-25 74l-2 63l27 87l10 16l60 57l49 25l19 4h74l18 -4l42 -21l8 13l14 9l16 3l41 -3l13 -9l9 -14l3 -16v-369l-26 -87l-10 -16l-50 -49
l-60 -33l-18 -4h-74l-19 4l-60 33l-49 49l-9 14zM327 142v144l-66 33h-54l-34 -17l-13 -12l-19 -58v-36l19 -58l13 -12l34 -17h54z" />
    <glyph glyph-name="h" unicode="h" horiz-adv-x="491" 
d="M56 558l3 16l9 14l13 9l17 3l40 -3l14 -9l9 -14l3 -16v-169l13 10l49 25l19 4h74l18 -4l50 -25l13 -10l8 -14l26 -87v-246l-3 -16l-9 -14l-13 -9l-41 -3l-16 3l-14 9l-9 14l-3 16v236l-14 28l-28 13h-29l-38 -19l-53 -35v-223l-3 -16l-9 -14l-14 -9l-40 -3l-17 3l-13 9
l-9 14l-3 16v516z" />
    <glyph glyph-name="i" unicode="i" horiz-adv-x="221" 
d="M44 563l24 25l14 9l16 3l41 -3l13 -9l25 -25l9 -13l3 -41l-3 -16l-9 -14l-25 -24l-13 -10l-41 -3l-16 3l-14 10l-24 24l-9 14l-4 40l4 17zM56 386l3 16l9 14l14 9l41 3l16 -3l13 -9l9 -14l4 -16v-344l-4 -16l-9 -14l-13 -9l-16 -3l-41 3l-14 9l-9 14l-3 16v344z" />
    <glyph glyph-name="j" unicode="j" horiz-adv-x="221" 
d="M44 563l24 25l14 9l16 3l41 -3l13 -9l25 -25l9 -13l3 -41l-3 -16l-9 -14l-25 -24l-13 -10l-41 -3l-16 3l-14 10l-24 24l-9 14l-4 40l4 17zM56 386l3 16l9 14l14 9l41 3l16 -3l13 -9l9 -14l4 -16v-516l-4 -16l-9 -14l-13 -9l-16 -3l-41 3l-14 9l-9 14l-3 16v516z" />
    <glyph glyph-name="k" unicode="k" horiz-adv-x="466" 
d="M56 558l3 16l9 14l13 9l17 3l40 -3l14 -9l9 -14l3 -16v-316l174 174l14 9l40 3l17 -3l13 -9l9 -14l3 -16l-3 -16l-9 -14l-133 -132l135 -154l7 -12l3 -19l-4 -16l-10 -13l-11 -7l-17 -3h-49l-17 4l-15 11l-106 124l-41 -41v-56l-3 -16l-9 -14l-14 -9l-40 -3l-17 3l-13 9
l-9 14l-3 16v516z" />
    <glyph glyph-name="l" unicode="l" horiz-adv-x="222" 
d="M56 558l3 16l6 9l17 14l41 3l16 -3l13 -9l9 -14l4 -16v-516l-4 -16l-9 -14l-13 -9l-16 -3l-41 3l-14 9l-9 14l-3 16v516z" />
    <glyph glyph-name="m" unicode="m" horiz-adv-x="762" 
d="M56 386l3 16l9 14l14 9l16 3l40 -3l14 -9l9 -14l3 -13l13 10l49 25l19 4h74l19 -4l49 -25l13 -10l11 -24l37 34l49 25l18 4h74l19 -4l49 -25l13 -10l8 -14l27 -87v-246l-3 -16l-9 -14l-14 -9l-41 -3l-16 3l-13 9l-10 14l-3 16v236l-14 28l-27 13h-30l-38 -19l-52 -35
v-223l-4 -16l-9 -14l-13 -9l-41 -3l-16 3l-14 9l-9 14l-3 16v236l-14 28l-28 13h-29l-38 -19l-53 -35v-223l-3 -16l-9 -14l-14 -9l-40 -3l-16 3l-14 9l-9 14l-3 16v344z" />
    <glyph glyph-name="n" unicode="n" horiz-adv-x="491" 
d="M56 386l3 16l9 14l13 9l17 3l40 -3l14 -9l9 -14l3 -13l13 10l49 25l19 4h74l18 -4l50 -25l13 -10l8 -14l26 -87v-246l-3 -16l-9 -14l-13 -9l-41 -3l-16 3l-14 9l-9 14l-3 16v236l-14 28l-28 13h-29l-38 -19l-53 -35v-223l-3 -16l-9 -14l-14 -9l-16 -3l-41 3l-13 9l-9 14
l-3 16v344z" />
    <glyph glyph-name="o" unicode="o" horiz-adv-x="466" 
d="M128 399l51 26l13 3h77l19 -4l60 -33l49 -49l10 -16l25 -74l2 -63l-27 -87l-10 -16l-49 -49l-60 -33l-19 -4h-74l-18 4l-60 33l-50 49l-10 16l-24 74l-2 63l2 13l24 74l10 16zM205 319l-34 -17l-13 -12l-19 -58v-36l19 -58l13 -12l34 -17h54l34 17l13 12l19 58v36l-19 58
l-13 12l-34 17h-54z" />
    <glyph glyph-name="p" unicode="p" horiz-adv-x="491" 
d="M56 386l3 16l9 14l13 9l17 3l40 -3l14 -9l8 -13l42 21l18 4h74l19 -4l60 -33l49 -49l10 -16l27 -87l-2 -63l-25 -74l-10 -16l-49 -49l-60 -33l-19 -4h-74l-18 4l-38 19v-153l-3 -16l-9 -14l-14 -9l-16 -3l-41 3l-13 9l-9 14l-3 16v516zM164 142l66 -33h54l34 17l13 12
l19 58v36l-19 58l-13 12l-34 17h-54l-66 -33v-144z" />
    <glyph glyph-name="q" unicode="q" 
d="M369 428l41 -3l13 -9l9 -14l3 -16v-516l-3 -16l-9 -14l-13 -9l-17 -3l-40 3l-14 9l-9 14l-3 16v153l-38 -19l-18 -4h-74l-19 4l-49 25l-60 57l-10 16l-27 87l2 63l25 74l10 16l60 57l49 25l19 4h74l18 -4l42 -21l8 13l14 9zM327 286l-66 33h-54l-34 -17l-13 -12l-19 -58
v-36l19 -58l13 -12l34 -17h54l66 33v144z" />
    <glyph glyph-name="r" unicode="r" horiz-adv-x="344" 
d="M56 386l3 16l10 14l13 9l16 3l41 -3l14 -9l9 -14l2 -13l14 10l49 25l19 4h73l17 -3l13 -9l9 -14l3 -16l-3 -41l-9 -13l-13 -9l-17 -4h-63l-35 -17l-39 -39l-17 -34v-187l-3 -16l-14 -17l-9 -6l-16 -3l-41 3l-13 9l-10 14l-3 16v344z" />
    <glyph glyph-name="s" unicode="s" horiz-adv-x="418" 
d="M32 114l2 15l8 14l13 10l16 5l43 -3l13 -8l16 -26l36 -12h60l36 12l3 5l-6 16l-143 59l-60 32l-32 61l-5 18l5 19l24 49l10 13l14 8l74 25l87 2l87 -27l14 -8l10 -13l25 -49l4 -16l-2 -16l-8 -14l-15 -12l-17 -3l-39 3l-13 8l-17 26l-36 12h-60l-30 -10l140 -57l61 -33
l32 -60l4 -19v-24l-4 -19l-25 -49l-10 -13l-14 -8l-74 -25l-87 -2l-13 2l-74 25l-14 8l-10 13l-24 49z" />
    <glyph glyph-name="t" unicode="t" horiz-adv-x="270" 
d="M7 386l3 16l10 14l13 9l16 3h32v130l3 16l9 14l14 9l41 3l16 -3l13 -9l9 -14l4 -16v-130h31l16 -3l14 -9l9 -14l3 -41l-3 -16l-9 -13l-14 -9l-16 -4h-31v-277l-4 -16l-9 -14l-13 -9l-41 -3l-16 3l-14 9l-9 14l-3 16v277h-32l-16 4l-13 9l-10 13z" />
    <glyph glyph-name="u" unicode="u" horiz-adv-x="491" 
d="M56 386l3 16l9 14l13 9l17 3l40 -3l14 -9l9 -14l3 -16v-236l14 -28l28 -13h29l38 19l53 35v223l3 16l15 17l8 6l16 3l41 -3l13 -9l9 -14l3 -16v-344l-3 -16l-9 -14l-13 -9l-17 -3l-40 3l-14 9l-9 14l-3 13l-13 -10l-49 -25l-19 -4h-74l-18 4l-50 25l-13 10l-8 14l-26 87
v246z" />
    <glyph glyph-name="v" unicode="v" horiz-adv-x="393" 
d="M7 386l3 16l9 13l13 10l41 3l16 -3l14 -9l9 -14l84 -202l84 202l9 14l14 9l41 3l16 -3l13 -10l9 -13l3 -17l-3 -16l-147 -344l-10 -13l-12 -9l-16 -3l-17 3l-13 9l-10 13l-147 345z" />
    <glyph glyph-name="w" unicode="w" horiz-adv-x="590" 
d="M32 387l3 15l9 14l16 10l38 2l17 -3l14 -10l9 -15l59 -161l60 165l10 13l14 8l12 3l16 -3l14 -8l10 -13l60 -165l59 161l9 15l14 10l17 3l38 -2l14 -9l11 -15l3 -14l-2 -16l-123 -344l-9 -14l-13 -10l-20 -4l-15 4l-14 10l-8 14l-59 161l-59 -161l-8 -14l-14 -10l-15 -4
l-17 3l-14 8l-11 17l-123 344z" />
    <glyph glyph-name="x" unicode="x" horiz-adv-x="441" 
d="M31 388l5 19l11 12l9 6l41 3l19 -4l14 -12l90 -114l90 114l14 12l19 4h24l17 -3l13 -9l7 -9l5 -16l-3 -21l-120 -156l120 -156l3 -21l-5 -16l-7 -9l-13 -9l-17 -3h-24l-19 4l-14 12l-90 114l-90 -114l-14 -12l-19 -4h-24l-17 3l-13 9l-7 9l-5 16l3 21l120 156l-114 146
l-8 15z" />
    <glyph glyph-name="y" unicode="y" horiz-adv-x="393" 
d="M7 386l3 16l9 13l13 10l41 3l16 -3l14 -9l9 -14l84 -202l84 202l9 14l14 9l41 3l16 -3l13 -9l9 -14l3 -17l-3 -16l-221 -516l-9 -13l-14 -9l-40 -3l-16 3l-14 9l-9 15l-3 16l3 15l80 181l-129 303z" />
    <glyph glyph-name="z" unicode="z" horiz-adv-x="441" 
d="M31 386l3 16l9 14l13 9l17 3h294l17 -3l13 -9l7 -9l5 -16l-1 -16l-7 -15l-194 -251h160l17 -4l13 -9l9 -13l3 -16l-3 -41l-9 -14l-13 -9l-17 -3h-294l-17 3l-13 9l-9 14l-3 11l1 16l7 15l194 251h-160l-17 4l-13 9l-9 13z" />
    <glyph glyph-name="degree" unicode="&#xb0;" horiz-adv-x="343" 
d="M31 486l4 16l25 50l13 16l67 32h62l61 -29l16 -14l28 -55l4 -14v-57l-4 -14l-25 -50l-13 -16l-55 -28l-14 -3h-58l-14 3l-49 25l-16 14l-28 55l-4 14v55zM171 509l-19 -5l-25 -25l-5 -19l5 -20l25 -24l19 -5l19 5l25 24l5 20l-5 19l-25 25z" />
    <glyph glyph-name="glyph78" unicode="&#x2018;" horiz-adv-x="270" 
d="M56 484l4 16l25 52l16 17l52 27l16 4l16 -2l15 -8l10 -13l4 -16l-2 -16l-8 -15l-13 -10l-32 -15l-1 -5l19 -11l25 -24l9 -14l3 -40l-3 -17l-9 -13l-25 -25l-13 -9l-41 -3l-16 3l-14 9l-24 25l-9 13l-4 17v73z" />
    <glyph glyph-name="glyph79" unicode="&#x2019;" horiz-adv-x="270" 
d="M214 509v-49l-3 -16l-34 -63l-60 -33l-16 -4l-16 2l-14 8l-10 13l-4 16l2 16l8 15l13 10l32 15l1 5l-20 11l-24 24l-9 14l-4 40l4 17l9 13l24 25l14 9l41 3l16 -3l13 -9l25 -25l9 -13z" />
    <glyph glyph-name="glyph80" unicode="&#x2032;" horiz-adv-x="221" 
d="M56 385v148l3 17l9 13l25 25l13 9l17 3l16 -3l13 -9l25 -25l9 -13l3 -15l-2 -15l-50 -150l-9 -14l-11 -8l-26 -3l-23 11l-9 14z" />
    <glyph glyph-name="glyph81" unicode="&#x2033;" horiz-adv-x="442" 
d="M278 385l-1 148l3 17l10 13l24 25l14 9l16 3l16 -3l14 -9l24 -25l9 -13l3 -15l-2 -15l-50 -150l-9 -14l-11 -8l-26 -3l-22 11l-10 14zM56 385v148l3 17l9 13l25 25l14 9l16 3l16 -3l13 -9l25 -25l9 -13l3 -15l-2 -15l-50 -150l-9 -14l-11 -8l-26 -3l-23 11l-9 14z" />
  </font>
</defs>
</svg>
