<?xml version="1.0" standalone="no"?>
<!DOCTYPE svg PUBLIC "-//W3C//DTD SVG 1.1//EN" "http://www.w3.org/Graphics/SVG/1.1/DTD/svg11.dtd" >
<svg xmlns="http://www.w3.org/2000/svg" xmlns:xlink="http://www.w3.org/1999/xlink" version="1.1">
<metadata>
Created by FontForge 20170731 at Tue Feb 16 23:40:01 2016
 By Aleksey,,,
Made in 2016 by Stewart C. Russell - scruss.com

Licence: Dual-licensed CC0/WTFPL (srsly)

Derived from character stroke coordinates by Allen V. Hershey published in "Calligraphy for Computers" (US Naval Weapons Laboratory, 1967-08-01, NWL Report No. 2101, NTIS accession number AD-662 398) and elsewhere. These coordinates were published without copyright.

The efforts of the Usenet Font Consortium (James Hurt, et al) who reformatted Hershey's data and published it to mod.sources on 1986-04-01 [Volume 4, Issue 42] are greatly appreciated.
</metadata>
<defs>
<font id="AVHersheyComplexMedium" horiz-adv-x="569" >
  <font-face 
    font-family="AVHershey Complex"
    font-weight="500"
    font-stretch="normal"
    units-per-em="1000"
    panose-1="2 0 6 3 0 0 0 0 0 0"
    ascent="800"
    descent="-200"
    x-height="419"
    cap-height="600"
    bbox="-92 -211 831 872"
    underline-thickness="50"
    underline-position="-200"
    unicode-range="U+0020-FB04"
  />
<missing-glyph horiz-adv-x="500" 
d="M50 0v533h400v-533h-400zM100 50h300v433h-300v-433z" />
    <glyph glyph-name=".notdef" horiz-adv-x="500" 
d="M50 0v533h400v-533h-400zM100 50h300v433h-300v-433z" />
    <glyph glyph-name=".null" horiz-adv-x="0" 
 />
    <glyph glyph-name="nonmarkingreturn" horiz-adv-x="333" 
 />
    <glyph glyph-name="space" unicode=" " horiz-adv-x="284" 
 />
    <glyph glyph-name="exclam" unicode="!" horiz-adv-x="261" 
d="M84 74l35 32l11 2l11 -2l9 -6l32 -35l2 -11l-2 -11l-32 -35l-9 -6l-11 -2l-11 2l-9 6l-32 35l-2 11l2 11zM79 533l30 57l8 7l15 3l16 -7l7 -8l26 -52l3 -15l-26 -311l-9 -18l-19 -8l-19 8l-9 18l-26 311z" />
    <glyph glyph-name="quotedbl" unicode="&#x22;" horiz-adv-x="263" 
d="M169 613h47l12 -9l6 -18l-16 -205l-2 -10l-7 -8l-15 -6h-11l-10 6l-8 12l-23 208l1 12l6 10l9 7zM56 613h47l12 -9l6 -18l-16 -205l-2 -10l-7 -8l-15 -6h-11l-10 6l-8 12l-23 208l1 12l6 10l9 7z" />
    <glyph glyph-name="numbersign" unicode="#" horiz-adv-x="543" 
d="M75 -147l63 251l-72 2l-9 6l-6 9l-2 11l2 10l6 9l9 6l11 3h75l25 99l-85 2l-9 6l-6 9l-2 11l2 11l6 9l9 6l11 2h88l66 264l4 10l8 7l11 4l11 -1l10 -5l7 -8l4 -10l-1 -11l-62 -250h97l66 264l5 10l8 7l10 4l11 -1l10 -5l7 -8l4 -10l-1 -11l-62 -250l72 -2l9 -6l6 -9
l2 -11l-2 -11l-6 -9l-9 -6l-11 -2h-75l-25 -99l85 -3l9 -6l6 -9l2 -10l-2 -11l-6 -9l-9 -6l-11 -2h-88l-66 -264l-5 -10l-8 -7l-10 -4l-11 1l-10 4l-7 8l-4 11l1 10l62 251h-97l-66 -264l-5 -10l-8 -7l-10 -4l-11 1l-10 4l-7 8l-4 11v10zM235 259l-25 -99h97l25 99h-97z" />
    <glyph glyph-name="dollar" unicode="$" horiz-adv-x="517" 
d="M49 442v52l2 11l6 9l52 52l11 7l58 19l2 94l6 9l9 6l11 3l11 -3l9 -6l6 -9l2 -86h48l2 86l6 9l9 6l11 3l11 -3l9 -6l6 -9l2 -10v-84l58 -19l11 -7l58 -61l2 -37l-2 -10l-6 -9l-35 -32l-11 -3l-10 3l-35 32l-6 9l-2 10l2 11l6 9l19 19l-15 15l-34 11v-191l62 -30l38 -38
l27 -54l2 -11v-103l-2 -11l-6 -9l-52 -52l-11 -7l-58 -19v-84l-2 -10l-6 -9l-9 -6l-11 -3l-11 3l-9 6l-6 9l-2 86h-48l-2 -86l-6 -9l-9 -6l-11 -3l-11 3l-9 6l-6 9l-2 10v84l-58 19l-11 7l-58 61l-2 37l2 10l6 9l35 32l11 3l10 -3l35 -32l6 -9l2 -10l-2 -11l-6 -9l-19 -19
l15 -15l34 -11v243l-62 30l-33 31l-31 59zM105 454l40 -40l33 -17v136l-34 -11l-39 -39v-29zM234 544v-168l48 -16v184h-48zM234 56h48v220l-48 15v-235zM338 255v-188l34 11l39 39v81l-40 40z" />
    <glyph glyph-name="percent" unicode="%" horiz-adv-x="621" 
d="M375 208l54 27l62 2l11 -2l9 -6l52 -52l6 -9l2 -10v-52l-3 -13l-31 -59l-59 -31l-13 -3h-51l-11 2l-9 6l-52 52l-6 9l-2 11v52l3 12l26 52zM446 181l-37 -18l-19 -38v-34l35 -35h34l37 19l19 37v34l-35 35h-34zM56 46l390 455l-32 -9h-78l-50 15v-39l-3 -12l-31 -59
l-59 -31l-13 -3h-51l-11 2l-9 6l-58 61l-2 62l3 13l31 59l59 31l13 3h51l11 -2l52 -26l71 -24h69l72 24l50 25l10 3l11 -1l9 -6l7 -8l3 -11l-1 -11l-6 -9l-466 -544l-8 -7l-11 -3l-11 1l-9 6l-7 8l-3 11l1 11zM195 544h-34l-37 -19l-19 -37v-34l35 -35h34l37 18l19 38v34z
" />
    <glyph glyph-name="ampersand" unicode="&#x26;" horiz-adv-x="647" 
d="M287 328l99 -136l53 131l27 54l31 33l10 7l10 2l37 -2l35 -32l6 -10l2 -10v-26l-2 -11l-6 -9l-26 -26l-9 -6l-11 -2l-11 2l-9 6l-24 24l-59 -144l-19 -29l14 -20l47 -47l42 -21h8l9 10l2 25l6 9l9 6l11 2l11 -2l9 -6l6 -9l2 -11l-2 -37l-32 -35l-9 -6l-11 -2h-28l-84 27
l-11 7l-45 45l-52 -50l-52 -26l-13 -3h-80l-94 33l-32 60l-3 13v77l3 13l26 52l9 11l108 72l-15 25l-26 78l-2 60l3 13l32 59l59 31l12 3l13 -3l59 -31l31 -59l3 -13v-52l-3 -12l-31 -59zM150 75l37 -19h65l41 21l47 47l-113 160l-29 -19l-46 -46l-21 -42v-65zM208 449
l22 -44l23 -31l34 33l21 42v39l-19 37l-31 16l-31 -16l-19 -37v-39z" />
    <glyph glyph-name="quotesingle" unicode="'" horiz-adv-x="150" 
d="M56 613h47l12 -9l6 -18l-16 -205l-2 -10l-7 -8l-15 -6h-11l-10 6l-8 12l-23 208l1 12l6 10l9 7z" />
    <glyph glyph-name="parenleft" unicode="(" horiz-adv-x="363" 
d="M256 607l-49 -98l-25 -74l-25 -125v-98l25 -125l25 -74l49 -98l54 -58l3 -10l-3 -11l-6 -9l-9 -6l-10 -2l-11 2l-9 6l-52 52l-57 85l-54 110l-27 135l1 109l28 137l52 104l54 80l55 56l9 6l11 3l10 -3l9 -6l6 -9l3 -10l-3 -11z" />
    <glyph glyph-name="parenright" unicode=")" horiz-adv-x="363" 
d="M106 607l-54 58l-3 11l3 10l6 9l9 6l10 3l11 -3l9 -6l55 -56l54 -80l52 -104l28 -137l1 -109l-27 -135l-54 -110l-57 -85l-52 -52l-9 -6l-11 -2l-10 2l-9 6l-6 9l-3 11l3 10l54 58l49 98l25 74l25 125v98l-25 125l-25 74z" />
    <glyph glyph-name="asterisk" unicode="*" horiz-adv-x="413" 
d="M62 363l90 54l-98 61l-5 9v11l3 11l8 8l10 4l11 1l97 -56v106l2 11l6 9l9 6l11 2l11 -2l9 -6l6 -9l2 -117l97 56l11 -1l10 -4l8 -8l3 -11v-11l-5 -9l-98 -61l98 -61l5 -10v-11l-3 -11l-8 -8l-10 -4l-11 -1l-97 56v-106l-2 -11l-6 -9l-9 -6l-11 -2l-11 2l-9 6l-6 9l-2 117
l-97 -56l-11 1l-10 4l-8 8l-3 11v11l5 10z" />
    <glyph glyph-name="plus" unicode="+" horiz-adv-x="673" 
d="M308 289v205l2 11l6 9l9 6l11 2l11 -2l9 -6l6 -9l2 -11v-205h205l11 -2l9 -6l6 -9l2 -11l-2 -11l-6 -9l-9 -6l-11 -2h-205v-205l-2 -11l-6 -9l-9 -6l-11 -2l-11 2l-9 6l-6 9l-2 11v205h-205l-11 2l-9 6l-6 9l-2 11l2 11l6 9l9 6l11 2h205z" />
    <glyph glyph-name="comma" unicode="," horiz-adv-x="261" 
d="M124 1l-14 7l-26 26l-6 9l-2 11l2 11l6 9l26 26l9 6l11 2l11 -2l9 -6l32 -35l2 -63l-3 -12l-31 -60l-35 -31l-11 -3l-11 3l-9 6l-6 9l-2 10l2 11l29 32z" />
    <glyph glyph-name="hyphen" unicode="-" horiz-adv-x="673" 
d="M569 233h-466l-11 2l-9 6l-6 9l-2 11l2 11l6 9l9 6l11 2h466l11 -2l9 -6l6 -9l2 -11l-2 -11l-6 -9l-9 -6z" />
    <glyph glyph-name="period" unicode="." horiz-adv-x="261" 
d="M84 74l35 32l11 2l11 -2l9 -6l32 -35l2 -11l-2 -11l-32 -35l-9 -6l-11 -2l-11 2l-9 6l-32 35l-2 11l2 11z" />
    <glyph glyph-name="slash" unicode="/" horiz-adv-x="571" 
d="M27 -140l467 829l7 9l10 5h10l11 -3l8 -7l5 -10l1 -11l-3 -10l-467 -829l-7 -8l-10 -5l-10 -1l-11 3l-8 7l-5 10l-1 11z" />
    <glyph glyph-name="zero" unicode="0" horiz-adv-x="518" 
d="M147 573l84 27h54l86 -27l15 -11l56 -88l26 -130v-83l-26 -135l-4 -10l-58 -84l-86 -31l-63 -1l-93 32l-58 84l-4 10l-26 130v88l30 140l52 78zM278 56l42 21l20 19l22 45l24 123v72l-24 123l-22 45l-20 19l-42 21h-38l-42 -21l-20 -19l-22 -45l-24 -123v-72l24 -123
l22 -45l20 -19l42 -21h38z" />
    <glyph glyph-name="one" unicode="1" horiz-adv-x="519" 
d="M220 469l-63 -29l-10 2l-10 5l-7 9l-3 10l2 11l5 10l57 30l74 75l9 6l11 2l11 -2l9 -6l6 -9l2 -11v-516l86 -2l9 -6l6 -9l3 -11l-3 -11l-6 -9l-9 -6l-10 -2h-234l-10 2l-9 6l-6 9l-3 11l3 11l6 9l9 6l86 2v422z" />
    <glyph glyph-name="two" unicode="2" horiz-adv-x="517" 
d="M49 80l1 35l26 77l7 11l59 57l154 77l70 47l19 39v39l-20 42l-20 19l-42 21h-92l-67 -22l-18 -18l-7 -14l35 -37l2 -11l-2 -10l-32 -35l-9 -6l-10 -2l-11 2l-35 32l-6 9l-2 10l3 39l31 59l26 26l11 7l86 27h106l84 -27l11 -7l31 -33l26 -52l3 -13v-51l-3 -13l-26 -52
l-9 -11l-83 -54l-128 -51l-47 -24l-44 -44l-11 -34l49 -2l124 -50h66l42 21l14 14v41l2 10l7 9l9 6l10 3l11 -3l9 -6l6 -9l2 -62l-3 -13l-31 -59l-35 -32l-114 -2l-15 4l-122 74h-33l-9 -10l-2 -51l-7 -9l-9 -6l-10 -2l-11 2l-9 6l-6 9z" />
    <glyph glyph-name="three" unicode="3" horiz-adv-x="517" 
d="M119 490l35 -37l2 -11l-2 -10l-32 -35l-9 -6l-10 -2l-11 2l-35 32l-6 9l-2 36l3 13l26 52l31 33l11 7l86 27h106l84 -27l10 -6l7 -8l25 -52l3 -13v-77l-3 -13l-25 -52l-7 -8l-25 -11l52 -52l31 -59l3 -13v-77l-3 -13l-26 -52l-31 -33l-11 -7l-84 -27h-106l-86 27l-11 7
l-31 33l-26 52l-3 39l2 10l6 9l35 32l11 2l10 -2l9 -6l32 -35l2 -10l-2 -11l-35 -37l7 -14l18 -18l67 -22h92l42 21l20 19l20 42v67l-22 67l-18 18l-42 21l-82 2l-9 6l-6 9l-2 11l2 11l6 9l9 6l82 2l38 19l19 37v65l-19 37l-38 19h-92l-67 -22l-18 -18z" />
    <glyph glyph-name="four" unicode="4" horiz-adv-x="517" 
d="M28 200l285 389l8 7l10 4l11 -1l10 -4l8 -8l4 -15v-361l112 -2l9 -6l6 -9l2 -11l-2 -10l-6 -9l-9 -6l-112 -3v-99h49l11 -2l9 -6l6 -9l2 -11l-2 -11l-6 -9l-9 -6l-11 -2h-181l-11 2l-9 6l-6 9l-2 11l2 11l6 9l9 6l11 2h50v99h-231l-19 8l-6 8l-2 20zM282 451l-176 -240
h176v240z" />
    <glyph glyph-name="five" unicode="5" horiz-adv-x="518" 
d="M49 310l52 267l4 11l8 7l15 5h260l10 -2l13 -10l5 -16l-3 -11l-6 -9l-14 -7l-130 -26l-117 -1l-25 -126l76 25l89 2l84 -28l11 -6l52 -52l7 -11l26 -78v-69l-26 -78l-7 -11l-52 -52l-11 -7l-84 -27l-89 1l-77 26l-11 7l-31 33l-26 52l-3 13v26l2 10l6 9l35 32l11 2l10 -2
l9 -6l32 -35l2 -10l-2 -11l-35 -37l7 -14l18 -18l67 -22h66l42 21l44 44l22 67v43l-22 67l-44 44l-42 21h-66l-67 -23l-57 -53l-16 -2l-10 5l-8 7z" />
    <glyph glyph-name="six" unicode="6" horiz-adv-x="518" 
d="M131 329l29 30l11 6l87 28l35 -2l77 -26l11 -6l52 -52l7 -11l26 -78v-43l-26 -78l-7 -11l-52 -52l-11 -7l-84 -27l-63 1l-77 26l-11 7l-52 52l-7 11l-27 86l1 163l25 103l34 65l51 52l11 7l85 27h80l12 -3l59 -31l31 -59l3 -39l-2 -10l-6 -9l-26 -26l-9 -6l-10 -3l-11 3
l-9 6l-32 35l-2 10l2 11l35 37l-4 9l-38 19h-64l-42 -21l-46 -45l-22 -45zM277 56l42 21l44 44l22 67v17l-22 67l-44 44l-42 21h-14l-68 -23l-42 -42l-22 -67v-17l22 -67l44 -44l42 -21h38z" />
    <glyph glyph-name="seven" unicode="7" horiz-adv-x="517" 
d="M49 417v155l2 11l6 9l9 6l11 2l10 -2l9 -6l7 -9l2 -21l39 36l62 2l15 -4l122 -74h33l14 15l24 48l15 13l10 2l11 -2l9 -6l6 -9l2 -89l-28 -88l-105 -134l-24 -48l-24 -71v-125l-2 -11l-6 -9l-9 -6l-11 -2l-13 4l-13 -4l-11 2l-9 6l-6 9l-2 11l2 138l25 78l28 56l130 132
l13 39l-14 -5l-63 2l-124 50h-40l-38 -19l-18 -37v-45l-2 -11l-7 -9l-9 -6l-10 -2l-11 2l-9 6l-6 9z" />
    <glyph glyph-name="eight" unicode="8" horiz-adv-x="517" 
d="M119 339l-16 13l-25 52l-3 13v77l3 13l32 60l94 33h106l86 -27l10 -6l32 -60l3 -13v-77l-3 -13l-25 -52l-16 -13l10 -6l31 -33l26 -52l3 -13v-103l-3 -13l-31 -59l-26 -26l-11 -7l-84 -27h-108l-84 27l-11 7l-31 33l-26 52l-3 13v103l3 13l26 52l31 33zM213 367h90l38 19
l19 37v65l-19 37l-38 19h-90l-38 -19l-19 -37v-65l19 -37zM303 311h-90l-42 -21l-20 -20l-20 -41v-91l20 -42l20 -19l42 -21h90l42 21l20 19l20 42v91l-20 41l-20 20z" />
    <glyph glyph-name="nine" unicode="9" horiz-adv-x="518" 
d="M146 84l4 -9l38 -19h64l42 21l46 45l22 45l24 104l-29 -30l-11 -6l-87 -28l-35 2l-77 26l-11 6l-52 52l-7 11l-26 78v43l26 78l7 11l52 52l11 7l77 26l63 1l84 -27l11 -7l52 -52l7 -11l27 -86v-156l-29 -116l-31 -59l-51 -52l-11 -7l-78 -26l-87 -1l-12 3l-59 31l-31 59
l-3 39l2 10l6 9l35 32l10 3l11 -3l35 -32l6 -9l2 -10l-2 -11zM240 263h14l68 23l42 42l22 67v17l-22 67l-44 44l-42 21h-38l-42 -21l-44 -44l-22 -67v-17l22 -67l44 -44z" />
    <glyph glyph-name="colon" unicode=":" horiz-adv-x="261" 
d="M84 385l35 32l11 2l11 -2l9 -7l32 -35l2 -10l-2 -11l-32 -35l-9 -6l-11 -2l-11 2l-35 32l-6 9l-2 11l2 10zM84 74l35 32l11 2l11 -2l9 -6l32 -35l2 -11l-2 -11l-32 -35l-9 -6l-11 -2l-11 2l-9 6l-32 35l-2 11l2 11z" />
    <glyph glyph-name="semicolon" unicode=";" horiz-adv-x="261" 
d="M84 385l35 32l11 2l11 -2l9 -7l32 -35l2 -10l-2 -11l-32 -35l-9 -6l-11 -2l-11 2l-35 32l-6 9l-2 11l2 10zM124 1l-14 7l-26 26l-6 9l-2 11l2 11l6 9l26 26l9 6l11 2l11 -2l9 -6l32 -35l2 -63l-3 -12l-31 -60l-35 -31l-11 -3l-11 3l-9 6l-6 9l-2 10l2 11l29 32z" />
    <glyph glyph-name="less" unicode="&#x3c;" horiz-adv-x="622" 
d="M90 286l415 233l10 3l11 -1l10 -5l7 -8l3 -10l-1 -11l-5 -10l-8 -7l-371 -209l371 -209l8 -7l5 -9l1 -11l-3 -11l-7 -8l-10 -5l-11 -1l-10 4l-415 233l-9 8l-5 10v12l5 11z" />
    <glyph glyph-name="equal" unicode="=" horiz-adv-x="673" 
d="M569 311h-466l-11 2l-9 6l-6 9l-2 11l2 11l6 9l9 6l11 2h466l11 -2l9 -6l6 -9l2 -11l-2 -11l-6 -9l-9 -6zM569 155h-466l-11 3l-9 6l-6 9l-2 10l2 11l6 9l9 6l11 2h466l11 -2l9 -6l6 -9l2 -11l-2 -10l-6 -9l-9 -6z" />
    <glyph glyph-name="greater" unicode="&#x3e;" horiz-adv-x="622" 
d="M460 261l-371 209l-8 7l-5 10l-1 11l3 10l7 8l10 5l11 1l10 -3l415 -233l9 -8l5 -11v-12l-5 -10l-9 -8l-415 -233l-10 -4l-11 1l-10 5l-7 8l-3 11l1 11l5 9l8 7z" />
    <glyph glyph-name="question" unicode="?" horiz-adv-x="465" 
d="M119 490l35 -37l2 -11l-2 -10l-6 -9l-35 -32l-11 -2l-10 2l-35 32l-6 9l-2 10l3 39l31 59l33 31l52 26l12 3h78l86 -27l11 -7l32 -33l25 -52l3 -13v-51l-3 -13l-25 -52l-39 -38l-88 -44l-2 -71l-6 -9l-9 -7l-11 -2l-11 2l-9 7l-6 9l-2 10l2 88l13 15l48 24l46 45l21 42
v39l-21 42l-20 19l-42 21h-64l-42 -21l-20 -19zM186 74l35 32l11 2l11 -2l9 -6l32 -35l2 -11l-2 -11l-32 -35l-9 -6l-11 -2l-11 2l-9 6l-32 35l-2 11l2 11z" />
    <glyph glyph-name="at" unicode="@" horiz-adv-x="700" 
d="M554 132l9 -6l6 -10l2 -10l-2 -11l-32 -35l-59 -31l-81 -28h-96l-81 28l-59 31l-57 59l-28 56l-27 86l1 87l28 81l31 59l59 57l56 28l86 27l87 -1l81 -28l59 -31l57 -59l28 -56l27 -86l-1 -61l-26 -78l-7 -10zM298 468l12 2h78l12 -2l39 -20l9 17l10 4l11 1l10 -3l16 3
l10 -3l9 -7l4 -10l1 -11l-25 -206v-38l9 -9h29l39 38l22 68v42l-24 72l-23 46l-45 45l-46 23l-72 24h-68l-72 -24l-46 -23l-45 -45l-23 -46l-24 -72v-68l24 -72l23 -46l45 -45l46 -23l72 -24h68l72 24l46 23l28 27l-48 2l-54 27l-53 -27l-12 -2l-89 2l-60 32l-32 59l-3 12
l2 87l26 78l7 10l25 26zM322 414l-39 -38l-23 -68v-66l21 -42l15 -14h59l38 18l19 39l17 132l-10 21l-38 18h-59z" />
    <glyph glyph-name="A" unicode="A" horiz-adv-x="617" 
d="M107 56l175 525l6 9l8 7l11 3l11 -1l12 -9l6 -9l175 -525h31l11 -2l9 -6l6 -9l2 -11l-2 -11l-6 -9l-9 -6l-11 -2h-155l-11 2l-9 6l-6 9l-2 11l2 11l6 9l9 6l11 2h39l-34 99h-192l-33 -99h64l11 -2l9 -6l6 -9l2 -11l-2 -11l-6 -9l-9 -6l-166 -2l-11 2l-9 6l-6 9l-2 11
l2 11l6 9l9 6l11 2h31zM296 445l-78 -234h156z" />
    <glyph glyph-name="B" unicode="B" 
d="M101 544l-61 2l-9 6l-6 9l-2 11l2 11l6 9l9 6l11 2h313l84 -27l11 -7l31 -33l26 -52l3 -13v-51l-3 -13l-26 -52l-31 -33l-10 -6l10 -6l26 -26l31 -59l3 -13v-77l-3 -13l-26 -52l-31 -33l-11 -7l-84 -27h-313l-11 2l-9 6l-6 9l-2 11l2 11l6 9l9 6l11 2h50v488zM182 544
v-203h173l42 21l19 19l21 42v39l-21 42l-19 19l-42 21h-173zM182 56h173l42 21l19 19l21 42v65l-21 42l-19 19l-42 21h-173v-229z" />
    <glyph glyph-name="C" unicode="C" horiz-adv-x="543" 
d="M254 599h65l77 -26l11 -7l20 -20l12 35l5 10l9 6l11 3l11 -2l10 -6l6 -9l2 -11v-155l-2 -11l-6 -10l-10 -6l-11 -1l-11 2l-9 7l-29 81l-43 43l-67 22h-40l-42 -21l-46 -45l-22 -46l-24 -72v-120l24 -72l22 -46l46 -45l42 -21h40l67 22l44 44l31 57l9 5l11 1l11 -2l8 -7
l6 -10l1 -10l-3 -11l-26 -52l-57 -59l-11 -7l-86 -27l-61 1l-77 26l-11 7l-57 59l-28 56l-27 86l1 139l26 77l28 56l57 59l11 7z" />
    <glyph glyph-name="D" unicode="D" 
d="M101 544l-61 2l-9 6l-6 9l-2 11l2 11l6 9l9 6l11 2h261l84 -27l11 -7l57 -59l28 -56l26 -77l1 -139l-27 -86l-28 -56l-57 -59l-11 -7l-86 -27h-259l-11 2l-9 6l-6 9l-2 11l2 11l6 9l9 6l61 2v488zM182 544v-488h121l42 21l46 45l22 46l24 72v120l-24 72l-22 46l-46 45
l-42 21h-121z" />
    <glyph glyph-name="E" unicode="E" horiz-adv-x="543" 
d="M101 544l-61 2l-9 6l-6 9l-2 11l2 11l6 9l9 6l11 2h414l11 -2l9 -6l6 -9l2 -11v-155l-7 -19l-18 -9l-20 5l-10 18l-22 132h-234v-203h100l2 86l6 9l9 6l11 3l11 -3l9 -6l6 -9l2 -10v-208l-2 -10l-6 -9l-9 -7l-11 -2l-11 2l-9 7l-6 9l-2 10v76h-100v-229h234l22 132l10 18
l20 5l18 -9l7 -19v-155l-2 -11l-6 -9l-9 -6l-11 -2h-414l-11 2l-9 6l-6 9l-2 11l2 11l6 9l9 6l11 2h50v488z" />
    <glyph glyph-name="F" unicode="F" horiz-adv-x="517" 
d="M101 544l-61 2l-9 6l-6 9l-2 11l2 11l6 9l9 6l11 2h414l11 -2l9 -6l6 -9l2 -166l-7 -19l-18 -9l-20 5l-10 18l-22 132h-234v-203h100v76l2 10l6 9l9 6l11 3l11 -3l9 -6l6 -9l2 -10v-208l-2 -10l-6 -9l-9 -7l-11 -2l-11 2l-9 7l-6 9l-2 86h-100v-229h50l11 -2l9 -6l6 -9
l2 -11l-2 -11l-6 -9l-9 -6l-11 -2h-181l-11 2l-9 6l-6 9l-2 11l2 11l6 9l9 6l61 2v488z" />
    <glyph glyph-name="G" unicode="G" horiz-adv-x="595" 
d="M254 599h65l77 -26l11 -7l20 -20l17 45l9 6l11 3l11 -2l10 -6l6 -9l2 -11v-155l-2 -11l-6 -10l-10 -6l-11 -1l-11 2l-9 7l-29 81l-43 43l-67 22h-40l-42 -21l-46 -45l-22 -46l-24 -72v-120l24 -72l22 -46l46 -45l42 -21h40l67 22l39 39v90h-49l-11 2l-9 6l-6 10l-2 10
l2 11l6 9l9 6l11 2h181l11 -2l9 -6l6 -9l2 -11l-2 -10l-6 -10l-9 -6l-11 -2h-50v-179l-2 -11l-6 -9l-9 -6l-11 -2l-13 4l-13 -4l-10 2l-9 6l-6 9l-3 21l-15 -11l-86 -27h-54l-84 27l-11 7l-52 52l-33 63l-27 86v130l27 86l33 63l52 52l11 7z" />
    <glyph glyph-name="H" unicode="H" horiz-adv-x="621" 
d="M101 544l-61 2l-9 6l-6 9l-2 11l2 11l6 9l9 6l11 2h181l11 -2l9 -6l6 -9l2 -11l-2 -11l-6 -9l-9 -6l-60 -2v-203h254v203l-60 2l-9 6l-6 9l-2 11l2 11l6 9l9 6l11 2h181l11 -2l9 -6l6 -9l2 -11l-2 -11l-6 -9l-9 -6l-11 -2h-50v-488h50l11 -2l9 -6l6 -9l2 -11l-2 -11
l-6 -9l-9 -6l-11 -2h-181l-11 2l-9 6l-6 9l-2 11l2 11l6 9l9 6l60 2v229h-254v-229l60 -2l9 -6l6 -9l2 -11l-2 -11l-6 -9l-9 -6l-11 -2h-181l-11 2l-9 6l-6 9l-2 11l2 11l6 9l9 6l11 2h50v488z" />
    <glyph glyph-name="I" unicode="I" horiz-adv-x="286" 
d="M102 544l-60 2l-10 6l-6 9l-2 11l2 11l6 9l10 6l10 2h182l10 -2l9 -6l6 -9l3 -11l-3 -11l-6 -9l-9 -6l-60 -2v-488h50l10 -2l9 -6l6 -9l3 -11l-3 -11l-6 -9l-9 -6l-10 -2h-182l-10 2l-10 6l-6 9l-2 11l2 11l6 9l10 6l60 2v488z" />
    <glyph glyph-name="J" unicode="J" horiz-adv-x="388" 
d="M83 105l15 -30l38 -19h33l13 13l23 67v408l-61 2l-9 6l-6 9l-2 11l2 11l6 9l9 6l11 2h181l11 -2l9 -6l6 -9l2 -11l-2 -11l-6 -9l-9 -6l-11 -2h-49v-412l-28 -87l-5 -9l-9 -7l-53 -27l-11 -2h-52l-12 3l-59 31l-32 59l-3 13v52l3 10l6 9l26 26l9 6l10 2l11 -2l9 -6l26 -26
l6 -9l2 -10l-2 -11l-6 -9l-26 -26z" />
    <glyph glyph-name="K" unicode="K" 
d="M101 544l-61 2l-9 6l-6 9l-2 11l2 11l6 9l9 6l11 2h181l11 -2l9 -6l6 -9l2 -11l-2 -11l-6 -9l-9 -6l-60 -2v-241l241 241h-36l-11 2l-9 6l-6 9l-2 11l2 11l6 9l9 6l11 2h155l11 -2l9 -6l6 -9l2 -11l-2 -11l-6 -9l-9 -6l-11 -2h-40l-193 -193l196 -295h37l11 -2l9 -6l6 -9
l2 -11l-2 -11l-6 -9l-9 -6l-11 -2h-155l-11 2l-9 6l-6 9l-2 11l2 11l6 9l9 6l11 2h25l-159 239l-71 -71v-168h49l11 -2l9 -6l6 -9l2 -11l-2 -11l-6 -9l-9 -6l-11 -2h-181l-11 2l-9 6l-6 9l-2 11l2 11l6 9l9 6l11 2h50v488z" />
    <glyph glyph-name="L" unicode="L" horiz-adv-x="465" 
d="M100 544l-60 2l-9 6l-6 9l-2 11l2 11l6 9l9 6l11 2h181l11 -2l9 -6l6 -9l2 -11l-2 -11l-6 -9l-9 -6l-61 -2v-488h208l22 132l10 18l20 5l18 -9l7 -19v-155l-2 -11l-6 -9l-9 -6l-11 -2h-388l-11 2l-9 6l-6 9l-2 11l2 11l6 9l9 6l60 2v488z" />
    <glyph glyph-name="M" unicode="M" horiz-adv-x="648" 
d="M101 544l-61 2l-9 6l-6 9l-2 11l2 11l6 9l9 6l11 2h104l12 -3l13 -14l143 -428l142 426l5 9l9 7l12 3h104l11 -2l9 -6l6 -9l2 -11l-2 -11l-6 -9l-9 -6l-11 -2h-50v-488h50l11 -2l9 -6l6 -9l2 -11l-2 -11l-6 -9l-9 -6l-11 -2h-181l-11 2l-9 6l-6 9l-2 11l2 11l6 9l9 6
l60 2v343l-128 -384l-7 -8l-16 -7l-11 1l-9 6l-9 12l-126 380v-343l60 -2l9 -6l6 -9l2 -11l-2 -11l-6 -9l-9 -6l-11 -2h-155l-11 2l-9 6l-6 9l-2 11l2 11l6 9l9 6l11 2h50v488z" />
    <glyph glyph-name="N" unicode="N" horiz-adv-x="595" 
d="M101 544l-61 2l-9 6l-6 9l-2 11l2 11l6 9l9 6l11 2h103l11 -2l9 -6l263 -415v367l-60 2l-9 6l-6 9l-2 11l2 11l6 9l9 6l11 2h155l11 -2l9 -6l6 -9l2 -11l-2 -11l-6 -9l-9 -6l-11 -2h-50v-516l-5 -16l-8 -8l-10 -4l-11 1l-10 4l-7 8l-285 451v-408l60 -2l9 -6l6 -9l2 -11
l-2 -11l-6 -9l-9 -6l-11 -2h-155l-11 2l-9 6l-6 9l-2 11l2 11l6 9l9 6l11 2h50v488z" />
    <glyph glyph-name="O" unicode="O" 
d="M172 573l84 27h54l86 -27l11 -7l52 -52l33 -65l26 -103l1 -85l-29 -116l-31 -59l-52 -52l-11 -7l-77 -26l-63 -1l-84 27l-11 7l-52 52l-33 65l-26 103v92l26 103l28 58l57 59zM303 56l42 21l46 45l22 45l24 98v70l-24 98l-22 45l-46 45l-42 21h-38l-42 -21l-46 -45
l-22 -45l-24 -98v-70l24 -98l22 -45l46 -45l42 -21h38z" />
    <glyph glyph-name="P" unicode="P" 
d="M101 544l-61 2l-9 6l-6 9l-2 11l2 11l6 9l9 6l11 2h313l84 -27l11 -7l31 -33l26 -52l3 -13v-77l-3 -13l-26 -52l-31 -33l-11 -7l-84 -27h-182v-203h50l11 -2l9 -6l6 -9l2 -11l-2 -11l-6 -9l-9 -6l-11 -2h-181l-11 2l-9 6l-6 9l-2 11l2 11l6 9l9 6l61 2v488zM182 544v-229
h173l42 21l19 19l21 42v65l-21 42l-19 19l-42 21h-173z" />
    <glyph glyph-name="Q" unicode="Q" 
d="M311 600l85 -27l11 -7l52 -52l33 -65l26 -103v-92l-26 -103l-33 -65l-51 -51l6 -23l23 -45l14 -15l12 10l2 25l6 9l10 6l10 2l11 -2l9 -6l6 -9l2 -11l-2 -36l-27 -54l-15 -14l-61 -2l-11 3l-35 32l-8 15l-13 91l-35 -11h-56l-84 27l-11 7l-57 59l-28 58l-26 103v92
l26 103l33 65l52 52l11 7l84 27h55zM167 142l19 35l60 31l12 3l39 -3l59 -31l31 -59l26 49l24 98v70l-24 98l-22 45l-46 45l-42 21h-38l-42 -21l-46 -45l-22 -45l-24 -98v-70l24 -98zM338 73l-3 24l-20 40l-38 18h-12l-38 -18l-19 -38v-8l15 -14l42 -21h38z" />
    <glyph glyph-name="R" unicode="R" 
d="M101 544l-61 2l-9 6l-6 9l-2 11l2 11l6 9l9 6l11 2h313l84 -27l11 -7l26 -26l31 -59l3 -13v-51l-3 -13l-26 -52l-31 -33l-11 -7l-73 -24l12 -16l76 -176l17 -14l9 9l2 25l6 10l9 6l11 2l11 -2l9 -6l6 -10l2 -10l-2 -37l-33 -62l-19 -7l-62 2l-35 32l-7 12l-51 179l-21 41
l-38 19h-95v-229h50l11 -2l9 -6l6 -9l2 -11l-2 -11l-6 -9l-9 -6l-11 -2h-181l-11 2l-9 6l-6 9l-2 11l2 11l6 9l9 6l11 2h50v488zM182 544v-203h173l42 21l19 19l21 42v39l-21 42l-19 19l-42 21h-173z" />
    <glyph glyph-name="S" unicode="S" horiz-adv-x="517" 
d="M51 432l-2 10l2 63l58 61l11 7l77 26l87 1l86 -27l11 -7l20 -20l17 45l9 6l11 3l11 -2l10 -6l6 -9l2 -11v-155l-2 -11l-6 -10l-10 -6l-11 -1l-11 2l-9 7l-29 81l-43 43l-67 22h-68l-67 -22l-39 -39v-29l40 -40l46 -23l157 -53l52 -26l33 -31l31 -59l3 -13v-103l-2 -11
l-6 -9l-52 -52l-11 -7l-77 -26h-96l-77 26l-11 7l-20 20l-17 -45l-9 -6l-11 -3l-11 2l-10 6l-6 9l-2 11v155l2 11l6 10l10 6l11 1l11 -2l9 -7l29 -81l43 -43l67 -22h68l67 22l39 39v81l-40 40l-46 23l-154 51l-55 28l-38 38z" />
    <glyph glyph-name="T" unicode="T" horiz-adv-x="491" 
d="M100 544l-25 -142l-16 -12l-21 1l-13 15l-2 11v155l2 11l6 9l9 6l11 2h388l11 -2l9 -6l6 -9l2 -166l-7 -19l-18 -9l-20 5l-10 18l-22 132h-104v-488h50l10 -2l9 -6l6 -9l3 -11l-3 -11l-6 -9l-9 -6l-10 -2h-182l-10 2l-10 6l-6 9l-2 11l2 11l6 9l10 6l60 2v488h-104z" />
    <glyph glyph-name="U" unicode="U" horiz-adv-x="621" 
d="M101 544l-61 2l-9 6l-6 9l-2 11l2 11l6 9l9 6l11 2h181l11 -2l9 -6l6 -9l2 -11l-2 -11l-6 -9l-9 -6l-60 -2v-356l22 -67l44 -44l42 -21h40l67 22l43 43l22 67v356l-60 2l-9 6l-6 9l-2 11l2 11l6 9l9 6l11 2h155l11 -2l9 -6l6 -9l2 -11l-2 -11l-6 -9l-9 -6l-61 -2l-1 -369
l-26 -78l-7 -11l-52 -52l-11 -7l-77 -26l-63 -1l-84 27l-11 7l-52 52l-7 11l-27 86v361z" />
    <glyph glyph-name="V" unicode="V" horiz-adv-x="517" 
d="M56 544h-31l-11 2l-9 6l-6 9l-2 11l2 11l6 9l9 6l11 2h155l11 -2l9 -6l6 -9l2 -11l-2 -11l-6 -9l-9 -6l-50 -2l130 -389l129 389l-75 2l-9 6l-6 9l-2 11l2 11l6 9l9 6l11 2h155l11 -2l9 -6l6 -9l2 -11l-2 -11l-6 -9l-9 -6l-11 -2h-31l-175 -525l-6 -9l-12 -9l-11 -1
l-11 3l-8 7l-6 9z" />
    <glyph glyph-name="W" unicode="W" horiz-adv-x="623" 
d="M81 544l-66 2l-9 6l-6 9l-2 11l2 11l6 9l9 6l11 2h181l11 -2l9 -6l6 -9l2 -11l-2 -11l-6 -9l-9 -6l-55 -2l57 -301l64 335l4 10l7 7l10 4l19 -3l19 3l10 -4l7 -8l4 -10l63 -334l57 301l-54 2l-9 6l-6 9l-2 11l2 11l6 9l9 6l11 2h155l11 -2l9 -6l6 -9l2 -11l-2 -11l-6 -9
l-9 -6l-66 -2l-99 -522l-4 -10l-8 -7l-10 -4l-11 -1l-10 5l-8 7l-4 10l-76 400l-76 -400l-4 -10l-8 -7l-10 -5l-11 1l-10 4l-8 8l-4 10z" />
    <glyph glyph-name="X" unicode="X" horiz-adv-x="517" 
d="M62 56l156 234l-157 254h-36l-11 2l-9 6l-6 9l-2 11l2 11l6 9l9 6l11 2h155l11 -2l9 -6l6 -9l2 -11l-2 -11l-6 -9l-9 -6l-11 -2h-27l113 -182l121 182h-51l-11 2l-9 6l-6 9l-2 11l2 11l6 9l9 6l11 2h155l11 -2l9 -6l6 -9l2 -11l-2 -11l-6 -9l-9 -6l-11 -2h-37l-156 -234
l157 -254h36l11 -2l9 -6l6 -9l2 -11l-2 -11l-6 -9l-9 -6l-11 -2h-155l-11 2l-9 6l-6 9l-2 11l2 11l6 9l9 6l11 2h27l-113 182l-121 -182h51l11 -2l9 -6l6 -9l2 -11l-2 -11l-6 -9l-9 -6l-11 -2h-155l-11 2l-9 6l-6 9l-2 11l2 11l6 9l9 6l11 2h37z" />
    <glyph glyph-name="Y" unicode="Y" horiz-adv-x="543" 
d="M61 544h-36l-11 2l-9 6l-6 9l-2 11l2 11l6 9l9 6l11 2h155l11 -2l9 -6l6 -9l2 -11l-2 -11l-6 -9l-9 -6l-11 -2h-26l130 -205l130 205l-63 2l-9 6l-6 9l-2 11l2 11l6 9l9 6l11 2h155l11 -2l9 -6l6 -9l2 -11l-2 -11l-6 -9l-9 -6l-47 -2l-169 -265v-223h50l10 -2l9 -6l6 -9
l3 -11l-3 -11l-6 -9l-9 -6l-10 -2h-182l-10 2l-10 6l-6 9l-2 11l2 11l6 9l10 6l60 2v223z" />
    <glyph glyph-name="Z" unicode="Z" horiz-adv-x="517" 
d="M126 544l-25 -142l-16 -12l-21 1l-13 15l-2 11v155l2 11l6 9l9 6l11 2h362l11 -2l12 -10l5 -16l-4 -15l-310 -501h237l22 132l10 18l20 5l18 -9l7 -19v-155l-2 -11l-6 -9l-9 -6l-11 -2h-362l-11 2l-12 10l-5 16l4 15l310 501h-237z" />
    <glyph glyph-name="bracketleft" unicode="[" horiz-adv-x="363" 
d="M75 676l2 10l6 9l10 6l10 3h182l10 -3l9 -6l6 -9l3 -10l-3 -11l-6 -9l-9 -6l-138 -2v-773l138 -2l9 -7l6 -9l3 -10l-3 -11l-6 -9l-9 -6l-10 -2h-182l-10 2l-10 6l-6 9l-2 11v829z" />
    <glyph glyph-name="backslash" unicode="\" horiz-adv-x="571" 
d="M543 -140l3 -10l-1 -11l-5 -10l-8 -7l-11 -3l-10 1l-10 5l-7 8l-467 829l-3 10l1 11l5 10l8 7l11 3h10l10 -5l7 -9z" />
    <glyph glyph-name="bracketright" unicode="]" horiz-adv-x="363" 
d="M205 648l-138 2l-9 6l-6 9l-3 11l3 10l6 9l9 6l10 3h182l10 -3l10 -6l6 -9l2 -10v-829l-2 -11l-6 -9l-10 -6l-10 -2h-182l-10 2l-9 6l-6 9l-3 11l3 10l6 9l9 7l138 2v773z" />
    <glyph glyph-name="asciicircum" unicode="^" horiz-adv-x="570" 
d="M50 416l1 12l12 15l217 133l20 -3l207 -130l12 -15l1 -11l-3 -10l-6 -9l-10 -5l-13 -1l-203 100l-203 -100h-11l-9 5l-8 7z" />
    <glyph glyph-name="underscore" unicode="_" horiz-adv-x="673" 
d="M569 -56h-466l-11 2l-9 6l-6 9l-2 11l2 11l6 9l9 6l11 2h466l11 -2l9 -6l6 -9l2 -11l-2 -11l-6 -9l-9 -6z" />
    <glyph glyph-name="grave" unicode="`" horiz-adv-x="311" 
d="M57 566l35 32l14 2l17 -8l131 -158l5 -9l2 -11l-7 -15l-8 -7l-11 -3l-15 3l-161 133l-7 9l-3 11l2 11z" />
    <glyph glyph-name="a" unicode="a" horiz-adv-x="517" 
d="M155 347l-1 -45l-6 -9l-9 -6l-37 -2l-10 2l-9 6l-6 9l-3 37l3 11l6 9l33 31l52 26l12 3h104l12 -3l52 -26l33 -31l31 -59l3 -13v-175l21 -42l15 -14l25 -2l9 -6l6 -9l2 -11l-2 -11l-6 -9l-9 -6l-11 -2l-36 2l-61 32l-14 24l-32 -29l-52 -26l-12 -3h-80l-94 33l-32 60
l-3 13v52l3 12l32 60l92 33l146 24l12 12v28l-15 15l-42 21h-90zM189 208l-40 -20l-19 -37v-39l19 -37l38 -19h64l42 21l41 40v115z" />
    <glyph glyph-name="b" unicode="b" horiz-adv-x="544" 
d="M101 544l-61 2l-9 6l-6 9l-2 11l2 11l6 9l9 6l11 2h103l11 -2l9 -6l6 -9l2 -11v-191l12 9l52 26l12 3l61 -2l77 -26l11 -6l52 -52l7 -11l26 -78v-69l-26 -78l-7 -11l-52 -52l-11 -7l-86 -27h-52l-12 3l-52 26l-12 9l-2 -21l-6 -9l-9 -6l-11 -2l-12 4l-13 -4l-11 2l-9 6
l-6 9l-2 11v516zM303 56l42 21l44 44l22 67v43l-22 67l-44 44l-42 21h-38l-42 -21l-41 -41v-184l41 -40l42 -21h38z" />
    <glyph glyph-name="c" unicode="c" horiz-adv-x="491" 
d="M228 418l82 1l12 -3l59 -31l52 -52l6 -9l2 -11v-26l-2 -11l-6 -9l-26 -26l-9 -6l-10 -2l-11 2l-9 6l-32 35l-2 11l2 11l25 28l-16 16l-42 21h-64l-42 -21l-44 -44l-22 -67v-43l22 -67l44 -44l42 -21h40l67 22l57 54l10 2l11 -2l9 -6l6 -10l2 -10l-2 -11l-6 -9l-52 -52
l-11 -7l-86 -27l-61 1l-77 26l-11 7l-52 52l-7 11l-27 86l1 61l26 78l7 11l52 52l11 6z" />
    <glyph glyph-name="d" unicode="d" horiz-adv-x="543" 
d="M228 418l56 1l12 -3l52 -26l12 -9v163l-61 2l-9 6l-6 9l-2 11l2 11l6 9l9 6l11 2h103l11 -2l9 -6l6 -9l2 -11v-516h50l11 -2l9 -6l6 -9l2 -11l-2 -11l-6 -9l-9 -6l-11 -2h-103l-11 2l-9 6l-6 9l-2 21l-12 -9l-52 -26l-12 -3h-54l-84 27l-11 7l-52 52l-7 11l-27 86l1 61
l26 78l7 11l52 52l11 6zM360 301l-41 41l-42 21h-38l-42 -21l-44 -44l-22 -67v-43l22 -67l44 -44l42 -21h38l42 21l41 40v184z" />
    <glyph glyph-name="e" unicode="e" horiz-adv-x="491" 
d="M231 418l79 1l12 -3l52 -26l39 -39l25 -51l3 -13l-2 -62l-6 -10l-9 -6l-11 -2h-282v-19l22 -67l44 -44l42 -21h40l67 22l57 54l10 2l11 -2l9 -6l6 -10l2 -10l-2 -11l-58 -61l-11 -7l-86 -27l-61 1l-77 26l-11 7l-52 52l-7 11l-27 86l1 61l26 78l7 11l52 52l11 6zM239 363
l-42 -21l-44 -44l-12 -35h219v43l-19 38l-38 19h-64z" />
    <glyph glyph-name="f" unicode="f" horiz-adv-x="337" 
d="M101 419v75l3 13l31 59l61 32l63 2l10 -2l10 -6l25 -26l6 -9l3 -11l-3 -37l-31 -35l-10 -6l-10 -2l-11 2l-35 32l-6 9l-2 11l5 16l-6 -6l-21 -42v-69l86 -2l10 -7l6 -9l2 -10l-2 -11l-6 -9l-10 -6l-86 -2v-307h50l11 -2l9 -6l6 -9l2 -11l-2 -11l-6 -9l-9 -6l-11 -2h-182
l-10 2l-9 6l-6 9l-3 11l3 11l6 9l9 6l60 2v307l-60 2l-9 6l-6 9l-3 11l3 10l6 9l9 7z" />
    <glyph glyph-name="g" unicode="g" horiz-adv-x="491" 
d="M49 80l3 38l25 52l17 19l-17 34l-3 12v52l3 13l26 51l33 35l68 33h54l12 -3l52 -26l14 -12l13 12l52 26l11 3l11 -2l10 -6l6 -9l2 -11v-26l-2 -11l-6 -9l-9 -6l-11 -2h-40l-3 -4l17 -33l3 -13v-52l-3 -12l-26 -52l-31 -33l-60 -31l-12 -3h-52l-12 3l-52 25l-14 12
l-23 -45v-8l13 -13l67 -22h125l86 -27l10 -6l33 -62l2 -37l-3 -12l-32 -61l-10 -5l-86 -27h-156l-86 27l-10 5l-32 61l-3 12l3 39l26 52l6 8l12 7l-19 39zM175 344l-19 -38v-90l19 -38l38 -18h38l38 18l19 38v90l-19 38l-38 19h-38zM385 -61l-13 13l-67 22h-125l-52 16
l-32 -11l-17 -35v-13l17 -36l63 -20h146l63 20l17 36v8z" />
    <glyph glyph-name="h" unicode="h" 
d="M101 544l-61 2l-9 6l-6 9l-2 11l2 11l6 9l9 6l11 2h103l11 -2l9 -6l6 -9l2 -11v-191l15 10l87 28l61 -2l87 -31l32 -61l3 -12v-257h50l11 -2l9 -6l6 -9l2 -11l-2 -11l-6 -9l-9 -6l-11 -2h-181l-11 2l-9 6l-6 9l-2 11l2 11l6 9l9 6l11 2h50v250l-19 38l-38 19h-40l-68 -23
l-39 -39v-245h50l11 -2l9 -6l6 -9l2 -11l-2 -11l-6 -9l-9 -6l-11 -2h-181l-11 2l-9 6l-6 9l-2 11l2 11l6 9l9 6l11 2h50v488z" />
    <glyph glyph-name="i" unicode="i" horiz-adv-x="286" 
d="M102 363l-60 2l-10 6l-6 9l-2 11l2 10l6 9l10 7l10 2h104l11 -2l9 -7l6 -9l2 -10v-335h50l10 -2l9 -6l6 -9l3 -11l-3 -11l-6 -9l-9 -6l-10 -2h-182l-10 2l-10 6l-6 9l-2 11l2 11l6 9l10 6l60 2v307zM84 566l35 32l11 2l11 -2l9 -6l32 -35l2 -11l-2 -11l-32 -35l-9 -6
l-11 -2l-11 2l-35 32l-6 9l-2 11l2 11z" />
    <glyph glyph-name="j" unicode="j" horiz-adv-x="286" 
d="M101 -117l6 6l21 42v432l-61 2l-9 6l-6 9l-2 11l2 10l6 9l9 7l115 2l11 -2l9 -7l6 -9l2 -10v-467l-3 -12l-31 -59l-59 -31l-13 -3h-52l-10 2l-10 6l-31 35l-3 36l3 11l6 9l25 26l10 6l10 2l11 -2l9 -6l26 -26l6 -9l2 -11zM110 566l35 32l11 2l11 -2l9 -6l32 -35l2 -11
l-2 -11l-32 -35l-9 -6l-11 -2l-11 2l-9 6l-32 35l-2 11l2 11z" />
    <glyph glyph-name="k" unicode="k" horiz-adv-x="543" 
d="M101 544l-61 2l-9 6l-6 9l-2 11l2 11l6 9l9 6l11 2h103l11 -2l9 -6l6 -9l2 -11v-373l164 164l-21 2l-9 6l-6 9l-2 11l2 10l6 9l9 7l166 2l11 -2l9 -7l6 -9l2 -10l-2 -11l-6 -9l-9 -6l-11 -2h-66l-115 -116l143 -191h38l11 -2l9 -6l6 -9l2 -11l-2 -11l-6 -9l-9 -6l-11 -2
h-155l-11 2l-9 6l-6 9l-2 11l2 11l6 9l9 6l11 2h22l-103 137l-73 -73v-64h50l11 -2l9 -6l6 -9l2 -11l-2 -11l-6 -9l-9 -6l-11 -2h-181l-11 2l-9 6l-6 9l-2 11l2 11l6 9l9 6l11 2h50v488z" />
    <glyph glyph-name="l" unicode="l" horiz-adv-x="286" 
d="M102 544l-60 2l-10 6l-6 9l-2 11l2 11l6 9l10 6l10 2h104l11 -2l9 -6l6 -9l2 -11v-516h50l10 -2l9 -6l6 -9l3 -11l-3 -11l-6 -9l-9 -6l-10 -2h-182l-10 2l-10 6l-6 9l-2 11l2 11l6 9l10 6l60 2v488z" />
    <glyph glyph-name="m" unicode="m" horiz-adv-x="855" 
d="M101 363l-60 2l-9 6l-7 9l-2 11l2 10l7 9l9 7l10 2h104l11 -2l9 -7l6 -9l2 -20l15 10l78 26l62 2l85 -28l9 -5l16 -26l24 25l11 6l86 28h54l85 -28l9 -5l7 -9l26 -52l3 -12v-257l60 -2l9 -6l6 -9l3 -11l-3 -11l-6 -9l-9 -6l-10 -2h-182l-10 2l-10 6l-6 9l-2 11l2 11l6 9
l10 6l10 2h50v250l-19 38l-37 19h-41l-67 -23l-39 -39v-245h50l10 -2l9 -6l6 -9l3 -11l-3 -11l-6 -9l-9 -6l-10 -2h-182l-10 2l-10 6l-6 9l-2 11l2 11l6 9l10 6l10 2h50v250l-19 38l-37 19h-41l-67 -23l-39 -39v-245h50l10 -2l9 -6l7 -9l2 -11l-2 -11l-7 -9l-9 -6l-10 -2
h-182l-10 2l-9 6l-7 9l-2 11l2 11l7 9l9 6l10 2h50v307z" />
    <glyph glyph-name="n" unicode="n" 
d="M101 363l-61 2l-9 6l-6 9l-2 11l2 10l6 9l9 7l11 2h103l11 -2l9 -7l6 -9l2 -20l15 10l78 26l63 2l94 -33l32 -61l3 -12v-257h50l11 -2l9 -6l6 -9l2 -11l-2 -11l-6 -9l-9 -6l-11 -2h-181l-11 2l-9 6l-6 9l-2 11l2 11l6 9l9 6l11 2h50v250l-19 38l-38 19h-40l-68 -23
l-39 -39v-245h50l11 -2l9 -6l6 -9l2 -11l-2 -11l-6 -9l-9 -6l-11 -2h-181l-11 2l-9 6l-6 9l-2 11l2 11l6 9l9 6l11 2h50v307z" />
    <glyph glyph-name="o" unicode="o" horiz-adv-x="519" 
d="M147 391l84 28l63 -2l77 -26l11 -6l52 -52l7 -11l26 -78v-69l-26 -78l-7 -11l-52 -52l-11 -7l-77 -26l-63 -1l-84 27l-11 7l-52 52l-7 11l-26 78v69l26 78l7 11l52 52zM278 56l42 21l44 44l22 67v43l-22 67l-44 44l-42 21h-38l-42 -21l-44 -44l-22 -67v-43l22 -67l44 -44
l42 -21h38z" />
    <glyph glyph-name="p" unicode="p" horiz-adv-x="544" 
d="M101 363l-61 2l-9 6l-6 9l-2 11l2 10l6 9l9 7l11 2h103l11 -2l9 -7l6 -9l2 -20l12 9l52 26l12 3l61 -2l77 -26l11 -6l52 -52l7 -11l26 -78v-69l-26 -78l-7 -11l-52 -52l-11 -7l-77 -26l-61 -1l-12 3l-52 26l-12 9v-163h50l11 -2l9 -7l6 -9l2 -10l-2 -11l-6 -9l-9 -6
l-11 -2h-181l-11 2l-9 6l-6 9l-2 11l2 10l6 9l9 7l61 2v488zM303 56l42 21l44 44l22 67v43l-22 67l-44 44l-42 21h-38l-42 -21l-41 -41v-184l41 -40l42 -21h38z" />
    <glyph glyph-name="q" unicode="q" horiz-adv-x="517" 
d="M228 418l56 1l12 -3l52 -26l12 -9l2 20l6 9l9 7l11 2l12 -4l13 4l11 -2l9 -7l6 -9l2 -10v-516h50l11 -2l9 -7l6 -9l2 -10l-2 -11l-6 -9l-9 -6l-11 -2h-181l-11 2l-9 6l-6 9l-2 11l2 10l6 9l9 7l11 2h50v163l-12 -9l-52 -26l-12 -3l-61 1l-77 26l-11 7l-52 52l-7 11
l-26 78l-1 60l27 87l7 11l52 52l11 6zM360 301l-41 41l-42 21h-38l-42 -21l-44 -44l-22 -67v-43l22 -67l44 -44l42 -21h38l42 21l41 40v184z" />
    <glyph glyph-name="r" unicode="r" horiz-adv-x="439" 
d="M100 363l-60 2l-9 6l-6 9l-2 11l2 10l6 9l9 7l11 2l114 -2l9 -7l6 -9l2 -46l37 35l52 26l13 3h78l10 -2l9 -7l32 -35l2 -36l-2 -11l-32 -35l-9 -6l-10 -2l-11 2l-35 32l-6 9l-2 11l2 11l10 13h-30l-41 -21l-44 -44l-23 -67v-175h50l11 -2l9 -6l6 -9l2 -11l-2 -11l-6 -9
l-9 -6l-11 -2h-181l-11 2l-9 6l-6 9l-2 11l2 11l6 9l9 6l60 2v307z" />
    <glyph glyph-name="s" unicode="s" horiz-adv-x="440" 
d="M49 313v26l3 11l6 9l33 31l52 26l12 3h104l12 -3l58 -30l15 26l9 5l11 2l10 -3l9 -6l5 -9l2 -10v-104l-2 -10l-5 -9l-9 -6l-10 -3l-11 2l-9 5l-30 56l-20 20l-42 21h-90l-42 -21l-15 -15l15 -17l47 -23l128 -52l61 -32l26 -26l6 -9l2 -10v-78l-2 -11l-6 -9l-33 -31
l-52 -26l-12 -3h-104l-12 3l-58 30l-15 -26l-9 -5l-11 -2l-10 2l-9 7l-5 9l-3 10v104l3 10l5 9l9 6l10 3l11 -2l9 -5l30 -57l20 -19l42 -21h90l42 21l14 14v29l-14 15l-47 23l-128 51l-54 27l-39 40z" />
    <glyph glyph-name="t" unicode="t" horiz-adv-x="388" 
d="M101 419l2 164l6 9l9 6l11 2l13 -4l13 4l11 -2l9 -6l6 -9l2 -11v-153l86 -2l10 -7l6 -9l2 -10l-2 -11l-6 -9l-10 -6l-86 -2v-227l22 -67l14 -13h33l38 19l21 43l7 9l10 5l10 2l11 -3l9 -7l5 -9l1 -11l-3 -11l-31 -59l-59 -31l-12 -3l-63 2l-53 27l-9 7l-5 9l-28 87v231
l-60 2l-9 6l-6 9l-3 11l3 10l6 9l9 7z" />
    <glyph glyph-name="u" unicode="u" 
d="M101 363l-61 2l-9 6l-6 9l-2 11l2 10l6 9l9 7l11 2h103l11 -2l9 -7l6 -9l2 -10v-279l19 -37l38 -19h40l68 22l39 39v246l-61 2l-9 6l-6 9l-2 11l2 10l6 9l9 7l11 2h103l11 -2l9 -7l6 -9l2 -10v-335h50l11 -2l9 -6l6 -9l2 -11l-2 -11l-6 -9l-9 -6l-11 -2h-103l-11 2l-9 6
l-6 9l-2 21l-15 -11l-78 -26l-63 -1l-94 33l-32 60l-3 13v257z" />
    <glyph glyph-name="v" unicode="v" horiz-adv-x="465" 
d="M58 363h-33l-11 2l-9 6l-6 9l-2 11l2 10l6 9l9 7l11 2h155l11 -2l9 -7l6 -9l2 -10l-2 -11l-6 -9l-9 -6l-11 -2h-36l99 -238l102 238l-72 2l-9 6l-6 9l-2 11l2 10l6 9l9 7l11 2h155l11 -2l9 -7l6 -9l2 -10l-2 -11l-6 -9l-9 -6l-44 -2l-148 -346l-6 -9l-9 -6l-11 -2l-11 2
l-9 6l-6 9z" />
    <glyph glyph-name="w" unicode="w" horiz-adv-x="623" 
d="M83 363l-68 2l-9 6l-6 9l-2 11l2 10l6 9l9 7l11 2h181l11 -2l9 -7l6 -9l2 -10l-2 -11l-6 -9l-9 -6l-11 -2h-41l53 -193l68 234l7 9l14 5l17 -3l15 3l11 -3l8 -7l5 -10l62 -228l55 193h-40l-11 2l-9 6l-6 9l-2 11l2 10l6 9l9 7l11 2h155l11 -2l9 -7l6 -9l2 -10l-2 -11
l-6 -9l-9 -6l-68 -2l-97 -343l-10 -14l-14 -6l-17 4l-8 7l-5 9l-77 269l-79 -275l-11 -10l-10 -4l-17 4l-9 7l-5 9z" />
    <glyph glyph-name="x" unicode="x" horiz-adv-x="517" 
d="M90 56l125 146l-126 161h-38l-11 2l-9 6l-6 9l-2 11l2 10l6 9l9 7l11 2l166 -2l9 -7l6 -9l2 -10l-2 -11l-6 -9l-9 -6l-31 -2l80 -102l87 102h-43l-11 2l-9 6l-6 9l-2 11l2 10l6 9l9 7l11 2h155l11 -2l9 -7l6 -9l2 -10l-2 -11l-6 -9l-9 -6l-11 -2h-39l-125 -147l126 -160
h38l11 -2l9 -6l6 -9l2 -11l-2 -11l-6 -9l-9 -6l-11 -2l-166 2l-9 6l-6 9l-2 11l2 11l6 9l9 6l31 2l-80 101l-87 -101h43l11 -2l9 -6l6 -9l2 -11l-2 -11l-6 -9l-9 -6l-166 -2l-11 2l-9 6l-6 9l-2 11l2 11l6 9l9 6l11 2h39z" />
    <glyph glyph-name="y" unicode="y" horiz-adv-x="491" 
d="M84 363h-33l-11 2l-9 6l-6 9l-2 11l2 10l6 9l9 7l11 2h155l11 -2l9 -7l6 -9l2 -10l-2 -11l-6 -9l-9 -6l-11 -2h-36l99 -238l102 238l-72 2l-9 6l-6 9l-2 11l2 10l6 9l9 7l11 2h155l11 -2l9 -7l6 -9l2 -10l-2 -11l-6 -9l-9 -6l-44 -2l-148 -346l-53 -105l-57 -59l-59 -31
l-12 -3h-26l-11 2l-9 6l-32 35l-2 11l2 10l32 35l9 6l11 2l10 -2l9 -6l29 -29l13 7l45 45l44 88z" />
    <glyph glyph-name="z" unicode="z" horiz-adv-x="465" 
d="M49 26l6 19l249 318h-180l-20 -83l-5 -10l-9 -8l-11 -3l-11 2l-10 5l-7 10l-2 11v104l2 10l6 9l9 7l11 2h310l11 -2l9 -7l6 -9l2 -10l-6 -18l-249 -317h180l20 82l5 11l9 7l11 4l11 -2l10 -6l7 -9l2 -11v-104l-2 -11l-6 -9l-9 -6l-11 -2h-310l-11 2l-9 6z" />
    <glyph glyph-name="braceleft" unicode="{" horiz-adv-x="363" 
d="M162 670l58 31l11 3l11 -2l9 -5l7 -9l3 -10l-2 -11l-5 -10l-52 -28l-19 -38v-38l21 -42l28 -30l26 -52l3 -12v-52l-3 -13l-31 -59l-61 -32l61 -32l31 -59l3 -12v-52l-3 -13l-26 -52l-28 -30l-21 -41v-39l19 -38l43 -21l9 -7l5 -9l2 -11l-3 -11l-7 -8l-9 -6l-11 -1l-11 3
l-59 31l-31 33l-26 52l-3 12v52l3 13l26 51l28 30l21 42v34l-40 40l-56 30l-8 19l8 19l56 30l40 40v34l-21 42l-28 30l-26 52l-3 12v52l3 13l26 51z" />
    <glyph glyph-name="bar" unicode="|" horiz-adv-x="208" 
d="M76 -153v829l2 10l6 9l9 6l11 3l11 -3l9 -6l6 -9l2 -10v-829l-2 -11l-6 -9l-9 -6l-11 -2l-11 2l-9 6l-6 9z" />
    <glyph glyph-name="braceright" unicode="}" horiz-adv-x="363" 
d="M223 310l56 -30l8 -19l-2 -10l-14 -15l-48 -24l-40 -40v-34l21 -42l28 -30l26 -51l3 -13v-52l-3 -12l-26 -52l-33 -35l-57 -29l-11 -3l-11 1l-9 6l-7 8l-3 11l2 11l5 9l9 7l43 21l19 38v39l-21 41l-28 30l-26 52l-3 13v52l3 12l31 59l61 32l-61 32l-31 59l-3 13v52l3 12
l26 52l28 30l21 42v38l-19 38l-43 22l-9 6l-5 10l-2 11l3 10l7 9l9 5l11 2l11 -3l57 -30l33 -35l26 -51l3 -13v-52l-3 -12l-26 -52l-28 -30l-21 -42v-34z" />
    <glyph glyph-name="asciitilde" unicode="~" horiz-adv-x="622" 
d="M50 236l27 86l6 9l60 33l13 3h51l13 -3l56 -29l102 -76l43 -22h39l37 19l19 38v45l2 11l6 9l9 6l11 2l11 -2l9 -6l6 -9l2 -65l-27 -85l-6 -9l-8 -7l-52 -26l-13 -3h-51l-13 3l-56 29l-102 76l-43 22h-39l-37 -19l-19 -37l-2 -56l-6 -9l-9 -6l-11 -3l-11 3l-9 6l-6 9z" />
    <glyph glyph-name="exclamdown" unicode="&#xa1;" horiz-adv-x="261" 
d="M176 455l-35 -32l-11 -2l-11 2l-9 6l-32 35l-2 11l2 11l32 35l9 6l11 2l11 -2l9 -6l32 -35l2 -11l-2 -11zM181 -4l-30 -57l-8 -7l-15 -3l-16 7l-7 8l-26 52l-3 15l26 311l9 18l19 8l19 -8l9 -18l26 -311z" />
    <glyph glyph-name="section" unicode="&#xa7;" horiz-adv-x="415" 
d="M80 143l-28 54l-3 12v52l3 13l26 51l38 40l-12 13l-26 52l-3 12v52l3 13l26 52l13 12l52 26l12 3h52l12 -3l52 -26l13 -12l26 -52l3 -13v-26l-3 -10l-6 -9l-35 -32l-10 -3l-11 3l-9 6l-26 26l-6 9l-2 10l2 11l6 9l29 28l-4 9l-38 19h-38l-38 -19l-19 -37v-39l20 -39
l128 -77l54 -55l29 -56l3 -13v-51l-3 -13l-26 -52l-38 -39l12 -13l26 -52l3 -13v-52l-3 -12l-31 -59l-60 -31l-12 -3h-52l-12 3l-60 31l-31 59l-3 38l3 11l6 9l25 26l10 6l10 2l11 -2l9 -6l32 -35l2 -11l-2 -10l-35 -38l4 -9l38 -18h38l38 18l19 38v39l-20 38l-122 74z
M125 177l122 -73l12 -10l29 28l21 42v39l-20 38l-122 74l-12 10l-29 -29l-21 -41v-39z" />
    <glyph glyph-name="dieresis" unicode="&#xa8;" horiz-adv-x="286" 
d="M23 566l35 32l11 2l11 -2l9 -6l32 -35l2 -11l-2 -11l-32 -35l-9 -6l-11 -2l-11 2l-35 32l-6 9l-2 11l2 11zM171 566l35 32l11 2l11 -2l9 -6l32 -35l2 -11l-2 -11l-32 -35l-9 -6l-11 -2l-11 2l-35 32l-6 9l-2 11l2 11z" />
    <glyph glyph-name="uni00AD" unicode="&#xad;" horiz-adv-x="673" 
d="M569 233h-466l-11 2l-9 6l-6 9l-2 11l2 11l6 9l9 6l11 2h466l11 -2l9 -6l6 -9l2 -11l-2 -11l-6 -9l-9 -6z" />
    <glyph glyph-name="degree" unicode="&#xb0;" horiz-adv-x="363" 
d="M91 571l53 27l63 2l12 -3l60 -31l31 -59l3 -13v-52l-3 -12l-31 -59l-60 -31l-12 -3h-52l-12 3l-60 31l-31 59l-3 12v52l3 13l26 52zM162 544l-38 -19l-19 -37v-39l19 -37l38 -19h38l38 19l19 37v39l-19 37l-38 19h-38z" />
    <glyph glyph-name="plusminus" unicode="&#xb1;" horiz-adv-x="621" 
d="M282 289v179l2 11l6 9l9 6l11 2l11 -2l9 -6l6 -9l2 -11v-179h179l11 -2l9 -6l6 -9l2 -11l-2 -11l-6 -9l-9 -6l-11 -2h-179v-177h179l11 -2l9 -6l6 -9l2 -11l-2 -11l-6 -9l-9 -6l-11 -2h-414l-11 2l-9 6l-6 9l-2 11l2 11l6 9l9 6l11 2h179v177h-179l-11 2l-9 6l-6 9l-2 11
l2 11l6 9l9 6l11 2h179z" />
    <glyph glyph-name="acute" unicode="&#xb4;" horiz-adv-x="310" 
d="M49 417l6 17l131 158l17 8l14 -2l35 -32l6 -10l2 -11l-3 -11l-7 -9l-156 -130l-15 -6l-16 3l-12 12z" />
    <glyph glyph-name="periodcentered" unicode="&#xb7;" horiz-adv-x="261" 
d="M84 281l35 32l11 2l11 -2l9 -6l32 -35l2 -11l-2 -11l-32 -35l-9 -6l-11 -2l-11 2l-35 32l-6 9l-2 11l2 11z" />
    <glyph glyph-name="cedilla" unicode="&#xb8;" horiz-adv-x="261" 
d="M107 -23l-23 22l-6 9l-2 11l2 11l6 9l9 6l11 2l11 -2l9 -6l26 -26l31 -59l3 -13l-2 -62l-32 -35l-9 -6l-11 -2l-11 2l-35 32l-6 9l-2 10l2 11l6 9l26 26l14 7z" />
    <glyph glyph-name="questiondown" unicode="&#xbf;" horiz-adv-x="465" 
d="M345 54l-35 37l-2 11l2 10l6 9l35 32l11 2l10 -2l35 -32l6 -9l2 -10l-3 -39l-31 -59l-33 -31l-52 -26l-12 -3h-78l-86 27l-11 7l-32 33l-25 52l-3 13v51l3 13l25 52l39 38l88 44l2 71l6 9l9 7l11 2l11 -2l9 -7l6 -9l2 -10l-2 -88l-13 -15l-48 -24l-46 -45l-21 -42v-39
l21 -42l20 -19l42 -21h64l42 21l20 19zM278 470l-35 -32l-11 -2l-11 2l-9 6l-32 35l-2 11l2 11l32 35l9 6l11 2l11 -2l9 -6l32 -35l2 -11l-2 -11z" />
    <glyph glyph-name="Agrave" unicode="&#xc0;" horiz-adv-x="617" 
d="M92 837l34 32l14 2l18 -8l130 -158l6 -9l2 -11l-8 -15l-8 -7l-10 -3l-16 3l-160 133l-8 9l-2 11l2 11zM107 56l175 525l6 9l8 7l11 3l11 -1l12 -9l6 -9l175 -525h31l11 -2l9 -6l6 -9l2 -11l-2 -11l-6 -9l-9 -6l-11 -2h-155l-11 2l-9 6l-6 9l-2 11l2 11l6 9l9 6l11 2h39
l-34 99h-192l-33 -99h64l11 -2l9 -6l6 -9l2 -11l-2 -11l-6 -9l-9 -6l-166 -2l-11 2l-9 6l-6 9l-2 11l2 11l6 9l9 6l11 2h31zM296 445l-78 -234h156z" />
    <glyph glyph-name="Aacute" unicode="&#xc1;" horiz-adv-x="617" 
d="M238 688l6 17l131 158l17 8l14 -2l35 -32l6 -10l2 -11l-3 -11l-7 -9l-156 -130l-15 -6l-16 3l-12 12zM107 56l175 525l6 9l8 7l11 3l11 -1l12 -9l6 -9l175 -525h31l11 -2l9 -6l6 -9l2 -11l-2 -11l-6 -9l-9 -6l-11 -2h-155l-11 2l-9 6l-6 9l-2 11l2 11l6 9l9 6l11 2h39
l-34 99h-192l-33 -99h64l11 -2l9 -6l6 -9l2 -11l-2 -11l-6 -9l-9 -6l-166 -2l-11 2l-9 6l-6 9l-2 11l2 11l6 9l9 6l11 2h31zM296 445l-78 -234h156z" />
    <glyph glyph-name="Acircumflex" unicode="&#xc2;" horiz-adv-x="617" 
d="M32 684l2 12l12 15l216 133l20 -3l208 -130l12 -15v-11l-2 -10l-6 -9l-10 -5l-14 -1l-202 100l-204 -100h-10l-10 5l-8 7zM107 56l175 525l6 9l8 7l11 3l11 -1l12 -9l6 -9l175 -525h31l11 -2l9 -6l6 -9l2 -11l-2 -11l-6 -9l-9 -6l-11 -2h-155l-11 2l-9 6l-6 9l-2 11l2 11
l6 9l9 6l11 2h39l-34 99h-192l-33 -99h64l11 -2l9 -6l6 -9l2 -11l-2 -11l-6 -9l-9 -6l-166 -2l-11 2l-9 6l-6 9l-2 11l2 11l6 9l9 6l11 2h31zM296 445l-78 -234h156z" />
    <glyph glyph-name="Atilde" unicode="&#xc3;" horiz-adv-x="617" 
d="M6 741l28 86l6 9l60 33l12 3h52l12 -3l56 -29l102 -76l44 -22h38l38 19l18 38v45l2 11l6 9l10 6l10 2l12 -2l8 -6l6 -9l2 -65l-26 -85l-6 -9l-8 -7l-52 -26l-14 -3h-50l-14 3l-56 29l-102 76l-42 22h-40l-36 -19l-20 -37l-2 -56l-6 -9l-8 -6l-12 -3l-10 3l-10 6l-6 9z
M107 56l175 525l6 9l8 7l11 3l11 -1l12 -9l6 -9l175 -525h31l11 -2l9 -6l6 -9l2 -11l-2 -11l-6 -9l-9 -6l-11 -2h-155l-11 2l-9 6l-6 9l-2 11l2 11l6 9l9 6l11 2h39l-34 99h-192l-33 -99h64l11 -2l9 -6l6 -9l2 -11l-2 -11l-6 -9l-9 -6l-166 -2l-11 2l-9 6l-6 9l-2 11l2 11
l6 9l9 6l11 2h31zM296 445l-78 -234h156z" />
    <glyph glyph-name="Adieresis" unicode="&#xc4;" horiz-adv-x="617" 
d="M148 734l34 32l12 2l10 -2l10 -6l32 -35l2 -11l-2 -11l-32 -35l-10 -6l-10 -2l-12 2l-34 32l-6 9l-2 11l2 11zM296 734l34 32l12 2l10 -2l10 -6l32 -35l2 -11l-2 -11l-32 -35l-10 -6l-10 -2l-12 2l-34 32l-6 9l-2 11l2 11zM107 56l175 525l6 9l8 7l11 3l11 -1l12 -9l6 -9
l175 -525h31l11 -2l9 -6l6 -9l2 -11l-2 -11l-6 -9l-9 -6l-11 -2h-155l-11 2l-9 6l-6 9l-2 11l2 11l6 9l9 6l11 2h39l-34 99h-192l-33 -99h64l11 -2l9 -6l6 -9l2 -11l-2 -11l-6 -9l-9 -6l-166 -2l-11 2l-9 6l-6 9l-2 11l2 11l6 9l9 6l11 2h31zM296 445l-78 -234h156z" />
    <glyph glyph-name="Aring" unicode="&#xc5;" horiz-adv-x="617" 
d="M178 835l52 27l64 2l12 -3l60 -31l30 -59l4 -13v-52l-4 -12l-30 -59l-60 -31l-12 -3h-52l-12 3l-60 31l-32 59l-2 12v52l2 13l26 52zM248 808l-38 -19l-18 -37v-39l18 -37l38 -19h38l38 19l20 37v39l-20 37l-38 19h-38zM107 56l175 525l6 9l8 7l11 3l11 -1l12 -9l6 -9
l175 -525h31l11 -2l9 -6l6 -9l2 -11l-2 -11l-6 -9l-9 -6l-11 -2h-155l-11 2l-9 6l-6 9l-2 11l2 11l6 9l9 6l11 2h39l-34 99h-192l-33 -99h64l11 -2l9 -6l6 -9l2 -11l-2 -11l-6 -9l-9 -6l-166 -2l-11 2l-9 6l-6 9l-2 11l2 11l6 9l9 6l11 2h31zM296 445l-78 -234h156z" />
    <glyph glyph-name="AE" unicode="&#xc6;" horiz-adv-x="852" 
d="M269 445l-78 -234h156zM80 56l175 525l6 9l8 7l11 3l11 -1l12 -9l6 -9l110 -330v293l-61 2l-9 6l-6 9l-2 11l2 11l6 9l9 6l11 2h414l11 -2l9 -6l6 -9l2 -11v-155l-7 -19l-18 -9l-20 5l-10 18l-22 132h-234v-203h100l2 86l6 9l9 6l11 3l11 -3l9 -6l6 -9l2 -10v-208l-2 -10
l-6 -9l-9 -7l-11 -2l-11 2l-9 7l-6 9l-2 10v76h-100v-229h15h219l22 132l10 18l20 5l18 -9l7 -19v-155l-2 -11l-6 -9l-9 -6l-11 -2h-268h-146h-9l-11 2l-9 6l-6 9l-2 11l2 11l6 9l9 6l11 2h9h30l-34 99h-192l-33 -99h64l11 -2l9 -6l6 -9l2 -11l-2 -11l-6 -9l-9 -6l-166 -2
l-11 2l-9 6l-6 9l-2 11l2 11l6 9l9 6l11 2h31z" />
    <glyph glyph-name="Ccedilla" unicode="&#xc7;" horiz-adv-x="543" 
d="M282 -70l-22 22l-6 9l-2 11l2 11l6 9l8 6l12 2l10 -2l10 -6l26 -26l30 -59l4 -13l-2 -62l-32 -35l-10 -6l-10 -2l-12 2l-34 32l-6 9l-2 10l2 11l6 9l26 26l14 7zM254 599h65l77 -26l11 -7l20 -20l12 35l5 10l9 6l11 3l11 -2l10 -6l6 -9l2 -11v-155l-2 -11l-6 -10l-10 -6
l-11 -1l-11 2l-9 7l-29 81l-43 43l-67 22h-40l-42 -21l-46 -45l-22 -46l-24 -72v-120l24 -72l22 -46l46 -45l42 -21h40l67 22l44 44l31 57l9 5l11 1l11 -2l8 -7l6 -10l1 -10l-3 -11l-26 -52l-57 -59l-11 -7l-86 -27l-61 1l-77 26l-11 7l-57 59l-28 56l-27 86l1 139l26 77
l28 56l57 59l11 7z" />
    <glyph glyph-name="Egrave" unicode="&#xc8;" horiz-adv-x="543" 
d="M82 837l35 32l14 2l17 -8l131 -158l5 -9l2 -11l-7 -15l-8 -7l-11 -3l-15 3l-161 133l-7 9l-3 11l2 11zM101 544l-61 2l-9 6l-6 9l-2 11l2 11l6 9l9 6l11 2h414l11 -2l9 -6l6 -9l2 -11v-155l-7 -19l-18 -9l-20 5l-10 18l-22 132h-234v-203h100l2 86l6 9l9 6l11 3l11 -3
l9 -6l6 -9l2 -10v-208l-2 -10l-6 -9l-9 -7l-11 -2l-11 2l-9 7l-6 9l-2 10v76h-100v-229h234l22 132l10 18l20 5l18 -9l7 -19v-155l-2 -11l-6 -9l-9 -6l-11 -2h-414l-11 2l-9 6l-6 9l-2 11l2 11l6 9l9 6l11 2h50v488z" />
    <glyph glyph-name="Eacute" unicode="&#xc9;" horiz-adv-x="543" 
d="M228 688l6 17l132 158l16 8l14 -2l36 -32l6 -10l2 -11l-4 -11l-6 -9l-156 -130l-16 -6l-16 3l-12 12zM101 544l-61 2l-9 6l-6 9l-2 11l2 11l6 9l9 6l11 2h414l11 -2l9 -6l6 -9l2 -11v-155l-7 -19l-18 -9l-20 5l-10 18l-22 132h-234v-203h100l2 86l6 9l9 6l11 3l11 -3
l9 -6l6 -9l2 -10v-208l-2 -10l-6 -9l-9 -7l-11 -2l-11 2l-9 7l-6 9l-2 10v76h-100v-229h234l22 132l10 18l20 5l18 -9l7 -19v-155l-2 -11l-6 -9l-9 -6l-11 -2h-414l-11 2l-9 6l-6 9l-2 11l2 11l6 9l9 6l11 2h50v488z" />
    <glyph glyph-name="Ecircumflex" unicode="&#xca;" horiz-adv-x="543" 
d="M23 684l1 12l12 15l217 133l20 -3l207 -130l12 -15l1 -11l-3 -10l-6 -9l-10 -5l-13 -1l-203 100l-203 -100h-11l-9 5l-8 7zM101 544l-61 2l-9 6l-6 9l-2 11l2 11l6 9l9 6l11 2h414l11 -2l9 -6l6 -9l2 -11v-155l-7 -19l-18 -9l-20 5l-10 18l-22 132h-234v-203h100l2 86
l6 9l9 6l11 3l11 -3l9 -6l6 -9l2 -10v-208l-2 -10l-6 -9l-9 -7l-11 -2l-11 2l-9 7l-6 9l-2 10v76h-100v-229h234l22 132l10 18l20 5l18 -9l7 -19v-155l-2 -11l-6 -9l-9 -6l-11 -2h-414l-11 2l-9 6l-6 9l-2 11l2 11l6 9l9 6l11 2h50v488z" />
    <glyph glyph-name="Edieresis" unicode="&#xcb;" horiz-adv-x="543" 
d="M138 734l35 32l11 2l11 -2l9 -6l32 -35l2 -11l-2 -11l-32 -35l-9 -6l-11 -2l-11 2l-35 32l-6 9l-2 11l2 11zM286 734l35 32l11 2l11 -2l9 -6l32 -35l2 -11l-2 -11l-32 -35l-9 -6l-11 -2l-11 2l-35 32l-6 9l-2 11l2 11zM101 544l-61 2l-9 6l-6 9l-2 11l2 11l6 9l9 6l11 2
h414l11 -2l9 -6l6 -9l2 -11v-155l-7 -19l-18 -9l-20 5l-10 18l-22 132h-234v-203h100l2 86l6 9l9 6l11 3l11 -3l9 -6l6 -9l2 -10v-208l-2 -10l-6 -9l-9 -7l-11 -2l-11 2l-9 7l-6 9l-2 10v76h-100v-229h234l22 132l10 18l20 5l18 -9l7 -19v-155l-2 -11l-6 -9l-9 -6l-11 -2
h-414l-11 2l-9 6l-6 9l-2 11l2 11l6 9l9 6l11 2h50v488z" />
    <glyph glyph-name="Igrave" unicode="&#xcc;" horiz-adv-x="286" 
d="M-33 837l35 32l14 2l17 -8l131 -158l5 -9l2 -11l-7 -15l-8 -7l-11 -3l-15 3l-161 133l-7 9l-3 11l2 11zM102 544l-60 2l-10 6l-6 9l-2 11l2 11l6 9l10 6l10 2h182l10 -2l9 -6l6 -9l3 -11l-3 -11l-6 -9l-9 -6l-60 -2v-488h50l10 -2l9 -6l6 -9l3 -11l-3 -11l-6 -9l-9 -6
l-10 -2h-182l-10 2l-10 6l-6 9l-2 11l2 11l6 9l10 6l60 2v488z" />
    <glyph glyph-name="Iacute" unicode="&#xcd;" horiz-adv-x="286" 
d="M114 688l6 17l130 158l18 8l14 -2l34 -32l6 -10l2 -11l-2 -11l-8 -9l-156 -130l-14 -6l-16 3l-12 12zM102 544l-60 2l-10 6l-6 9l-2 11l2 11l6 9l10 6l10 2h182l10 -2l9 -6l6 -9l3 -11l-3 -11l-6 -9l-9 -6l-60 -2v-488h50l10 -2l9 -6l6 -9l3 -11l-3 -11l-6 -9l-9 -6
l-10 -2h-182l-10 2l-10 6l-6 9l-2 11l2 11l6 9l10 6l60 2v488z" />
    <glyph glyph-name="Icircumflex" unicode="&#xce;" horiz-adv-x="286" 
d="M-92 684l1 12l12 15l217 133l20 -3l207 -130l12 -15l1 -11l-3 -10l-6 -9l-10 -5l-13 -1l-203 100l-203 -100h-11l-9 5l-8 7zM102 544l-60 2l-10 6l-6 9l-2 11l2 11l6 9l10 6l10 2h182l10 -2l9 -6l6 -9l3 -11l-3 -11l-6 -9l-9 -6l-60 -2v-488h50l10 -2l9 -6l6 -9l3 -11
l-3 -11l-6 -9l-9 -6l-10 -2h-182l-10 2l-10 6l-6 9l-2 11l2 11l6 9l10 6l60 2v488z" />
    <glyph glyph-name="Idieresis" unicode="&#xcf;" horiz-adv-x="286" 
d="M23 734l35 32l11 2l11 -2l9 -6l32 -35l2 -11l-2 -11l-32 -35l-9 -6l-11 -2l-11 2l-35 32l-6 9l-2 11l2 11zM171 734l35 32l11 2l11 -2l9 -6l32 -35l2 -11l-2 -11l-32 -35l-9 -6l-11 -2l-11 2l-35 32l-6 9l-2 11l2 11zM102 544l-60 2l-10 6l-6 9l-2 11l2 11l6 9l10 6l10 2
h182l10 -2l9 -6l6 -9l3 -11l-3 -11l-6 -9l-9 -6l-60 -2v-488h50l10 -2l9 -6l6 -9l3 -11l-3 -11l-6 -9l-9 -6l-10 -2h-182l-10 2l-10 6l-6 9l-2 11l2 11l6 9l10 6l60 2v488z" />
    <glyph glyph-name="Ntilde" unicode="&#xd1;" horiz-adv-x="595" 
d="M36 741l27 86l6 9l60 33l13 3h51l13 -3l56 -29l102 -76l43 -22h39l37 19l19 38v45l2 11l6 9l9 6l11 2l11 -2l9 -6l6 -9l2 -65l-27 -85l-6 -9l-8 -7l-52 -26l-13 -3h-51l-13 3l-56 29l-102 76l-43 22h-39l-37 -19l-19 -37l-2 -56l-6 -9l-9 -6l-11 -3l-11 3l-9 6l-6 9z
M101 544l-61 2l-9 6l-6 9l-2 11l2 11l6 9l9 6l11 2h103l11 -2l9 -6l263 -415v367l-60 2l-9 6l-6 9l-2 11l2 11l6 9l9 6l11 2h155l11 -2l9 -6l6 -9l2 -11l-2 -11l-6 -9l-9 -6l-11 -2h-50v-516l-5 -16l-8 -8l-10 -4l-11 1l-10 4l-7 8l-285 451v-408l60 -2l9 -6l6 -9l2 -11
l-2 -11l-6 -9l-9 -6l-11 -2h-155l-11 2l-9 6l-6 9l-2 11l2 11l6 9l9 6l11 2h50v488z" />
    <glyph glyph-name="Ograve" unicode="&#xd2;" 
d="M107 837l35 32l14 2l17 -8l131 -158l5 -9l2 -11l-7 -15l-8 -7l-11 -3l-15 3l-161 133l-7 9l-3 11l2 11zM172 573l84 27h54l86 -27l11 -7l52 -52l33 -65l26 -103l1 -85l-29 -116l-31 -59l-52 -52l-11 -7l-77 -26l-63 -1l-84 27l-11 7l-52 52l-33 65l-26 103v92l26 103
l28 58l57 59zM303 56l42 21l46 45l22 45l24 98v70l-24 98l-22 45l-46 45l-42 21h-38l-42 -21l-46 -45l-22 -45l-24 -98v-70l24 -98l22 -45l46 -45l42 -21h38z" />
    <glyph glyph-name="Oacute" unicode="&#xd3;" 
d="M254 688l6 17l130 158l18 8l14 -2l34 -32l6 -10l2 -11l-2 -11l-8 -9l-156 -130l-14 -6l-16 3l-12 12zM172 573l84 27h54l86 -27l11 -7l52 -52l33 -65l26 -103l1 -85l-29 -116l-31 -59l-52 -52l-11 -7l-77 -26l-63 -1l-84 27l-11 7l-52 52l-33 65l-26 103v92l26 103l28 58
l57 59zM303 56l42 21l46 45l22 45l24 98v70l-24 98l-22 45l-46 45l-42 21h-38l-42 -21l-46 -45l-22 -45l-24 -98v-70l24 -98l22 -45l46 -45l42 -21h38z" />
    <glyph glyph-name="Ocircumflex" unicode="&#xd4;" 
d="M48 684l1 12l12 15l217 133l20 -3l207 -130l12 -15l1 -11l-3 -10l-6 -9l-10 -5l-13 -1l-203 100l-203 -100h-11l-9 5l-8 7zM172 573l84 27h54l86 -27l11 -7l52 -52l33 -65l26 -103l1 -85l-29 -116l-31 -59l-52 -52l-11 -7l-77 -26l-63 -1l-84 27l-11 7l-52 52l-33 65
l-26 103v92l26 103l28 58l57 59zM303 56l42 21l46 45l22 45l24 98v70l-24 98l-22 45l-46 45l-42 21h-38l-42 -21l-46 -45l-22 -45l-24 -98v-70l24 -98l22 -45l46 -45l42 -21h38z" />
    <glyph glyph-name="Otilde" unicode="&#xd5;" 
d="M22 741l27 86l6 9l60 33l13 3h51l13 -3l56 -29l102 -76l43 -22h39l37 19l19 38v45l2 11l6 9l9 6l11 2l11 -2l9 -6l6 -9l2 -65l-27 -85l-6 -9l-8 -7l-52 -26l-13 -3h-51l-13 3l-56 29l-102 76l-43 22h-39l-37 -19l-19 -37l-2 -56l-6 -9l-9 -6l-11 -3l-11 3l-9 6l-6 9z
M172 573l84 27h54l86 -27l11 -7l52 -52l33 -65l26 -103l1 -85l-29 -116l-31 -59l-52 -52l-11 -7l-77 -26l-63 -1l-84 27l-11 7l-52 52l-33 65l-26 103v92l26 103l28 58l57 59zM303 56l42 21l46 45l22 45l24 98v70l-24 98l-22 45l-46 45l-42 21h-38l-42 -21l-46 -45l-22 -45
l-24 -98v-70l24 -98l22 -45l46 -45l42 -21h38z" />
    <glyph glyph-name="Odieresis" unicode="&#xd6;" 
d="M163 734l35 32l11 2l11 -2l9 -6l32 -35l2 -11l-2 -11l-32 -35l-9 -6l-11 -2l-11 2l-35 32l-6 9l-2 11l2 11zM311 734l35 32l11 2l11 -2l9 -6l32 -35l2 -11l-2 -11l-32 -35l-9 -6l-11 -2l-11 2l-35 32l-6 9l-2 11l2 11zM172 573l84 27h54l86 -27l11 -7l52 -52l33 -65
l26 -103l1 -85l-29 -116l-31 -59l-52 -52l-11 -7l-77 -26l-63 -1l-84 27l-11 7l-52 52l-33 65l-26 103v92l26 103l28 58l57 59zM303 56l42 21l46 45l22 45l24 98v70l-24 98l-22 45l-46 45l-42 21h-38l-42 -21l-46 -45l-22 -45l-24 -98v-70l24 -98l22 -45l46 -45l42 -21h38z
" />
    <glyph glyph-name="multiply" unicode="&#xd7;" 
d="M83 100l161 161l-161 162l-6 9l-2 10l2 11l6 9l9 6l11 2l10 -2l9 -6l162 -161l162 161l9 6l10 2l11 -2l9 -6l6 -9l2 -11l-2 -10l-6 -9l-161 -162l161 -161l6 -9l2 -11l-2 -11l-6 -9l-9 -6l-11 -2l-10 2l-9 6l-162 162l-162 -162l-9 -6l-10 -2l-11 2l-9 6l-6 9l-2 11l2 11
z" />
    <glyph glyph-name="Oslash" unicode="&#xd8;" 
d="M172 573l84 27h54l86 -27l11 -7l9 -9l75 132l7 9l10 5h10l11 -3l8 -7l5 -10l1 -11l-3 -10l-83 -146l2 -2l33 -65l26 -103l1 -85l-29 -116l-31 -59l-52 -52l-11 -7l-77 -26l-63 -1l-75 24l-108 -191l-7 -8l-10 -5l-10 -1l-11 3l-8 7l-5 10l-1 11l3 10l112 199l-27 27
l-33 65l-26 103v92l26 103l28 58l57 59zM303 56l42 21l46 45l22 45l24 98v70l-24 98l-1 2l-197 -350l8 -8l42 -21h38zM174 127l205 363l-34 33l-42 21h-38l-42 -21l-46 -45l-22 -45l-24 -98v-70l24 -98z" />
    <glyph glyph-name="Ugrave" unicode="&#xd9;" horiz-adv-x="621" 
d="M134 837l35 32l14 2l17 -8l131 -158l5 -9l2 -11l-7 -15l-8 -7l-11 -3l-15 3l-161 133l-7 9l-3 11l2 11zM101 544l-61 2l-9 6l-6 9l-2 11l2 11l6 9l9 6l11 2h181l11 -2l9 -6l6 -9l2 -11l-2 -11l-6 -9l-9 -6l-60 -2v-356l22 -67l44 -44l42 -21h40l67 22l43 43l22 67v356
l-60 2l-9 6l-6 9l-2 11l2 11l6 9l9 6l11 2h155l11 -2l9 -6l6 -9l2 -11l-2 -11l-6 -9l-9 -6l-61 -2l-1 -369l-26 -78l-7 -11l-52 -52l-11 -7l-77 -26l-63 -1l-84 27l-11 7l-52 52l-7 11l-27 86v361z" />
    <glyph glyph-name="Uacute" unicode="&#xda;" horiz-adv-x="621" 
d="M280 688l6 17l132 158l16 8l14 -2l36 -32l6 -10l2 -11l-4 -11l-6 -9l-156 -130l-16 -6l-16 3l-12 12zM101 544l-61 2l-9 6l-6 9l-2 11l2 11l6 9l9 6l11 2h181l11 -2l9 -6l6 -9l2 -11l-2 -11l-6 -9l-9 -6l-60 -2v-356l22 -67l44 -44l42 -21h40l67 22l43 43l22 67v356
l-60 2l-9 6l-6 9l-2 11l2 11l6 9l9 6l11 2h155l11 -2l9 -6l6 -9l2 -11l-2 -11l-6 -9l-9 -6l-61 -2l-1 -369l-26 -78l-7 -11l-52 -52l-11 -7l-77 -26l-63 -1l-84 27l-11 7l-52 52l-7 11l-27 86v361z" />
    <glyph glyph-name="Ucircumflex" unicode="&#xdb;" horiz-adv-x="621" 
d="M75 684l1 12l12 15l217 133l20 -3l207 -130l12 -15l1 -11l-3 -10l-6 -9l-10 -5l-13 -1l-203 100l-203 -100h-11l-9 5l-8 7zM101 544l-61 2l-9 6l-6 9l-2 11l2 11l6 9l9 6l11 2h181l11 -2l9 -6l6 -9l2 -11l-2 -11l-6 -9l-9 -6l-60 -2v-356l22 -67l44 -44l42 -21h40l67 22
l43 43l22 67v356l-60 2l-9 6l-6 9l-2 11l2 11l6 9l9 6l11 2h155l11 -2l9 -6l6 -9l2 -11l-2 -11l-6 -9l-9 -6l-61 -2l-1 -369l-26 -78l-7 -11l-52 -52l-11 -7l-77 -26l-63 -1l-84 27l-11 7l-52 52l-7 11l-27 86v361z" />
    <glyph glyph-name="Udieresis" unicode="&#xdc;" horiz-adv-x="621" 
d="M190 734l35 32l11 2l11 -2l9 -6l32 -35l2 -11l-2 -11l-32 -35l-9 -6l-11 -2l-11 2l-35 32l-6 9l-2 11l2 11zM338 734l35 32l11 2l11 -2l9 -6l32 -35l2 -11l-2 -11l-32 -35l-9 -6l-11 -2l-11 2l-35 32l-6 9l-2 11l2 11zM101 544l-61 2l-9 6l-6 9l-2 11l2 11l6 9l9 6l11 2
h181l11 -2l9 -6l6 -9l2 -11l-2 -11l-6 -9l-9 -6l-60 -2v-356l22 -67l44 -44l42 -21h40l67 22l43 43l22 67v356l-60 2l-9 6l-6 9l-2 11l2 11l6 9l9 6l11 2h155l11 -2l9 -6l6 -9l2 -11l-2 -11l-6 -9l-9 -6l-61 -2l-1 -369l-26 -78l-7 -11l-52 -52l-11 -7l-77 -26l-63 -1
l-84 27l-11 7l-52 52l-7 11l-27 86v361z" />
    <glyph glyph-name="Yacute" unicode="&#xdd;" horiz-adv-x="543" 
d="M242 688l6 17l130 158l18 8l14 -2l34 -32l6 -10l2 -11l-2 -11l-8 -9l-156 -130l-14 -6l-16 3l-12 12zM61 544h-36l-11 2l-9 6l-6 9l-2 11l2 11l6 9l9 6l11 2h155l11 -2l9 -6l6 -9l2 -11l-2 -11l-6 -9l-9 -6l-11 -2h-26l130 -205l130 205l-63 2l-9 6l-6 9l-2 11l2 11l6 9
l9 6l11 2h155l11 -2l9 -6l6 -9l2 -11l-2 -11l-6 -9l-9 -6l-47 -2l-169 -265v-223h50l10 -2l9 -6l6 -9l3 -11l-3 -11l-6 -9l-9 -6l-10 -2h-182l-10 2l-10 6l-6 9l-2 11l2 11l6 9l10 6l60 2v223z" />
    <glyph glyph-name="agrave" unicode="&#xe0;" horiz-adv-x="517" 
d="M56 656l35 32l14 2l17 -8l131 -158l5 -9l2 -11l-7 -15l-8 -7l-11 -3l-15 3l-161 133l-7 9l-3 11l2 11zM155 347l-1 -45l-6 -9l-9 -6l-37 -2l-10 2l-9 6l-6 9l-3 37l3 11l6 9l33 31l52 26l12 3h104l12 -3l52 -26l33 -31l31 -59l3 -13v-175l21 -42l15 -14l25 -2l9 -6l6 -9
l2 -11l-2 -11l-6 -9l-9 -6l-11 -2l-36 2l-61 32l-14 24l-32 -29l-52 -26l-12 -3h-80l-94 33l-32 60l-3 13v52l3 12l32 60l92 33l146 24l12 12v28l-15 15l-42 21h-90zM189 208l-40 -20l-19 -37v-39l19 -37l38 -19h64l42 21l41 40v115z" />
    <glyph glyph-name="aacute" unicode="&#xe1;" horiz-adv-x="517" 
d="M202 507l6 17l132 158l16 8l14 -2l36 -32l6 -10l2 -11l-4 -11l-6 -9l-156 -130l-16 -6l-16 3l-12 12zM155 347l-1 -45l-6 -9l-9 -6l-37 -2l-10 2l-9 6l-6 9l-3 37l3 11l6 9l33 31l52 26l12 3h104l12 -3l52 -26l33 -31l31 -59l3 -13v-175l21 -42l15 -14l25 -2l9 -6l6 -9
l2 -11l-2 -11l-6 -9l-9 -6l-11 -2l-36 2l-61 32l-14 24l-32 -29l-52 -26l-12 -3h-80l-94 33l-32 60l-3 13v52l3 12l32 60l92 33l146 24l12 12v28l-15 15l-42 21h-90zM189 208l-40 -20l-19 -37v-39l19 -37l38 -19h64l42 21l41 40v115z" />
    <glyph glyph-name="acircumflex" unicode="&#xe2;" horiz-adv-x="517" 
d="M-3 503l1 12l12 15l217 133l20 -3l207 -130l12 -15l1 -11l-3 -10l-6 -9l-10 -5l-13 -1l-203 100l-203 -100h-11l-9 5l-8 7zM155 347l-1 -45l-6 -9l-9 -6l-37 -2l-10 2l-9 6l-6 9l-3 37l3 11l6 9l33 31l52 26l12 3h104l12 -3l52 -26l33 -31l31 -59l3 -13v-175l21 -42
l15 -14l25 -2l9 -6l6 -9l2 -11l-2 -11l-6 -9l-9 -6l-11 -2l-36 2l-61 32l-14 24l-32 -29l-52 -26l-12 -3h-80l-94 33l-32 60l-3 13v52l3 12l32 60l92 33l146 24l12 12v28l-15 15l-42 21h-90zM189 208l-40 -20l-19 -37v-39l19 -37l38 -19h64l42 21l41 40v115z" />
    <glyph glyph-name="atilde" unicode="&#xe3;" horiz-adv-x="517" 
d="M-29 560l27 86l6 9l60 33l13 3h51l13 -3l56 -29l102 -76l43 -22h39l37 19l19 38v45l2 11l6 9l9 6l11 2l11 -2l9 -6l6 -9l2 -65l-27 -85l-6 -9l-8 -7l-52 -26l-13 -3h-51l-13 3l-56 29l-102 76l-43 22h-39l-37 -19l-19 -37l-2 -56l-6 -9l-9 -6l-11 -3l-11 3l-9 6l-6 9z
M155 347l-1 -45l-6 -9l-9 -6l-37 -2l-10 2l-9 6l-6 9l-3 37l3 11l6 9l33 31l52 26l12 3h104l12 -3l52 -26l33 -31l31 -59l3 -13v-175l21 -42l15 -14l25 -2l9 -6l6 -9l2 -11l-2 -11l-6 -9l-9 -6l-11 -2l-36 2l-61 32l-14 24l-32 -29l-52 -26l-12 -3h-80l-94 33l-32 60l-3 13
v52l3 12l32 60l92 33l146 24l12 12v28l-15 15l-42 21h-90zM189 208l-40 -20l-19 -37v-39l19 -37l38 -19h64l42 21l41 40v115z" />
    <glyph glyph-name="adieresis" unicode="&#xe4;" horiz-adv-x="517" 
d="M112 553l35 32l11 2l11 -2l9 -6l32 -35l2 -11l-2 -11l-32 -35l-9 -6l-11 -2l-11 2l-35 32l-6 9l-2 11l2 11zM260 553l35 32l11 2l11 -2l9 -6l32 -35l2 -11l-2 -11l-32 -35l-9 -6l-11 -2l-11 2l-35 32l-6 9l-2 11l2 11zM155 347l-1 -45l-6 -9l-9 -6l-37 -2l-10 2l-9 6
l-6 9l-3 37l3 11l6 9l33 31l52 26l12 3h104l12 -3l52 -26l33 -31l31 -59l3 -13v-175l21 -42l15 -14l25 -2l9 -6l6 -9l2 -11l-2 -11l-6 -9l-9 -6l-11 -2l-36 2l-61 32l-14 24l-32 -29l-52 -26l-12 -3h-80l-94 33l-32 60l-3 13v52l3 12l32 60l92 33l146 24l12 12v28l-15 15
l-42 21h-90zM189 208l-40 -20l-19 -37v-39l19 -37l38 -19h64l42 21l41 40v115z" />
    <glyph glyph-name="aring" unicode="&#xe5;" horiz-adv-x="517" 
d="M142 713l53 27l63 2l12 -3l60 -31l31 -59l3 -13v-52l-3 -12l-31 -59l-60 -31l-12 -3h-52l-12 3l-60 31l-31 59l-3 12v52l3 13l26 52zM213 686l-38 -19l-19 -37v-39l19 -37l38 -19h38l38 19l19 37v39l-19 37l-38 19h-38zM155 347l-1 -45l-6 -9l-9 -6l-37 -2l-10 2l-9 6
l-6 9l-3 37l3 11l6 9l33 31l52 26l12 3h104l12 -3l52 -26l33 -31l31 -59l3 -13v-175l21 -42l15 -14l25 -2l9 -6l6 -9l2 -11l-2 -11l-6 -9l-9 -6l-11 -2l-36 2l-61 32l-14 24l-32 -29l-52 -26l-12 -3h-80l-94 33l-32 60l-3 13v52l3 12l32 60l92 33l146 24l12 12v28l-15 15
l-42 21h-90zM189 208l-40 -20l-19 -37v-39l19 -37l38 -19h64l42 21l41 40v115z" />
    <glyph glyph-name="ae" unicode="&#xe6;" horiz-adv-x="774" 
d="M189 208l-40 -20l-19 -37v-39l19 -37l38 -19h64l42 21l41 40v63l-1 3l1 49zM155 347l-1 -45l-6 -9l-9 -6l-37 -2l-10 2l-9 6l-6 9l-3 37l3 11l6 9l33 31l52 26l12 3h104l12 -3l52 -26l33 -31l4 -8l34 34l11 6l85 27l79 1l12 -3l52 -26l39 -39l25 -51l3 -13l-2 -62l-6 -10
l-9 -6l-11 -2h-282v-19l22 -67l44 -44l42 -21h40l67 22l57 54l10 2l11 -2l9 -6l6 -10l2 -10l-2 -11l-58 -61l-11 -7l-86 -27l-61 1l-22 7l-9 -6l-11 -2l-36 2l-61 32l-14 24l-32 -29l-52 -26l-12 -3h-80l-94 33l-32 60l-3 13v52l3 12l32 60l92 33l146 24l12 12v28l-15 15
l-42 21h-90zM523 363l-42 -21l-44 -44l-12 -35h219v43l-19 38l-38 19h-64z" />
    <glyph glyph-name="ccedilla" unicode="&#xe7;" horiz-adv-x="491" 
d="M256 -70l-22 22l-6 9l-2 11l2 11l6 9l8 6l12 2l10 -2l10 -6l26 -26l30 -59l4 -13l-2 -62l-32 -35l-10 -6l-10 -2l-12 2l-34 32l-6 9l-2 10l2 11l6 9l26 26l14 7zM228 418l82 1l12 -3l59 -31l52 -52l6 -9l2 -11v-26l-2 -11l-6 -9l-26 -26l-9 -6l-10 -2l-11 2l-9 6l-32 35
l-2 11l2 11l25 28l-16 16l-42 21h-64l-42 -21l-44 -44l-22 -67v-43l22 -67l44 -44l42 -21h40l67 22l57 54l10 2l11 -2l9 -6l6 -10l2 -10l-2 -11l-6 -9l-52 -52l-11 -7l-86 -27l-61 1l-77 26l-11 7l-52 52l-7 11l-27 86l1 61l26 78l7 11l52 52l11 6z" />
    <glyph glyph-name="egrave" unicode="&#xe8;" horiz-adv-x="491" 
d="M134 656l35 32l14 2l17 -8l131 -158l5 -9l2 -11l-7 -15l-8 -7l-11 -3l-15 3l-161 133l-7 9l-3 11l2 11zM231 418l79 1l12 -3l52 -26l39 -39l25 -51l3 -13l-2 -62l-6 -10l-9 -6l-11 -2h-282v-19l22 -67l44 -44l42 -21h40l67 22l57 54l10 2l11 -2l9 -6l6 -10l2 -10l-2 -11
l-58 -61l-11 -7l-86 -27l-61 1l-77 26l-11 7l-52 52l-7 11l-27 86l1 61l26 78l7 11l52 52l11 6zM239 363l-42 -21l-44 -44l-12 -35h219v43l-19 38l-38 19h-64z" />
    <glyph glyph-name="eacute" unicode="&#xe9;" horiz-adv-x="491" 
d="M214 507l6 17l130 158l18 8l14 -2l34 -32l6 -10l2 -11l-2 -11l-8 -9l-156 -130l-14 -6l-16 3l-12 12zM231 418l79 1l12 -3l52 -26l39 -39l25 -51l3 -13l-2 -62l-6 -10l-9 -6l-11 -2h-282v-19l22 -67l44 -44l42 -21h40l67 22l57 54l10 2l11 -2l9 -6l6 -10l2 -10l-2 -11
l-58 -61l-11 -7l-86 -27l-61 1l-77 26l-11 7l-52 52l-7 11l-27 86l1 61l26 78l7 11l52 52l11 6zM239 363l-42 -21l-44 -44l-12 -35h219v43l-19 38l-38 19h-64z" />
    <glyph glyph-name="ecircumflex" unicode="&#xea;" horiz-adv-x="491" 
d="M10 503l1 12l12 15l217 133l20 -3l207 -130l12 -15l1 -11l-3 -10l-6 -9l-10 -5l-13 -1l-203 100l-203 -100h-11l-9 5l-8 7zM231 418l79 1l12 -3l52 -26l39 -39l25 -51l3 -13l-2 -62l-6 -10l-9 -6l-11 -2h-282v-19l22 -67l44 -44l42 -21h40l67 22l57 54l10 2l11 -2l9 -6
l6 -10l2 -10l-2 -11l-58 -61l-11 -7l-86 -27l-61 1l-77 26l-11 7l-52 52l-7 11l-27 86l1 61l26 78l7 11l52 52l11 6zM239 363l-42 -21l-44 -44l-12 -35h219v43l-19 38l-38 19h-64z" />
    <glyph glyph-name="edieresis" unicode="&#xeb;" horiz-adv-x="491" 
d="M132 553l35 32l11 2l11 -2l9 -6l32 -35l2 -11l-2 -11l-32 -35l-9 -6l-11 -2l-11 2l-35 32l-6 9l-2 11l2 11zM280 553l35 32l11 2l11 -2l9 -6l32 -35l2 -11l-2 -11l-32 -35l-9 -6l-11 -2l-11 2l-35 32l-6 9l-2 11l2 11zM231 418l79 1l12 -3l52 -26l39 -39l25 -51l3 -13
l-2 -62l-6 -10l-9 -6l-11 -2h-282v-19l22 -67l44 -44l42 -21h40l67 22l57 54l10 2l11 -2l9 -6l6 -10l2 -10l-2 -11l-58 -61l-11 -7l-86 -27l-61 1l-77 26l-11 7l-52 52l-7 11l-27 86l1 61l26 78l7 11l52 52l11 6zM239 363l-42 -21l-44 -44l-12 -35h219v43l-19 38l-38 19h-64
z" />
    <glyph glyph-name="igrave" unicode="&#xec;" horiz-adv-x="286" 
d="M-33 656l35 32l14 2l17 -8l131 -158l5 -9l2 -11l-7 -15l-8 -7l-11 -3l-15 3l-161 133l-7 9l-3 11l2 11zM102 363l-60 2l-10 6l-6 9l-2 11l2 10l6 9l10 7l10 2h104l11 -2l9 -7l6 -9l2 -10v-335h50l10 -2l9 -6l6 -9l3 -11l-3 -11l-6 -9l-9 -6l-10 -2h-182l-10 2l-10 6l-6 9
l-2 11l2 11l6 9l10 6l60 2v307z" />
    <glyph glyph-name="iacute" unicode="&#xed;" horiz-adv-x="286" 
d="M114 507l6 17l130 158l18 8l14 -2l34 -32l6 -10l2 -11l-2 -11l-8 -9l-156 -130l-14 -6l-16 3l-12 12zM102 363l-60 2l-10 6l-6 9l-2 11l2 10l6 9l10 7l10 2h104l11 -2l9 -7l6 -9l2 -10v-335h50l10 -2l9 -6l6 -9l3 -11l-3 -11l-6 -9l-9 -6l-10 -2h-182l-10 2l-10 6l-6 9
l-2 11l2 11l6 9l10 6l60 2v307z" />
    <glyph glyph-name="icircumflex" unicode="&#xee;" horiz-adv-x="286" 
d="M-92 503l1 12l12 15l217 133l20 -3l207 -130l12 -15l1 -11l-3 -10l-6 -9l-10 -5l-13 -1l-203 100l-203 -100h-11l-9 5l-8 7zM102 363l-60 2l-10 6l-6 9l-2 11l2 10l6 9l10 7l10 2h104l11 -2l9 -7l6 -9l2 -10v-335h50l10 -2l9 -6l6 -9l3 -11l-3 -11l-6 -9l-9 -6l-10 -2
h-182l-10 2l-10 6l-6 9l-2 11l2 11l6 9l10 6l60 2v307z" />
    <glyph glyph-name="idieresis" unicode="&#xef;" horiz-adv-x="286" 
d="M23 553l35 32l11 2l11 -2l9 -6l32 -35l2 -11l-2 -11l-32 -35l-9 -6l-11 -2l-11 2l-35 32l-6 9l-2 11l2 11zM171 553l35 32l11 2l11 -2l9 -6l32 -35l2 -11l-2 -11l-32 -35l-9 -6l-11 -2l-11 2l-35 32l-6 9l-2 11l2 11zM102 363l-60 2l-10 6l-6 9l-2 11l2 10l6 9l10 7l10 2
h104l11 -2l9 -7l6 -9l2 -10v-335h50l10 -2l9 -6l6 -9l3 -11l-3 -11l-6 -9l-9 -6l-10 -2h-182l-10 2l-10 6l-6 9l-2 11l2 11l6 9l10 6l60 2v307z" />
    <glyph glyph-name="ntilde" unicode="&#xf1;" 
d="M23 560l27 86l6 9l60 33l13 3h51l13 -3l56 -29l102 -76l43 -22h39l37 19l19 38v45l2 11l6 9l9 6l11 2l11 -2l9 -6l6 -9l2 -65l-27 -85l-6 -9l-8 -7l-52 -26l-13 -3h-51l-13 3l-56 29l-102 76l-43 22h-39l-37 -19l-19 -37l-2 -56l-6 -9l-9 -6l-11 -3l-11 3l-9 6l-6 9z
M101 363l-61 2l-9 6l-6 9l-2 11l2 10l6 9l9 7l11 2h103l11 -2l9 -7l6 -9l2 -20l15 10l78 26l63 2l94 -33l32 -61l3 -12v-257h50l11 -2l9 -6l6 -9l2 -11l-2 -11l-6 -9l-9 -6l-11 -2h-181l-11 2l-9 6l-6 9l-2 11l2 11l6 9l9 6l11 2h50v250l-19 38l-38 19h-40l-68 -23l-39 -39
v-245h50l11 -2l9 -6l6 -9l2 -11l-2 -11l-6 -9l-9 -6l-11 -2h-181l-11 2l-9 6l-6 9l-2 11l2 11l6 9l9 6l11 2h50v307z" />
    <glyph glyph-name="ograve" unicode="&#xf2;" horiz-adv-x="519" 
d="M55 656l35 32l14 2l17 -8l131 -158l5 -9l2 -11l-7 -15l-8 -7l-11 -3l-15 3l-161 133l-7 9l-3 11l2 11zM147 391l84 28l63 -2l77 -26l11 -6l52 -52l7 -11l26 -78v-69l-26 -78l-7 -11l-52 -52l-11 -7l-77 -26l-63 -1l-84 27l-11 7l-52 52l-7 11l-26 78v69l26 78l7 11l52 52
zM278 56l42 21l44 44l22 67v43l-22 67l-44 44l-42 21h-38l-42 -21l-44 -44l-22 -67v-43l22 -67l44 -44l42 -21h38z" />
    <glyph glyph-name="oacute" unicode="&#xf3;" horiz-adv-x="519" 
d="M202 507l6 17l130 158l18 8l14 -2l34 -32l6 -10l2 -11l-2 -11l-8 -9l-156 -130l-14 -6l-16 3l-12 12zM147 391l84 28l63 -2l77 -26l11 -6l52 -52l7 -11l26 -78v-69l-26 -78l-7 -11l-52 -52l-11 -7l-77 -26l-63 -1l-84 27l-11 7l-52 52l-7 11l-26 78v69l26 78l7 11l52 52z
M278 56l42 21l44 44l22 67v43l-22 67l-44 44l-42 21h-38l-42 -21l-44 -44l-22 -67v-43l22 -67l44 -44l42 -21h38z" />
    <glyph glyph-name="ocircumflex" unicode="&#xf4;" horiz-adv-x="519" 
d="M-4 503l1 12l12 15l217 133l20 -3l207 -130l12 -15l1 -11l-3 -10l-6 -9l-10 -5l-13 -1l-203 100l-203 -100h-11l-9 5l-8 7zM147 391l84 28l63 -2l77 -26l11 -6l52 -52l7 -11l26 -78v-69l-26 -78l-7 -11l-52 -52l-11 -7l-77 -26l-63 -1l-84 27l-11 7l-52 52l-7 11l-26 78
v69l26 78l7 11l52 52zM278 56l42 21l44 44l22 67v43l-22 67l-44 44l-42 21h-38l-42 -21l-44 -44l-22 -67v-43l22 -67l44 -44l42 -21h38z" />
    <glyph glyph-name="otilde" unicode="&#xf5;" horiz-adv-x="519" 
d="M-30 560l27 86l6 9l60 33l13 3h51l13 -3l56 -29l102 -76l43 -22h39l37 19l19 38v45l2 11l6 9l9 6l11 2l11 -2l9 -6l6 -9l2 -65l-27 -85l-6 -9l-8 -7l-52 -26l-13 -3h-51l-13 3l-56 29l-102 76l-43 22h-39l-37 -19l-19 -37l-2 -56l-6 -9l-9 -6l-11 -3l-11 3l-9 6l-6 9z
M147 391l84 28l63 -2l77 -26l11 -6l52 -52l7 -11l26 -78v-69l-26 -78l-7 -11l-52 -52l-11 -7l-77 -26l-63 -1l-84 27l-11 7l-52 52l-7 11l-26 78v69l26 78l7 11l52 52zM278 56l42 21l44 44l22 67v43l-22 67l-44 44l-42 21h-38l-42 -21l-44 -44l-22 -67v-43l22 -67l44 -44
l42 -21h38z" />
    <glyph glyph-name="odieresis" unicode="&#xf6;" horiz-adv-x="519" 
d="M111 553l35 32l11 2l11 -2l9 -6l32 -35l2 -11l-2 -11l-32 -35l-9 -6l-11 -2l-11 2l-35 32l-6 9l-2 11l2 11zM259 553l35 32l11 2l11 -2l9 -6l32 -35l2 -11l-2 -11l-32 -35l-9 -6l-11 -2l-11 2l-35 32l-6 9l-2 11l2 11zM147 391l84 28l63 -2l77 -26l11 -6l52 -52l7 -11
l26 -78v-69l-26 -78l-7 -11l-52 -52l-11 -7l-77 -26l-63 -1l-84 27l-11 7l-52 52l-7 11l-26 78v69l26 78l7 11l52 52zM278 56l42 21l44 44l22 67v43l-22 67l-44 44l-42 21h-38l-42 -21l-44 -44l-22 -67v-43l22 -67l44 -44l42 -21h38z" />
    <glyph glyph-name="divide" unicode="&#xf7;" horiz-adv-x="673" 
d="M569 233h-466l-11 2l-9 6l-6 9l-2 11l2 11l6 9l9 6l11 2h466l11 -2l9 -6l6 -9l2 -11l-2 -11l-6 -9l-9 -6zM290 488l35 32l11 2l11 -2l9 -6l32 -35l2 -11l-2 -10l-32 -35l-9 -6l-11 -3l-11 3l-9 6l-32 35l-2 10l2 11zM290 74l35 32l11 2l11 -2l9 -6l32 -35l2 -11l-2 -11
l-32 -35l-9 -6l-11 -2l-11 2l-9 6l-32 35l-2 11l2 11z" />
    <glyph glyph-name="oslash" unicode="&#xf8;" horiz-adv-x="519" 
d="M278 56l42 21l44 44l22 67v43l-17 52l-189 -189l18 -17l42 -21h38zM147 391l84 28l63 -2l77 -26l11 -6l4 -5l16 16l9 6l11 2l10 -2l10 -6l6 -10l2 -10l-2 -11l-6 -9l-16 -16l8 -7l7 -11l26 -78v-69l-26 -78l-7 -11l-52 -52l-11 -7l-77 -26l-63 -1l-84 27l-11 7l-8 8
l-16 -16l-9 -6l-11 -2l-10 2l-10 6l-6 10l-2 10l2 11l6 9l16 16l-4 4l-7 11l-26 78v69l26 78l7 11l52 52zM147 141l187 187l-14 14l-42 21h-38l-42 -21l-44 -44l-22 -67v-43z" />
    <glyph glyph-name="ugrave" unicode="&#xf9;" 
d="M69 656l35 32l14 2l17 -8l131 -158l5 -9l2 -11l-7 -15l-8 -7l-11 -3l-15 3l-161 133l-7 9l-3 11l2 11zM101 363l-61 2l-9 6l-6 9l-2 11l2 10l6 9l9 7l11 2h103l11 -2l9 -7l6 -9l2 -10v-279l19 -37l38 -19h40l68 22l39 39v246l-61 2l-9 6l-6 9l-2 11l2 10l6 9l9 7l11 2
h103l11 -2l9 -7l6 -9l2 -10v-335h50l11 -2l9 -6l6 -9l2 -11l-2 -11l-6 -9l-9 -6l-11 -2h-103l-11 2l-9 6l-6 9l-2 21l-15 -11l-78 -26l-63 -1l-94 33l-32 60l-3 13v257z" />
    <glyph glyph-name="uacute" unicode="&#xfa;" 
d="M216 507l6 17l130 158l18 8l14 -2l34 -32l6 -10l2 -11l-2 -11l-8 -9l-156 -130l-14 -6l-16 3l-12 12zM101 363l-61 2l-9 6l-6 9l-2 11l2 10l6 9l9 7l11 2h103l11 -2l9 -7l6 -9l2 -10v-279l19 -37l38 -19h40l68 22l39 39v246l-61 2l-9 6l-6 9l-2 11l2 10l6 9l9 7l11 2h103
l11 -2l9 -7l6 -9l2 -10v-335h50l11 -2l9 -6l6 -9l2 -11l-2 -11l-6 -9l-9 -6l-11 -2h-103l-11 2l-9 6l-6 9l-2 21l-15 -11l-78 -26l-63 -1l-94 33l-32 60l-3 13v257z" />
    <glyph glyph-name="ucircumflex" unicode="&#xfb;" 
d="M10 503l1 12l12 15l217 133l20 -3l207 -130l12 -15l1 -11l-3 -10l-6 -9l-10 -5l-13 -1l-203 100l-203 -100h-11l-9 5l-8 7zM101 363l-61 2l-9 6l-6 9l-2 11l2 10l6 9l9 7l11 2h103l11 -2l9 -7l6 -9l2 -10v-279l19 -37l38 -19h40l68 22l39 39v246l-61 2l-9 6l-6 9l-2 11
l2 10l6 9l9 7l11 2h103l11 -2l9 -7l6 -9l2 -10v-335h50l11 -2l9 -6l6 -9l2 -11l-2 -11l-6 -9l-9 -6l-11 -2h-103l-11 2l-9 6l-6 9l-2 21l-15 -11l-78 -26l-63 -1l-94 33l-32 60l-3 13v257z" />
    <glyph glyph-name="udieresis" unicode="&#xfc;" 
d="M125 553l35 32l11 2l11 -2l9 -6l32 -35l2 -11l-2 -11l-32 -35l-9 -6l-11 -2l-11 2l-35 32l-6 9l-2 11l2 11zM273 553l35 32l11 2l11 -2l9 -6l32 -35l2 -11l-2 -11l-32 -35l-9 -6l-11 -2l-11 2l-35 32l-6 9l-2 11l2 11zM101 363l-61 2l-9 6l-6 9l-2 11l2 10l6 9l9 7l11 2
h103l11 -2l9 -7l6 -9l2 -10v-279l19 -37l38 -19h40l68 22l39 39v246l-61 2l-9 6l-6 9l-2 11l2 10l6 9l9 7l11 2h103l11 -2l9 -7l6 -9l2 -10v-335h50l11 -2l9 -6l6 -9l2 -11l-2 -11l-6 -9l-9 -6l-11 -2h-103l-11 2l-9 6l-6 9l-2 21l-15 -11l-78 -26l-63 -1l-94 33l-32 60
l-3 13v257z" />
    <glyph glyph-name="yacute" unicode="&#xfd;" horiz-adv-x="491" 
d="M228 507l6 17l132 158l16 8l14 -2l36 -32l6 -10l2 -11l-4 -11l-6 -9l-156 -130l-16 -6l-16 3l-12 12zM84 363h-33l-11 2l-9 6l-6 9l-2 11l2 10l6 9l9 7l11 2h155l11 -2l9 -7l6 -9l2 -10l-2 -11l-6 -9l-9 -6l-11 -2h-36l99 -238l102 238l-72 2l-9 6l-6 9l-2 11l2 10l6 9
l9 7l11 2h155l11 -2l9 -7l6 -9l2 -10l-2 -11l-6 -9l-9 -6l-44 -2l-148 -346l-53 -105l-57 -59l-59 -31l-12 -3h-26l-11 2l-9 6l-32 35l-2 11l2 10l32 35l9 6l11 2l10 -2l9 -6l29 -29l13 7l45 45l44 88z" />
    <glyph glyph-name="ydieresis" unicode="&#xff;" horiz-adv-x="491" 
d="M138 553l35 32l11 2l11 -2l9 -6l32 -35l2 -11l-2 -11l-32 -35l-9 -6l-11 -2l-11 2l-35 32l-6 9l-2 11l2 11zM286 553l35 32l11 2l11 -2l9 -6l32 -35l2 -11l-2 -11l-32 -35l-9 -6l-11 -2l-11 2l-35 32l-6 9l-2 11l2 11zM84 363h-33l-11 2l-9 6l-6 9l-2 11l2 10l6 9l9 7
l11 2h155l11 -2l9 -7l6 -9l2 -10l-2 -11l-6 -9l-9 -6l-11 -2h-36l99 -238l102 238l-72 2l-9 6l-6 9l-2 11l2 10l6 9l9 7l11 2h155l11 -2l9 -7l6 -9l2 -10l-2 -11l-6 -9l-9 -6l-44 -2l-148 -346l-53 -105l-57 -59l-59 -31l-12 -3h-26l-11 2l-9 6l-32 35l-2 11l2 10l32 35l9 6
l11 2l10 -2l9 -6l29 -29l13 7l45 45l44 88z" />
    <glyph glyph-name="dotlessi" unicode="&#x131;" horiz-adv-x="286" 
d="M102 363l-60 2l-10 6l-6 9l-2 11l2 10l6 9l10 7l10 2h104l11 -2l9 -7l6 -9l2 -10v-335h50l10 -2l9 -6l6 -9l3 -11l-3 -11l-6 -9l-9 -6l-10 -2h-182l-10 2l-10 6l-6 9l-2 11l2 11l6 9l10 6l60 2v307z" />
    <glyph glyph-name="Wcircumflex" unicode="&#x174;" horiz-adv-x="623" 
d="M76 684l1 12l12 15l217 133l20 -3l207 -130l12 -15l1 -11l-3 -10l-6 -9l-10 -5l-13 -1l-203 100l-203 -100h-11l-9 5l-8 7zM81 544l-66 2l-9 6l-6 9l-2 11l2 11l6 9l9 6l11 2h181l11 -2l9 -6l6 -9l2 -11l-2 -11l-6 -9l-9 -6l-55 -2l57 -301l64 335l4 10l7 7l10 4l19 -3
l19 3l10 -4l7 -8l4 -10l63 -334l57 301l-54 2l-9 6l-6 9l-2 11l2 11l6 9l9 6l11 2h155l11 -2l9 -6l6 -9l2 -11l-2 -11l-6 -9l-9 -6l-66 -2l-99 -522l-4 -10l-8 -7l-10 -4l-11 -1l-10 5l-8 7l-4 10l-76 400l-76 -400l-4 -10l-8 -7l-10 -5l-11 1l-10 4l-8 8l-4 10z" />
    <glyph glyph-name="wcircumflex" unicode="&#x175;" horiz-adv-x="623" 
d="M76 503l1 12l12 15l217 133l20 -3l207 -130l12 -15l1 -11l-3 -10l-6 -9l-10 -5l-13 -1l-203 100l-203 -100h-11l-9 5l-8 7zM83 363l-68 2l-9 6l-6 9l-2 11l2 10l6 9l9 7l11 2h181l11 -2l9 -7l6 -9l2 -10l-2 -11l-6 -9l-9 -6l-11 -2h-41l53 -193l68 234l7 9l14 5l17 -3
l15 3l11 -3l8 -7l5 -10l62 -228l55 193h-40l-11 2l-9 6l-6 9l-2 11l2 10l6 9l9 7l11 2h155l11 -2l9 -7l6 -9l2 -10l-2 -11l-6 -9l-9 -6l-68 -2l-97 -343l-10 -14l-14 -6l-17 4l-8 7l-5 9l-77 269l-79 -275l-11 -10l-10 -4l-17 4l-9 7l-5 9z" />
    <glyph glyph-name="Ycircumflex" unicode="&#x176;" horiz-adv-x="543" 
d="M36 684l1 12l12 15l217 133l20 -3l207 -130l12 -15l1 -11l-3 -10l-6 -9l-10 -5l-13 -1l-203 100l-203 -100h-11l-9 5l-8 7zM61 544h-36l-11 2l-9 6l-6 9l-2 11l2 11l6 9l9 6l11 2h155l11 -2l9 -6l6 -9l2 -11l-2 -11l-6 -9l-9 -6l-11 -2h-26l130 -205l130 205l-63 2l-9 6
l-6 9l-2 11l2 11l6 9l9 6l11 2h155l11 -2l9 -6l6 -9l2 -11l-2 -11l-6 -9l-9 -6l-47 -2l-169 -265v-223h50l10 -2l9 -6l6 -9l3 -11l-3 -11l-6 -9l-9 -6l-10 -2h-182l-10 2l-10 6l-6 9l-2 11l2 11l6 9l10 6l60 2v223z" />
    <glyph glyph-name="ycircumflex" unicode="&#x177;" horiz-adv-x="491" 
d="M23 503l1 12l12 15l217 133l20 -3l207 -130l12 -15l1 -11l-3 -10l-6 -9l-10 -5l-13 -1l-203 100l-203 -100h-11l-9 5l-8 7zM84 363h-33l-11 2l-9 6l-6 9l-2 11l2 10l6 9l9 7l11 2h155l11 -2l9 -7l6 -9l2 -10l-2 -11l-6 -9l-9 -6l-11 -2h-36l99 -238l102 238l-72 2l-9 6
l-6 9l-2 11l2 10l6 9l9 7l11 2h155l11 -2l9 -7l6 -9l2 -10l-2 -11l-6 -9l-9 -6l-44 -2l-148 -346l-53 -105l-57 -59l-59 -31l-12 -3h-26l-11 2l-9 6l-32 35l-2 11l2 10l32 35l9 6l11 2l10 -2l9 -6l29 -29l13 7l45 45l44 88z" />
    <glyph glyph-name="Ydieresis" unicode="&#x178;" horiz-adv-x="543" 
d="M151 734l35 32l11 2l11 -2l9 -6l32 -35l2 -11l-2 -11l-32 -35l-9 -6l-11 -2l-11 2l-35 32l-6 9l-2 11l2 11zM299 734l35 32l11 2l11 -2l9 -6l32 -35l2 -11l-2 -11l-32 -35l-9 -6l-11 -2l-11 2l-35 32l-6 9l-2 11l2 11zM61 544h-36l-11 2l-9 6l-6 9l-2 11l2 11l6 9l9 6
l11 2h155l11 -2l9 -6l6 -9l2 -11l-2 -11l-6 -9l-9 -6l-11 -2h-26l130 -205l130 205l-63 2l-9 6l-6 9l-2 11l2 11l6 9l9 6l11 2h155l11 -2l9 -6l6 -9l2 -11l-2 -11l-6 -9l-9 -6l-47 -2l-169 -265v-223h50l10 -2l9 -6l6 -9l3 -11l-3 -11l-6 -9l-9 -6l-10 -2h-182l-10 2l-10 6
l-6 9l-2 11l2 11l6 9l10 6l60 2v223z" />
    <glyph glyph-name="uni02BE" unicode="&#x2be;" horiz-adv-x="261" 
d="M107 530l-23 22l-6 9l-2 11l2 11l6 9l9 6l11 2l11 -2l9 -6l26 -26l31 -59l3 -13l-2 -62l-32 -35l-9 -6l-11 -2l-11 2l-35 32l-6 9l-2 10l2 11l6 9l26 26l14 7z" />
    <glyph glyph-name="uni02BF" unicode="&#x2bf;" horiz-adv-x="261" 
d="M136 493l17 -34l29 -32l2 -10l-2 -11l-6 -9l-9 -6l-11 -2l-11 2l-35 32l-31 59l-3 12l2 63l32 35l9 6l11 2l11 -2l9 -6l26 -26l6 -9l2 -11l-2 -11l-6 -9l-26 -26z" />
    <glyph glyph-name="breve" unicode="&#x2d8;" horiz-adv-x="517" 
d="M49 572l3 13l12 12l15 3l10 -3l13 -12l24 -48l44 -44l67 -23h42l67 23l44 44l24 48l13 12l14 3l17 -7l6 -8l3 -15l-27 -85l-7 -11l-52 -51l-11 -7l-77 -26l-61 -1l-86 27l-11 7l-52 51l-7 11z" />
    <glyph glyph-name="Alpha" unicode="&#x391;" horiz-adv-x="517" 
d="M56 56l175 525l6 9l8 7l11 3l11 -1l12 -9l6 -9l175 -525h31l11 -2l9 -6l6 -9l2 -11l-2 -11l-6 -9l-9 -6l-11 -2h-155l-11 2l-9 6l-6 9l-2 11l2 11l6 9l9 6l11 2h39l-34 99h-192l-33 -99h64l11 -2l9 -6l6 -9l2 -11l-2 -11l-6 -9l-9 -6l-166 -2l-11 2l-9 6l-6 9l-2 11l2 11
l6 9l9 6l11 2h31zM245 445l-78 -234h156z" />
    <glyph glyph-name="Beta" unicode="&#x392;" 
d="M101 544l-61 2l-9 6l-6 9l-2 11l2 11l6 9l9 6l11 2h313l84 -27l11 -7l31 -33l26 -52l3 -13v-51l-3 -13l-26 -52l-31 -33l-10 -6l10 -6l26 -26l31 -59l3 -13v-77l-3 -13l-26 -52l-31 -33l-11 -7l-84 -27h-313l-11 2l-9 6l-6 9l-2 11l2 11l6 9l9 6l11 2h50v488zM182 544
v-203h173l42 21l19 19l21 42v39l-21 42l-19 19l-42 21h-173zM182 56h173l42 21l19 19l21 42v65l-21 42l-19 19l-42 21h-173v-229z" />
    <glyph glyph-name="Gamma" unicode="&#x393;" horiz-adv-x="465" 
d="M100 544l-60 2l-9 6l-6 9l-2 11l2 11l6 9l9 6l11 2h388l11 -2l9 -6l6 -9l2 -166l-7 -19l-18 -9l-20 5l-10 18l-22 132h-208v-488h50l11 -2l9 -6l6 -9l2 -11l-2 -11l-6 -9l-9 -6l-11 -2h-181l-11 2l-9 6l-6 9l-2 11l2 11l6 9l9 6l60 2v488z" />
    <glyph glyph-name="uni0394" unicode="&#x394;" horiz-adv-x="517" 
d="M25 17l-2 11l2 10l207 545l7 9l9 6l11 2l10 -2l9 -7l6 -9l207 -544l2 -11l-2 -10l-7 -9l-19 -8h-414l-11 2l-9 6zM101 82h287l-145 373z" />
    <glyph glyph-name="Epsilon" unicode="&#x395;" horiz-adv-x="543" 
d="M101 544l-61 2l-9 6l-6 9l-2 11l2 11l6 9l9 6l11 2h414l11 -2l9 -6l6 -9l2 -11v-155l-7 -19l-18 -9l-20 5l-10 18l-22 132h-234v-203h100l2 86l6 9l9 6l11 3l11 -3l9 -6l6 -9l2 -10v-208l-2 -10l-6 -9l-9 -7l-11 -2l-11 2l-9 7l-6 9l-2 10v76h-100v-229h234l22 132l10 18
l20 5l18 -9l7 -19v-155l-2 -11l-6 -9l-9 -6l-11 -2h-414l-11 2l-9 6l-6 9l-2 11l2 11l6 9l9 6l11 2h50v488z" />
    <glyph glyph-name="Zeta" unicode="&#x396;" horiz-adv-x="517" 
d="M126 544l-25 -142l-16 -12l-21 1l-13 15l-2 11v155l2 11l6 9l9 6l11 2h362l11 -2l12 -10l5 -16l-4 -15l-310 -501h237l22 132l10 18l20 5l18 -9l7 -19v-155l-2 -11l-6 -9l-9 -6l-11 -2h-362l-11 2l-12 10l-5 16l4 15l310 501h-237z" />
    <glyph glyph-name="Eta" unicode="&#x397;" horiz-adv-x="621" 
d="M101 544l-61 2l-9 6l-6 9l-2 11l2 11l6 9l9 6l11 2h181l11 -2l9 -6l6 -9l2 -11l-2 -11l-6 -9l-9 -6l-60 -2v-203h254v203l-60 2l-9 6l-6 9l-2 11l2 11l6 9l9 6l11 2h181l11 -2l9 -6l6 -9l2 -11l-2 -11l-6 -9l-9 -6l-11 -2h-50v-488h50l11 -2l9 -6l6 -9l2 -11l-2 -11
l-6 -9l-9 -6l-11 -2h-181l-11 2l-9 6l-6 9l-2 11l2 11l6 9l9 6l60 2v229h-254v-229l60 -2l9 -6l6 -9l2 -11l-2 -11l-6 -9l-9 -6l-11 -2h-181l-11 2l-9 6l-6 9l-2 11l2 11l6 9l9 6l11 2h50v488z" />
    <glyph glyph-name="Theta" unicode="&#x398;" 
d="M172 573l84 27h54l86 -27l11 -7l52 -52l33 -65l26 -103l1 -85l-29 -116l-31 -59l-52 -52l-11 -7l-77 -26l-63 -1l-84 27l-11 7l-52 52l-33 65l-26 103v92l26 103l28 58l57 59zM303 56l42 21l46 45l22 45l24 98v70l-24 98l-22 45l-46 45l-42 21h-38l-42 -21l-46 -45
l-22 -45l-24 -98v-70l24 -98l22 -45l46 -45l42 -21h38zM178 313v78l2 10l6 9l10 7l10 2l11 -2l9 -7l6 -9l2 -60h100l2 60l6 9l9 7l11 2l10 -2l10 -7l6 -9l2 -10v-182l-2 -10l-6 -9l-10 -7l-10 -2l-11 2l-9 7l-6 9l-2 10v50h-100l-2 -60l-6 -9l-9 -7l-11 -2l-10 2l-10 7l-6 9
l-2 10v104z" />
    <glyph glyph-name="Iota" unicode="&#x399;" horiz-adv-x="286" 
d="M102 544l-60 2l-10 6l-6 9l-2 11l2 11l6 9l10 6l10 2h182l10 -2l9 -6l6 -9l3 -11l-3 -11l-6 -9l-9 -6l-60 -2v-488h50l10 -2l9 -6l6 -9l3 -11l-3 -11l-6 -9l-9 -6l-10 -2h-182l-10 2l-10 6l-6 9l-2 11l2 11l6 9l10 6l60 2v488z" />
    <glyph glyph-name="Kappa" unicode="&#x39a;" 
d="M101 544l-61 2l-9 6l-6 9l-2 11l2 11l6 9l9 6l11 2h181l11 -2l9 -6l6 -9l2 -11l-2 -11l-6 -9l-9 -6l-60 -2v-241l241 241h-36l-11 2l-9 6l-6 9l-2 11l2 11l6 9l9 6l11 2h155l11 -2l9 -6l6 -9l2 -11l-2 -11l-6 -9l-9 -6l-11 -2h-40l-193 -193l196 -295h37l11 -2l9 -6l6 -9
l2 -11l-2 -11l-6 -9l-9 -6l-11 -2h-155l-11 2l-9 6l-6 9l-2 11l2 11l6 9l9 6l11 2h25l-159 239l-71 -71v-168h49l11 -2l9 -6l6 -9l2 -11l-2 -11l-6 -9l-9 -6l-11 -2h-181l-11 2l-9 6l-6 9l-2 11l2 11l6 9l9 6l11 2h50v488z" />
    <glyph glyph-name="Lambda" unicode="&#x39b;" horiz-adv-x="517" 
d="M56 56l175 525l6 9l8 7l11 3l11 -1l12 -9l6 -9l175 -525h31l11 -2l9 -6l6 -9l2 -11l-2 -11l-6 -9l-9 -6l-11 -2h-155l-11 2l-9 6l-6 9l-2 11l2 11l6 9l9 6l50 2l-130 389l-129 -389l75 -2l9 -6l6 -9l2 -11l-2 -11l-6 -9l-9 -6l-11 -2h-155l-11 2l-9 6l-6 9l-2 11l2 11
l6 9l9 6l11 2h31z" />
    <glyph glyph-name="Mu" unicode="&#x39c;" horiz-adv-x="648" 
d="M101 544l-61 2l-9 6l-6 9l-2 11l2 11l6 9l9 6l11 2h104l12 -3l13 -14l143 -428l142 426l5 9l9 7l12 3h104l11 -2l9 -6l6 -9l2 -11l-2 -11l-6 -9l-9 -6l-11 -2h-50v-488h50l11 -2l9 -6l6 -9l2 -11l-2 -11l-6 -9l-9 -6l-11 -2h-181l-11 2l-9 6l-6 9l-2 11l2 11l6 9l9 6
l60 2v343l-128 -384l-7 -8l-16 -7l-11 1l-9 6l-9 12l-126 380v-343l60 -2l9 -6l6 -9l2 -11l-2 -11l-6 -9l-9 -6l-11 -2h-155l-11 2l-9 6l-6 9l-2 11l2 11l6 9l9 6l11 2h50v488z" />
    <glyph glyph-name="Nu" unicode="&#x39d;" horiz-adv-x="595" 
d="M101 544l-61 2l-9 6l-6 9l-2 11l2 11l6 9l9 6l11 2h103l11 -2l9 -6l263 -415v367l-60 2l-9 6l-6 9l-2 11l2 11l6 9l9 6l11 2h155l11 -2l9 -6l6 -9l2 -11l-2 -11l-6 -9l-9 -6l-11 -2h-50v-516l-5 -16l-8 -8l-10 -4l-11 1l-10 4l-7 8l-285 451v-408l60 -2l9 -6l6 -9l2 -11
l-2 -11l-6 -9l-9 -6l-11 -2h-155l-11 2l-9 6l-6 9l-2 11l2 11l6 9l9 6l11 2h50v488z" />
    <glyph glyph-name="Xi" unicode="&#x39e;" horiz-adv-x="571" 
d="M50 474l26 129l4 10l8 8l10 4h11l10 -4l8 -8l4 -10l-4 -29h332l6 29l4 10l8 8l10 4h11l10 -4l8 -8l4 -10l-26 -140l-4 -10l-8 -8l-10 -4h-11l-10 4l-8 8l-4 10l4 29h-332l-10 -39l-8 -8l-10 -4h-11l-10 4l-8 8l-4 10v11zM50 8l26 129l4 10l8 8l10 4h11l10 -4l8 -8l4 -10
l-4 -29h332l6 29l4 10l8 8l10 4h11l10 -4l8 -8l4 -10l-26 -140l-4 -10l-8 -8l-10 -4h-11l-10 4l-8 8l-4 10l4 29h-332l-10 -39l-8 -8l-10 -4h-11l-10 4l-8 8l-4 10v11zM154 241l26 129l4 10l8 8l10 4h11l10 -4l8 -8l4 -10l-4 -29h124l6 29l4 10l8 8l10 4h11l10 -4l8 -8
l4 -10v-11l-26 -129l-4 -10l-8 -8l-10 -4h-11l-10 4l-8 8l-4 10l4 29h-124l-10 -39l-8 -8l-10 -4h-11l-10 4l-8 8l-4 10v11z" />
    <glyph glyph-name="Omicron" unicode="&#x39f;" 
d="M172 573l84 27h54l86 -27l11 -7l52 -52l33 -65l26 -103l1 -85l-29 -116l-31 -59l-52 -52l-11 -7l-77 -26l-63 -1l-84 27l-11 7l-52 52l-33 65l-26 103v92l26 103l28 58l57 59zM303 56l42 21l46 45l22 45l24 98v70l-24 98l-22 45l-46 45l-42 21h-38l-42 -21l-46 -45
l-22 -45l-24 -98v-70l24 -98l22 -45l46 -45l42 -21h38z" />
    <glyph glyph-name="Pi" unicode="&#x3a0;" horiz-adv-x="621" 
d="M101 544l-61 2l-9 6l-6 9l-2 11l2 11l6 9l9 6l11 2h518l11 -2l9 -6l6 -9l2 -11l-2 -11l-6 -9l-9 -6l-11 -2h-50v-488h50l11 -2l9 -6l6 -9l2 -11l-2 -11l-6 -9l-9 -6l-11 -2h-181l-11 2l-9 6l-6 9l-2 11l2 11l6 9l9 6l60 2v488h-254v-488l60 -2l9 -6l6 -9l2 -11l-2 -11
l-6 -9l-9 -6l-11 -2h-181l-11 2l-9 6l-6 9l-2 11l2 11l6 9l9 6l11 2h50v488z" />
    <glyph glyph-name="Rho" unicode="&#x3a1;" 
d="M101 544l-61 2l-9 6l-6 9l-2 11l2 11l6 9l9 6l11 2h313l84 -27l11 -7l31 -33l26 -52l3 -13v-77l-3 -13l-26 -52l-31 -33l-11 -7l-84 -27h-182v-203h50l11 -2l9 -6l6 -9l2 -11l-2 -11l-6 -9l-9 -6l-11 -2h-181l-11 2l-9 6l-6 9l-2 11l2 11l6 9l9 6l61 2v488zM182 544v-229
h173l42 21l19 19l21 42v65l-21 42l-19 19l-42 21h-173z" />
    <glyph glyph-name="Sigma" unicode="&#x3a3;" horiz-adv-x="544" 
d="M23 26l5 18l183 251l-183 261l-5 16l4 15l13 11l11 2h388l18 -7l10 -16l26 -156l-4 -20l-17 -12l-20 3l-13 16l-46 136h-263l151 -215l4 -11v-11l-4 -11l-156 -214h277l37 110l13 16l20 3l17 -12l4 -20l-29 -165l-15 -12l-10 -2h-388l-11 2l-9 6z" />
    <glyph glyph-name="Tau" unicode="&#x3a4;" horiz-adv-x="491" 
d="M100 544l-25 -142l-16 -12l-21 1l-13 15l-2 11v155l2 11l6 9l9 6l11 2h388l11 -2l9 -6l6 -9l2 -166l-7 -19l-18 -9l-20 5l-10 18l-22 132h-104v-488h50l10 -2l9 -6l6 -9l3 -11l-3 -11l-6 -9l-9 -6l-10 -2h-182l-10 2l-10 6l-6 9l-2 11l2 11l6 9l10 6l60 2v488h-104z" />
    <glyph glyph-name="Upsilon" unicode="&#x3a5;" horiz-adv-x="491" 
d="M23 494l3 13l31 59l26 26l9 6l10 2l63 -2l35 -32l32 -61l13 -51l13 51l27 54l40 39l62 2l11 -2l40 -39l27 -54l2 -11v-52l-2 -10l-6 -9l-9 -6l-11 -3l-10 3l-10 6l-6 9l-2 10v41l-35 35h-29l-38 -38l-23 -93v-331h50l10 -2l9 -6l6 -9l3 -11l-3 -11l-6 -9l-9 -6l-10 -2
h-182l-10 2l-10 6l-6 9l-2 11l2 11l6 9l10 6l10 2h50v331l-23 93l-38 38h-29l-35 -35l-2 -51l-7 -9l-9 -6l-10 -3l-11 3l-9 6l-6 9z" />
    <glyph glyph-name="Phi" unicode="&#x3a6;" horiz-adv-x="543" 
d="M120 443l77 26l33 1v74h-50l-10 2l-10 6l-6 9l-2 11l2 11l6 9l10 6l10 2h182l10 -2l9 -6l6 -9l3 -11l-3 -11l-6 -9l-9 -6l-60 -2v-74l33 -1l77 -26l11 -7l26 -26l31 -59l3 -12v-78l-3 -12l-26 -52l-31 -33l-11 -7l-77 -26l-33 -1v-74h50l10 -2l9 -6l6 -9l3 -11l-3 -11
l-6 -9l-9 -6l-10 -2h-182l-10 2l-10 6l-6 9l-2 11l2 11l6 9l10 6l60 2v74l-33 1l-77 26l-11 7l-31 33l-26 52l-3 12v78l3 12l31 59l26 26zM230 414h-17l-42 -20l-20 -20l-20 -42v-64l20 -42l20 -20l42 -20h17v228zM329 186l42 20l19 20l21 42v64l-21 42l-19 20l-42 20h-17
v-228h17z" />
    <glyph glyph-name="Chi" unicode="&#x3a7;" horiz-adv-x="517" 
d="M62 56l156 234l-157 254h-36l-11 2l-9 6l-6 9l-2 11l2 11l6 9l9 6l11 2h155l11 -2l9 -6l6 -9l2 -11l-2 -11l-6 -9l-9 -6l-11 -2h-27l113 -182l121 182h-51l-11 2l-9 6l-6 9l-2 11l2 11l6 9l9 6l11 2h155l11 -2l9 -6l6 -9l2 -11l-2 -11l-6 -9l-9 -6l-11 -2h-37l-156 -234
l157 -254h36l11 -2l9 -6l6 -9l2 -11l-2 -11l-6 -9l-9 -6l-11 -2h-155l-11 2l-9 6l-6 9l-2 11l2 11l6 9l9 6l11 2h27l-113 182l-121 -182h51l11 -2l9 -6l6 -9l2 -11l-2 -11l-6 -9l-9 -6l-11 -2h-155l-11 2l-9 6l-6 9l-2 11l2 11l6 9l9 6l11 2h37z" />
    <glyph glyph-name="Psi" unicode="&#x3a8;" horiz-adv-x="595" 
d="M57 436l10 7l10 2l10 -3l54 -26l9 -8l6 -11l25 -100l22 -45l20 -20l33 -16v328h-50l-10 2l-10 6l-6 9l-2 11l2 11l6 9l10 6l10 2h182l10 -2l9 -6l6 -9l3 -11l-3 -11l-6 -9l-9 -6l-60 -2v-328l33 16l20 20l22 45l25 100l5 11l10 8l52 26l12 3l11 -3l9 -6l26 -26l6 -9
l2 -10l-2 -11l-6 -9l-9 -6l-11 -2l-11 2l-15 11l-25 -96l-33 -65l-26 -25l-11 -7l-84 -27v-100h50l10 -2l9 -6l6 -9l3 -11l-3 -11l-6 -9l-9 -6l-10 -2h-182l-10 2l-10 6l-6 9l-2 11l2 11l6 9l10 6l10 2h50v100l-84 27l-11 7l-32 33l-28 57l-24 96l-15 -11l-11 -2l-11 2l-9 6
l-6 9l-2 11l2 10z" />
    <glyph glyph-name="uni03A9" unicode="&#x3a9;" 
d="M76 19l-26 78l-1 11l3 10l6 9l10 5l11 2l10 -3l9 -7l5 -9l11 -33h34l-70 141l-29 90l1 112l26 78l7 11l52 52l11 7l84 27h108l84 -27l11 -7l52 -52l7 -11l27 -86l-1 -113l-28 -81l-70 -141h34l11 33l5 9l9 7l10 3l11 -2l10 -5l6 -9l3 -10l-1 -11l-26 -78l-6 -10l-9 -7
l-12 -2h-103l-11 2l-10 7l-6 9l-1 12l3 11l51 101l25 75l24 99v96l-22 67l-44 44l-42 21h-90l-42 -21l-44 -44l-22 -67v-96l24 -99l25 -75l51 -101l3 -11l-1 -12l-6 -9l-10 -7l-11 -2h-103l-12 2l-9 7z" />
    <glyph glyph-name="alpha" unicode="&#x3b1;" horiz-adv-x="595" 
d="M172 391l84 28l65 -2l61 -32l31 -60l9 -35l17 34l31 85l9 7l10 3l11 -2l10 -5l6 -9l3 -10l-1 -11l-28 -82l-47 -94l23 -91l22 -45l15 -14l25 -2l9 -6l6 -9l2 -11l-2 -11l-6 -9l-9 -6l-11 -2h-26l-10 2l-54 27l-13 12l-26 52l-5 20l-79 -79l-59 -31l-13 -3h-54l-94 33
l-32 60l-3 13l1 86l26 78l28 55l57 60zM298 363h-33l-42 -21l-46 -46l-22 -46l-24 -71v-67l18 -37l38 -19h39l41 21l73 72l25 37l-30 117l-22 45z" />
    <glyph glyph-name="beta" unicode="&#x3b2;" horiz-adv-x="544" 
d="M64 -178l-16 -3l-10 3l-8 7l-5 10l-1 11l26 207l26 157l26 106l28 83l52 104l57 59l11 7l78 26l61 1l10 -2l61 -32l26 -26l6 -9l2 -11v-78l-3 -12l-26 -52l-31 -33l-11 -7l-54 -18l45 -46l26 -52l3 -13v-77l-3 -13l-26 -52l-31 -33l-11 -7l-85 -27h-54l-12 3l-52 26
l-35 34l-28 -220l-4 -10l-7 -8l-10 -5l-11 -1zM152 174l28 -79l18 -18l42 -21h38l42 21l20 19l21 42v65l-21 42l-44 43l-79 28l-9 10l-3 13l6 17l11 9l108 2l42 21l20 19l20 42v60l-35 35h-34l-41 -21l-46 -45l-49 -98l-25 -75z" />
    <glyph glyph-name="gamma" unicode="&#x3b3;" horiz-adv-x="517" 
d="M67 316l-22 -23l-9 -6l-11 -2l-11 2l-9 6l-6 9l-2 11l2 11l6 9l52 52l59 31l12 3h52l13 -3l52 -26l33 -31l7 -11l25 -78l2 -85l75 139l31 85l9 7l10 3l15 -4l11 4l11 -2l10 -5l6 -9l3 -10l-27 -89l-28 -55l-131 -185l-41 -68l-59 -159l-6 -9l-9 -7l-11 -2l-14 3l-15 -3
l-10 3l-9 6l-5 10l-2 11l55 114l34 57l16 42l25 99v96l-21 62l-35 18h-91z" />
    <glyph glyph-name="delta" unicode="&#x3b4;" horiz-adv-x="492" 
d="M109 33l-32 34l-25 52l-3 13l1 86l26 78l61 91l86 30l39 2l-29 37l-26 52l-3 12l2 63l6 9l35 32l63 2l12 -3l59 -31l52 -52l8 -14v-11l-4 -10l-13 -11l-11 -2l-15 5l-71 47h-32l-9 -10v-33l22 -44l24 -37l51 -64l29 -56l3 -13v-78l-27 -86l-61 -91l-86 -31l-61 -1l-12 3z
M315 344l-38 19h-38l-40 -20l-45 -68l-24 -70v-93l19 -37l38 -19h38l40 20l45 68l24 70v92z" />
    <glyph glyph-name="epsilon" unicode="&#x3b5;" horiz-adv-x="465" 
d="M123 237l35 7l-55 58l-3 11l2 62l14 15l53 27l115 2l12 -3l59 -31l58 -61l2 -11l-2 -11l-6 -9l-9 -6l-11 -2l-10 2l-9 6l-49 49l-42 21h-85l-10 -10v-28l41 -41l53 -28l8 -12l2 -13l-7 -14l-12 -8l-98 -25l-39 -38v-34l19 -37l38 -19h64l42 21l58 55l11 2l10 -2l9 -6
l6 -10l3 -10l-3 -11l-6 -9l-51 -52l-60 -31l-12 -3l-87 1l-77 26l-10 6l-7 8l-25 52l-3 13l2 62l58 61z" />
    <glyph glyph-name="zeta" unicode="&#x3b6;" horiz-adv-x="465" 
d="M324 393l-100 -75l-71 -72l-23 -67v-41l21 -42l47 -46l75 -51l10 -10l26 -52l3 -13l-2 -62l-32 -35l-9 -6l-11 -2l-63 2l-35 32l-6 9l-2 11l2 10l6 9l9 6l11 3l11 -3l9 -6l18 -17h28l10 9v34l-20 39l-149 100l-10 10l-25 52l-3 13l1 60l26 78l7 11l82 81l77 52l26 13
l-45 15l-11 7l-26 25l-6 10l-2 10v26l2 11l6 9l26 26l59 31l11 3l11 -1l9 -6l7 -8l3 -11l-2 -11l-5 -9l-9 -7l-47 -24l-15 -14l13 -16l67 -23h43l84 26l10 -2l14 -15l2 -37l-2 -10l-6 -9l-9 -6l-82 -3z" />
    <glyph glyph-name="eta" unicode="&#x3b7;" horiz-adv-x="571" 
d="M75 322l-31 -56l-9 -6l-11 -1l-11 3l-8 7l-6 9l-1 11l29 62l57 59l9 7l11 2l88 -2l35 -32l6 -10l2 -20l37 35l52 26l13 3h52l10 -2l54 -27l39 -40l2 -94l-26 -130l-78 -287l-5 -9l-8 -8l-11 -3l-16 3l-10 -3l-11 1l-9 5l-8 8l-3 10l1 11l77 284l25 126v63l-35 36h-34
l-41 -21l-46 -46l-48 -97l-52 -179l-4 -9l-9 -7l-10 -4l-16 3l-10 -3l-11 1l-10 5l-7 8l-3 11l77 291v37l-9 10h-29z" />
    <glyph glyph-name="theta" unicode="&#x3b8;" horiz-adv-x="597" 
d="M75 322l-31 -56l-9 -6l-11 -1l-10 3l-9 7l-6 9l-1 11l29 62l57 59l9 7l88 2l11 -2l35 -32l6 -10l2 -10v-52l-26 -132v-69l21 -42l15 -14h33l40 20l46 70l25 48l19 60l-43 43l-55 85l-26 78l-1 60l2 11l6 9l61 58l63 2l10 -2l61 -32l31 -59l3 -13v-103l-25 -132l47 -34
l4 -10v-11l-4 -10l-8 -8l-10 -4h-11l-10 4l-26 17l-13 -35l-52 -78l-60 -59l-54 -28l-13 -3l-62 2l-61 32l-31 59l-3 13v83l25 127v37l-9 10h-29zM423 318l15 75v95l-20 42l-15 14h-29l-35 -35v-36l23 -70l48 -72z" />
    <glyph glyph-name="iota" unicode="&#x3b9;" horiz-adv-x="311" 
d="M76 217l52 181l5 10l8 7l11 3l15 -3l11 3h11l9 -5l7 -9l4 -10l-1 -11l-52 -181l-25 -100v-36l10 -10h28l41 40l24 48l6 9l10 5l11 2l10 -3l9 -7l5 -10l2 -10l-3 -11l-31 -59l-61 -58l-89 -2l-11 2l-9 6l-32 35l-1 70z" />
    <glyph glyph-name="kappa" unicode="&#x3ba;" horiz-adv-x="517" 
d="M24 36l103 362l5 10l9 7l10 3l16 -3l10 3h11l10 -5l7 -9l3 -10l-35 -131l43 21l100 101l59 31l13 3l62 -2l35 -32l6 -10l2 -10l-2 -11l-6 -9l-9 -6l-11 -2l-36 2l-27 24h-8l-42 -21l-109 -107l10 -7l6 -10l49 -149l13 -13h8l39 20l56 79l10 4h11l10 -4l8 -8l4 -10v-11
l-4 -10l-52 -78l-11 -9l-52 -26l-12 -3h-52l-11 2l-9 6l-26 26l-7 11l-49 149l-13 13h-12l-53 -187l-5 -9l-9 -7l-10 -4l-16 3l-10 -3l-11 1l-10 5l-7 8l-3 11z" />
    <glyph glyph-name="lambda" unicode="&#x3bb;" horiz-adv-x="517" 
d="M26 42l190 332l-59 130l-40 40l-51 2l-9 6l-6 9l-2 11l2 11l6 9l9 6l62 2l11 -2l54 -27l38 -38l27 -54l155 -361l23 -48l15 -14l25 -2l9 -6l6 -9l2 -11l-2 -11l-6 -9l-9 -6l-37 -2l-12 3l-59 31l-32 61l-90 209l-144 -289l-7 -8l-9 -6l-11 -1l-12 4l-16 -4l-10 4l-8 7
l-5 10l-1 11z" />
    <glyph glyph-name="uni03BC" unicode="&#x3bc;" horiz-adv-x="597" 
d="M-1 -146l156 544l5 10l8 7l10 3l16 -3l10 3h11l10 -5l7 -9l3 -10l-31 -118l-20 -121v-64l35 -35h34l41 21l47 47l40 59l58 215l5 10l9 7l10 3l16 -3l10 3h11l9 -5l8 -8l3 -11l-1 -11l-76 -281v-36l9 -10h29l40 40l31 57l9 5l11 2l11 -3l8 -7l6 -10l1 -10l-3 -11l-31 -59
l-52 -52l-9 -6l-11 -2l-88 2l-35 32l-6 9l-2 21l-37 -35l-52 -26l-13 -3h-52l-10 2l-9 6l-47 47l-62 -216l-5 -10l-8 -7l-11 -3l-15 3l-11 -3l-11 1l-9 5l-7 8l-4 10z" />
    <glyph glyph-name="nu" unicode="&#x3bd;" horiz-adv-x="517" 
d="M75 32l47 331h-45l-11 2l-9 6l-6 9l-2 11l2 10l6 9l9 7l11 2l108 -1l15 -8l8 -13l-26 -167l-26 -130l-9 -28l23 8l48 24l74 49l47 47l48 97l30 110l8 8l10 3l17 -3l11 4l11 -2l10 -5l6 -9l3 -10l-1 -11l-26 -78l-28 -55l-53 -81l-55 -56l-85 -57l-56 -28l-78 -26l-12 -1
l-15 7l-8 12z" />
    <glyph glyph-name="xi" unicode="&#x3be;" horiz-adv-x="439" 
d="M147 211l15 3l-59 62l-3 63l3 12l31 59l60 32l20 5l-34 37l-2 36l2 11l6 9l33 31l52 26l11 3l11 -1l9 -6l7 -8l3 -11l-2 -11l-5 -9l-56 -31l-15 -17l13 -13l67 -23l84 -2l9 -6l6 -9l2 -11l-2 -10l-6 -9l-9 -6l-84 -3l-71 -23l-42 -21l-19 -38v-33l41 -41l42 -21l81 -2
l9 -6l6 -9l3 -11l-3 -10l-6 -9l-9 -7l-84 -2l-71 -24l-42 -20l-19 -38v-33l41 -41l99 -50l40 -40l2 -62l-7 -19l-60 -32l-13 -3l-63 2l-9 6l-6 9l-2 11l2 10l6 9l9 7l56 2l31 15v23l-14 13l-124 50l-9 6l-58 61l-2 63l3 12l25 52l13 13z" />
    <glyph glyph-name="omicron" unicode="&#x3bf;" horiz-adv-x="465" 
d="M109 33l-32 34l-25 52l-3 13v77l27 87l55 84l14 11l87 28h52l12 -3l58 -30l33 -35l25 -51l3 -13v-78l-27 -86l-55 -85l-14 -11l-87 -27h-52l-12 3zM149 75l38 -19h38l40 20l45 68l24 70v92l-19 38l-38 19h-38l-40 -20l-45 -68l-24 -70v-93z" />
    <glyph glyph-name="pi" unicode="&#x3c0;" horiz-adv-x="570" 
d="M24 312l1 10l6 9l53 54l11 6l86 28h337l11 -2l9 -7l6 -9l2 -10l-3 -13l3 -13l-2 -11l-6 -9l-9 -6l-110 -2l23 -307l-1 -11l-5 -9l-9 -7l-10 -3l-15 4l-13 -4l-11 2l-9 6l-6 9l-2 11v309h-106l-72 -315l-5 -10l-8 -8l-10 -4l-17 4l-11 -4l-11 1l-9 5l-7 9l-3 10l1 11
l92 301h-9l-72 -24l-60 -28l-11 1l-9 6l-7 8z" />
    <glyph glyph-name="rho" unicode="&#x3c1;" horiz-adv-x="492" 
d="M29 -181l-16 3l-10 -3l-11 1l-9 5l-8 8l-3 10l1 11l104 363l29 86l58 84l86 30l61 2l12 -3l52 -26l39 -39l25 -51l3 -13l-1 -87l-29 -84l-58 -84l-86 -31l-61 -1l-12 3l-52 26l-28 26l-62 -216l-5 -10l-9 -7zM266 363l-40 -20l-45 -68l-42 -135l15 -45l18 -18l42 -21h38
l40 20l45 68l24 70v92l-19 38l-38 19h-38z" />
    <glyph glyph-name="sigma" unicode="&#x3c3;" horiz-adv-x="543" 
d="M110 33l-32 34l-26 52l-3 13v77l30 94l58 84l93 32h261l11 -2l9 -7l6 -9l2 -10l-3 -13l3 -13l-2 -11l-6 -9l-9 -6l-108 -2l19 -37l3 -13l-2 -87l-29 -84l-58 -84l-86 -31l-61 -1l-12 3zM239 363l-40 -20l-45 -68l-23 -70v-93l18 -37l38 -19h38l40 20l45 68l24 70v92
l-19 38l-38 19h-38z" />
    <glyph glyph-name="tau" unicode="&#x3c4;" horiz-adv-x="517" 
d="M23 312l1 10l6 9l53 54l11 6l77 26l294 2l11 -2l9 -7l6 -9l2 -10l-3 -13l3 -13l-2 -11l-6 -9l-9 -6l-168 -2l-48 -313l-4 -11l-7 -8l-10 -4l-20 3l-19 -3l-10 4l-8 8l-3 10v11l70 303h-64l-72 -24l-60 -28l-11 1l-10 6l-6 8z" />
    <glyph glyph-name="upsilon" unicode="&#x3c5;" horiz-adv-x="517" 
d="M74 322l-31 -56l-9 -6l-11 -1l-11 3l-8 7l-6 9l-1 11l29 62l57 59l9 7l88 2l11 -2l35 -32l6 -10l2 -10l-1 -61l-51 -151v-62l36 -35h10l67 22l45 46l47 70l15 91l-13 39l-21 21l-6 9l-2 11l2 10l6 10l34 31l11 3l19 -7l32 -61l3 -12v-80l-30 -90l-52 -79l-55 -56l-11 -7
l-78 -26l-35 -1l-12 3l-59 31l-26 26l-6 9l-3 11l2 86l50 151v36l-9 10h-29z" />
    <glyph glyph-name="phi" unicode="&#x3c6;" 
d="M49 132l1 86l26 78l7 11l52 52l59 31l10 3l11 -2l10 -5l6 -9l3 -10l-1 -11l-6 -10l-8 -6l-48 -24l-44 -44l-22 -67v-62l40 -40l42 -21h9l10 34l52 130l53 105l57 59l9 7l11 2l62 -2l9 -7l58 -60l2 -89l-30 -93l-60 -86l-84 -55l-78 -26l-24 -1l-35 -159l-5 -10l-8 -8
l-10 -4l-17 3l-11 -3l-11 1l-9 5l-7 8l-3 11l45 158l-56 27l-33 31l-31 59zM264 85l59 20l73 48l45 46l22 67v56l-30 15h-34l-41 -42l-49 -72z" />
    <glyph glyph-name="chi" unicode="&#x3c7;" horiz-adv-x="465" 
d="M91 363h-40l-11 2l-9 6l-6 9l-2 11l2 10l6 9l9 7l11 2h51l13 -3l59 -31l33 -63l46 -139l86 95l50 75l32 59l9 5l11 2l11 -3l8 -7l6 -9l1 -11l-3 -11l-27 -55l-55 -81l-109 -120l63 -187l23 -46l14 -14l51 -2l9 -7l6 -9l2 -10l-2 -11l-6 -9l-9 -6l-62 -2l-11 2l-61 32
l-33 63l-46 138l-86 -95l-50 -75l-32 -58l-9 -6l-11 -1l-11 3l-8 6l-6 10l-1 11l3 10l27 55l55 81l109 120l-63 187l-23 46z" />
    <glyph glyph-name="psi" unicode="&#x3c8;" horiz-adv-x="596" 
d="M75 322l-31 -56l-9 -6l-11 -1l-10 3l-9 7l-6 9l-1 11l29 62l57 59l9 7l88 2l11 -2l35 -32l6 -10l2 -10v-52l-26 -132v-64l36 -35l39 134l77 362l5 10l8 8l10 4l17 -3l10 3l11 -1l10 -5l7 -8l3 -11v-11l-104 -361l-25 -117l33 17l73 72l48 73l56 161l9 7l10 3l11 -2l9 -5
l7 -9l3 -10l-1 -11l-52 -156l-28 -55l-53 -81l-55 -56l-59 -31l-29 -3l-34 -159l-5 -10l-8 -8l-10 -4l-17 3l-10 -3l-11 1l-10 5l-7 8l-3 10l43 159l-61 32l-31 59l-3 13v83l25 127v37l-9 10h-29z" />
    <glyph glyph-name="omega" unicode="&#x3c9;" horiz-adv-x="596" 
d="M50 131l1 87l29 85l52 77l11 10l63 29l11 -2l10 -7l26 -25l6 -10l2 -11l-2 -11l-7 -9l-10 -6l-71 -24l-43 -42l-22 -67v-67l21 -42l14 -14h34l42 21l40 40l2 77l6 9l9 6l11 2l13 -3l11 3l11 -1l9 -6l7 -8l3 -11l-1 -11l-23 -66l19 -38l15 -14h33l42 21l44 44l22 67v66
l-19 38l-51 28l-7 20l2 10l32 34l9 7l10 2l11 -2l9 -7l26 -25l7 -11l27 -85l-1 -89l-29 -84l-52 -78l-11 -9l-52 -26l-12 -3l-63 2l-35 32l-14 34l-20 -30l-11 -9l-52 -26l-13 -3l-62 2l-35 32l-7 11z" />
    <glyph glyph-name="uni0410" unicode="&#x410;" horiz-adv-x="517" 
d="M56 56l175 525l6 9l8 7l11 3l11 -1l12 -9l6 -9l175 -525h31l11 -2l9 -6l6 -9l2 -11l-2 -11l-6 -9l-9 -6l-11 -2h-155l-11 2l-9 6l-6 9l-2 11l2 11l6 9l9 6l11 2h39l-34 99h-192l-33 -99h64l11 -2l9 -6l6 -9l2 -11l-2 -11l-6 -9l-9 -6l-166 -2l-11 2l-9 6l-6 9l-2 11l2 11
l6 9l9 6l11 2h31zM245 445l-78 -234h156z" />
    <glyph glyph-name="uni0411" unicode="&#x411;" 
d="M101 544l-61 2l-9 6l-6 9l-2 11l2 11l6 9l9 6l11 2h414l11 -2l9 -6l6 -9l2 -11v-155l-7 -19l-18 -9l-20 5l-10 18l-22 132h-234v-203l189 -1l77 -26l11 -7l31 -33l26 -52l3 -13v-77l-3 -13l-26 -52l-31 -33l-11 -7l-84 -27h-313l-11 2l-9 6l-6 9l-2 11l2 11l6 9l9 6l11 2
h50v488zM182 56h173l42 21l19 19l21 42v65l-21 42l-19 19l-42 21h-173v-229z" />
    <glyph glyph-name="uni0412" unicode="&#x412;" 
d="M101 544l-61 2l-9 6l-6 9l-2 11l2 11l6 9l9 6l11 2h313l84 -27l11 -7l31 -33l26 -52l3 -13v-51l-3 -13l-26 -52l-31 -33l-10 -6l10 -6l26 -26l31 -59l3 -13v-77l-3 -13l-26 -52l-31 -33l-11 -7l-84 -27h-313l-11 2l-9 6l-6 9l-2 11l2 11l6 9l9 6l11 2h50v488zM182 544
v-203h173l42 21l19 19l21 42v39l-21 42l-19 19l-42 21h-173zM182 56h173l42 21l19 19l21 42v65l-21 42l-19 19l-42 21h-173v-229z" />
    <glyph glyph-name="uni0413" unicode="&#x413;" horiz-adv-x="465" 
d="M100 544l-60 2l-9 6l-6 9l-2 11l2 11l6 9l9 6l11 2h388l11 -2l9 -6l6 -9l2 -166l-7 -19l-18 -9l-20 5l-10 18l-22 132h-208v-488h50l11 -2l9 -6l6 -9l2 -11l-2 -11l-6 -9l-9 -6l-11 -2h-181l-11 2l-9 6l-6 9l-2 11l2 11l6 9l9 6l60 2v488z" />
    <glyph glyph-name="uni0414" unicode="&#x414;" horiz-adv-x="622" 
d="M-2 28l5 15l12 11l77 2l15 14l22 45l25 99l25 204v126h-49l-11 2l-9 6l-6 9l-2 11l2 11l6 9l9 6l11 2h440l11 -2l9 -6l6 -9l2 -11l-2 -11l-6 -9l-9 -6l-11 -2h-50v-488l61 -2l9 -6l6 -9l2 -11v-181l-2 -11l-6 -9l-9 -6l-18 -1l-10 4l-9 12l-24 164h-444l-24 -164l-6 -9
l-9 -6l-11 -2l-11 2l-11 9l-6 17v181zM235 544v-131l-26 -207l-26 -107l-21 -43h276v488h-203z" />
    <glyph glyph-name="uni0415" unicode="&#x415;" horiz-adv-x="543" 
d="M101 544l-61 2l-9 6l-6 9l-2 11l2 11l6 9l9 6l11 2h414l11 -2l9 -6l6 -9l2 -11v-155l-7 -19l-18 -9l-20 5l-10 18l-22 132h-234v-203h100l2 86l6 9l9 6l11 3l11 -3l9 -6l6 -9l2 -10v-208l-2 -10l-6 -9l-9 -7l-11 -2l-11 2l-9 7l-6 9l-2 10v76h-100v-229h234l22 132l10 18
l20 5l18 -9l7 -19v-155l-2 -11l-6 -9l-9 -6l-11 -2h-414l-11 2l-9 6l-6 9l-2 11l2 11l6 9l9 6l11 2h50v488z" />
    <glyph glyph-name="uni0416" unicode="&#x416;" horiz-adv-x="804" 
d="M148 499l-24 -25l-9 -6l-11 -2l-11 2l-9 6l-32 35l-2 37l2 11l6 9l35 32l37 2l11 -2l40 -39l28 -58l25 -101l20 -40l38 -19h69v203l-60 2l-10 6l-6 9l-2 11l2 11l6 9l10 6l10 2h182l10 -2l9 -6l6 -9l3 -11l-3 -11l-6 -9l-9 -6l-10 -2h-50v-203h69l37 19l21 40l27 107
l31 59l35 32l37 2l11 -2l9 -6l32 -35l2 -37l-2 -11l-32 -35l-9 -6l-11 -2l-11 2l-9 6l-24 25l-7 -14l-28 -107l-26 -52l-14 -13l14 -13l26 -52l28 -133l22 -45l15 -14l17 14l30 57l10 5l11 2l10 -3l9 -7l5 -9l2 -11l-3 -11l-31 -59l-35 -32l-63 -2l-11 2l-9 6l-31 33l-26 52
l-27 133l-23 44l-14 15h-64v-229l60 -2l9 -6l6 -9l3 -11l-3 -11l-6 -9l-9 -6l-10 -2h-182l-10 2l-10 6l-6 9l-2 11l2 11l6 9l10 6l10 2h50v229h-64l-15 -15l-22 -44l-25 -126l-33 -66l-35 -32l-63 -2l-11 2l-9 6l-31 33l-26 52l-3 11l2 11l5 9l9 7l10 3l11 -2l10 -5l6 -9
l24 -48l15 -14l17 14l22 45l28 133l26 52l14 13l-14 13l-26 52l-28 107z" />
    <glyph glyph-name="uni0417" unicode="&#x417;" horiz-adv-x="517" 
d="M115 546l27 25l52 26l12 3l113 -1l77 -26l10 -6l7 -8l25 -52l3 -13v-77l-3 -13l-25 -52l-7 -8l-25 -11l52 -52l31 -59l3 -13v-77l-3 -13l-26 -52l-31 -33l-11 -7l-84 -27h-132l-12 3l-52 26l-38 38l-26 52l-3 39l2 10l6 9l35 32l11 2l10 -2l9 -6l32 -35l2 -10l-2 -11
l-35 -37l7 -14l19 -19l42 -21h116l42 21l20 19l20 42v67l-22 67l-18 18l-42 21l-82 2l-9 6l-6 9l-2 11l2 11l6 9l9 6l82 2l38 19l19 37v65l-19 37l-38 19h-90l-42 -21l-44 -44l-29 -81l-9 -7l-11 -2l-11 1l-10 6l-6 10l-2 11v155l2 11l6 9l10 6l11 2l11 -3l9 -6l5 -10z" />
    <glyph glyph-name="uni0418" unicode="&#x418;" horiz-adv-x="621" 
d="M101 544l-61 2l-9 6l-6 9l-2 11l2 11l6 9l9 6l11 2h181l11 -2l9 -6l6 -9l2 -11l-2 -11l-6 -9l-9 -6l-60 -2v-376l254 361v15h-49l-11 2l-9 6l-6 9l-2 11l2 11l6 9l9 6l11 2h181l11 -2l9 -6l6 -9l2 -11l-2 -11l-6 -9l-9 -6l-11 -2h-50v-488h50l11 -2l9 -6l6 -9l2 -11
l-2 -11l-6 -9l-9 -6l-11 -2h-181l-11 2l-9 6l-6 9l-2 11l2 11l6 9l9 6l60 2v376l-254 -361v-15h49l11 -2l9 -6l6 -9l2 -11l-2 -11l-6 -9l-9 -6l-11 -2h-181l-11 2l-9 6l-6 9l-2 11l2 11l6 9l9 6l11 2h50v488z" />
    <glyph glyph-name="uni0419" unicode="&#x419;" horiz-adv-x="621" 
d="M101 544l-61 2l-9 6l-6 9l-2 11l2 11l6 9l9 6l11 2h181l11 -2l9 -6l6 -9l2 -11l-2 -11l-6 -9l-9 -6l-60 -2v-376l254 361v15h-49l-11 2l-9 6l-6 9l-2 11l2 11l6 9l9 6l11 2h181l11 -2l9 -6l6 -9l2 -11l-2 -11l-6 -9l-9 -6l-11 -2h-50v-488h50l11 -2l9 -6l6 -9l2 -11
l-2 -11l-6 -9l-9 -6l-11 -2h-181l-11 2l-9 6l-6 9l-2 11l2 11l6 9l9 6l60 2v376l-254 -361v-15h49l11 -2l9 -6l6 -9l2 -11l-2 -11l-6 -9l-9 -6l-11 -2h-181l-11 2l-9 6l-6 9l-2 11l2 11l6 9l9 6l11 2h50v488zM223 705l4 -9l38 -18h90l38 18l21 44l7 9l10 5l11 1l10 -3l9 -6
l5 -10l1 -11l-2 -10l-32 -59l-59 -31l-12 -3h-104l-12 3l-59 31l-32 59l-3 12v26l3 11l6 9l9 6l10 2h26l11 -2l9 -6l6 -9l2 -11v-26l-2 -10z" />
    <glyph glyph-name="uni041A" unicode="&#x41a;" horiz-adv-x="622" 
d="M101 544l-61 2l-9 6l-6 9l-2 11l2 11l6 9l9 6l11 2h181l11 -2l9 -6l6 -9l2 -11l-2 -11l-6 -9l-9 -6l-11 -2h-49v-203h146l38 19l20 40l27 107l26 52l32 33l9 6l10 2l37 -2l35 -32l6 -9l2 -11l-2 -37l-32 -35l-9 -6l-11 -2l-10 2l-34 31l-7 -14l-27 -107l-26 -52l-14 -13
l14 -13l26 -52l27 -133l22 -45l18 -14l14 14l24 48l7 9l9 5l11 2l11 -3l8 -7l6 -9l1 -11l-3 -11l-26 -52l-31 -33l-9 -6l-11 -2l-62 2l-35 32l-34 66l-25 126l-22 44l-15 15h-141v-229l60 -2l9 -6l6 -9l2 -11l-2 -11l-6 -9l-9 -6l-11 -2h-181l-11 2l-9 6l-6 9l-2 11l2 11
l6 9l9 6l11 2h50v488z" />
    <glyph glyph-name="uni041B" unicode="&#x41b;" horiz-adv-x="648" 
d="M122 101l7 14l25 99l25 204v126h-49l-11 2l-9 6l-6 9l-2 11l2 11l6 9l9 6l11 2h466l11 -2l9 -6l6 -9l2 -11l-2 -11l-6 -9l-9 -6l-11 -2h-50v-488h50l11 -2l9 -6l6 -9l2 -11l-2 -11l-6 -9l-9 -6l-11 -2h-181l-11 2l-9 6l-6 9l-2 11l2 11l6 9l9 6l60 2v488h-229v-131
l-26 -207l-26 -107l-28 -58l-31 -33l-9 -6l-11 -2l-37 2l-9 6l-32 35l-2 37l2 11l32 35l9 6l11 2l11 -2l9 -6z" />
    <glyph glyph-name="uni041C" unicode="&#x41c;" horiz-adv-x="648" 
d="M101 544l-61 2l-9 6l-6 9l-2 11l2 11l6 9l9 6l11 2h104l12 -3l13 -14l143 -428l142 426l5 9l9 7l12 3h104l11 -2l9 -6l6 -9l2 -11l-2 -11l-6 -9l-9 -6l-11 -2h-50v-488h50l11 -2l9 -6l6 -9l2 -11l-2 -11l-6 -9l-9 -6l-11 -2h-181l-11 2l-9 6l-6 9l-2 11l2 11l6 9l9 6
l60 2v343l-128 -384l-7 -8l-16 -7l-11 1l-9 6l-9 12l-126 380v-343l60 -2l9 -6l6 -9l2 -11l-2 -11l-6 -9l-9 -6l-11 -2h-155l-11 2l-9 6l-6 9l-2 11l2 11l6 9l9 6l11 2h50v488z" />
    <glyph glyph-name="uni041D" unicode="&#x41d;" horiz-adv-x="621" 
d="M101 544l-61 2l-9 6l-6 9l-2 11l2 11l6 9l9 6l11 2h181l11 -2l9 -6l6 -9l2 -11l-2 -11l-6 -9l-9 -6l-60 -2v-203h254v203l-60 2l-9 6l-6 9l-2 11l2 11l6 9l9 6l11 2h181l11 -2l9 -6l6 -9l2 -11l-2 -11l-6 -9l-9 -6l-11 -2h-50v-488h50l11 -2l9 -6l6 -9l2 -11l-2 -11
l-6 -9l-9 -6l-11 -2h-181l-11 2l-9 6l-6 9l-2 11l2 11l6 9l9 6l60 2v229h-254v-229l60 -2l9 -6l6 -9l2 -11l-2 -11l-6 -9l-9 -6l-11 -2h-181l-11 2l-9 6l-6 9l-2 11l2 11l6 9l9 6l11 2h50v488z" />
    <glyph glyph-name="uni041E" unicode="&#x41e;" 
d="M172 573l84 27h54l86 -27l11 -7l52 -52l33 -65l26 -103l1 -85l-29 -116l-31 -59l-52 -52l-11 -7l-77 -26l-63 -1l-84 27l-11 7l-52 52l-33 65l-26 103v92l26 103l28 58l57 59zM303 56l42 21l46 45l22 45l24 98v70l-24 98l-22 45l-46 45l-42 21h-38l-42 -21l-46 -45
l-22 -45l-24 -98v-70l24 -98l22 -45l46 -45l42 -21h38z" />
    <glyph glyph-name="uni041F" unicode="&#x41f;" horiz-adv-x="621" 
d="M101 544l-61 2l-9 6l-6 9l-2 11l2 11l6 9l9 6l11 2h518l11 -2l9 -6l6 -9l2 -11l-2 -11l-6 -9l-9 -6l-11 -2h-50v-488h50l11 -2l9 -6l6 -9l2 -11l-2 -11l-6 -9l-9 -6l-11 -2h-181l-11 2l-9 6l-6 9l-2 11l2 11l6 9l9 6l60 2v488h-254v-488l60 -2l9 -6l6 -9l2 -11l-2 -11
l-6 -9l-9 -6l-11 -2h-181l-11 2l-9 6l-6 9l-2 11l2 11l6 9l9 6l11 2h50v488z" />
    <glyph glyph-name="uni0420" unicode="&#x420;" 
d="M101 544l-61 2l-9 6l-6 9l-2 11l2 11l6 9l9 6l11 2h313l84 -27l11 -7l31 -33l26 -52l3 -13v-77l-3 -13l-26 -52l-31 -33l-11 -7l-84 -27h-182v-203h50l11 -2l9 -6l6 -9l2 -11l-2 -11l-6 -9l-9 -6l-11 -2h-181l-11 2l-9 6l-6 9l-2 11l2 11l6 9l9 6l61 2v488zM182 544v-229
h173l42 21l19 19l21 42v65l-21 42l-19 19l-42 21h-173z" />
    <glyph glyph-name="uni0421" unicode="&#x421;" horiz-adv-x="543" 
d="M254 599h65l77 -26l11 -7l20 -20l12 35l5 10l9 6l11 3l11 -2l10 -6l6 -9l2 -11v-155l-2 -11l-6 -10l-10 -6l-11 -1l-11 2l-9 7l-29 81l-43 43l-67 22h-40l-42 -21l-46 -45l-22 -46l-24 -72v-120l24 -72l22 -46l46 -45l42 -21h40l67 22l44 44l31 57l9 5l11 1l11 -2l8 -7
l6 -10l1 -10l-3 -11l-26 -52l-57 -59l-11 -7l-86 -27l-61 1l-77 26l-11 7l-57 59l-28 56l-27 86l1 139l26 77l28 56l57 59l11 7z" />
    <glyph glyph-name="uni0422" unicode="&#x422;" horiz-adv-x="491" 
d="M100 544l-25 -142l-16 -12l-21 1l-13 15l-2 11v155l2 11l6 9l9 6l11 2h388l11 -2l9 -6l6 -9l2 -166l-7 -19l-18 -9l-20 5l-10 18l-22 132h-104v-488h50l10 -2l9 -6l6 -9l3 -11l-3 -11l-6 -9l-9 -6l-10 -2h-182l-10 2l-10 6l-6 9l-2 11l2 11l6 9l10 6l60 2v488h-104z" />
    <glyph glyph-name="uni0423" unicode="&#x423;" horiz-adv-x="543" 
d="M58 544h-33l-11 2l-9 6l-6 9l-2 11l2 11l6 9l9 6l11 2h155l11 -2l9 -6l6 -9l2 -11l-2 -11l-6 -9l-9 -6l-11 -2h-35l139 -317l138 317l-71 2l-9 6l-6 9l-2 11l2 11l6 9l9 6l11 2h155l11 -2l9 -6l6 -9l2 -11l-2 -11l-6 -9l-9 -6l-44 -2l-174 -398l-55 -82l-36 -35l-52 -26
l-13 -3l-36 2l-35 32l-6 9l-2 11l2 37l32 35l9 6l10 2l11 -2l9 -6l26 -26l6 -9l1 -18l9 4l20 21l28 41z" />
    <glyph glyph-name="uni0424" unicode="&#x424;" horiz-adv-x="647" 
d="M148 496l103 25l31 1v22h-50l-10 2l-10 6l-6 9l-2 11l2 11l6 9l10 6l10 2h182l10 -2l9 -6l6 -9l3 -11l-3 -11l-6 -9l-9 -6l-60 -2v-22l31 -1l103 -25l13 -8l52 -52l7 -11l26 -77l1 -87l-27 -86l-7 -11l-52 -52l-13 -8l-103 -25l-31 -1v-22h50l10 -2l9 -6l6 -9l3 -11
l-3 -11l-6 -9l-9 -6l-10 -2h-182l-10 2l-10 6l-6 9l-2 11l2 11l6 9l10 6l10 2h50v22l-31 1l-103 25l-13 8l-52 52l-7 11l-27 86l1 87l26 77l7 11l52 52zM282 466h-19l-67 -22l-43 -43l-22 -67v-68l22 -67l43 -43l67 -22h19v332zM383 134l67 22l43 43l22 67v68l-22 67l-43 43
l-67 22h-19v-332h19z" />
    <glyph glyph-name="uni0425" unicode="&#x425;" horiz-adv-x="517" 
d="M62 56l156 234l-157 254h-36l-11 2l-9 6l-6 9l-2 11l2 11l6 9l9 6l11 2h155l11 -2l9 -6l6 -9l2 -11l-2 -11l-6 -9l-9 -6l-11 -2h-27l113 -182l121 182h-51l-11 2l-9 6l-6 9l-2 11l2 11l6 9l9 6l11 2h155l11 -2l9 -6l6 -9l2 -11l-2 -11l-6 -9l-9 -6l-11 -2h-37l-156 -234
l157 -254h36l11 -2l9 -6l6 -9l2 -11l-2 -11l-6 -9l-9 -6l-11 -2h-155l-11 2l-9 6l-6 9l-2 11l2 11l6 9l9 6l11 2h27l-113 182l-121 -182h51l11 -2l9 -6l6 -9l2 -11l-2 -11l-6 -9l-9 -6l-11 -2h-155l-11 2l-9 6l-6 9l-2 11l2 11l6 9l9 6l11 2h37z" />
    <glyph glyph-name="uni0426" unicode="&#x426;" horiz-adv-x="621" 
d="M101 544l-61 2l-9 6l-6 9l-2 11l2 11l6 9l9 6l11 2h181l11 -2l9 -6l6 -9l2 -11l-2 -11l-6 -9l-9 -6l-60 -2v-488h254v488l-60 2l-9 6l-6 9l-2 11l2 11l6 9l9 6l11 2h181l11 -2l9 -6l6 -9l2 -11l-2 -11l-6 -9l-9 -6l-11 -2h-50v-488l61 -2l9 -6l6 -9l2 -11v-181l-2 -11
l-12 -13l-14 -4l-11 2l-9 6l-6 9l-24 164h-468l-11 2l-9 6l-6 9l-2 11l2 11l6 9l9 6l11 2h50v488z" />
    <glyph glyph-name="uni0427" unicode="&#x427;" horiz-adv-x="595" 
d="M101 544l-61 2l-9 6l-6 9l-2 11l2 11l6 9l9 6l11 2h181l11 -2l9 -6l6 -9l2 -11l-2 -11l-6 -9l-9 -6l-60 -2v-250l18 -38l38 -19h66l68 23l39 39v245h-50l-11 2l-9 6l-6 9l-2 11l2 11l6 9l9 6l11 2h181l11 -2l9 -6l6 -9l2 -11l-2 -11l-6 -9l-9 -6l-11 -2h-50v-488h50
l11 -2l9 -6l6 -9l2 -11l-2 -11l-6 -9l-9 -6l-11 -2h-181l-11 2l-9 6l-6 9l-2 11l2 11l6 9l9 6l11 2h50v163l-15 -10l-87 -28h-80l-94 33l-32 61l-3 12v257z" />
    <glyph glyph-name="uni0428" unicode="&#x428;" horiz-adv-x="855" 
d="M101 544l-60 2l-9 6l-7 9l-2 11l2 11l7 9l9 6l10 2h182l10 -2l9 -6l7 -9l2 -11l-2 -11l-7 -9l-9 -6l-60 -2v-488h203v488l-60 2l-10 6l-6 9l-2 11l2 11l6 9l10 6l10 2h182l10 -2l9 -6l6 -9l3 -11l-3 -11l-6 -9l-9 -6l-10 -2h-50v-488h203v488l-60 2l-10 6l-6 9l-2 11
l2 11l6 9l10 6l10 2h182l10 -2l9 -6l6 -9l3 -11l-3 -11l-6 -9l-9 -6l-10 -2h-50v-488h50l10 -2l9 -6l6 -9l3 -11l-3 -11l-6 -9l-9 -6l-10 -2h-752l-10 2l-9 6l-7 9l-2 11l2 11l7 9l9 6l10 2h50v488z" />
    <glyph glyph-name="uni0429" unicode="&#x429;" horiz-adv-x="855" 
d="M101 544l-60 2l-9 6l-7 9l-2 11l2 11l7 9l9 6l10 2h182l10 -2l9 -6l7 -9l2 -11l-2 -11l-7 -9l-9 -6l-60 -2v-488h203v488l-60 2l-10 6l-6 9l-2 11l2 11l6 9l10 6l10 2h182l10 -2l9 -6l6 -9l3 -11l-3 -11l-6 -9l-9 -6l-10 -2h-50v-488h203v488l-60 2l-10 6l-6 9l-2 11
l2 11l6 9l10 6l10 2h182l10 -2l9 -6l6 -9l3 -11l-3 -11l-6 -9l-9 -6l-10 -2h-50v-488l60 -2l9 -6l6 -9l3 -11v-181l-3 -11l-6 -9l-9 -6l-17 -1l-13 7l-6 9l-25 164h-701l-10 2l-9 6l-7 9l-2 11l2 11l7 9l9 6l10 2h50v488z" />
    <glyph glyph-name="uni042A" unicode="&#x42a;" horiz-adv-x="674" 
d="M101 544l-26 -142l-16 -12l-20 1l-9 7l-7 19v155l2 11l6 9l9 6l11 2h311l11 -2l9 -6l6 -9l2 -11l-2 -11l-6 -9l-9 -6l-11 -2h-50v-203l162 -1l78 -26l11 -7l26 -26l31 -59l3 -13v-77l-3 -13l-26 -52l-31 -33l-11 -7l-85 -27h-287l-10 2l-9 6l-6 9l-3 11l3 11l6 9l9 6
l10 2h50v488h-129zM312 285v-229h147l42 21l19 19l21 42v65l-21 42l-19 19l-42 21h-147z" />
    <glyph glyph-name="uni042B" unicode="&#x42b;" horiz-adv-x="779" 
d="M594 544l-60 2l-9 6l-6 9l-3 11l3 11l6 9l9 6l10 2h182l10 -2l10 -6l6 -9l2 -11l-2 -11l-6 -9l-10 -6l-60 -2v-488h50l10 -2l10 -6l6 -9l2 -11l-2 -11l-6 -9l-10 -6l-10 -2h-182l-10 2l-9 6l-6 9l-3 11l3 11l6 9l9 6l60 2v488zM102 544l-60 2l-10 6l-6 9l-2 11l2 11l6 9
l10 6l10 2h182l10 -2l9 -6l6 -9l3 -11l-3 -11l-6 -9l-9 -6l-10 -2h-50v-203l162 -1l78 -26l11 -7l31 -33l26 -52l3 -13v-77l-3 -13l-26 -52l-31 -33l-11 -7l-85 -27h-287l-10 2l-10 6l-6 9l-2 11l2 11l6 9l10 6l60 2v488zM184 56h147l41 21l20 19l21 42v65l-21 42l-20 19
l-41 21h-147v-229z" />
    <glyph glyph-name="uni042C" unicode="&#x42c;" horiz-adv-x="543" 
d="M100 544l-60 2l-9 6l-6 9l-2 11l2 11l6 9l9 6l11 2h181l11 -2l9 -6l6 -9l2 -11l-2 -11l-6 -9l-9 -6l-11 -2h-50v-203l163 -1l77 -26l11 -7l31 -33l26 -52l3 -13v-77l-3 -13l-26 -52l-31 -33l-11 -7l-84 -27h-287l-11 2l-9 6l-6 9l-2 11l2 11l6 9l9 6l60 2v488zM182 56
h147l42 21l19 19l21 42v65l-21 42l-19 19l-42 21h-147v-229z" />
    <glyph glyph-name="uni042D" unicode="&#x42d;" horiz-adv-x="543" 
d="M115 546l20 20l11 7l77 26h70l77 -26l11 -7l52 -52l31 -59l29 -90l-1 -139l-26 -77l-28 -56l-57 -59l-11 -7l-84 -27l-89 1l-77 26l-11 7l-31 33l-26 52l-3 39l2 10l6 9l35 32l11 2l10 -2l9 -6l32 -35l2 -10l-2 -11l-35 -37l7 -14l18 -18l67 -22h66l42 21l46 45l22 46
l24 72v45h-205l-11 2l-9 6l-6 9l-2 11l2 11l6 9l9 6l11 2h205v19l-24 72l-22 46l-46 45l-42 21h-40l-67 -22l-43 -43l-29 -81l-9 -7l-11 -2l-11 1l-10 6l-6 10l-2 11v155l2 11l6 9l10 6l11 2l11 -3l9 -6l5 -10z" />
    <glyph glyph-name="uni042E" unicode="&#x42e;" horiz-adv-x="804" 
d="M102 544l-60 2l-10 6l-6 9l-2 11l2 11l6 9l10 6l10 2h182l10 -2l9 -6l6 -9l3 -11l-3 -11l-6 -9l-9 -6l-10 -2h-50v-203h100l28 114l31 59l52 52l11 7l78 26l60 1l87 -27l11 -7l52 -52l31 -59l29 -116l-1 -85l-26 -103l-33 -65l-52 -52l-11 -7l-78 -26l-62 -1l-85 27
l-11 7l-52 52l-31 59l-28 109l-1 31h-99v-229l60 -2l9 -6l6 -9l3 -11l-3 -11l-6 -9l-9 -6l-10 -2h-182l-10 2l-10 6l-6 9l-2 11l2 11l6 9l10 6l10 2h50v488zM538 56l42 21l45 45l23 45l24 98v70l-24 98l-23 45l-45 45l-42 21h-39l-42 -21l-45 -45l-22 -45l-25 -98v-70
l25 -98l22 -45l45 -45l42 -21h39z" />
    <glyph glyph-name="uni042F" unicode="&#x42f;" 
d="M23 80l2 36l6 10l9 6l11 2l11 -2l9 -6l6 -10l2 -25l9 -9l17 14l76 176l12 16l-73 24l-11 7l-31 33l-26 52l-3 13v51l3 13l26 52l31 33l11 7l84 27h313l11 -2l9 -6l6 -9l2 -11l-2 -11l-6 -9l-9 -6l-11 -2h-50v-488h50l11 -2l9 -6l6 -9l2 -11l-2 -11l-6 -9l-9 -6l-11 -2
h-181l-11 2l-9 6l-6 9l-2 11l2 11l6 9l9 6l61 2v229h-95l-38 -19l-21 -41l-51 -179l-7 -12l-35 -32l-62 -2l-19 7l-32 60zM213 341h173v203h-173l-42 -21l-19 -19l-21 -42v-39l21 -42l19 -19z" />
    <glyph glyph-name="uni0430" unicode="&#x430;" horiz-adv-x="517" 
d="M155 347l-1 -45l-6 -9l-9 -6l-37 -2l-10 2l-9 6l-6 9l-3 37l3 11l6 9l33 31l52 26l12 3h104l12 -3l52 -26l33 -31l31 -59l3 -13v-175l21 -42l15 -14l25 -2l9 -6l6 -9l2 -11l-2 -11l-6 -9l-9 -6l-11 -2l-36 2l-61 32l-14 24l-32 -29l-52 -26l-12 -3h-80l-94 33l-32 60
l-3 13v52l3 12l32 60l92 33l146 24l12 12v28l-15 15l-42 21h-90zM189 208l-40 -20l-19 -37v-39l19 -37l38 -19h64l42 21l41 40v115z" />
    <glyph glyph-name="uni0431" unicode="&#x431;" horiz-adv-x="517" 
d="M228 418l65 -1l77 -26l11 -6l52 -52l7 -11l27 -87l-1 -60l-26 -78l-7 -11l-52 -52l-11 -7l-84 -27h-56l-84 27l-11 7l-52 52l-7 11l-27 86l1 113l27 79l62 91l78 52l155 53l31 27l10 2l11 -2l11 -8l6 -18l-2 -11l-32 -61l-64 -33l-99 -25l-56 -36zM277 56l42 21l44 44
l22 67v43l-22 67l-44 44l-42 21h-38l-42 -21l-44 -44l-22 -67v-43l22 -67l44 -44l42 -21h38z" />
    <glyph glyph-name="uni0432" unicode="&#x432;" horiz-adv-x="517" 
d="M100 363l-60 2l-9 6l-6 9l-2 11l2 10l6 9l9 7l11 2h287l94 -33l32 -61l3 -38l-3 -12l-26 -52l-15 -14l15 -13l26 -52l3 -38l-3 -13l-32 -60l-94 -33h-287l-11 2l-9 6l-6 9l-2 11l2 11l6 9l9 6l11 2h49v307zM182 363v-126h147l38 19l18 38v12l-18 38l-38 19h-147zM182 56
h147l38 19l18 37v13l-18 38l-38 18h-147v-125z" />
    <glyph glyph-name="uni0433" unicode="&#x433;" horiz-adv-x="465" 
d="M100 363l-60 2l-9 6l-6 9l-2 11l2 10l6 9l9 7l11 2h362l11 -2l9 -7l6 -9l2 -140l-2 -11l-7 -10l-10 -6l-12 -1l-11 4l-8 8l-5 11l-21 107h-183v-307h50l11 -2l9 -6l6 -9l2 -11l-2 -11l-6 -9l-9 -6l-11 -2h-181l-11 2l-9 6l-6 9l-2 11l2 11l6 9l9 6l60 2v307z" />
    <glyph glyph-name="uni0434" unicode="&#x434;" horiz-adv-x="595" 
d="M117 56l13 13l23 69l25 151v74h-49l-11 2l-9 6l-6 9l-2 11l2 10l6 9l9 7l11 2h414l11 -2l9 -7l6 -9l2 -10l-2 -11l-6 -9l-9 -6l-11 -2h-50v-307l61 -2l9 -6l6 -9l2 -141l-2 -11l-7 -9l-10 -6l-12 -1l-11 3l-9 8l-4 11l-22 107h-394l-22 -107l-4 -11l-9 -8l-11 -3l-12 1
l-10 6l-7 9l-2 11l2 141l6 9l9 6l11 2h66zM234 363v-81l-26 -155l-23 -71h227v307h-178z" />
    <glyph glyph-name="uni0435" unicode="&#x435;" horiz-adv-x="491" 
d="M231 418l79 1l12 -3l52 -26l39 -39l25 -51l3 -13l-2 -62l-6 -10l-9 -6l-11 -2h-282v-19l22 -67l44 -44l42 -21h40l67 22l57 54l10 2l11 -2l9 -6l6 -10l2 -10l-2 -11l-58 -61l-11 -7l-86 -27l-61 1l-77 26l-11 7l-52 52l-7 11l-27 86l1 61l26 78l7 11l52 52l11 6zM239 363
l-42 -21l-44 -44l-12 -35h219v43l-19 38l-38 19h-64z" />
    <glyph glyph-name="uni0436" unicode="&#x436;" horiz-adv-x="701" 
d="M139 335l-24 -22l-11 -2l-11 2l-9 6l-32 35l-2 11l2 10l6 10l35 32l37 2l10 -2l41 -40l49 -99l20 -20l42 -21h17v126h-50l-10 2l-10 6l-6 9l-2 11l2 10l6 9l10 7l10 2h182l10 -2l9 -7l6 -9l3 -10l-3 -11l-6 -9l-9 -6l-10 -2h-50v-126h17l42 21l19 20l50 99l31 33l9 7
l11 2l37 -2l9 -7l32 -35l2 -10l-2 -11l-6 -9l-35 -32l-11 -2l-11 2l-24 22l-44 -86l-40 -40l40 -39l50 -100l15 -14l17 14l31 57l9 5l11 2l10 -3l9 -7l5 -9l2 -11l-29 -63l-40 -39l-63 -2l-10 2l-41 39l-49 100l-41 40h-12v-125h50l10 -2l9 -6l6 -9l3 -11l-3 -11l-6 -9
l-9 -6l-10 -2h-182l-10 2l-10 6l-6 9l-2 11l2 11l6 9l10 6l10 2h50v125h-12l-41 -40l-49 -100l-32 -33l-9 -6l-10 -2l-63 2l-40 39l-29 63l1 11l6 9l9 7l10 3l11 -2l9 -5l31 -57l17 -14l15 14l49 100l41 39l-41 40z" />
    <glyph glyph-name="uni0437" unicode="&#x437;" horiz-adv-x="465" 
d="M110 386l58 30l12 3h104l86 -28l10 -5l7 -9l25 -52l3 -38l-3 -12l-25 -52l-15 -14l15 -13l25 -52l3 -38l-3 -13l-32 -60l-94 -33h-106l-86 27l-10 6l-7 8l-25 52l-3 39l2 10l6 9l35 32l10 3l11 -3l35 -32l6 -9l2 -10l-2 -11l-35 -37l3 -7l63 -21h92l38 19l19 37v13
l-19 38l-38 18l-82 2l-9 7l-6 9l-2 10l2 11l6 9l9 6l82 2l38 19l19 38v12l-19 38l-38 19h-90l-42 -21l-20 -20l-30 -56l-9 -5l-11 -2l-10 3l-9 6l-5 9l-2 10l2 114l5 9l9 6l10 3l11 -2l9 -5z" />
    <glyph glyph-name="uni0438" unicode="&#x438;" 
d="M101 363l-61 2l-9 6l-6 9l-2 11l2 10l6 9l9 7l11 2h181l11 -2l9 -7l6 -9l2 -10l-2 -11l-6 -9l-9 -6l-61 -2v-232l193 232h-39l-11 2l-9 6l-6 9l-2 11l2 10l6 9l9 7l11 2h181l11 -2l9 -7l6 -9l2 -10l-2 -11l-6 -9l-9 -6l-11 -2h-50v-307h50l11 -2l9 -6l6 -9l2 -11l-2 -11
l-6 -9l-9 -6l-11 -2h-181l-11 2l-9 6l-6 9l-2 11l2 11l6 9l9 6l61 2v231l-193 -231h39l11 -2l9 -6l6 -9l2 -11l-2 -11l-6 -9l-9 -6l-11 -2h-181l-11 2l-9 6l-6 9l-2 11l2 11l6 9l9 6l11 2h50v307z" />
    <glyph glyph-name="uni0439" unicode="&#x439;" 
d="M101 363l-61 2l-9 6l-6 9l-2 11l2 10l6 9l9 7l11 2h181l11 -2l9 -7l6 -9l2 -10l-2 -11l-6 -9l-9 -6l-61 -2v-232l193 232h-39l-11 2l-9 6l-6 9l-2 11l2 10l6 9l9 7l11 2h181l11 -2l9 -7l6 -9l2 -10l-2 -11l-6 -9l-9 -6l-11 -2h-50v-307h50l11 -2l9 -6l6 -9l2 -11l-2 -11
l-6 -9l-9 -6l-11 -2h-181l-11 2l-9 6l-6 9l-2 11l2 11l6 9l9 6l61 2v231l-193 -231h39l11 -2l9 -6l6 -9l2 -11l-2 -11l-6 -9l-9 -6l-11 -2h-181l-11 2l-9 6l-6 9l-2 11l2 11l6 9l9 6l11 2h50v307zM223 524l4 -9l38 -19h38l38 19l22 44l6 8l10 6l11 1l10 -3l9 -7l5 -9l2 -11
l-3 -10l-31 -60l-60 -31l-12 -3h-52l-12 3l-60 31l-31 60l-3 12v26l3 11l6 9l9 6l10 2h26l11 -2l9 -6l6 -9l2 -11v-26l-2 -11z" />
    <glyph glyph-name="uni043A" unicode="&#x43a;" horiz-adv-x="517" 
d="M100 363l-60 2l-9 6l-6 9l-2 11l2 10l6 9l9 7l11 2h181l11 -2l9 -7l6 -9l2 -10l-2 -11l-6 -9l-9 -6l-11 -2h-50v-126h20l67 23l18 18l50 99l31 33l9 7l11 2h25l11 -2l9 -7l32 -35l2 -10l-2 -11l-6 -9l-26 -26l-9 -6l-11 -2l-10 2l-9 6l-16 16l-43 -86l-31 -34l-10 -6
l10 -6l31 -33l50 -100l14 -14l17 14l31 57l9 5l11 2l11 -3l8 -7l6 -9l1 -11l-3 -11l-31 -59l-35 -32l-62 -2l-11 2l-40 39l-50 100l-20 19l-41 21h-18v-125h50l11 -2l9 -6l6 -9l2 -11l-2 -11l-6 -9l-9 -6l-11 -2h-181l-11 2l-9 6l-6 9l-2 11l2 11l6 9l9 6l11 2h49v307z" />
    <glyph glyph-name="uni043B" unicode="&#x43b;" 
d="M110 86l17 52l25 151v74h-49l-11 2l-9 6l-6 9l-2 11l2 10l6 9l9 7l11 2h414l11 -2l9 -7l6 -9l2 -10l-2 -11l-6 -9l-9 -6l-11 -2h-50v-307h50l11 -2l9 -6l6 -9l2 -11l-2 -11l-6 -9l-9 -6l-11 -2h-181l-11 2l-9 6l-6 9l-2 11l2 11l6 9l9 6l61 2v307h-178v-81l-26 -155
l-27 -82l-7 -11l-26 -26l-9 -6l-10 -2l-37 2l-9 6l-32 35l-2 11l2 11l6 9l35 32l11 2l10 -2z" />
    <glyph glyph-name="uni043C" unicode="&#x43c;" horiz-adv-x="595" 
d="M101 363l-61 2l-9 6l-6 9l-2 11l2 10l6 9l9 7l11 2h103l11 -2l9 -7l6 -9l115 -276l125 285l9 7l10 2h104l11 -2l9 -7l6 -9l2 -10l-2 -11l-6 -9l-9 -6l-11 -2h-50v-307h50l11 -2l9 -6l6 -9l2 -11l-2 -11l-6 -9l-9 -6l-11 -2h-181l-11 2l-9 6l-6 9l-2 11l2 11l6 9l9 6l60 2
v198l-101 -237l-6 -9l-10 -6l-10 -2l-11 2l-9 6l-6 9l-101 237v-198l60 -2l9 -6l6 -9l2 -11l-2 -11l-6 -9l-9 -6l-11 -2h-155l-11 2l-9 6l-6 9l-2 11l2 11l6 9l9 6l11 2h50v307z" />
    <glyph glyph-name="uni043D" unicode="&#x43d;" 
d="M101 363l-61 2l-9 6l-6 9l-2 11l2 10l6 9l9 7l11 2h181l11 -2l9 -7l6 -9l2 -10l-2 -11l-6 -9l-9 -6l-11 -2h-50v-126h204v126h-50l-11 2l-9 6l-6 9l-2 11l2 10l6 9l9 7l11 2h181l11 -2l9 -7l6 -9l2 -10l-2 -11l-6 -9l-9 -6l-11 -2h-50v-307h50l11 -2l9 -6l6 -9l2 -11
l-2 -11l-6 -9l-9 -6l-11 -2h-181l-11 2l-9 6l-6 9l-2 11l2 11l6 9l9 6l11 2h50v125h-204v-125h50l11 -2l9 -6l6 -9l2 -11l-2 -11l-6 -9l-9 -6l-11 -2h-181l-11 2l-9 6l-6 9l-2 11l2 11l6 9l9 6l11 2h50v307z" />
    <glyph glyph-name="uni043E" unicode="&#x43e;" horiz-adv-x="519" 
d="M147 391l84 28l63 -2l77 -26l11 -6l52 -52l7 -11l26 -78v-69l-26 -78l-7 -11l-52 -52l-11 -7l-77 -26l-63 -1l-84 27l-11 7l-52 52l-7 11l-26 78v69l26 78l7 11l52 52zM278 56l42 21l44 44l22 67v43l-22 67l-44 44l-42 21h-38l-42 -21l-44 -44l-22 -67v-43l22 -67l44 -44
l42 -21h38z" />
    <glyph glyph-name="uni043F" unicode="&#x43f;" 
d="M101 363l-61 2l-9 6l-6 9l-2 11l2 10l6 9l9 7l11 2h466l11 -2l9 -7l6 -9l2 -10l-2 -11l-6 -9l-9 -6l-11 -2h-50v-307h50l11 -2l9 -6l6 -9l2 -11l-2 -11l-6 -9l-9 -6l-11 -2h-181l-11 2l-9 6l-6 9l-2 11l2 11l6 9l9 6l11 2h50v307h-204v-307l61 -2l9 -6l6 -9l2 -11l-2 -11
l-6 -9l-9 -6l-11 -2h-181l-11 2l-9 6l-6 9l-2 11l2 11l6 9l9 6l11 2h50v307z" />
    <glyph glyph-name="uni0440" unicode="&#x440;" horiz-adv-x="544" 
d="M101 363l-61 2l-9 6l-6 9l-2 11l2 10l6 9l9 7l11 2h103l11 -2l9 -7l6 -9l2 -20l12 9l52 26l12 3l61 -2l77 -26l11 -6l52 -52l7 -11l26 -78v-69l-26 -78l-7 -11l-52 -52l-11 -7l-77 -26l-61 -1l-12 3l-52 26l-12 9v-163h50l11 -2l9 -7l6 -9l2 -10l-2 -11l-6 -9l-9 -6
l-11 -2h-181l-11 2l-9 6l-6 9l-2 11l2 10l6 9l9 7l61 2v488zM303 56l42 21l44 44l22 67v43l-22 67l-44 44l-42 21h-38l-42 -21l-41 -41v-184l41 -40l42 -21h38z" />
    <glyph glyph-name="uni0441" unicode="&#x441;" horiz-adv-x="491" 
d="M228 418l82 1l12 -3l59 -31l52 -52l6 -9l2 -11v-26l-2 -11l-6 -9l-26 -26l-9 -6l-10 -2l-11 2l-9 6l-32 35l-2 11l2 11l25 28l-16 16l-42 21h-64l-42 -21l-44 -44l-22 -67v-43l22 -67l44 -44l42 -21h40l67 22l57 54l10 2l11 -2l9 -6l6 -10l2 -10l-2 -11l-6 -9l-52 -52
l-11 -7l-86 -27l-61 1l-77 26l-11 7l-52 52l-7 11l-27 86l1 61l26 78l7 11l52 52l11 6z" />
    <glyph glyph-name="uni0442" unicode="&#x442;" horiz-adv-x="491" 
d="M125 363l-21 -107l-5 -11l-8 -8l-11 -4l-12 1l-10 6l-7 10l-2 11v130l2 10l6 9l9 7l11 2h336l11 -2l9 -7l6 -9l2 -140l-2 -11l-7 -10l-10 -6l-12 -1l-11 4l-8 8l-5 11l-22 107h-78v-307h50l10 -2l9 -6l6 -9l3 -11l-3 -11l-6 -9l-9 -6l-10 -2h-182l-10 2l-10 6l-6 9l-2 11
l2 11l6 9l10 6l60 2v307h-79z" />
    <glyph glyph-name="uni0443" unicode="&#x443;" horiz-adv-x="465" 
d="M58 363h-33l-11 2l-9 6l-6 9l-2 11l2 10l6 9l9 7l11 2h155l11 -2l9 -7l6 -9l2 -10l-2 -11l-6 -9l-9 -6l-11 -2h-36l99 -238l102 238l-72 2l-9 6l-6 9l-2 11l2 10l6 9l9 7l11 2h155l11 -2l9 -7l6 -9l2 -10l-2 -11l-6 -9l-9 -6l-44 -2l-148 -346l-53 -105l-57 -59l-59 -31
l-12 -3h-26l-11 2l-9 6l-32 35l-2 11l2 10l32 35l9 6l11 2l10 -2l9 -6l29 -29l13 7l45 45l44 88z" />
    <glyph glyph-name="uni0444" unicode="&#x444;" horiz-adv-x="543" 
d="M143 416l11 3h52l11 -2l13 -11v138h-50l-10 2l-10 6l-6 9l-2 11l2 11l6 9l10 6l10 2h104l11 -2l9 -6l6 -9l2 -11v-166l13 11l11 2l62 -2l54 -27l8 -7l6 -9l27 -87v-155l-27 -87l-6 -9l-8 -7l-54 -27l-62 -2l-11 2l-13 10v-137h50l10 -2l9 -7l6 -9l3 -10l-3 -11l-6 -9
l-9 -6l-10 -2h-182l-10 2l-10 6l-6 9l-2 11l2 10l6 9l10 7l60 2v137l-13 -10l-11 -2h-52l-10 2l-54 27l-9 7l-5 9l-27 87l1 164l31 87zM166 363l-13 -13l-22 -67v-147l22 -67l13 -13h29l14 14l21 42v194l-21 42l-14 15h-29zM312 306v-194l21 -42l14 -14h29l13 13l22 67v147
l-22 67l-13 13h-29l-14 -15z" />
    <glyph glyph-name="uni0445" unicode="&#x445;" horiz-adv-x="517" 
d="M90 56l125 146l-126 161h-38l-11 2l-9 6l-6 9l-2 11l2 10l6 9l9 7l11 2l166 -2l9 -7l6 -9l2 -10l-2 -11l-6 -9l-9 -6l-31 -2l80 -102l87 102h-43l-11 2l-9 6l-6 9l-2 11l2 10l6 9l9 7l11 2h155l11 -2l9 -7l6 -9l2 -10l-2 -11l-6 -9l-9 -6l-11 -2h-39l-125 -147l126 -160
h38l11 -2l9 -6l6 -9l2 -11l-2 -11l-6 -9l-9 -6l-11 -2l-166 2l-9 6l-6 9l-2 11l2 11l6 9l9 6l31 2l-80 101l-87 -101h43l11 -2l9 -6l6 -9l2 -11l-2 -11l-6 -9l-9 -6l-166 -2l-11 2l-9 6l-6 9l-2 11l2 11l6 9l9 6l11 2h39z" />
    <glyph glyph-name="uni0446" unicode="&#x446;" 
d="M101 363l-61 2l-9 6l-6 9l-2 11l2 10l6 9l9 7l11 2h181l11 -2l9 -7l6 -9l2 -10l-2 -11l-6 -9l-9 -6l-61 -2v-307h204v307l-61 2l-9 6l-6 9l-2 11l2 10l6 9l9 7l11 2h181l11 -2l9 -7l6 -9l2 -10l-2 -11l-6 -9l-9 -6l-11 -2h-50v-307l61 -2l9 -6l6 -9l2 -141l-2 -11l-7 -9
l-10 -6l-12 -1l-11 3l-9 8l-4 11l-22 107h-417l-11 2l-9 6l-6 9l-2 11l2 11l6 9l9 6l11 2h50v307z" />
    <glyph glyph-name="uni0447" unicode="&#x447;" 
d="M101 363l-61 2l-9 6l-6 9l-2 11l2 10l6 9l9 7l11 2h181l11 -2l9 -7l6 -9l2 -10l-2 -11l-6 -9l-9 -6l-11 -2h-50v-147l19 -38l38 -18h40l68 22l39 39v142h-50l-11 2l-9 6l-6 9l-2 11l2 10l6 9l9 7l11 2h181l11 -2l9 -7l6 -9l2 -10l-2 -11l-6 -9l-9 -6l-11 -2h-50v-307h50
l11 -2l9 -6l6 -9l2 -11l-2 -11l-6 -9l-9 -6l-11 -2h-181l-11 2l-9 6l-6 9l-2 11l2 11l6 9l9 6l11 2h50v86l-15 -11l-87 -27l-61 1l-87 31l-32 61l-3 12v154z" />
    <glyph glyph-name="uni0448" unicode="&#x448;" horiz-adv-x="804" 
d="M102 363l-60 2l-10 6l-6 9l-2 11l2 10l6 9l10 7l10 2h182l10 -2l9 -7l6 -9l3 -10l-3 -11l-6 -9l-9 -6l-10 -2h-50v-307h177v307l-60 2l-10 6l-6 9l-2 11l2 10l6 9l10 7l10 2h182l10 -2l9 -7l6 -9l3 -10l-3 -11l-6 -9l-9 -6l-10 -2h-50v-307h177v307l-60 2l-9 6l-7 9
l-2 11l2 10l7 9l9 7l10 2h182l10 -2l9 -7l7 -9l2 -10l-2 -11l-7 -9l-9 -6l-10 -2h-50v-307l60 -2l9 -6l7 -9l2 -11l-2 -11l-7 -9l-9 -6l-10 -2h-700l-10 2l-10 6l-6 9l-2 11l2 11l6 9l10 6l10 2h50v307z" />
    <glyph glyph-name="uni0449" unicode="&#x449;" horiz-adv-x="804" 
d="M102 363l-60 2l-10 6l-6 9l-2 11l2 10l6 9l10 7l10 2h182l10 -2l9 -7l6 -9l3 -10l-3 -11l-6 -9l-9 -6l-10 -2h-50v-307h177v307l-60 2l-10 6l-6 9l-2 11l2 10l6 9l10 7l10 2h182l10 -2l9 -7l6 -9l3 -10l-3 -11l-6 -9l-9 -6l-10 -2h-50v-307h177v307l-60 2l-9 6l-7 9
l-2 11l2 10l7 9l9 7l10 2h182l10 -2l9 -7l7 -9l2 -10l-2 -11l-7 -9l-9 -6l-10 -2h-50v-307l60 -2l9 -6l7 -9l2 -141l-3 -11l-7 -9l-10 -6l-11 -1l-12 3l-8 8l-5 11l-21 107h-651l-10 2l-10 6l-6 9l-2 11l2 11l6 9l10 6l10 2h50v307z" />
    <glyph glyph-name="uni044A" unicode="&#x44a;" horiz-adv-x="543" 
d="M126 363l-22 -107l-5 -11l-8 -8l-11 -4l-12 1l-10 6l-7 10l-2 11v130l2 10l6 9l9 7l11 2h259l10 -2l10 -7l6 -9l2 -10l-2 -11l-6 -9l-10 -6l-10 -2h-50v-126h78l94 -32l32 -61l3 -38l-3 -13l-32 -60l-94 -33h-210l-10 2l-9 6l-6 9l-3 11l3 11l6 9l9 6l10 2h50v307h-78z
M286 181v-125h69l38 19l18 37v13l-18 38l-38 18h-69z" />
    <glyph glyph-name="uni044B" unicode="&#x44b;" horiz-adv-x="675" 
d="M490 363l-60 2l-9 6l-6 9l-2 11l2 10l6 9l9 7l11 2h181l11 -2l9 -7l6 -9l2 -10l-2 -11l-6 -9l-9 -6l-61 -2v-307h50l11 -2l9 -6l6 -9l2 -11l-2 -11l-6 -9l-9 -6l-11 -2h-181l-11 2l-9 6l-6 9l-2 11l2 11l6 9l9 6l60 2v307zM102 363l-61 2l-9 6l-6 9l-2 11l2 10l6 9l9 7
l11 2h181l11 -2l9 -7l6 -9l2 -10l-2 -11l-6 -9l-9 -6l-11 -2h-49v-126h77l94 -32l33 -61l3 -38l-3 -13l-33 -60l-94 -33h-209l-11 2l-9 6l-6 9l-2 11l2 11l6 9l9 6l11 2h50v307zM184 56h69l37 19l19 37v13l-19 38l-37 18h-69v-125z" />
    <glyph glyph-name="uni044C" unicode="&#x44c;" horiz-adv-x="439" 
d="M100 363l-60 2l-9 6l-6 9l-2 11l2 10l6 9l9 7l11 2h181l11 -2l9 -7l6 -9l2 -10l-2 -11l-6 -9l-9 -6l-11 -2h-50v-126h78l94 -32l32 -61l3 -38l-3 -13l-32 -60l-94 -33h-209l-11 2l-9 6l-6 9l-2 11l2 11l6 9l9 6l11 2h49v307zM182 56h69l38 19l19 37v13l-19 38l-38 18h-69
v-125z" />
    <glyph glyph-name="uni044D" unicode="&#x44d;" horiz-adv-x="492" 
d="M110 386l58 30l12 3h80l84 -28l11 -6l52 -52l7 -11l26 -78v-69l-26 -78l-7 -11l-52 -52l-11 -7l-84 -27h-80l-12 3l-52 26l-59 57l-6 9l-2 11l2 36l32 35l9 6l10 3l11 -3l9 -6l32 -35l2 -10l-2 -11l-25 -28l16 -16l42 -21h64l42 21l44 44l20 60h-125l-11 2l-9 7l-6 9
l-2 10l2 11l6 9l9 6l136 2l-20 61l-44 44l-42 21h-64l-42 -21l-20 -20l-30 -56l-9 -5l-11 -2l-10 3l-9 6l-5 9l-2 10l2 114l5 9l9 6l10 3l11 -2l9 -5z" />
    <glyph glyph-name="uni044E" unicode="&#x44e;" horiz-adv-x="752" 
d="M102 363l-61 2l-9 6l-6 9l-2 11l2 10l6 9l9 7l11 2h181l11 -2l9 -7l6 -9l2 -10l-2 -11l-6 -9l-9 -6l-11 -2h-49v-126h100l27 85l6 11l52 52l11 6l87 28h53l85 -28l11 -6l52 -52l7 -11l25 -78v-69l-25 -78l-7 -11l-52 -52l-11 -7l-85 -27h-55l-85 27l-11 7l-52 52l-6 11
l-27 84h-100v-125h49l11 -2l9 -6l6 -9l2 -11l-2 -11l-6 -9l-9 -6l-11 -2h-181l-11 2l-9 6l-6 9l-2 11l2 11l6 9l9 6l11 2h50v307zM512 56l42 21l44 44l22 67v43l-22 67l-44 44l-42 21h-39l-42 -21l-44 -44l-22 -67v-43l22 -67l44 -44l42 -21h39z" />
    <glyph glyph-name="uni044F" unicode="&#x44f;" horiz-adv-x="543" 
d="M202 418l289 1l11 -2l9 -7l6 -9l2 -10l-2 -11l-6 -9l-9 -6l-11 -2h-49v-307h49l11 -2l9 -6l6 -9l2 -11l-2 -11l-6 -9l-9 -6l-11 -2h-181l-11 2l-9 6l-6 9l-2 11l2 11l6 9l9 6l11 2h50v125h-18l-41 -21l-20 -19l-50 -100l-40 -39l-62 -2l-11 2l-35 32l-31 59l-3 11l1 11
l6 9l8 7l11 3l11 -2l9 -5l31 -57l17 -14l14 14l50 100l9 11l-19 2l-87 31l-32 61l-3 38l3 12l32 61zM360 363h-147l-38 -19l-18 -38v-12l18 -38l38 -19h147v126z" />
    <glyph glyph-name="uni05D0" unicode="&#x5d0;" horiz-adv-x="517" 
d="M49 442l2 63l6 9l9 6l11 2l10 -2l15 -13l24 -48l171 -171l65 65l-25 51l-3 13v79l3 11l6 8l19 7l18 -7l28 -52l52 -28l7 -18l-2 -63l-6 -9l-9 -6l-25 -2l-89 -89l102 -104l26 -52l3 -12v-52l-2 -11l-6 -9l-9 -6l-11 -2l-10 2l-9 6l-30 55l-197 197l-62 -62v-34l23 -46
l2 -12l-1 -62l-14 -15l-54 -27l-19 -1l-11 7l-8 18l1 11l19 22l-17 34l-3 13l1 60l33 63l71 71l-71 71l-31 59z" />
    <glyph glyph-name="quoteleft" unicode="&#x2018;" horiz-adv-x="261" 
d="M110 566l26 26l9 6l11 2l11 -2l9 -6l6 -9l2 -11l-2 -11l-29 -31l-17 -35l14 -7l26 -26l6 -9l2 -11l-2 -10l-32 -35l-9 -6l-11 -2l-11 2l-9 6l-26 26l-6 9l-2 10v52l3 13z" />
    <glyph glyph-name="quoteright" unicode="&#x2019;" horiz-adv-x="261" 
d="M124 493l-14 7l-26 26l-6 9l-2 11l2 11l6 9l26 26l9 6l11 2l11 -2l9 -6l32 -35l2 -63l-3 -12l-31 -59l-35 -32l-11 -2l-11 2l-9 6l-6 9l-2 11l2 10l29 32z" />
    <glyph glyph-name="quotedblleft" unicode="&#x201c;" horiz-adv-x="397" 
d="M246 566l26 26l9 6l11 2l11 -2l9 -6l6 -9l2 -11l-2 -11l-29 -31l-17 -35l14 -7l26 -26l6 -9l2 -11l-2 -10l-32 -35l-9 -6l-11 -2l-11 2l-9 6l-26 26l-6 9l-2 10v52l3 13zM110 566l26 26l9 6l11 2l11 -2l9 -6l6 -9l2 -11l-2 -11l-29 -31l-17 -35l14 -7l26 -26l6 -9l2 -11
l-2 -10l-32 -35l-9 -6l-11 -2l-11 2l-9 6l-26 26l-6 9l-2 10v52l3 13z" />
    <glyph glyph-name="quotedblright" unicode="&#x201d;" horiz-adv-x="397" 
d="M151 423l-26 -26l-9 -6l-11 -2l-11 2l-9 6l-6 9l-2 11l2 11l29 31l17 35l-14 7l-26 26l-6 9l-2 11l2 10l32 35l9 6l11 2l11 -2l9 -6l26 -26l6 -9l2 -10v-52l-3 -13zM287 423l-26 -26l-9 -6l-11 -2l-11 2l-9 6l-6 9l-2 11l2 11l29 31l17 35l-14 7l-26 26l-6 9l-2 11l2 10
l32 35l9 6l11 2l11 -2l9 -6l26 -26l6 -9l2 -10v-52l-3 -13z" />
    <glyph glyph-name="dagger" unicode="&#x2020;" horiz-adv-x="414" 
d="M23 392l3 11l12 13l52 26l12 3l13 -3l46 -23h17v43l-23 46l-3 12l3 13l30 57l8 7l13 3l11 -2l10 -8l30 -57l3 -13l-3 -12l-23 -46v-43h17l46 23l13 3l12 -3l52 -26l14 -15v-20l-7 -10l-59 -31l-12 -3l-13 3l-46 23h-17v-71l26 -85l-26 -362l-8 -18l-10 -6l-10 -2l-11 2
l-9 6l-8 18l-26 362l26 85v71h-17l-46 -23l-13 -3l-12 3l-58 30l-7 10z" />
    <glyph glyph-name="daggerdbl" unicode="&#x2021;" horiz-adv-x="413" 
d="M23 392l3 11l12 13l52 26l12 3l13 -3l46 -23h17v43l-23 46l-3 12l3 13l30 57l8 7l13 3l11 -2l10 -8l30 -57l3 -13l-3 -12l-23 -46v-43h17l46 23l13 3l12 -3l52 -26l14 -15v-20l-7 -10l-59 -31l-12 -3l-13 3l-46 23h-17v-43l23 -46l3 -13l-3 -12l-20 -40l20 -39l3 -12
l-3 -13l-23 -46v-43h17l46 23l13 3l12 -3l52 -26l13 -14l2 -11l-2 -11l-13 -14l-52 -26l-12 -3l-13 3l-46 23h-17v-43l23 -46l3 -13l-3 -12l-26 -52l-15 -13h-20l-10 6l-31 59l-3 12l3 13l23 46v43h-17l-46 -23l-13 -3l-12 3l-52 26l-12 12l-3 11l2 13l7 10l58 30l12 3
l13 -3l46 -23h17v43l-23 46l-3 13l3 12l20 39l-20 40l-3 12l3 13l23 46v43h-17l-46 -23l-13 -3l-12 3l-58 30l-7 10z" />
    <glyph glyph-name="minute" unicode="&#x2032;" horiz-adv-x="209" 
d="M50 395l26 181l4 10l7 8l10 5l20 -2l10 3l11 -1l9 -5l7 -8l4 -11l-1 -11l-52 -181l-5 -10l-8 -7l-11 -3l-11 1l-9 5l-7 8z" />
    <glyph glyph-name="second" unicode="&#x2033;" horiz-adv-x="413" 
d="M256 395l26 181l4 10l7 8l10 5l19 -2l10 3l11 -1l10 -5l7 -8l3 -11l-1 -11l-51 -181l-5 -10l-9 -7l-10 -3l-11 1l-10 5l-7 8zM49 395l26 181l3 10l8 8l9 5l20 -2l10 3l11 -1l10 -5l7 -8l3 -11l-1 -11l-52 -181l-5 -10l-8 -7l-10 -3l-11 1l-10 5l-7 8z" />
    <glyph glyph-name="uni2038" unicode="&#x2038;" horiz-adv-x="570" 
d="M50 206l1 12l12 15l217 133l20 -3l207 -130l12 -15l1 -11l-3 -10l-6 -9l-10 -5l-13 -1l-203 100l-203 -100h-11l-9 5l-8 7z" />
    <glyph glyph-name="arrowleft" unicode="&#x2190;" horiz-adv-x="674" 
d="M88 284l76 51l75 75l10 7l10 2l11 -2l9 -7l6 -9l2 -10l-2 -11l-88 -91h373l11 -2l9 -6l6 -9l2 -11l-2 -11l-6 -9l-9 -6l-11 -2h-373l88 -91l2 -10l-2 -11l-6 -9l-9 -6l-11 -2l-10 2l-10 6l-75 76l-83 58l-5 10v11l5 10z" />
    <glyph glyph-name="arrowup" unicode="&#x2191;" horiz-adv-x="415" 
d="M133 434l51 76l7 8l11 4h10l11 -4l7 -8l51 -76l75 -75l6 -9l3 -11l-3 -11l-6 -9l-9 -6l-10 -2l-11 2l-91 88v-373l-2 -11l-6 -9l-9 -6l-11 -2l-11 2l-9 6l-6 9l-2 11v373l-91 -88l-11 -2l-10 2l-9 6l-6 9l-3 11l3 11l6 9z" />
    <glyph glyph-name="arrowright" unicode="&#x2192;" horiz-adv-x="674" 
d="M476 289l-88 91l-2 11l2 10l6 9l9 7l11 2l10 -2l10 -7l75 -75l76 -51l7 -7l5 -10v-11l-5 -10l-7 -8l-76 -50l-75 -76l-10 -6l-10 -2l-11 2l-9 6l-6 9l-2 11l2 10l88 91h-373l-11 2l-9 6l-6 9l-2 11l2 11l6 9l9 6l11 2h373z" />
    <glyph glyph-name="arrowdown" unicode="&#x2193;" horiz-adv-x="415" 
d="M133 88l-75 76l-6 9l-3 10l3 11l6 9l9 6l10 2l11 -2l91 -87v372l2 11l6 9l9 6l11 2l11 -2l9 -6l6 -9l2 -11v-372l91 87l11 2l10 -2l9 -6l6 -9l3 -11l-3 -10l-6 -9l-75 -76l-51 -76l-7 -7l-11 -4h-10l-11 4l-7 7z" />
    <glyph glyph-name="partialdiff" unicode="&#x2202;" horiz-adv-x="491" 
d="M109 33l-32 34l-25 52l-3 13v77l27 87l55 84l14 11l87 28h52l12 -3l52 -26l11 -9v57l-22 67l-39 39h-59l-32 -16l-1 -44l-6 -10l-9 -6l-11 -2h-26l-10 2l-10 6l-6 10l-2 10l2 37l32 35l59 31l13 3l88 -2l54 -27l33 -31l7 -11l27 -87v-135l-26 -129l-27 -81l-7 -11
l-51 -52l-11 -7l-78 -26l-61 -1l-12 3zM352 279l-15 45l-18 18l-42 21h-38l-40 -20l-45 -68l-24 -70v-93l19 -37l38 -19h38l42 21l44 44l23 70z" />
    <glyph glyph-name="existential" unicode="&#x2203;" horiz-adv-x="491" 
d="M359 544h-308l-11 2l-9 6l-6 9l-2 11l2 11l6 9l9 6l11 2h336l11 -2l9 -6l6 -9l2 -11v-544l-2 -11l-6 -9l-9 -6l-11 -2h-336l-11 2l-9 6l-6 9l-2 11l2 11l6 9l9 6l11 2h308v229h-179l-11 2l-9 6l-6 9l-2 11l2 11l6 9l9 6l11 2h179v203z" />
    <glyph glyph-name="gradient" unicode="&#x2207;" horiz-adv-x="517" 
d="M25 562l-2 10l2 11l6 9l9 6l11 2h414l11 -2l15 -15l2 -10l-2 -11l-207 -544l-6 -9l-9 -7l-10 -2l-11 2l-9 6l-7 9zM268 133l147 385h-289z" />
    <glyph glyph-name="element" unicode="&#x2208;" horiz-adv-x="621" 
d="M76 226l-1 35l1 35l26 78l7 11l59 57l57 28l104 26h188l11 -2l9 -6l6 -9l2 -11l-2 -10l-6 -9l-9 -6l-11 -3h-178l-97 -24l-45 -22l-44 -44l-20 -61h281l10 -2l9 -6l6 -9l3 -11l-3 -11l-6 -9l-9 -6l-10 -2h-281l20 -60l44 -44l45 -23l97 -24h178l11 -2l9 -6l6 -9l2 -11
l-2 -11l-6 -9l-9 -6l-11 -2h-181l-116 29l-59 31l-52 52l-7 11z" />
    <glyph glyph-name="product" unicode="&#x220f;" horiz-adv-x="881" 
d="M153 648l-86 2l-9 6l-7 9l-2 11l2 10l7 9l9 6l10 3h726l10 -3l9 -6l7 -9l2 -10l-2 -11l-7 -9l-9 -6l-86 -2v-773l86 -2l9 -7l7 -9l2 -10l-2 -11l-7 -9l-9 -6l-10 -2h-233l-11 2l-9 6l-6 9l-2 11l2 10l6 9l9 7l86 2v773h-410v-773l86 -2l9 -7l6 -9l2 -10l-2 -11l-6 -9
l-9 -6l-11 -2h-233l-10 2l-9 6l-7 9l-2 11l2 10l7 9l9 7l86 2v773z" />
    <glyph glyph-name="summation" unicode="&#x2211;" horiz-adv-x="803" 
d="M49 678l7 17l10 6l10 3h596l12 -3l9 -7l6 -11l52 -181l1 -10l-10 -19l-19 -7l-10 3l-15 14l-70 165h-446l228 -319l4 -10l1 -10l-4 -11l-243 -397h471l59 138l15 15h20l16 -13l2 -21l-52 -181l-6 -11l-9 -7l-12 -2h-570l-14 4l-8 7l-6 17l4 14l255 417l-279 381z" />
    <glyph glyph-name="minus" unicode="&#x2212;" horiz-adv-x="673" 
d="M569 233h-466l-11 2l-9 6l-6 9l-2 11l2 11l6 9l9 6l11 2h466l11 -2l9 -6l6 -9l2 -11l-2 -11l-6 -9l-9 -6z" />
    <glyph glyph-name="uni2213" unicode="&#x2213;" horiz-adv-x="621" 
d="M282 440h-179l-11 3l-9 6l-6 9l-2 10l2 11l6 9l9 6l11 2h414l11 -2l9 -6l6 -9l2 -11l-2 -10l-6 -9l-9 -6l-11 -3h-179v-151h179l11 -2l9 -6l6 -9l2 -11l-2 -11l-6 -9l-9 -6l-11 -2h-179v-205l-2 -11l-6 -9l-9 -6l-11 -2l-11 2l-9 6l-6 9l-2 11v205h-179l-11 2l-9 6l-6 9
l-2 11l2 11l6 9l9 6l11 2h179v151z" />
    <glyph glyph-name="radical" unicode="&#x221a;" 
d="M137 363l-71 2l-9 6l-6 9l-2 11l2 10l6 9l9 7l11 2h104l18 -8l144 -282l200 556l5 9l9 7l11 3l11 -2l9 -6l6 -8l3 -11l-2 -11l-233 -647l-5 -9l-8 -7l-11 -3l-11 1l-9 6l-7 8z" />
    <glyph glyph-name="proportional" unicode="&#x221d;" horiz-adv-x="647" 
d="M349 308l19 25l52 52l59 31l12 3h52l11 -2l9 -7l6 -9l2 -10l-2 -11l-6 -9l-9 -6l-11 -2h-45l-42 -21l-47 -47l-25 -34l25 -33l47 -47l42 -21h45l11 -3l9 -6l6 -9l2 -10l-2 -11l-6 -9l-9 -6l-11 -2h-52l-12 3l-59 31l-52 52l-19 24l-19 -24l-33 -32l-52 -26l-13 -2h-52
l-12 2l-59 32l-31 59l-3 12v52l3 13l26 51l12 13l52 26l12 3h52l13 -3l59 -31l26 -26zM314 261l-25 34l-21 21l-42 21h-39l-37 -19l-19 -38v-38l19 -38l37 -18h39l42 20l21 22z" />
    <glyph glyph-name="infinity" unicode="&#x221e;" horiz-adv-x="647" 
d="M323 308l19 25l26 26l59 31l13 3h51l13 -3l52 -26l12 -13l26 -51l3 -13l-2 -62l-32 -61l-59 -32l-13 -2h-51l-13 2l-52 26l-33 32l-19 24l-19 -24l-33 -32l-52 -26l-13 -2h-51l-13 2l-59 32l-31 59l-3 12v52l3 13l26 51l12 13l52 26l13 3h51l13 -3l59 -31l26 -26z
M288 261l-25 34l-21 21l-42 21h-39l-37 -19l-19 -38v-38l19 -38l37 -18h39l42 20l21 22zM541 242v38l-19 38l-37 19h-39l-42 -21l-21 -21l-25 -34l25 -33l21 -22l42 -20h39l37 18z" />
    <glyph glyph-name="uni2225" unicode="&#x2225;" horiz-adv-x="363" 
d="M231 -153v829l2 10l6 9l9 6l11 3l10 -3l10 -6l6 -9l2 -10v-829l-2 -11l-6 -9l-10 -6l-10 -2l-11 2l-9 6l-6 9zM75 -153v829l2 10l6 9l10 6l10 3l11 -3l9 -6l6 -9l2 -10v-829l-2 -11l-6 -9l-9 -6l-11 -2l-10 2l-10 6l-6 9z" />
    <glyph glyph-name="intersection" unicode="&#x2229;" horiz-adv-x="621" 
d="M131 232v-178l-2 -11l-6 -9l-10 -6l-10 -2l-11 2l-9 6l-6 9l-2 11v181l27 111l33 64l52 52l11 7l77 26h70l77 -26l11 -7l52 -52l33 -64l27 -111v-181l-2 -11l-6 -9l-9 -6l-11 -2l-10 2l-10 6l-6 9l-2 11v178l-24 97l-23 45l-44 44l-67 22h-42l-67 -22l-44 -44l-23 -45z
" />
    <glyph glyph-name="union" unicode="&#x222a;" horiz-adv-x="621" 
d="M75 287v181l2 11l6 9l9 6l11 2l10 -2l10 -6l6 -9l2 -11v-178l24 -97l23 -45l44 -44l67 -22h42l67 22l44 44l23 45l24 97v178l2 11l6 9l10 6l10 2l11 -2l9 -6l6 -9l2 -11v-181l-27 -110l-33 -65l-52 -52l-11 -7l-77 -26l-61 -1l-86 27l-11 7l-52 52l-31 59z" />
    <glyph glyph-name="uni222E" unicode="&#x222e;" horiz-adv-x="621" 
d="M119 -125l45 21l19 19l23 45l26 108l-34 11l-11 7l-52 52l-7 11l-26 77l-1 61l27 87l7 11l52 51l11 7l77 26l33 1l27 85l28 55l57 60l59 31l12 3l63 -3l9 -6l32 -35l2 -36l-2 -11l-6 -9l-26 -26l-9 -6l-11 -2l-11 2l-9 6l-32 35l-2 11l2 11l10 13l-45 -21l-19 -20
l-23 -45l-26 -107l34 -12l11 -7l52 -51l7 -11l26 -78l1 -61l-27 -86l-7 -11l-52 -52l-11 -7l-77 -26l-33 -1l-27 -85l-28 -55l-64 -64l-52 -26l-12 -3l-63 2l-9 6l-32 35l-2 36l2 11l32 35l9 6l11 2l11 -2l9 -6l32 -35l2 -11l-2 -10zM326 108l72 22l43 43l22 67v43l-22 67
l-43 42l-19 7l-41 -246zM289 414l-67 -22l-43 -42l-22 -67v-43l22 -67l43 -43l19 -6l41 245l12 45h-5z" />
    <glyph glyph-name="notequal" unicode="&#x2260;" horiz-adv-x="673" 
d="M133 45l85 110l-126 3l-9 6l-6 9l-2 10l2 11l6 9l9 6l11 2h159l77 100h-236l-11 2l-9 6l-6 9l-2 11l2 11l6 9l9 6l11 2h280l112 144l8 8l11 3l11 -1l10 -5l7 -8l3 -10l-1 -11l-5 -10l-85 -110l126 -2l9 -6l6 -9l2 -11l-2 -11l-6 -9l-9 -6l-11 -2h-159l-77 -100h236l11 -2
l9 -6l6 -9l2 -11l-2 -10l-6 -9l-9 -6l-11 -3h-280l-112 -144l-8 -7l-11 -4l-11 1l-10 5l-7 8l-3 11l1 10z" />
    <glyph glyph-name="equivalence" unicode="&#x2261;" horiz-adv-x="673" 
d="M569 363h-466l-11 2l-9 6l-6 9l-2 11l2 10l6 9l9 7l11 2h466l11 -2l9 -7l6 -9l2 -10l-2 -11l-6 -9l-9 -6zM569 233h-466l-11 2l-9 6l-6 9l-2 11l2 11l6 9l9 6l11 2h466l11 -2l9 -6l6 -9l2 -11l-2 -11l-6 -9l-9 -6zM569 104h-466l-11 2l-9 6l-6 9l-2 11l2 10l6 9l9 6l11 3
h466l11 -3l9 -6l6 -9l2 -10l-2 -11l-6 -9l-9 -6z" />
    <glyph glyph-name="lessequal" unicode="&#x2264;" horiz-adv-x="621" 
d="M92 416l414 182l11 2l10 -2l10 -6l6 -9l2 -10l-2 -11l-6 -9l-9 -7l-355 -155l355 -156l9 -6l6 -9l2 -11l-2 -11l-6 -9l-9 -6l9 -6l6 -9l2 -10l-2 -11l-6 -9l-9 -6l-11 -2h-414l-11 2l-9 6l-6 9l-2 11l2 10l6 9l9 6l11 3h399l-410 179l-9 6l-6 9l-2 11l2 10l6 9zM517 0
h-414l-11 2l-9 6l-6 9l-2 11l2 11l6 9l9 6l11 2h414l11 -2l9 -6l6 -9l2 -11l-2 -11l-6 -9l-9 -6z" />
    <glyph glyph-name="greaterequal" unicode="&#x2265;" horiz-adv-x="621" 
d="M83 177l9 6l-9 6l-6 9l-2 11l2 11l6 9l9 6l355 156l-355 155l-9 7l-6 9l-2 11l2 10l6 9l10 6l10 2l11 -2l414 -182l9 -6l6 -9l2 -10l-2 -11l-6 -9l-9 -6l-410 -179h399l11 -3l9 -6l6 -9l2 -10l-2 -11l-6 -9l-9 -6l-11 -2h-414l-11 2l-9 6l-6 9l-2 11l2 10zM517 0h-414
l-11 2l-9 6l-6 9l-2 11l2 11l6 9l9 6l11 2h414l11 -2l9 -6l6 -9l2 -11l-2 -11l-6 -9l-9 -6z" />
    <glyph glyph-name="propersubset" unicode="&#x2282;" horiz-adv-x="621" 
d="M336 496h181l11 -2l9 -6l6 -9l2 -11l-2 -10l-6 -9l-9 -6l-11 -3h-178l-97 -24l-45 -22l-44 -44l-22 -67v-43l22 -67l44 -44l45 -23l97 -24h178l11 -2l9 -6l6 -9l2 -11l-2 -11l-6 -9l-9 -6l-11 -2h-181l-111 27l-64 33l-52 52l-7 11l-26 77l-1 61l27 87l7 11l52 51l59 32z
" />
    <glyph glyph-name="propersuperset" unicode="&#x2283;" horiz-adv-x="622" 
d="M281 440h-178l-11 3l-9 6l-6 9l-2 10l2 11l6 9l9 6l11 2h181l111 -26l64 -34l52 -51l7 -11l26 -78v-70l-26 -77l-7 -11l-52 -52l-64 -33l-111 -27h-181l-11 2l-9 6l-6 9l-2 11l2 11l6 9l9 6l11 2h178l97 24l45 23l44 44l22 67v43l-22 67l-44 44l-45 22z" />
    <glyph glyph-name="angleleft" unicode="&#x2329;" horiz-adv-x="363" 
d="M52 272l181 415l6 9l10 6l10 2l11 -3l9 -6l6 -9l2 -11l-3 -11l-176 -403l176 -403l3 -11l-2 -11l-6 -9l-9 -6l-11 -2l-10 2l-10 5l-6 9l-181 415l-3 11z" />
    <glyph glyph-name="angleright" unicode="&#x232a;" horiz-adv-x="363" 
d="M254 261l-176 403l-3 11l2 11l6 9l9 6l11 3l10 -2l10 -6l6 -9l181 -415l3 -11l-3 -11l-181 -415l-6 -9l-10 -5l-10 -2l-11 2l-9 6l-6 9l-2 11l3 11z" />
    <glyph glyph-name="uni2604" unicode="&#x2604;" horiz-adv-x="648" 
d="M180 315l58 -1l71 215l6 10l8 6l11 3l11 -1l9 -6l7 -8l3 -11l-2 -11l-73 -221l7 -3l201 201l10 6l10 2l11 -2l9 -6l6 -9l2 -11l-2 -10l-6 -9l-202 -202l4 -7l221 74l11 1l11 -3l8 -7l6 -9l1 -11l-3 -10l-7 -9l-9 -6l-215 -71l1 -57l-3 -13l-31 -59l-33 -31l-52 -26
l-13 -3h-52l-12 3l-52 26l-38 38l-26 52l-3 13v51l3 13l26 52l31 33l59 31zM226 259h-39l-42 -21l-19 -19l-21 -42v-39l21 -42l19 -19l42 -21h39l42 21l19 19l21 42v39l-21 42l-19 19z" />
    <glyph glyph-name="uni2609" unicode="&#x2609;" horiz-adv-x="700" 
d="M224 573l77 26l87 1l86 -27l85 -55l8 -8l55 -85l26 -77l1 -87l-27 -86l-55 -85l-8 -8l-85 -55l-77 -26l-87 -1l-86 27l-85 55l-8 8l-55 85l-26 77l-1 87l27 86l55 85l8 8zM315 544l-70 -23l-70 -47l-47 -70l-23 -70v-68l23 -70l47 -70l70 -47l70 -23h68l70 23l70 47
l47 70l23 70v68l-23 70l-47 70l-70 47l-70 23h-68zM290 333l35 32l37 2l11 -2l35 -32l6 -9l2 -37l-2 -11l-6 -9l-35 -32l-37 -2l-11 2l-9 6l-32 35l-2 37l2 11z" />
    <glyph glyph-name="uni260A" unicode="&#x260a;" horiz-adv-x="621" 
d="M75 392l27 85l7 11l52 52l11 7l86 27h104l86 -27l11 -7l52 -52l7 -11l27 -84l-1 -63l-26 -78l-29 -41l15 -3l59 -31l31 -59l3 -38l-3 -13l-31 -59l-59 -31l-39 -3l-12 3l-52 26l-12 12l-26 52l-3 39l3 12l28 56l75 100l23 69v41l-21 42l-44 44l-67 22h-94l-67 -22
l-44 -44l-21 -42v-41l23 -69l77 -104l26 -52l3 -38l-3 -13l-31 -59l-59 -31l-38 -3l-13 3l-59 31l-31 59l-3 39l3 12l31 59l59 31l15 3l-29 41l-26 78zM186 137l-38 18h-13l-37 -18l-19 -38v-13l19 -37l37 -19h13l38 19l18 37v13zM434 137l-18 -38v-13l18 -37l38 -19h13
l37 19l19 37v13l-19 38l-37 18h-13z" />
    <glyph glyph-name="uni260B" unicode="&#x260b;" horiz-adv-x="621" 
d="M75 156l1 62l26 78l29 41l-15 3l-59 31l-31 59l-3 38l3 13l31 59l59 31l39 3l12 -3l52 -26l12 -12l26 -52l3 -39l-3 -12l-28 -56l-75 -100l-23 -69v-41l21 -42l44 -44l67 -22h94l67 22l44 44l21 42v41l-23 69l-77 104l-26 52l-3 38l3 13l31 59l59 31l38 3l13 -3l59 -31
l31 -59l3 -39l-3 -12l-31 -59l-59 -31l-15 -3l29 -41l26 -78l1 -62l-27 -85l-7 -11l-52 -52l-11 -7l-86 -27h-104l-86 27l-11 7l-52 52l-7 11zM186 412l18 37v13l-18 37l-38 19h-13l-37 -19l-19 -37v-13l19 -37l37 -19h13zM434 412l38 -19h13l37 19l19 37v13l-19 37l-37 19
h-13l-38 -19l-18 -37v-13z" />
    <glyph glyph-name="uni263E" unicode="&#x263e;" horiz-adv-x="491" 
d="M449 520l-75 -25l-70 -47l-47 -70l-23 -70v-68l23 -70l47 -70l70 -47l84 -30l7 -10l2 -11l-2 -11l-6 -9l-18 -8h-105l-111 27l-86 56l-8 7l-55 85l-26 77l-1 87l27 87l55 84l8 8l86 55l104 26l112 1l18 -8l6 -9l2 -11l-3 -12l-6 -9zM289 43l-28 21l-55 85l-26 77l-2 87
l31 93l52 78l28 22l-45 -12l-69 -46l-47 -70l-23 -70v-68l23 -70l47 -70l69 -46z" />
    <glyph glyph-name="uni263F" unicode="&#x263f;" horiz-adv-x="440" 
d="M91 571l53 27l11 2l19 -7l7 -10l1 -20l-6 -9l-19 -20v-22l31 -16h64l31 16v22l-19 20l-7 18l2 11l6 9l11 7l19 -1l54 -27l9 -7l5 -9l1 -11l-2 -10l-26 -52l-15 -14l35 -32l31 -59l3 -12v-78l-3 -12l-25 -52l-32 -33l-59 -32l-10 -2v-22l86 -2l9 -6l6 -10l3 -10l-3 -11
l-6 -9l-9 -6l-10 -2h-76l-2 -61l-6 -9l-9 -6l-11 -2l-13 4l-13 -4l-11 2l-9 6l-6 9l-2 11v50h-76l-10 2l-9 6l-6 9l-3 11l3 10l6 10l9 6l86 2v22l-10 2l-52 26l-33 31l-32 60l-3 12v78l3 12l32 59l34 32l-14 14l-29 62l2 11l5 9zM207 211h45l42 21l20 20l20 42v64l-20 42
l-20 19l-42 21h-64l-42 -21l-20 -19l-21 -42v-64l21 -42l20 -20l42 -21h19z" />
    <glyph glyph-name="female" unicode="&#x2640;" horiz-adv-x="492" 
d="M145 573l78 26l35 1l86 -27l11 -7l52 -52l7 -11l26 -78v-43l-26 -78l-7 -11l-52 -52l-11 -6l-58 -20v-55l86 -3l9 -6l6 -9l3 -10l-3 -11l-6 -9l-9 -6l-10 -2h-76v-76l-2 -11l-6 -9l-9 -6l-11 -2l-13 4l-13 -4l-11 2l-9 6l-6 9l-2 87h-76l-10 2l-9 6l-6 9l-3 11l3 10l6 9
l9 6l86 3v55l-59 20l-11 6l-51 52l-7 11l-27 87l1 34l26 78l7 11l51 52zM237 544l-68 -22l-42 -43l-22 -67v-17l22 -67l42 -42l68 -23h16l67 23l43 42l22 67v17l-22 67l-43 43l-67 22h-16z" />
    <glyph glyph-name="male" unicode="&#x2642;" horiz-adv-x="649" 
d="M147 391l77 26l35 2l89 -29l115 115l-66 19l-7 9l-3 11l1 11l6 10l9 7l12 2h155l11 -2l9 -6l6 -9l2 -166l-2 -12l-7 -9l-10 -6l-11 -1l-11 3l-9 8l-19 66l-115 -116l27 -80v-44l-26 -77l-7 -11l-51 -52l-11 -7l-78 -26h-44l-77 26l-11 7l-52 52l-7 11l-26 77v44l26 78
l7 11l52 52zM238 363l-67 -23l-43 -42l-22 -67v-17l22 -67l43 -43l67 -22h17l67 22l42 43l23 67v17l-23 67l-42 42l-67 23h-17z" />
    <glyph glyph-name="uni2643" unicode="&#x2643;" 
d="M101 181l2 13l6 9l77 52l47 70l23 70v93l-21 42l-14 14h-60l-37 -19l-29 -52l-9 -5l-11 -2l-11 3l-8 7l-6 9l-1 11l3 11l31 59l59 31l13 3h77l13 -3l59 -31l31 -59l3 -13l-1 -86l-26 -78l-28 -55l-62 -64h121l18 93l26 271l3 10l7 9l9 5l11 1l11 -3l18 3l10 -5l8 -7
l4 -10v-11l-52 -271l-8 -85l95 -2l9 -6l6 -9l2 -11l-2 -10l-6 -9l-9 -6l-100 -3l-12 -130l-3 -10l-7 -9l-10 -5l-11 -1l-11 3l-17 -3l-10 5l-8 7l-5 10l24 133l-209 1l-14 8z" />
    <glyph glyph-name="uni2644" unicode="&#x2644;" horiz-adv-x="491" 
d="M74 544h-23l-11 2l-9 6l-6 9l-2 11l2 11l6 9l9 6l11 2h80l17 -8l6 -9l2 -14l-16 -181l54 28l12 3h80l84 -28l10 -5l7 -9l25 -52l3 -12v-52l-3 -12l-31 -59l-48 -49l-21 -42v-33l9 -10h29l44 44l9 6l10 2l11 -2l9 -6l6 -9l2 -11l-2 -11l-6 -9l-61 -58l-62 -2l-11 2l-35 32
l-6 9l-2 11v52l3 12l75 150v38l-19 38l-38 19h-64l-42 -21l-20 -20l-21 -42l-2 -107l-6 -9l-9 -6l-11 -3l-10 3l-9 6l-6 9l-3 10v361z" />
    <glyph glyph-name="uni2646" unicode="&#x2646;" horiz-adv-x="595" 
d="M75 492l-11 3l-8 7l-6 9l-1 11l29 63l6 8l9 5l11 2l12 -3l11 3l11 -2l9 -5l33 -60l2 -11l-1 -11l-5 -9l-9 -7l-10 -3v-123l22 -67l17 -16l60 -21v227l-10 3l-9 7l-5 9l-2 11l3 11l32 60l10 5l10 2l12 -3l12 3l10 -2l9 -5l33 -60l3 -11l-2 -11l-5 -9l-9 -7l-10 -3v-227
l60 21l17 16l22 67v123l-10 3l-9 7l-5 9l-2 11l29 63l7 8l9 5l10 2l12 -3l12 3l11 -2l9 -5l6 -8l29 -63l-1 -11l-6 -9l-8 -7l-11 -3v-101l-27 -87l-7 -11l-52 -52l-11 -6l-84 -27v-48l86 -3l9 -6l6 -9l3 -10l-3 -11l-6 -9l-9 -6l-10 -2h-76v-76l-2 -11l-6 -9l-9 -6l-11 -2
l-13 4l-13 -4l-11 2l-9 6l-6 9l-2 87h-76l-10 2l-9 6l-6 9l-3 11l3 10l6 9l9 6l86 3v48l-84 27l-11 6l-52 52l-7 11l-26 78z" />
    <glyph glyph-name="uni2647" unicode="&#x2647;" 
d="M101 544l-61 2l-9 6l-6 9l-2 11l2 11l6 9l9 6l11 2h313l84 -27l11 -7l31 -33l26 -52l3 -13v-77l-3 -13l-26 -52l-31 -33l-11 -7l-84 -27h-182v-203h234l22 107l5 11l8 8l11 3l12 -1l10 -6l7 -9l2 -11v-130l-2 -11l-6 -9l-9 -6l-11 -2h-414l-11 2l-9 6l-6 9l-2 11l2 11
l6 9l9 6l11 2h50v488zM182 544v-229h173l42 21l19 19l21 42v65l-21 42l-19 19l-42 21h-173z" />
    <glyph glyph-name="uni2648" unicode="&#x2648;" horiz-adv-x="647" 
d="M49 468l3 13l31 59l59 31l13 3h51l13 -3l52 -26l33 -31l19 -35l19 35l26 26l59 31l13 3h51l13 -3l52 -26l12 -12l27 -54l2 -62l-2 -11l-6 -9l-26 -26l-9 -6l-11 -2l-11 2l-9 6l-6 9l-2 11l2 10l24 27v29l-35 35h-34l-42 -21l-19 -19l-23 -45l-24 -97v-282l-2 -11l-6 -9
l-9 -6l-11 -2l-13 4l-13 -4l-11 2l-9 6l-6 9l-2 11v282l-24 97l-23 45l-19 19l-42 21h-34l-35 -35v-29l18 -18l6 -9l2 -10l-2 -11l-6 -9l-10 -6l-10 -2l-11 2l-9 6l-32 35z" />
    <glyph glyph-name="uni2649" unicode="&#x2649;" horiz-adv-x="623" 
d="M50 549l4 12l15 12l13 1l17 -10l31 -85l23 -46l44 -44l67 -22h94l67 22l44 44l23 46l31 85l9 7l19 2l10 -4l7 -8l4 -11l-1 -11l-28 -109l-31 -59l-59 -57l13 -14l25 -52l3 -13v-77l-3 -13l-31 -59l-59 -57l-52 -26l-12 -3h-52l-12 3l-60 31l-57 59l-25 52l-3 13v77l3 13
l25 52l13 14l-64 64l-28 58zM232 95l18 -18l42 -21h38l42 21l18 18l23 67v67l-19 37l-38 19h-90l-38 -19l-19 -37v-67z" />
    <glyph glyph-name="uni264A" unicode="&#x264a;" horiz-adv-x="621" 
d="M109 474l-58 61l-2 11l2 11l6 9l9 6l11 2l11 -2l9 -6l48 -49l46 -23l72 -24h94l72 24l46 23l57 55l11 2l11 -2l9 -6l6 -9l2 -11l-2 -11l-6 -9l-52 -52l-43 -23v-276l43 -24l52 -51l6 -9l2 -11l-2 -11l-6 -9l-9 -6l-11 -2l-11 2l-57 55l-46 23l-72 23h-94l-72 -23l-46 -23
l-57 -55l-11 -2l-11 2l-9 6l-6 9l-2 11l2 11l6 9l52 51l43 24v276zM386 421l-24 -7h-104l-24 7v-216l24 6h104l24 -6v216z" />
    <glyph glyph-name="uni264B" unicode="&#x264b;" horiz-adv-x="621" 
d="M49 106l3 13l-3 13l2 10l6 9l9 6l11 3h240l-9 23v52l3 13l31 59l59 31l13 3h51l13 -3l52 -26l12 -12l26 -52l3 -13v-52l-3 -12l-26 -52l-12 -12l-52 -26l-13 -3h-388l-11 2l-9 6l-6 9zM364 216l21 -42l19 -19l42 -21h13l37 18l19 38v13l-21 42l-19 19l-42 21h-13l-37 -19
l-19 -37v-13zM571 494l-3 -13l3 -13l-2 -10l-6 -9l-9 -6l-11 -3h-240l9 -23v-52l-3 -13l-31 -59l-59 -31l-13 -3h-51l-13 3l-52 26l-12 12l-26 52l-3 13v52l3 12l26 52l12 12l52 26l13 3h388l11 -2l9 -6l6 -9zM105 397l21 -42l19 -19l42 -21h13l37 19l19 37v13l-21 42
l-19 19l-42 21h-13l-37 -18l-19 -38v-13z" />
    <glyph glyph-name="uni264C" unicode="&#x264c;" horiz-adv-x="595" 
d="M142 234l-64 66l-26 52l-3 13v77l3 13l26 52l12 12l54 27l79 27l113 1l110 -27l13 -7l57 -59l26 -52l3 -12l-1 -87l-26 -78l-7 -11l-74 -74l-21 -42v-39l15 -30h23l14 14l24 48l7 9l9 5l11 2l11 -3l8 -7l6 -9l1 -11l-3 -11l-26 -52l-40 -39l-62 -2l-19 7l-32 60l-3 13v52
l3 12l27 55l50 75l23 69v67l-21 42l-44 44l-67 22h-94l-67 -22l-18 -18l-21 -42v-65l22 -44l49 -74l51 -51l30 -58l3 -12l-3 -39l-31 -59l-59 -31l-13 -3l-38 3l-59 31l-31 59l-3 13l3 38l31 59zM211 163l-37 18h-13l-37 -18l-19 -38v-13l19 -37l37 -19h13l37 19l19 37v13z
" />
    <glyph glyph-name="uni264D" unicode="&#x264d;" horiz-adv-x="621" 
d="M72 450l-27 -27l-9 -6l-11 -3l-11 3l-9 6l-6 9l-2 10l2 11l6 9l78 78l17 8l10 -1l16 -11l33 -50l53 54l18 8l10 -1l15 -11l33 -50l54 54l18 8l9 -1l16 -11l33 -50l62 60h21l9 -5l32 -60l28 -81l1 -87l-27 -87l-28 -55l-57 -59l-17 -13v-71l-3 -11l-6 -9l-9 -6l-10 -2
l-13 4l-13 -4l-11 2l-9 6l-6 9l-2 32l-126 -49l-11 1l-9 6l-8 11v19l7 11l109 56l38 25v279l-29 42l-19 -19v-248l-2 -10l-6 -9l-9 -6l-11 -3l-13 4l-13 -4l-11 3l-9 6l-6 9l-2 10v225l-28 42l-20 -19v-273l-2 -11l-6 -9l-9 -6l-11 -2l-12 3l-13 -3l-11 2l-9 6l-6 9l-2 11
v250zM442 199l23 47l24 71v69l-24 69l-23 -24v-232z" />
    <glyph glyph-name="uni264E" unicode="&#x264e;" horiz-adv-x="621" 
d="M49 209l3 13l-3 13l2 11l6 9l9 6l58 2l-22 67l-1 61l27 86l7 11l52 52l11 7l84 27h54l86 -27l11 -7l52 -52l7 -11l27 -86l-1 -61l-22 -67h47l11 -2l9 -6l6 -9l2 -11l-3 -13l3 -13l-2 -10l-6 -9l-9 -7l-11 -2h-155l-11 2l-9 7l-6 9l-2 10l2 11l53 56l22 67v43l-22 67
l-44 44l-42 21h-38l-42 -21l-44 -44l-22 -67v-43l22 -67l53 -56l2 -11l-2 -10l-6 -9l-9 -7l-11 -2h-155l-11 2l-9 7l-6 9zM101 80l3 13l-3 13l2 10l6 10l9 6l11 2h362l11 -2l9 -6l6 -10l2 -10l-3 -13l3 -13l-2 -11l-6 -9l-9 -6l-11 -2h-362l-11 2l-9 6l-6 9z" />
    <glyph glyph-name="uni264F" unicode="&#x264f;" horiz-adv-x="649" 
d="M78 429l-41 -38l-11 -2l-11 2l-9 6l-6 9l-2 11l2 10l6 9l87 84l11 2l10 -2l10 -6l57 -58l58 58l9 6l11 2l11 -2l67 -64l58 58l9 6l11 2l10 -2l9 -6l84 -87l2 -10v-274l24 -24l41 38l11 3l11 -3l9 -6l6 -9l2 -10l-2 -11l-58 -61l-35 -32l-11 -2l-10 2l-10 6l-51 52l-6 9
l-3 11v273l-49 50l-24 -24v-299l-2 -11l-6 -9l-9 -6l-11 -2l-13 3l-13 -3l-11 2l-9 6l-6 9l-2 11v273l-50 50l-24 -24v-299l-2 -11l-6 -9l-9 -6l-11 -2l-12 3l-13 -3l-11 2l-9 6l-6 9l-2 11v273z" />
    <glyph glyph-name="uni2650" unicode="&#x2650;" 
d="M49 260l1 10l6 9l8 7l11 3h171l126 125l-17 1l-114 31l-9 12l-2 10l6 17l8 7l14 4h151l80 26l15 -3l12 -12l3 -11l-1 -11l-25 -73v-151l-4 -14l-13 -12l-11 -2l-10 2l-12 9l-31 114l-1 17l-125 -125v-172l-3 -11l-14 -13l-11 -2l-11 2l-9 6l-6 9l-26 80l-2 19l-107 -108
l-10 -6l-10 -2l-11 2l-9 6l-6 9l-2 11l2 11l6 9l108 107l-19 2l-80 26l-14 14z" />
    <glyph glyph-name="uni2651" unicode="&#x2651;" horiz-adv-x="622" 
d="M91 354l-14 -28l-7 -8l-9 -6l-11 -1l-11 3l-8 7l-6 9l-1 11l3 10l52 104l6 8l19 7l19 -7l6 -8l114 -229l48 107l9 6l11 2h39l-15 50v51l3 13l26 52l12 12l54 27l36 2l13 -3l59 -31l31 -59l3 -13v-51l-3 -13l-26 -52l-6 -8l-10 -6l-59 -19l26 -84v-77l-3 -13l-31 -59
l-59 -31l-10 -3l-11 1l-10 6l-6 8l-3 13l7 18l45 45v62l-24 71l-18 35h-42l-70 -164l-15 -15l-20 -1l-16 14zM452 492l-14 -14l-21 -42v-39l27 -54l54 19l18 35v39l-19 37l-37 19h-8z" />
    <glyph glyph-name="uni2652" unicode="&#x2652;" horiz-adv-x="621" 
d="M134 357l-46 -44l-11 -2l-11 2l-9 6l-6 9l-2 11l2 11l6 9l78 77l9 7l12 2l11 -3l86 -43l37 37l11 7l13 1l12 -4l58 -39l36 35l9 6l11 3l10 -3l9 -6l32 -32l32 32l9 6l11 3l11 -3l9 -6l6 -9l2 -10l-2 -11l-6 -9l-78 -78l-9 -6l-11 -2l-10 2l-9 6l-32 32l-32 -32l-11 -7
l-13 -1l-12 5l-58 39l-36 -36l-10 -6l-11 -2l-11 3zM134 201l-46 -43l-11 -3l-11 3l-9 6l-6 9l-2 10l2 11l6 9l78 78l9 6l12 2l11 -3l86 -43l37 38l11 7l13 1l12 -5l58 -39l36 36l9 6l11 2l10 -2l9 -6l32 -32l32 32l9 6l11 2l11 -2l9 -6l6 -9l2 -11l-2 -11l-6 -9l-78 -77
l-9 -6l-11 -3l-10 3l-9 6l-32 32l-32 -32l-11 -7l-13 -1l-12 4l-58 39l-36 -35l-10 -7l-11 -2l-11 3z" />
    <glyph glyph-name="uni2653" unicode="&#x2653;" horiz-adv-x="621" 
d="M49 287l3 13l-3 13l2 11l6 9l9 6l11 2h177l-20 60l-44 44l-108 57l-6 9l-1 11l3 11l12 12l11 3l11 -1l77 -26l56 -28l59 -57l6 -10l6 10l59 57l56 28l77 26l11 1l11 -3l8 -6l6 -10v-18l-6 -9l-108 -57l-44 -44l-20 -60h177l11 -2l9 -6l6 -9l2 -11l-3 -13l3 -13l-2 -11
l-6 -9l-9 -6l-11 -2h-177l20 -60l44 -44l106 -54l8 -12l1 -11l-3 -11l-12 -12l-15 -3l-88 29l-59 31l-52 52l-6 10l-6 -10l-59 -57l-56 -28l-77 -26l-11 -1l-11 3l-8 6l-7 17l1 11l6 9l108 57l44 44l20 60h-177l-11 2l-9 6l-6 9z" />
    <glyph glyph-name="uni266D" unicode="&#x266d;" horiz-adv-x="415" 
d="M75 132v544l3 10l6 9l9 6l10 3l11 -3l9 -6l6 -9l2 -10v-259l35 23l15 5h78l12 -3l52 -26l13 -13l26 -52l3 -12v-52l-3 -12l-26 -52l-10 -11l-81 -54l-55 -27l-87 -27l-10 2l-9 6l-6 9zM131 170l39 13l46 23l46 46l21 42v38l-11 21l-20 10h-66l-55 -18v-175z" />
    <glyph glyph-name="uni266E" unicode="&#x266e;" horiz-adv-x="415" 
d="M75 106v466l3 11l6 9l9 6l10 2l11 -2l9 -6l6 -9l2 -11v-171l173 43l17 -2l9 -6l6 -9l3 -10v-467l-3 -10l-6 -10l-9 -6l-10 -2l-11 2l-9 6l-6 10l-2 10v172l-180 -44l-10 2l-9 6l-6 9zM131 317v-150l152 38v150z" />
    <glyph glyph-name="uni266F" unicode="&#x266f;" horiz-adv-x="415" 
d="M50 333l3 19l-3 18l4 10l8 8l39 10v148l2 11l6 9l10 6l10 2l11 -2l9 -6l6 -9l2 -148l100 20l2 154l6 9l9 6l11 2l10 -2l10 -6l6 -9l2 -11v-132l29 4l10 -4l8 -8l4 -10l-3 -18l3 -19l-4 -10l-8 -8l-10 -4l-29 -6v-150l29 4l10 -4l8 -8l4 -10l-3 -19l3 -18l-4 -10l-8 -8
l-39 -10v-148l-2 -11l-6 -9l-10 -6l-10 -2l-11 2l-9 6l-6 9l-2 148l-100 -20l-2 -153l-6 -10l-9 -6l-11 -2l-10 2l-10 6l-6 10l-2 142l-29 -4l-10 4l-8 8l-4 10l3 19l-3 18l4 10l8 8l10 4l29 6v150l-29 -4l-10 5l-8 7zM157 326v-150l100 20v150z" />
    <glyph glyph-name="uni26E2" unicode="&#x26e2;" horiz-adv-x="491" 
d="M232 600l13 -4l13 4l11 -2l9 -6l103 -104l6 -9l3 -11l-3 -11l-6 -9l-10 -6l-11 -2l-74 35v-90l58 -20l11 -6l52 -52l7 -11l26 -78l1 -35l-27 -86l-7 -11l-52 -52l-11 -7l-77 -26l-35 -1l-87 27l-11 7l-51 52l-7 11l-26 78l-1 34l27 87l7 11l51 52l11 6l59 20v90l-74 -35
l-11 2l-10 6l-6 9l-3 11l2 11l7 9l103 104l9 6zM237 337l-68 -23l-42 -42l-22 -67v-17l22 -67l42 -43l68 -22h16l67 22l43 43l22 67v17l-22 67l-43 42l-67 23h-16zM186 229l35 32l37 2l11 -2l35 -32l6 -9l2 -37l-2 -10l-6 -9l-35 -32l-37 -2l-11 2l-9 6l-32 35l-2 36l2 11z
" />
    <glyph glyph-name="uni2737" unicode="&#x2737;" horiz-adv-x="517" 
d="M66 209l121 52l-121 52l-9 6l-6 9l-2 11l2 11l6 9l9 6l11 2l128 -53l-50 117l-3 11l2 11l6 9l9 6l11 2l11 -2l9 -5l6 -9l52 -122l52 122l6 9l9 5l11 2l11 -2l9 -6l6 -9l2 -11l-53 -128l117 51l11 2l11 -2l9 -6l6 -9l2 -11l-2 -11l-6 -9l-9 -6l-121 -52l121 -52l9 -6l6 -9
l2 -11l-2 -11l-6 -9l-9 -6l-11 -2l-128 53l50 -117l3 -11l-2 -11l-6 -9l-9 -6l-11 -2l-11 2l-9 6l-6 9l-52 121l-52 -121l-6 -9l-9 -6l-11 -2l-11 2l-9 6l-6 9l-2 11l3 11l50 117l-128 -53l-11 2l-9 6l-6 9l-2 11l2 11l6 9z" />
    <glyph glyph-name="uni2A2F" unicode="&#x2a2f;" 
d="M83 100l161 161l-161 162l-6 9l-2 10l2 11l6 9l9 6l11 2l10 -2l9 -6l162 -161l162 161l9 6l10 2l11 -2l9 -6l6 -9l2 -11l-2 -10l-6 -9l-161 -162l161 -161l6 -9l2 -11l-2 -11l-6 -9l-9 -6l-11 -2l-10 2l-9 6l-162 162l-162 -162l-9 -6l-10 -2l-11 2l-9 6l-6 9l-2 11l2 11
z" />
    <glyph glyph-name="uniFB00" unicode="&#xfb00;" horiz-adv-x="596" 
d="M101 363l-61 2l-9 6l-6 9l-2 11l2 10l6 9l9 7l61 2l27 84l7 11l51 52l11 7l85 27h80l12 -3l52 -26l55 27l10 2h52l11 -2l9 -6l32 -35l2 -37l-2 -11l-6 -9l-35 -32l-11 -2l-11 2l-35 32l-6 9l-2 11l5 16l-6 -6l-21 -42v-69l61 -2l9 -7l6 -9l2 -10l-2 -11l-6 -9l-9 -6
l-61 -2v-307h50l11 -2l9 -6l6 -9l2 -11l-2 -11l-6 -9l-9 -6l-11 -2h-181l-11 2l-9 6l-6 9l-2 11l2 11l6 9l9 6l11 2h50v307h-204v-307l61 -2l9 -6l6 -9l2 -11l-2 -11l-6 -9l-9 -6l-11 -2h-181l-11 2l-9 6l-6 9l-2 11l2 11l6 9l9 6l11 2h50v307zM386 467l-18 7l-32 35l-2 11
l2 11l10 13h-55l-42 -21l-44 -44l-20 -60h201v48z" />
    <glyph glyph-name="uniFB01" unicode="&#xfb01;" 
d="M101 363l-61 2l-9 6l-6 9l-2 11l2 10l6 9l9 7l61 2l27 84l7 11l51 52l11 7l85 27h80l12 -3l59 -31l26 -26l6 -9l2 -11l-2 -11l-6 -9l-35 -32l-10 -2l-11 2l-35 32l-6 9l-2 11l7 18l-12 6h-64l-42 -21l-44 -44l-20 -60h254l11 -2l9 -7l6 -9l2 -10v-335h50l11 -2l9 -6l6 -9
l2 -11l-2 -11l-6 -9l-9 -6l-11 -2h-181l-11 2l-9 6l-6 9l-2 11l2 11l6 9l9 6l11 2h50v307h-204v-307l61 -2l9 -6l6 -9l2 -11l-2 -11l-6 -9l-9 -6l-11 -2h-181l-11 2l-9 6l-6 9l-2 11l2 11l6 9l9 6l11 2h50v307z" />
    <glyph glyph-name="uniFB02" unicode="&#xfb02;" 
d="M101 363l-61 2l-9 6l-6 9l-2 11l2 10l6 9l9 7l61 2l27 84l7 11l51 52l11 7l85 27h157l11 -2l9 -6l6 -9l2 -11v-516h50l11 -2l9 -6l6 -9l2 -11l-2 -11l-6 -9l-9 -6l-11 -2h-181l-11 2l-9 6l-6 9l-2 11l2 11l6 9l9 6l11 2h50v307h-204v-307l61 -2l9 -6l6 -9l2 -11l-2 -11
l-6 -9l-9 -6l-11 -2h-181l-11 2l-9 6l-6 9l-2 11l2 11l6 9l9 6l11 2h50v307zM346 544h-55l-42 -21l-44 -44l-20 -60h201v48l-18 7l-32 35l-2 11l2 11z" />
    <glyph glyph-name="uniFB03" unicode="&#xfb03;" horiz-adv-x="855" 
d="M101 363l-60 2l-9 6l-7 9l-2 11l2 10l7 9l9 7l60 2l27 84l7 11l52 52l11 7l84 27h80l13 -3l52 -26l26 -24l19 19l11 7l78 26l86 1l13 -3l59 -31l32 -35l2 -11l-2 -11l-32 -35l-9 -6l-11 -2l-11 2l-9 6l-32 35l-2 11l7 18l-11 6h-65l-42 -21l-44 -44l-20 -60h255l11 -2
l9 -7l6 -9l2 -10v-335l60 -2l9 -6l6 -9l3 -11l-3 -11l-6 -9l-9 -6l-10 -2h-182l-10 2l-10 6l-6 9l-2 11l2 11l6 9l10 6l10 2h50v307h-203v-307l60 -2l9 -6l6 -9l3 -11l-3 -11l-6 -9l-9 -6l-10 -2h-182l-10 2l-10 6l-6 9l-2 11l2 11l6 9l10 6l10 2h50v307h-203v-307l60 -2
l9 -6l7 -9l2 -11l-2 -11l-7 -9l-9 -6l-10 -2h-182l-10 2l-9 6l-7 9l-2 11l2 11l7 9l9 6l10 2h50v307zM402 469l-34 31l-6 9l-2 11l7 18l-11 6h-65l-42 -21l-44 -44l-20 -60h201z" />
    <glyph glyph-name="uniFB04" unicode="&#xfb04;" horiz-adv-x="855" 
d="M101 363l-60 2l-9 6l-7 9l-2 11l2 10l7 9l9 7l60 2l27 84l7 11l52 52l11 7l84 27h80l13 -3l52 -26l26 -24l19 19l11 7l84 27l169 -2l9 -6l6 -9l2 -11v-516l60 -2l9 -6l6 -9l3 -11l-3 -11l-6 -9l-9 -6l-10 -2h-182l-10 2l-10 6l-6 9l-2 11l2 11l6 9l10 6l10 2h50v307h-203
v-307l60 -2l9 -6l6 -9l3 -11l-3 -11l-6 -9l-9 -6l-10 -2h-182l-10 2l-10 6l-6 9l-2 11l2 11l6 9l10 6l10 2h50v307h-203v-307l60 -2l9 -6l7 -9l2 -11l-2 -11l-7 -9l-9 -6l-10 -2h-182l-10 2l-9 6l-7 9l-2 11l2 11l7 9l9 6l10 2h50v307zM631 544h-55l-42 -21l-44 -44l-20 -60
h201v48l-18 7l-32 35l-2 11l2 11zM402 469l-34 31l-6 9l-2 11l7 18l-11 6h-65l-42 -21l-44 -44l-20 -60h201z" />
  </font>
</defs>
</svg>
