<?xml version="1.0" standalone="no"?>
<!DOCTYPE svg PUBLIC "-//W3C//DTD SVG 1.1//EN" "http://www.w3.org/Graphics/SVG/1.1/DTD/svg11.dtd" >
<svg xmlns="http://www.w3.org/2000/svg" xmlns:xlink="http://www.w3.org/1999/xlink" version="1.1">
<metadata>
Created by FontForge 20170731 at Thu Mar  8 18:42:47 2018
 By Aleksey,,,
Copyright (c) 2017, antoine
</metadata>
<defs>
<font id="Hershey-Noailles-futuram-affiche" horiz-adv-x="1365" >
  <font-face 
    font-family="Hershey-Noailles-futuram-affiche"
    font-weight="400"
    font-stretch="normal"
    units-per-em="2048"
    panose-1="2 0 5 3 0 0 0 0 0 0"
    ascent="1365"
    descent="-683"
    x-height="887"
    cap-height="1367"
    bbox="-70 -684 2251 1983"
    underline-thickness="68"
    underline-position="-612"
    unicode-range="U+0020-25FC"
  />
<missing-glyph horiz-adv-x="748" 
d="M68 0v1365h544v-1365h-544zM136 68h408v1229h-408v-1229z" />
    <glyph glyph-name=".notdef" horiz-adv-x="748" 
d="M68 0v1365h544v-1365h-544zM136 68h408v1229h-408v-1229z" />
    <glyph glyph-name="glyph1" horiz-adv-x="0" 
 />
    <glyph glyph-name="glyph2" horiz-adv-x="682" 
 />
    <glyph glyph-name="space" unicode=" " horiz-adv-x="1092" 
 />
    <glyph glyph-name="exclam" unicode="!" horiz-adv-x="819" 
d="M205 0v-68q0 -28 20 -48l69 -68q21 -21 47 -21h69q26 0 47 21l69 68q20 20 20 48v68q0 28 -20 48l-69 68q-21 21 -47 21h-58h-11h-1q-12 0 -26 -6l-2 -1q-13 -4 -25 -21l-62 -61q-20 -20 -20 -48zM271 1297q0 27 21 48q7 9 22 15.5t26 6.5q1 0 6 -1t7 -1h57
q28 0 48 -19.5t20 -48.5v-945q0 -2 1 -6t1 -5q0 -26 -21 -47q-23 -23 -49 -23q-2 0 -6 1t-6 1h-57q-29 0 -48.5 19.5t-19.5 48.5v946q0 1 -1 5t-1 5z" />
    <glyph glyph-name="quotedbl" unicode="&#x22;" horiz-adv-x="1228" 
d="M205 809v2v6v2v5v405q0 28 20 48l60 61q7 11 23.5 19t31.5 8h1h7q34 -4 50 -27l59 -61q21 -21 21 -48q0 -12 -4 -22l-134 -405v-2q0 -1 -1 -1.5t-1 -1.5q-1 -2 -2.5 -6.5t-2.5 -5.5t-2.5 -3.5t-2.5 -3.5q-2 -3 -9 -10l-3 -3h-2l-2 -2q-1 0 -1.5 -2t-1.5 -2q-3 -3 -7 -3
q-1 0 -1.5 -1t-1.5 -1h-2q-1 0 -2.5 -0.5t-2.5 -0.5h-2l-3 -2h-2h-2h-3h-2q-1 0 -1.5 -1t-1.5 -1h-2q-1 0 -2.5 1t-2.5 1h-2h-1h-2h-4h-1v2h-2h-2h-1l-2 1h-4l-1 2h-2l-2 2h-1q-1 0 -2 0.5t-2 0.5v2q-3 0 -5 2l-2 2q-1 0 -1.5 1.5t-1.5 1.5h-2q-1 1 -1.5 2.5t-1.5 2.5l-5 5
q-1 1 -2 3.5t-2 3.5q-3 3 -3 5q0 1 -1 3.5t-1 3.5t-0.5 3.5t-0.5 3.5t-1 2.5t-1 2.5zM819 809v2v6v2v5v405q0 27 21 48l59 61q7 11 23.5 19t31.5 8h2h7q32 -4 49 -27l60 -61q20 -20 20 -48q0 -15 -3 -22l-135 -405v-2q0 -1 -1 -1.5t-1 -1.5q-1 -2 -2.5 -6.5t-2.5 -5.5
t-2.5 -3.5t-2.5 -3.5q-4 -6 -8 -10l-4 -3h-2l-1 -2q-1 0 -2 -2t-2 -2q-3 -3 -7 -3q-1 0 -1.5 -1t-1.5 -1h-2q-1 0 -2.5 -0.5t-2.5 -0.5h-1l-4 -2h-2h-1h-4h-1q-1 0 -2 -1t-2 -1h-2q-1 0 -2.5 1t-2.5 1h-1h-2h-2h-3h-2v2h-2h-1h-2l-2 1h-1h-2l-2 2h-2h-1l-2 2q-1 0 -1.5 0.5
t-1.5 0.5v2q-3 0 -5 2l-2 2q-1 0 -2 1.5t-2 1.5h-1q-1 1 -2 2.5t-2 2.5l-5 5q-1 1 -1.5 3.5t-1.5 3.5q-4 4 -4 5t-0.5 3.5t-0.5 3.5t-1 3.5t-1 3.5t-1 2.5t-1 2.5z" />
    <glyph glyph-name="numbersign" unicode="#" horiz-adv-x="1501" 
d="M135 273q0 29 19.5 48.5t48.5 19.5h2h208l60 273h-200h-2q-28 0 -48 20t-20 49t19.5 48.5t48.5 19.5h2h229l182 834q5 23 24.5 39t42.5 16q29 0 48.5 -20t19.5 -48q0 -14 -2 -17l-175 -804h269l183 834q4 23 23.5 39t43.5 16h1q28 0 47.5 -19.5t19.5 -48.5q0 -12 -2 -17
l-176 -804h178h2q29 0 48.5 -19.5t19.5 -48.5t-20 -49t-48 -20h-2h-208l-60 -273h200h1q29 0 49 -20t20 -48t-20 -48t-49 -20h-1h-229l-183 -835q-4 -23 -23 -38.5t-43 -15.5q-29 0 -49 20t-20 48q0 12 2 17l176 804h-270l-182 -835q-4 -23 -23.5 -38.5t-43.5 -15.5
q-29 0 -48.5 20t-19.5 48q0 12 2 17l175 804h-177h-2q-29 0 -48.5 19.5t-19.5 48.5zM551 341h272l59 273h-271z" />
    <glyph glyph-name="dollar" unicode="$" 
d="M137 68q0 29 20 49t48 20h126h10q15 0 24 -4h2v-2h2q13 -4 27 -22l55 -53l95 -47v563l-235 117q-8 5 -17 14l-69 68q-7 7 -13 17l-69 137q-6 18 -6 31v136q0 28 20 48l137 137q13 13 25 17l205 68q7 3 22 3v195q0 2 -1 5t-1 5q0 27 21 48q7 9 22 15.5t26 6.5q1 0 6 -1
t7 -1h57q29 0 48.5 -20t19.5 -48v-205q15 0 22 -3l205 -68q13 -4 26 -17l136 -137q21 -21 21 -48q0 -28 -20 -48t-49 -20h-126h-10q-17 0 -24 3l-2 2h-2q-13 4 -27 22l-54 53l-96 48v-461l167 -83q8 -4 17 -14l137 -137q7 -7 13 -17l69 -136q7 -21 7 -31v-136q0 -10 -7 -31
l-69 -137q-6 -10 -13 -17l-68 -68q-13 -12 -26 -17l-205 -68q-10 -4 -22 -4v-194q0 -1 1 -5t1 -6q0 -26 -21 -47q-23 -23 -49 -23q-1 0 -6 1t-6 1h-57q-28 0 -48 20t-20 48v205q-12 0 -22 4l-205 68q-12 4 -25 17l-137 136q-20 20 -20 48zM341 971v92l38 38l167 56v-363
l-153 76zM751 3v466l96 -47l52 -53l57 -111v-106l-36 -72l-63 -41z" />
    <glyph glyph-name="percent" unicode="%" horiz-adv-x="1638" 
d="M137 -137q0 26 17 45l1041 1215l-81 -27q-10 -4 -22 -4h-205q-12 0 -22 4l-114 37v-109q0 -10 -7 -31l-68 -136q-9 -22 -31 -31l-136 -68q-21 -7 -31 -7h-137q-27 0 -47 20l-137 137q-20 20 -20 48v136q0 13 6 31l69 137q9 21 30 30l137 69q18 6 31 6h126h10q16 0 34 -10
l128 -63l190 -63h184l189 63l127 63q18 10 36 10q21 0 32 -6q8 -5 17 -14l4 -4l1 -1q1 -1 2 -2.5t2 -2.5t1.5 -3t1.5 -3q0 -1 1.5 -3t1.5 -3q4 -6 4 -12v-14q0 -28 -21 -49l-1225 -1429q-21 -24 -51 -24q-29 0 -48.5 19.5t-19.5 48.5zM273 985v92l51 101l101 51h92l97 -97
v-93l-51 -100l-100 -52h-93zM887 0q0 -27 21 -48l136 -136q21 -21 48 -21h137q10 0 31 7l136 68q22 9 31 31l68 137q7 21 7 30v137q0 27 -21 48l-136 136q-21 21 -48 21h-128h-8q-11 0 -14 -2h-2q-13 -4 -22 -9l-2 -1l-128 -63q-21 -9 -30 -31l-69 -137q-7 -21 -7 -30v-137z
M1024 29v92l51 101l101 51h92l97 -97v-92l-51 -101l-101 -51h-92z" />
    <glyph glyph-name="ampersand" unicode="&#x26;" horiz-adv-x="1774" 
d="M137 68v205q0 13 6 31l69 136q10 18 24 26l201 135q1 1 4 2.5t4 2.5l81 53l-36 54q-4 4 -9 16l-68 205q-3 11 -3 23v7v128q0 13 6 31l69 137q9 21 30 30l137 69q14 6 29 6h2q12 0 30 -6l137 -69q22 -9 31 -30l68 -137q7 -21 7 -31v-136q0 -10 -7 -31l-68 -137
q-4 -7 -14 -17l-116 -117l268 -369l12 20l135 335q0 1 0.5 2.5t0.5 2.5l69 137q6 10 13 17l69 68q20 20 47 20h69q27 0 47 -20l69 -68q20 -20 20 -48v-68q0 -28 -20 -48l-69 -68q-21 -21 -47 -21q-27 0 -48 21l-68 68h-2l-26 -48l-135 -340l-3 -6t-3 -5l-45 -69l39 -54
l127 -125l111 -56h24l29 29v39v2q0 28 20 48t48 20t48 -20t20 -48v-2v-68q0 -28 -20 -48l-69 -68q-21 -21 -47 -21h-62h-7q-8 0 -22 4l-2 1l-203 67q-12 4 -25 17l-123 121l-123 -121q-9 -10 -17 -14l-137 -68q-21 -7 -30 -7h-198h-7q-8 0 -22 4l-2 1l-203 67q-26 9 -39 34
l-69 137q-6 18 -6 30zM341 84v174l57 111l123 124l80 53l25 -37v-2l280 -391l-3 -5l-125 -123l-111 -56h-174l-100 51zM546 971v106l51 101l86 42l85 -42l51 -101v-106l-56 -111l-94 -94l-65 89z" />
    <glyph glyph-name="quotesingle" unicode="'" horiz-adv-x="682" 
d="M205 809v2v6v2v5v405q0 28 20 48l60 61q7 11 23.5 19t31.5 8h1h7q34 -4 50 -27l59 -61q21 -21 21 -48q0 -12 -4 -22l-134 -405v-2q0 -1 -1 -1.5t-1 -1.5q-1 -2 -2.5 -6.5t-2.5 -5.5t-2.5 -3.5t-2.5 -3.5q-2 -3 -9 -10l-3 -3h-2l-2 -2q-1 0 -1.5 -2t-1.5 -2q-3 -3 -7 -3
q-1 0 -1.5 -1t-1.5 -1h-2q-1 0 -2.5 -0.5t-2.5 -0.5h-2l-3 -2h-2h-2h-3h-2q-1 0 -1.5 -1t-1.5 -1h-2q-1 0 -2.5 1t-2.5 1h-2h-1h-2h-4h-1v2h-2h-2h-1l-2 1h-4l-1 2h-2l-2 2h-1q-1 0 -2 0.5t-2 0.5v2q-3 0 -5 2l-2 2q-1 0 -1.5 1.5t-1.5 1.5h-2q-1 1 -1.5 2.5t-1.5 2.5l-5 5
q-1 1 -2 3.5t-2 3.5q-3 3 -3 5q0 1 -1 3.5t-1 3.5t-0.5 3.5t-0.5 3.5t-1 2.5t-1 2.5z" />
    <glyph glyph-name="parenleft" unicode="(" horiz-adv-x="955" 
d="M205 341v273q0 2 1 7t1 7l68 341q1 3 2.5 9t2.5 8l136 274l6 6l134 202l2 3q7 12 14 16l131 131q20 20 46 20q29 0 49.5 -20t20.5 -48q0 -31 -20 -48l-128 -129l-130 -258l-65 -196l-66 -331v-260l66 -331l65 -196l130 -258l128 -130q22 -22 22 -49q0 -28 -19.5 -48
t-48.5 -20q-28 0 -50 22l-131 131q-7 4 -14 16l-2 1l-134 203q-1 1 -3 3.5t-3 3.5l-136 273q-1 3 -2.5 8.5t-2.5 8.5l-68 342q0 2 -1 7t-1 6z" />
    <glyph glyph-name="parenright" unicode=")" horiz-adv-x="955" 
d="M135 -616q0 27 22 49l128 130l130 258l65 196l66 331v260l-66 331l-65 196l-130 258l-128 129q-20 17 -20 48q0 28 19.5 48t48.5 20q31 0 48 -20l131 -131q7 -4 14 -16l1 -2l135 -203q1 -1 2.5 -3t2.5 -3l137 -274q1 -2 2.5 -8.5t2.5 -8.5l68 -341q0 -2 1 -7t1 -7v-273
q0 -1 -1 -6t-1 -7l-68 -342q-1 -3 -2.5 -8.5t-2.5 -8.5l-137 -273q-1 -1 -2.5 -3.5t-2.5 -3.5l-135 -201v-2l-1 -1q-7 -12 -14 -16l-131 -131q-22 -22 -50 -22q-29 0 -48.5 20t-19.5 48z" />
    <glyph glyph-name="asterisk" unicode="*" horiz-adv-x="1092" 
d="M135 683l2 1v2v9v56q0 19 12 37t30 26l183 73l-183 74q-18 8 -30 25.5t-12 37.5v58v5v5v2v7q0 1 0.5 3.5t0.5 3.5t1 3t1 3v2v2q0 1 1.5 3.5t1.5 3.5q1 1 2 2.5t2 2.5t1.5 2.5t1.5 2.5q4 6 10 10q1 1 3 2t3 2q3 3 5 3q1 0 1.5 1t1.5 1l2 1q1 0 2.5 1t2.5 1q18 5 24 5
q1 0 6 -0.5t6 -0.5h56q21 0 41 -14l130 -97l-33 165q0 1 -0.5 7t-0.5 7q0 28 20 48l60 61q10 14 22 19q3 3 7 3l3 2l4 2q1 0 3 0.5t3 0.5q2 0 6 1t6 1q14 0 21 -3q6 0 10 -4q13 -4 27 -22l60 -61q21 -21 21 -48q0 -1 -1 -7t-1 -7l-32 -165l129 97q20 14 41 14h58q1 0 5 0.5
t5 0.5q11 0 23 -5q1 0 3 -1t3 -1t3 -1.5t3 -1.5t1.5 -1t1.5 -1q1 -1 2.5 -1.5t2.5 -1.5q14 -14 17 -21q4 -4 4 -6q0 -1 0.5 -3t0.5 -3l2 -1q0 -1 1 -2.5t1 -2.5v-5q0 -1 0.5 -5t0.5 -6l-1 -1v-2v-9v-56q0 -19 -12.5 -37t-30.5 -26l-183 -74l183 -73q18 -8 30.5 -26t12.5 -37
v-58v-5v-5v-2v-7q0 -1 -1 -3.5t-1 -3.5t-1 -3.5t-1 -3.5v-3q0 -1 -1.5 -3.5t-1.5 -3.5q-1 -1 -2 -2.5t-2 -2.5t-1.5 -2.5t-1.5 -2.5q-4 -6 -10 -10q-1 -1 -2.5 -2t-2.5 -2q-3 -3 -5 -3q-1 0 -2 -1t-2 -1l-2 -1q-1 0 -2.5 -1t-2.5 -1q-17 -5 -24 -5q-1 0 -5 0.5t-6 0.5h-57
q-21 0 -41 14l-129 97l32 -165q0 -2 1 -7t1 -7q0 -27 -21 -48l-60 -61q-10 -14 -22 -19q-3 -3 -7 -3l-3 -2l-3 -2q-1 0 -3.5 -0.5t-3.5 -0.5q-3 -2 -14 -2q-12 0 -19 3q-6 0 -10 4q-13 4 -27 22l-60 61q-20 20 -20 48q0 2 0.5 7t0.5 7l33 165l-130 -97q-20 -14 -41 -14h-58
q-1 0 -5 -0.5t-5 -0.5q-9 0 -22 5q-1 0 -3.5 1t-3.5 1t-2.5 1.5t-2.5 1.5t-2 1t-2 1q-1 1 -2.5 1.5t-2.5 1.5q-14 14 -17 21q-3 3 -3 6q0 1 -1 2.5t-1 2.5l-2 2q0 1 -0.5 2.5t-0.5 2.5v2v3q0 2 -1 6t-1 5z" />
    <glyph glyph-name="plus" unicode="+" horiz-adv-x="1774" 
d="M203 546q0 27 21 48q22 22 49 22q1 0 6 -1t6 -1h466v468q0 2 -1 5t-1 5q0 27 21 48q18 22 47 22q1 0 7 -0.5t7 -0.5h56q29 0 49 -20.5t20 -48.5v-478h478q28 0 48 -20t20 -48v-58q0 -2 1 -5t1 -5q0 -27 -21 -48q-22 -22 -49 -22q-2 0 -6 1t-6 1h-466v-468q0 -2 0.5 -5
t0.5 -5q0 -28 -20 -48q-22 -22 -50 -22q-1 0 -5 0.5t-6 0.5h-57q-28 0 -48 20t-20 49v478h-478q-29 0 -48.5 20t-19.5 48v58q0 2 -1 5t-1 5z" />
    <glyph glyph-name="comma" unicode="," horiz-adv-x="819" 
d="M205 0v-68q0 -28 20 -48l69 -68q21 -21 47 -21h33l-22 -89l-110 -54q-15 -8 -26 -26t-11 -36q0 -28 19.5 -48t48.5 -20q10 0 31 7l128 65q12 4 24 14.5t17 22.5l61 123q12 17 12 41v9v119v9v10v58q0 28 -20 48l-69 68q-21 21 -47 21h-69q-26 0 -47 -21l-69 -68
q-20 -20 -20 -48z" />
    <glyph glyph-name="hyphen" unicode="-" horiz-adv-x="1774" 
d="M203 478q0 28 19.5 48t48.5 20h2h1229h2q28 0 48 -20t20 -48t-20 -48t-48 -20h-2h-1229h-2q-29 0 -48.5 20t-19.5 48z" />
    <glyph glyph-name="period" unicode="." horiz-adv-x="819" 
d="M205 0v-68q0 -28 20 -48l69 -68q21 -21 47 -21h69q26 0 47 21l69 68q20 20 20 48v68q0 28 -20 48l-69 68q-21 21 -47 21h-58h-11h-1q-12 0 -26 -6l-2 -1q-13 -4 -25 -21l-62 -61q-20 -20 -20 -48z" />
    <glyph glyph-name="slash" unicode="/" horiz-adv-x="1638" 
d="M68 -614q0 18 9 34l1223 2174q7 18 28 32q1 1 2.5 2t2.5 2v2q11 6 32 6h11h58q28 0 48 -20t20 -48q0 -18 -9 -34l-1223 -2174q-8 -19 -28 -33q-1 0 -1.5 -1.5t-1.5 -1.5h-2v-2q-13 -7 -32 -7h-10h-58q-29 0 -49 20.5t-20 48.5z" />
    <glyph glyph-name="zero" unicode="0" 
d="M137 478v205q0 1 0.5 6t0.5 7l69 342q1 2 10 24l136 204q17 24 34 28l200 66q6 4 15 4q1 0 3 0.5t3 0.5h8h2h3h130q15 0 22 -3l205 -68q17 -4 34 -28l137 -204q9 -22 10 -24l68 -342q0 -2 1 -7t1 -6v-205q0 -2 -1 -7t-1 -7l-68 -341q-1 -2 -10 -24l-137 -205
q-16 -22 -34 -27l-205 -68q-10 -4 -22 -4h-137q-12 0 -22 4l-205 68q-18 5 -34 27l-136 205q-9 22 -10 24l-69 341q0 2 -0.5 7t-0.5 7zM341 485l65 -321l77 -116l142 -48h116l141 48l77 116l65 321v191l-65 321l-77 116l-141 48h-116l-142 -48l-77 -116l-65 -321v-191z" />
    <glyph glyph-name="one" unicode="1" 
d="M341 956v58v10q0 10 7 31q0 1 4 5v2l1 1q16 23 36 28l116 58l198 196q20 20 46 20q29 0 49.5 -20t20.5 -48v-1423q0 -2 1 -6t1 -5q0 -26 -21 -47q-23 -23 -49 -23q-1 0 -6 1t-6 1h-56q-29 0 -49 20t-20 48v1132l-20 -19q-7 -7 -17 -13l-137 -69q-21 -7 -30 -7
q-28 0 -48.5 20.5t-20.5 48.5z" />
    <glyph glyph-name="two" unicode="2" 
d="M135 -137q0 31 25 52l605 674l131 196l60 118v106l-51 100l-101 52h-243l-100 -52l-51 -100v-53q0 -28 -20 -48.5t-49 -20.5h-58q-1 0 -5 -0.5t-5 -0.5q-28 0 -48 20q-22 22 -22 50q0 2 1 6t1 6v56q0 10 7 31l68 136q5 7 14 17l68 69q7 7 17 13l136 69q18 6 31 6h273
q13 0 31 -6l136 -69q13 -8 18 -13l68 -69q7 -7 13 -17l69 -136q7 -21 7 -31v-137q0 -9 -7 -30l-69 -137q-1 -1 -2.5 -3.5t-2.5 -3.5l-136 -204q-1 -1 -2.5 -4.5t-2.5 -4.5l-451 -500h673q29 0 48.5 -20t19.5 -48v-58q0 -2 1 -6t1 -5q0 -26 -21 -47q-23 -23 -49 -23
q-1 0 -6 1t-6 1h-867h-9h-10h-50h-8q-17 0 -35 10t-25 24q0 1 -1.5 2.5t-1.5 2.5t-1 3t-1 3t-1 2.5t-1 2.5v1q-3 8 -3 17z" />
    <glyph glyph-name="three" unicode="3" 
d="M137 137q0 29 19.5 48.5t48.5 19.5h58h10q10 0 31 -7q2 0 5 -3l3 -2q23 -16 28 -36l37 -77l63 -41l116 -39h185l116 39l77 51l51 77l39 116v48l-39 116l-51 77l-77 51l-116 39h-116h-11h-10h-48h-10q-17 0 -35 10.5t-25 24.5q0 1 -1.5 2.5t-1.5 2.5t-1 3t-1 3t-0.5 3.5
t-0.5 3.5q-4 10 -4 16q0 27 22 49l333 429h-490q-29 0 -48.5 19.5t-19.5 48.5v58q0 1 -1 5t-1 5q0 27 21 48q7 9 22 15.5t26 6.5q1 0 6 -1t7 -1h661h10h10h58q29 0 49 -20t20 -48q0 -27 -14 -43l-350 -447l181 -59q12 -4 26 -18l136 -136q12 -12 17 -26l68 -204q4 -10 4 -23
v-68q0 -12 -4 -22l-68 -205q-5 -13 -17 -26l-136 -136q-13 -12 -26 -17l-205 -68q-10 -4 -22 -4h-205q-12 0 -22 4l-205 68q-12 4 -25 17l-69 68q-7 7 -13 17l-69 137q-6 18 -6 31z" />
    <glyph glyph-name="four" unicode="4" 
d="M137 205q0 23 11 39l748 1085q8 15 25 26.5t33 11.5q1 0 4.5 -1t4.5 -1q11 0 13 -1q1 0 2.5 -1t2.5 -1t3.5 -1.5t3.5 -1.5q15 -7 25.5 -26t10.5 -36v-8v-948h205q29 0 48.5 -19.5t19.5 -48.5v-58q0 -1 1 -5t1 -5q0 -27 -21 -48q-22 -22 -49 -22q-1 0 -6 1t-6 1h-193v-263
q0 -2 1 -6t1 -5q0 -26 -21 -47q-23 -23 -49 -23q-2 0 -6.5 1t-5.5 1h-57q-29 0 -48.5 19.5t-19.5 48.5v274h-536h-10h-10h-58q-29 0 -48.5 19.5t-19.5 48.5zM451 341h368v533z" />
    <glyph glyph-name="five" unicode="5" 
d="M137 137q0 29 19.5 48.5t48.5 19.5h58h10q10 0 31 -7q2 0 5 -3l3 -2q23 -16 28 -36l37 -77l63 -41l116 -39h185l116 39l77 51l51 77l39 116v116l-39 116l-51 77l-77 51l-116 40h-248l-121 -62q-21 -7 -31 -7h-58q-1 0 -5 -0.5t-5 -0.5q-27 0 -51 24l-2 1q-17 19 -17 45
q0 8 4 18l66 593q0 1 -1 1.5t-1 1.5q0 27 21 48l5 5q19 17 44 17q1 0 5 -1t6 -1h672q28 0 48 -19.5t20 -48.5v-58q0 -1 1 -5t1 -5q0 -27 -21 -48q-22 -22 -49 -22q-2 0 -6 1t-6 1h-543l-44 -311l99 34q8 3 22 3h205q15 0 22 -3l205 -68q13 -4 26 -17l136 -137q13 -13 17 -25
l68 -205q4 -10 4 -22v-137q0 -12 -4 -22l-68 -205q-5 -13 -17 -26l-136 -136q-13 -12 -26 -17l-205 -68q-10 -4 -22 -4h-205q-12 0 -22 4l-205 68q-12 4 -25 17l-69 68q-7 7 -13 17l-69 137q-6 18 -6 31z" />
    <glyph glyph-name="six" unicode="6" 
d="M205 341v342q0 1 1 6t1 7l68 342q1 2 10 24l137 204q17 24 34 28l204 68q8 3 23 3h136q15 0 22 -3l205 -68q26 -9 39 -34l69 -137q7 -21 7 -31q0 -28 -20 -48t-49 -20h-68q-18 0 -35.5 11.5t-25.5 26.5l-28 56l-126 43h-116l-142 -48l-77 -116l-56 -277l12 10
q14 14 26 18l204 68q8 3 23 3h68q15 0 22 -3l205 -68q12 -4 26 -18l136 -136q12 -12 17 -26l68 -204q4 -10 4 -23v-68q0 -12 -4 -22l-68 -205q-5 -13 -17 -26l-136 -136q-13 -12 -26 -17l-205 -68q-10 -4 -22 -4h-68q-13 0 -23 4l-204 68q-14 5 -26 17l-136 136
q-16 16 -19 31l-68 273q-2 5 -2 17zM413 338l46 -188l41 -60l77 -51l116 -39h48l116 39l77 51l51 77l39 116v48l-39 116l-51 77l-77 51l-116 39h-48l-116 -39l-77 -51l-51 -77z" />
    <glyph glyph-name="seven" unicode="7" 
d="M135 1297q0 28 20 48q7 9 22 15.5t26 6.5q1 0 6.5 -1t7.5 -1h865h10h11h58q29 0 48.5 -19.5t19.5 -48.5q0 -13 -7 -29l-678 -1423q-6 -24 -23 -36q-1 -1 -3.5 -2t-3.5 -2q-1 0 -2 -0.5t-2 -0.5q-16 -9 -32 -9h-10h-58q-29 0 -49 20t-20 48q0 13 7 29l604 1269h-747
q-29 0 -48.5 19.5t-19.5 48.5v58q0 1 -1 5t-1 5z" />
    <glyph glyph-name="eight" unicode="8" 
d="M137 137v204q0 13 6 31l69 137q6 10 13 17l137 136q9 10 17 14l15 7l-15 6q-7 5 -17 14l-68 68q-10 10 -14 17l-68 137q-7 21 -7 31v136q0 10 7 31l68 137q13 25 39 34l200 66q6 4 15 4q1 0 2.5 0.5t2.5 0.5h9h2h3h266q15 0 22 -3l205 -68q26 -9 39 -34l69 -137
q7 -21 7 -31v-136q0 -10 -7 -31l-69 -137q-6 -10 -13 -17l-68 -68q-8 -8 -18 -14l-15 -6l15 -7q10 -6 18 -14l136 -136q10 -10 14 -17l68 -137q7 -21 7 -31v-204q0 -10 -7 -31l-68 -137q-4 -8 -14 -17l-68 -68q-12 -12 -26 -17l-205 -68q-10 -4 -22 -4h-273q-12 0 -22 4
l-205 68q-12 4 -25 17l-69 68q-7 7 -13 17l-69 137q-6 18 -6 31zM341 152l36 -72l63 -41l116 -39h253l116 39l63 41l36 72v174l-56 111l-53 53l-120 60l-112 29l-113 -29l-119 -60l-53 -53l-57 -111v-174zM410 971l51 -101l109 -54l113 -29l112 29l110 54l51 101v106l-21 41
l-126 43h-253l-126 -43l-20 -41v-106z" />
    <glyph glyph-name="nine" unicode="9" 
d="M137 819v68q0 15 3 23l68 204q4 14 17 26l137 137q13 13 25 17l205 68q7 3 22 3h69q15 0 22 -3l205 -68q12 -4 25 -17l137 -137q16 -16 19 -31l68 -273q2 -5 2 -17v-341q0 -2 -1 -7t-1 -7l-68 -341q-1 -4 -5.5 -13l-5.5 -11l-136 -205q-16 -22 -34 -27l-205 -68
q-10 -4 -22 -4h-137q-12 0 -22 4l-205 68q-26 9 -39 34l-68 137q-7 21 -7 30q0 29 20 49t48 20h68q18 0 36 -11.5t26 -26.5l27 -56l126 -43h116l142 48l77 116l56 276l-12 -10q-13 -13 -25 -17l-205 -68q-10 -4 -22 -4h-69q-12 0 -22 4l-205 68q-12 4 -25 17l-137 137
q-13 13 -17 25l-68 205q-3 7 -3 22zM341 829l40 -116l51 -76l77 -52l116 -39h47l116 39l77 52l51 76l36 110l-46 187l-41 60l-77 51l-116 40h-47l-116 -40l-77 -51l-51 -77l-40 -116v-48z" />
    <glyph glyph-name="colon" unicode=":" horiz-adv-x="819" 
d="M205 0v-68q0 -28 20 -48l69 -68q21 -21 47 -21h69q26 0 47 21l69 68q20 20 20 48v68q0 28 -20 48l-69 68q-21 21 -47 21h-58h-11h-1q-12 0 -26 -6l-2 -1q-13 -4 -25 -21l-62 -61q-20 -20 -20 -48zM205 683q0 -28 20 -48l69 -68q21 -21 47 -21h69q26 0 47 21l69 68
q20 20 20 48v68q0 28 -20 48l-69 68q-20 20 -47 20h-58h-11h-1q-14 0 -26 -5l-2 -1q-13 -4 -25 -21l-62 -61q-20 -20 -20 -48v-68z" />
    <glyph glyph-name="semicolon" unicode=";" horiz-adv-x="819" 
d="M205 0v-68q0 -28 20 -48l69 -68q21 -21 47 -21h33l-22 -89l-110 -54q-15 -8 -26 -26t-11 -36q0 -28 19.5 -48t48.5 -20q10 0 31 7l128 65q12 4 24 14.5t17 22.5l61 123q12 17 12 41v9v119v9v10v58q0 28 -20 48l-69 68q-21 21 -47 21h-69q-26 0 -47 -21l-69 -68
q-20 -20 -20 -48zM205 683q0 -28 20 -48l69 -68q21 -21 47 -21h69q26 0 47 21l69 68q20 20 20 48v68q0 28 -20 48l-69 68q-20 20 -47 20h-58h-11h-1q-14 0 -26 -5l-2 -1q-13 -4 -25 -21l-62 -61q-20 -20 -20 -48v-68z" />
    <glyph glyph-name="less" unicode="&#x3c;" horiz-adv-x="1638" 
d="M205 478q0 17 10 35t24 25l1092 614q16 9 31 9h5q28 0 48 -20t20 -49q0 -17 -10.5 -34.5t-25.5 -24.5l-986 -555l986 -555q15 -7 25.5 -25.5t10.5 -35.5q0 -29 -20 -49t-48 -20q-16 0 -36 11l-1092 614q-14 7 -24 25t-10 35z" />
    <glyph glyph-name="equal" unicode="=" horiz-adv-x="1774" 
d="M203 273q0 -1 1 -5t1 -5v-58q0 -29 19.5 -48.5t48.5 -19.5h1149q2 0 6 -1t6 -1q27 0 49 22q21 21 21 48q0 1 -1 5t-1 5v58q0 29 -20 48.5t-48 19.5h-1149q-1 0 -6 1t-6 1h-2q-29 0 -47 -22q-21 -21 -21 -48zM203 819q0 -1 1 -5t1 -5v-58q0 -29 19.5 -48.5t48.5 -19.5
h1149q2 0 6 -1t6 -1q27 0 49 22q21 21 21 48q0 1 -1 5t-1 5v58q0 29 -20 48.5t-48 19.5h-1149q-1 0 -6 1t-6 1h-2q-29 0 -47 -22q-21 -21 -21 -48z" />
    <glyph glyph-name="greater" unicode="&#x3e;" horiz-adv-x="1638" 
d="M203 -138q0 17 10.5 35.5t25.5 25.5l986 555l-986 555q-14 7 -24 24.5t-10 34.5q0 29 20 49t48 20h2q16 0 32 -9l1092 -614q14 -7 24.5 -25t10.5 -35t-10.5 -35t-24.5 -25l-1092 -614q-20 -11 -36 -11q-28 0 -48 20t-20 49z" />
    <glyph glyph-name="question" unicode="?" 
d="M135 956q0 2 1 6t1 6v56q0 13 6 31l69 136q6 10 13 17l69 69q13 13 25 17l205 68q7 3 22 3h205q15 0 22 -3l205 -68q13 -4 26 -17l68 -69q7 -7 13 -17l69 -136q7 -21 7 -31v-137q0 -9 -7 -30l-69 -137q-6 -10 -13 -17l-68 -68q-8 -8 -18 -14l-136 -68q-1 -1 -4.5 -1.5
t-4.5 -1.5l-90 -31v-178q0 -29 -19.5 -48.5t-48.5 -19.5h-69q-28 0 -48 19.5t-20 48.5v195q0 2 -1 5t-1 5t1 5t1 5v48q0 2 -1 5t-1 5q0 21 12 38l4 3q19 25 42 28l192 63l58 29l63 48l41 80v106l-36 71l-63 41l-116 40h-185l-116 -40l-63 -41l-36 -71v-53q0 -29 -20 -49
t-48 -20h-58q-1 0 -5 -0.5t-5 -0.5q-28 0 -48 20q-22 22 -22 50zM478 0v-68q0 -28 20 -48l69 -68q21 -21 47 -21h69q26 0 47 21l69 68q20 20 20 48v68q0 28 -20 48l-69 68q-21 21 -47 21h-58h-11h-1q-12 0 -26 -6l-2 -1q-13 -4 -25 -21l-62 -61q-20 -20 -20 -48z" />
    <glyph glyph-name="at" unicode="@" horiz-adv-x="1911" 
d="M137 478q0 -14 3 -22l68 -205q1 -1 2 -4.5t2 -4.5l68 -136q5 -8 14 -17l136 -137q7 -7 17 -13l137 -69q1 -1 4 -1.5t4 -1.5l205 -68q10 -4 22 -4h205q12 0 22 4l205 68q1 1 4.5 1.5t4.5 1.5l136 69q10 6 17 13l68 68q21 18 21 48q0 26 -18.5 46.5t-43.5 22.5q24 3 41 20
l137 137q13 13 17 25l68 205q4 10 4 22v137q0 12 -4 22l-68 205q-1 1 -1.5 4t-1.5 4l-69 137q-6 10 -13 17l-137 136q-10 10 -17 14l-136 68q-1 1 -4.5 2t-4.5 2l-205 68q-7 3 -22 3h-205q-15 0 -22 -3l-205 -68q-1 -1 -4 -2t-4 -2l-137 -68q-8 -4 -17 -14l-136 -136
q-10 -10 -14 -17l-68 -137q-1 -1 -2 -4t-2 -4l-68 -205q-3 -7 -3 -22v-205zM273 488v184l63 190l62 121l121 121l121 62l189 63h185l189 -63l121 -62l122 -121l61 -121l63 -190v-116l-60 -177l-105 -106h-79l-29 29v104l68 541v10q0 29 -20 49t-48 20q-14 0 -34 -11
q-20 11 -34 11q-26 0 -46 -18.5t-22 -43.5l-106 53q-21 7 -31 7h-195h-10q-18 0 -36 -10l-131 -65q-8 -5 -17 -14l-68 -68q-13 -13 -17 -26l-69 -204q-3 -7 -3 -23v-204q0 -10 7 -31l68 -137q9 -21 31 -30l133 -67q14 -8 34 -8h10h195q12 0 30 6l137 69q1 0 1.5 0.5t1.5 0.5
t2 -0.5t2 -0.5l133 -67q14 -8 34 -8h10h118q-22 -4 -39 -21l-62 -60l-121 -61l-189 -63h-185l-189 63l-121 61l-121 121l-62 122zM683 425v179l59 178l106 105h161l100 -51l29 -56l-44 -350l-53 -106l-101 -51h-160l-41 41z" />
    <glyph glyph-name="A" unicode="A" 
d="M67 -137q0 17 10 35l539 1416q4 15 16.5 29t26.5 19q1 0 3.5 1t3.5 1t3 0.5t3 0.5h7h2q1 0 1.5 1t1.5 1l2 -2h3h2q20 -2 37 -17.5t21 -35.5l540 -1414q10 -18 10 -35q0 -14 -10 -32q0 -1 -1 -2.5t-1 -2.5l-2 -2q-1 -1 -1 -1.5t-1 -1.5h-1q-22 -26 -53 -26h-10h-58
q-20 0 -38.5 12.5t-25.5 30.5l-116 299h-597l-116 -299q-7 -18 -25 -30.5t-38 -12.5h-58q-1 0 -5 -1t-5 -1q-31 0 -53 26q-1 1 -2 2.5t-2 2.5q0 1 -1.5 2.5t-1.5 2.5q-10 18 -10 34zM464 341h437l-218 564z" />
    <glyph glyph-name="B" unicode="B" 
d="M203 -137q0 1 1 6t1 6v1412q0 1 -1 5t-1 5q0 27 21 48q18 22 47 22q1 0 7 -1t7 -1h534q15 0 22 -3l205 -68q14 -4 26 -17l68 -69q10 -10 14 -17l68 -136q7 -21 7 -31v-205q0 -10 -7 -31l-68 -136q-4 -8 -14 -17l-53 -55l53 -54q10 -10 14 -17l68 -137q7 -21 7 -31v-204
q0 -10 -7 -31l-68 -137q-4 -8 -14 -17l-68 -68q-12 -12 -26 -17l-205 -68q-10 -4 -22 -4h-536q-1 0 -5 -1t-5 -1q-27 0 -48 21q-22 22 -22 49zM410 0h399l167 56l48 96v174l-48 96l-167 56h-399v-478zM410 683h397l169 56l48 96v174l-48 95l-167 57h-399v-478z" />
    <glyph glyph-name="C" unicode="C" horiz-adv-x="1501" 
d="M137 410v341q0 15 3 22l68 205q1 1 2 4t2 4l68 137q5 7 14 17l136 137q7 7 17 13l137 69q18 6 30 6h273q13 0 31 -6l137 -69q10 -6 17 -13l136 -137q10 -10 14 -17l63 -128q14 -20 14 -39q0 -17 -9 -33q0 -1 -1.5 -2.5t-1.5 -2.5l-2 -2q-1 -1 -1 -1.5t-1 -1.5h-1
q-22 -26 -53 -26h-10h-58q-18 0 -36 11.5t-26 26.5l-63 126l-53 53l-111 57h-242l-106 -53l-121 -183l-62 -184v-321l62 -184l121 -183l106 -53h242l111 56l53 53l63 127q8 15 26 26t36 11h58q1 0 5 1t5 1q31 0 53 -26q1 -1 1.5 -2.5t1.5 -2.5q4 -4 4 -5q10 -18 10 -34
q0 -19 -14 -39l-63 -128q-6 -10 -14 -18l-136 -136q-10 -10 -17 -14l-137 -68q-21 -7 -31 -7h-273q-9 0 -30 7l-137 68q-7 4 -17 14l-136 136q-8 8 -14 18l-68 136q-1 1 -2 4.5t-2 4.5l-68 204q-3 7 -3 23z" />
    <glyph glyph-name="D" unicode="D" horiz-adv-x="1501" 
d="M203 -137q0 1 1 6t1 6v1412q0 1 -1 5t-1 5q0 27 21 48q18 22 47 22q1 0 7 -1t7 -1h466q15 0 22 -3l205 -68q13 -4 26 -17l136 -137q10 -10 14 -17l68 -137q1 -1 1.5 -4t1.5 -4l69 -205q3 -7 3 -22v-341q0 -16 -3 -23l-69 -204q-1 -1 -1.5 -4.5t-1.5 -4.5l-68 -136
q-6 -10 -14 -18l-136 -136q-13 -12 -26 -17l-205 -68q-10 -4 -22 -4h-468q-1 0 -5 -1t-5 -1q-27 0 -48 21q-22 22 -22 49zM410 0h331l177 60l50 49l61 121l63 190v321l-63 189l-61 121l-50 50l-177 60h-331v-1161z" />
    <glyph glyph-name="E" unicode="E" 
d="M203 -137q0 1 1 6t1 6v1412q0 1 -1 5t-1 5q0 27 21 48q18 22 47 22q1 0 7 -1t7 -1h797q2 0 5 1t5 1q28 0 48 -20q22 -22 22 -50q0 -1 -0.5 -6t-0.5 -6v-56q0 -28 -20 -48t-49 -20h-682v-478h341q28 0 48 -20t20 -49v-58q0 -2 1 -5t1 -5q0 -27 -21 -48q-22 -22 -49 -22
q-1 0 -6 1t-6 1h-329v-478h682q29 0 49 -20t20 -48v-58q0 -2 0.5 -6t0.5 -5q0 -27 -20 -47q-23 -23 -50 -23q-2 0 -6 1t-6 1h-797q-1 0 -5 -1t-5 -1q-27 0 -48 21q-22 22 -22 49z" />
    <glyph glyph-name="F" unicode="F" horiz-adv-x="1228" 
d="M203 -137q0 1 1 6t1 6v1412q0 1 -1 5t-1 5q0 27 21 48q18 22 47 22q1 0 7 -1t7 -1h797q2 0 5 1t5 1q28 0 48 -20q22 -22 22 -50q0 -1 -0.5 -6t-0.5 -6v-56q0 -28 -20 -48t-49 -20h-682v-478h341q28 0 48 -20t20 -49v-58q0 -2 1 -5t1 -5q0 -27 -21 -48q-22 -22 -49 -22
q-1 0 -6 1t-6 1h-329v-615q0 -28 -20 -48t-49 -20h-58q-1 0 -5 -1t-5 -1q-27 0 -48 21q-22 22 -22 49z" />
    <glyph glyph-name="G" unicode="G" horiz-adv-x="1501" 
d="M137 410v341q0 15 3 22l68 205q1 1 2 4t2 4l68 137q5 7 14 17l136 137q7 7 17 13l137 69q18 6 30 6h273q13 0 31 -6l137 -69q10 -6 17 -13l136 -137q10 -10 14 -17l63 -128q14 -20 14 -39q0 -17 -9 -33q0 -1 -1.5 -2.5t-1.5 -2.5l-2 -2q-1 -1 -1 -1.5t-1 -1.5h-1
q-22 -26 -53 -26h-10h-58q-18 0 -36 11.5t-26 26.5l-63 126l-53 53l-111 57h-242l-111 -57l-53 -53l-62 -121l-63 -189v-321l63 -190l62 -121l53 -53l111 -56h242l111 56l53 53l56 111v121h-205q-28 0 -48 20t-20 49v58q0 2 -1 5t-1 5q0 27 21 48q22 22 49 22q1 0 6 -1t6 -1
h330q29 0 48.5 -20t19.5 -48v-273q0 -10 -7 -31l-68 -136q-6 -10 -14 -18l-136 -136q-10 -10 -17 -14l-137 -68q-21 -7 -31 -7h-273q-9 0 -30 7l-137 68q-7 4 -17 14l-136 136q-8 8 -14 18l-68 136q-1 1 -2 4.5t-2 4.5l-68 204q-3 7 -3 23z" />
    <glyph glyph-name="H" unicode="H" horiz-adv-x="1501" 
d="M203 -137q0 1 1 6t1 6v1412q0 1 -1 5t-1 5q0 27 21 48q18 22 47 22q1 0 7 -1t7 -1h56q29 0 49 -20t20 -48v-614h682v614q0 28 20 48t49 20h58q1 0 5 1t5 1q28 0 48 -20q22 -22 22 -50q0 -1 -1 -6t-1 -6v-1411q0 -2 1 -6t1 -5q0 -26 -21 -47q-23 -23 -49 -23q-1 0 -6 1
t-6 1h-56q-29 0 -49 20t-20 48v615h-682v-615q0 -28 -20 -48t-49 -20h-58q-1 0 -5 -1t-5 -1q-27 0 -48 21q-22 22 -22 49z" />
    <glyph glyph-name="I" unicode="I" horiz-adv-x="682" 
d="M203 1297q0 27 21 48q18 22 47 22q1 0 7 -1t7 -1h56q29 0 49 -20t20 -48v-1423q0 -2 0.5 -6t0.5 -5q0 -27 -20 -47q-23 -23 -50 -23q-1 0 -6 1t-6 1h-56q-29 0 -48.5 19.5t-19.5 48.5v1424q0 1 -1 5t-1 5z" />
    <glyph glyph-name="J" unicode="J" horiz-adv-x="1228" 
d="M135 205q0 18 10 36q0 2 3 5l2 1l2 2l3 4q22 22 50 22q1 0 5 -1t5 -1h58q20 0 39 -13.5t26 -32.5l60 -179l95 -48h106l96 48l56 167v1072q0 1 -1 5t-1 5q0 27 21 48q18 22 47 22q1 0 7 -1t7 -1h56q29 0 49 -20t20 -48v-1092q0 -12 -4 -22l-68 -205q-4 -13 -17 -26
l-68 -68q-9 -10 -17 -14l-137 -68q-21 -7 -31 -7h-136q-10 0 -31 7l-136 68q-7 4 -17 14l-69 68q-13 12 -17 26l-65 196q-8 24 -8 31z" />
    <glyph glyph-name="K" unicode="K" horiz-adv-x="1501" 
d="M203 1297q0 27 21 48q18 22 47 22q1 0 7 -1t7 -1h56q29 0 49 -20t20 -48v-654l80 79v2q6 9 15 15l608 606q20 20 48 20h59h9q17 0 35 -10t25 -24q3 -3 3 -7l2 -3l1 -3q0 -1 1 -3t1 -3v-1q0 -1 1 -7t1 -7q0 -33 -28 -55l-566 -566l573 -765q21 -21 21 -48q0 -9 -5 -22
q0 -1 -1 -2.5t-1 -2.5t-1 -2.5t-1 -2.5q-1 -1 -1.5 -2.5t-1.5 -2.5t-2 -2.5t-2 -2.5q-22 -26 -54 -26h-10h-58q-33 0 -55 28l-538 716l-158 -158v-507q0 -2 0.5 -6t0.5 -5q0 -27 -20 -47q-23 -23 -50 -23q-1 0 -6 1t-6 1h-56q-29 0 -48.5 19.5t-19.5 48.5v1424q0 1 -1 5
t-1 5z" />
    <glyph glyph-name="L" unicode="L" horiz-adv-x="1092" 
d="M203 -137q0 1 1 6t1 6v1412q0 1 -1 5t-1 5q0 27 21 48q18 22 47 22q1 0 7 -1t7 -1h56q29 0 49 -20t20 -48v-1297h682q29 0 49 -20t20 -48v-58q0 -2 0.5 -6t0.5 -5q0 -27 -20 -47q-23 -23 -50 -23q-2 0 -6 1t-6 1h-797q-1 0 -5 -1t-5 -1q-27 0 -48 21q-22 22 -22 49z" />
    <glyph glyph-name="M" unicode="M" horiz-adv-x="1638" 
d="M203 -137q0 1 1 6t1 6v1417v5q0 17 10 35t24 25q3 3 7 3l1 2h4l3 2q1 0 2 0.5t2 0.5h7h5l1 2q1 0 2 -1t2 -1h3h5q16 -2 33 -15.5t22 -28.5l481 -1084l481 1082q5 16 20.5 30t31.5 16q1 0 6 1t7 1q1 0 2.5 -1t2.5 -1h2h2h5q1 0 3.5 -0.5t3.5 -0.5t2.5 -1t2.5 -1q4 0 7 -3
q1 -1 2.5 -2t2.5 -2t2.5 -1.5t2.5 -1.5q26 -22 26 -55v-7v-1416q0 -2 0.5 -6t0.5 -5q0 -27 -20 -47q-23 -23 -50 -23q-1 0 -6 1t-6 1h-56q-29 0 -48.5 19.5t-19.5 48.5v767l-343 -785q-5 -17 -21 -31.5t-32 -18.5h-7h-5h-2h-5h-7q-18 2 -33.5 17t-20.5 33l-343 785v-767
q0 -28 -20 -48t-49 -20h-58q-1 0 -5 -1t-5 -1q-27 0 -48 21q-22 22 -22 49z" />
    <glyph glyph-name="N" unicode="N" horiz-adv-x="1501" 
d="M203 -137q0 1 1 6t1 6v1415v7q0 17 10 35t24 25q3 3 7 3q1 0 2.5 1t2.5 1l3 2h4q1 0 2.5 0.5t2.5 0.5h7l1 2q17 0 36 -11t26 -25l759 -1051v1007q0 1 -0.5 5t-0.5 5q0 28 20 48q22 22 50 22q1 0 5 -1t6 -1h57q29 0 48.5 -19.5t19.5 -48.5v-1427v-7q0 -17 -10 -34.5
t-24 -24.5q-4 -4 -7 -4q-1 0 -2.5 -0.5t-2.5 -0.5l-2 -2h-3l-2 -2h-5h-7q-1 0 -1.5 -1t-1.5 -1q-16 0 -34 11t-26 25l-759 1052v-1018q0 -28 -20 -48t-49 -20h-58q-1 0 -5 -1t-5 -1q-27 0 -48 21q-22 22 -22 49z" />
    <glyph glyph-name="O" unicode="O" horiz-adv-x="1501" 
d="M137 410v341q0 15 3 22l68 205q1 1 2 4t2 4l68 137q5 7 14 17l136 137q7 7 17 13l128 63l2 2q9 5 22 9h2q1 1 13 1h9h264q13 0 31 -6l137 -69q10 -6 17 -13l136 -137q10 -10 14 -17l68 -137q1 -1 2 -4t2 -4l68 -205q3 -7 3 -22v-341q0 -16 -3 -23l-68 -204q-1 -1 -2 -4.5
t-2 -4.5l-68 -136q-6 -10 -14 -18l-136 -136q-10 -10 -17 -14l-137 -68q-21 -7 -31 -7h-273q-9 0 -30 7l-137 68q-7 4 -17 14l-136 136q-8 8 -14 18l-68 136q-1 1 -2 4.5t-2 4.5l-68 204q-3 7 -3 23zM341 420l62 -184l119 -178l171 -58h116l171 58l119 178l62 184v321
l-62 184l-119 178l-171 58h-114l-173 -58l-119 -178l-62 -184v-321z" />
    <glyph glyph-name="P" unicode="P" 
d="M203 -137q0 1 1 6t1 6v1412q0 1 -1 5t-1 5q0 27 21 48q18 22 47 22q1 0 7 -1t7 -1h602q13 0 31 -6l137 -69q10 -6 17 -13l68 -69q10 -10 14 -17l68 -136q7 -21 7 -31v-205q0 -10 -7 -31l-68 -136q-4 -8 -14 -17l-68 -68q-10 -9 -17 -14l-137 -68q-21 -7 -31 -7h-477v-615
q0 -28 -20 -48t-49 -20h-58q-1 0 -5 -1t-5 -1q-27 0 -48 21q-22 22 -22 49zM410 683h462l101 51l51 101v174l-51 100l-101 52h-462v-478z" />
    <glyph glyph-name="Q" unicode="Q" horiz-adv-x="1501" 
d="M137 410v341q0 15 3 22l68 205q1 1 2 4t2 4l68 137q5 7 14 17l136 137q7 7 17 13l128 63l2 2q9 5 22 9h2q1 1 13 1h9h264q13 0 31 -6l137 -69q10 -6 17 -13l136 -137q10 -10 14 -17l68 -137q1 -1 2 -4t2 -4l68 -205q3 -7 3 -22v-341q0 -16 -3 -23l-68 -204q-1 -1 -2 -4.5
t-2 -4.5l-68 -136q-6 -10 -14 -18l-87 -88l150 -150q28 -22 28 -55q0 -9 -4 -19q0 -7 -3 -10q-7 -16 -26 -27.5t-37 -11.5h-9h-59q-28 0 -48 20l-149 147l-46 -24q-21 -7 -31 -7h-273q-9 0 -30 7l-137 68q-7 4 -17 14l-136 136q-8 8 -14 18l-68 136q-1 1 -2 4.5t-2 4.5
l-68 204q-3 7 -3 23zM341 420l62 -184l119 -178l171 -58h97l-13 14q-28 22 -28 54q0 9 4 19q0 7 3 10q7 16 26 28t37 12h9h59q27 0 48 -21l51 -49l113 169l62 184v321l-62 184l-119 178l-171 58h-114l-173 -58l-119 -178l-62 -184v-321z" />
    <glyph glyph-name="R" unicode="R" 
d="M203 -137q0 1 1 6t1 6v1412q0 1 -1 5t-1 5q0 27 21 48q18 22 47 22q1 0 7 -1t7 -1h534q15 0 22 -3l205 -68q14 -4 26 -17l68 -69q10 -10 14 -17l68 -136q7 -21 7 -31v-205q0 -10 -7 -31l-68 -136q-4 -8 -14 -17l-68 -68q-12 -13 -26 -17l-181 -60l348 -582q18 -20 18 -45
q0 -7 -6 -22q0 -1 -0.5 -3.5t-0.5 -3.5t-2 -2.5t-2 -2.5t-0.5 -1.5t-0.5 -1.5q-1 -1 -2 -2.5t-2 -2.5q-22 -26 -54 -26h-11h-58q-16 0 -33.5 9.5t-24.5 23.5l-391 650h-233v-615q0 -28 -20 -48t-49 -20h-58q-1 0 -5 -1t-5 -1q-27 0 -48 21q-22 22 -22 49zM410 683h399
l167 56l48 96v174l-48 95l-167 57h-399v-478z" />
    <glyph glyph-name="S" unicode="S" 
d="M135 68q0 12 3 19q0 6 4 10q7 16 26 28t37 12h8h128q27 0 48 -21l62 -60l110 -56h248l177 60l38 37v161l-56 111l-53 53l-123 63l-340 135q-1 0 -2.5 0.5t-2.5 0.5l-136 68q-8 5 -17 14l-69 68q-7 7 -13 17l-69 137q-6 18 -6 31v136q0 28 20 48l137 137q13 13 25 17
l205 68q7 3 22 3h273q15 0 22 -3l205 -68q14 -4 26 -17l131 -130q28 -22 28 -55q0 -9 -4 -19q0 -7 -3 -10q-7 -16 -26 -27.5t-37 -11.5h-9h-128q-28 0 -48 20l-61 60l-111 57h-248l-177 -60l-38 -38v-92l52 -101l112 -58l340 -134q1 0 2.5 -1t2.5 -1l136 -68q10 -6 18 -14
l136 -137q10 -9 14 -17l68 -136q7 -21 7 -31v-205q0 -27 -21 -48l-136 -136q-12 -12 -26 -17l-205 -68q-10 -4 -22 -4h-273q-12 0 -22 4l-205 68q-12 4 -25 17l-132 130q-27 22 -27 54z" />
    <glyph glyph-name="T" unicode="T" horiz-adv-x="1228" 
d="M67 1297q0 28 20 48q7 9 22 15.5t26 6.5q1 0 6 -1t7 -1h876q28 0 48 -19.5t20 -48.5v-58q0 -1 1 -5t1 -5q0 -27 -21 -48q-22 -22 -49 -22q-2 0 -6 1t-6 1h-329v-1298q0 -28 -20 -48t-49 -20h-58q-2 0 -5 -1t-5 -1q-27 0 -48 21q-22 22 -22 49q0 1 1 6t1 6v1286h-341
q-29 0 -49 20t-20 48v58q0 1 -0.5 5t-0.5 5z" />
    <glyph glyph-name="U" unicode="U" horiz-adv-x="1501" 
d="M203 1297q0 27 21 48q18 22 47 22q1 0 7 -1t7 -1h56q29 0 49 -20t20 -48v-1014l59 -177l46 -46l178 -60h116l177 60l47 46l59 177v1014q0 28 20 48t49 20h58q1 0 5 1t5 1q28 0 48 -20q22 -22 22 -50q0 -1 -1 -6t-1 -6v-1012q0 -15 -3 -22l-69 -205q-5 -13 -17 -26
l-136 -136q-12 -12 -26 -17l-205 -68q-10 -4 -22 -4h-136q-13 0 -23 4l-204 68q-14 5 -26 17l-136 136q-14 14 -18 26l-68 205q-3 7 -3 22v1014q0 1 -1 5t-1 5z" />
    <glyph glyph-name="V" unicode="V" 
d="M67 1297q0 14 10 32q0 1 1 3t1 3t1.5 2.5t1.5 2.5h2q23 27 53 27h1q1 0 4.5 -1t4.5 -1h58q20 0 38 -12t25 -30l415 -1067l414 1067q7 18 25.5 30t38.5 12h58q1 0 5 1t5 1q31 0 53 -26q1 -1 1.5 -2.5t1.5 -2.5l2 -1l2 -4q10 -18 10 -34t-10 -34l-540 -1417
q-4 -15 -16 -28.5t-26 -18.5q-1 0 -3.5 -1t-3.5 -1t-3.5 -1t-3.5 -1h-7h-2l-1 -2l-4 2h-3h-2q-20 2 -37 17.5t-21 35.5l-539 1415q-10 18 -10 34z" />
    <glyph glyph-name="W" unicode="W" horiz-adv-x="1774" 
d="M67 1297q0 21 12 38q1 1 1.5 2.5t1.5 2.5h2v1q22 26 53 26q1 0 5 -1t5 -1h58q22 0 41.5 -14.5t24.5 -34.5l275 -993l273 986q2 16 16 32t30 21q1 0 2.5 1t2.5 1h2q1 0 2.5 0.5t2.5 0.5h2h2h1q1 0 2.5 1t2.5 1t2 -1t2 -1h3h2h5q1 0 3.5 -0.5t3.5 -0.5q17 -5 31.5 -21
t16.5 -34l273 -986l275 993q5 20 24.5 34.5t41.5 14.5h58q2 0 5 1t5 1q32 0 53 -24v-2q1 -1 2 -2.5t2 -2.5q13 -19 13 -39q0 -15 -6 -29l-405 -1416q-2 -18 -18.5 -34.5t-34.5 -20.5q-1 0 -3.5 -1t-3.5 -1h-5q-1 0 -1.5 -1t-1.5 -1l-2 2h-5h-2h-5q-1 0 -3.5 1t-3.5 1
q-16 5 -30.5 21.5t-16.5 33.5l-274 986l-273 -985q-2 -17 -16 -33t-30 -21q-1 0 -2.5 -1t-2.5 -1l-3 -2h-2h-3h-4q-1 0 -2.5 -1t-2.5 -1l-2 2h-5h-7q-1 0 -3 1t-3 1q-17 5 -31.5 22t-16.5 33l-405 1416q-6 14 -6 29z" />
    <glyph glyph-name="X" unicode="X" 
d="M135 -137q0 26 17 45l416 672l-416 673q-17 19 -17 44q0 11 7 27q0 1 0.5 2.5t0.5 2.5t2 3t2 3q1 1 1.5 2.5t1.5 2.5q21 25 55 25h2h8h58q15 0 33 -9.5t25 -22.5l352 -568l351 568q7 13 25 22.5t33 9.5h58q2 0 6 1t5 1q30 0 52 -26q1 -1 2 -2.5t2 -2.5t1.5 -2.5t1.5 -2.5
q0 -1 2 -2.5t2 -2.5t0.5 -2.5t0.5 -2.5q6 -21 6 -24q0 -24 -18 -44l-416 -673l416 -672q18 -20 18 -45q0 -11 -7 -27q0 -1 -1 -2.5t-1 -2.5l-2 -2q0 -1 -0.5 -1.5t-0.5 -1.5q-1 -1 -2 -2.5t-2 -2.5q-22 -26 -54 -26h-11h-58q-15 0 -32.5 10t-25.5 23l-351 568l-352 -568
q-8 -13 -25.5 -23t-32.5 -10h-58q-1 0 -5 -1t-5 -1q-31 0 -53 26q-1 1 -2 2.5t-2 2.5t-1.5 2.5t-1.5 2.5q0 1 -1.5 2.5t-1.5 2.5t-1 3t-1 3q-5 18 -5 23z" />
    <glyph glyph-name="Y" unicode="Y" 
d="M67 1297q0 7 5 24q0 1 1.5 3.5t1.5 3.5t1 1.5t1 1.5t1 2t1 2q1 1 1.5 2.5t1.5 2.5q7 10 23.5 17.5t29.5 7.5h10h60q14 0 30.5 -8.5t25.5 -20.5l388 -554l387 554q9 12 25.5 20.5t30.5 8.5h60h9q17 0 34.5 -10t24.5 -24l2 -2q0 -1 1 -2.5t1 -2.5l1 -1q6 -14 6 -26
q0 -27 -19 -46l-461 -659v-718q0 -2 1 -6t1 -5q0 -26 -21 -47q-23 -23 -49 -23q-1 0 -6 1t-6 1h-57q-28 0 -48 19.5t-20 48.5v729l-461 657q-18 18 -18 48z" />
    <glyph glyph-name="Z" unicode="Z" 
d="M135 -137q0 26 17 45l776 1253h-723q-29 0 -48.5 19.5t-19.5 48.5v58q0 1 -1 5t-1 5q0 28 20 48q7 9 22 15.5t26 6.5q1 0 6.5 -1t7.5 -1h865h10h11h47q2 0 6 1t5 1q30 0 52 -26q1 -1 2 -2.5t2 -2.5t1.5 -2.5t1.5 -2.5q0 -1 2 -2.5t2 -2.5t0.5 -2.5t0.5 -2.5q6 -21 6 -24
q0 -24 -18 -44l-776 -1253h724q29 0 48.5 -20t19.5 -48v-58q0 -2 1 -6t1 -5q0 -26 -21 -47q-23 -23 -49 -23q-1 0 -6 1t-6 1h-866h-10h-10h-48q-1 0 -5 -1t-5 -1q-31 0 -53 26q-1 1 -2 2.5t-2 2.5t-1.5 2.5t-1.5 2.5q0 1 -1.5 2.5t-1.5 2.5t-1 3t-1 3q-5 18 -5 23z" />
    <glyph glyph-name="bracketleft" unicode="[" horiz-adv-x="955" 
d="M203 -614q0 2 1 6t1 6v2162q0 2 -1 5t-1 5q0 27 21 48q18 22 47 22q1 0 7 -1t7 -1h46q1 0 5 1t5 1t5.5 -1t6.5 -1h398h2q29 0 48.5 -20t19.5 -48t-19.5 -48t-48.5 -20h-2h-341v-2048h341h2q29 0 48.5 -20t19.5 -48q0 -29 -20 -49t-48 -20h-2h-399q-2 0 -6 -0.5t-5 -0.5
t-6 0.5t-6 0.5h-46q-1 0 -5 -0.5t-5 -0.5q-28 0 -48 20q-22 22 -22 50z" />
    <glyph glyph-name="backslash" unicode="\" horiz-adv-x="955" 
d="M-68 1299q0 27 19 45.5t46 20.5l3 2q16 0 34 -11t26 -25l955 -1638q11 -20 11 -36q0 -28 -20 -48t-49 -20q-17 0 -35.5 10.5t-25.5 25.5l-956 1638q-8 14 -8 36z" />
    <glyph glyph-name="bracketright" unicode="]" horiz-adv-x="955" 
d="M135 -614q0 28 19.5 48t48.5 20h2h341v2048h-341h-2q-29 0 -48.5 20t-19.5 48t19.5 48t48.5 20h2h399q2 0 5 1t4 1t6 -1t7 -1h46q2 0 6 1t5 1q27 0 47 -20q23 -23 23 -50q0 -2 -1 -6t-1 -6v-2162q0 -2 1 -5t1 -5q0 -27 -21 -48q-22 -22 -49 -22q-1 0 -6 0.5t-6 0.5h-46
q-1 0 -5 -0.5t-6 -0.5t-6 0.5t-6 0.5h-397h-2q-28 0 -48 20t-20 49z" />
    <glyph glyph-name="asciicircum" unicode="^" horiz-adv-x="1501" 
d="M135 341l2 2q0 1 0.5 7t0.5 7t1 2.5t1 2.5q6 18 17 29l5 5q1 1 3.5 1.5t3.5 1.5h2l544 342q18 10 33 10h3q18 0 36 -10l544 -340v-2h2q1 -1 5 -3t5 -3l5 -6q1 -1 2 -2.5t2 -2.5t1.5 -2.5t1.5 -2.5q4 -4 4 -5v-2q0 -1 1.5 -2.5t1.5 -2.5t1 -3.5t1 -3.5t0.5 -3t0.5 -3
q0 -2 1 -6t1 -5l-2 -3v-7q0 -1 -0.5 -3.5t-0.5 -3.5t-1 -3.5t-1 -3.5t-1 -1.5t-1 -1.5v-3q0 -3 -3 -6l-2 -3l-3 -2q-1 -1 -2 -2.5t-2 -2.5v-1q-1 -1 -2.5 -2t-2.5 -2l-5 -5q-1 -1 -2.5 -1.5t-2.5 -1.5h-2q-1 -1 -5.5 -3t-6.5 -3q-1 0 -3.5 -0.5t-3.5 -0.5q-3 -2 -13 -2h-14
q-1 0 -2.5 1t-2.5 1q-2 1 -8 3.5t-7 3.5l-514 256l-514 -256l-1 -2q-2 -1 -9 -2.5t-9 -2.5q-1 0 -3 -1t-3 -1h-9h-5h-7q-1 0 -1.5 1t-1.5 1h-4l-1 1q-1 1 -5.5 2t-5.5 2t-3 2.5t-3 2.5t-3 1.5t-3 1.5t-2.5 2t-2.5 2v2l-5 5q-1 1 -1.5 2.5t-1.5 2.5q0 1 -1 1.5t-1 1.5l-2 2
q0 1 -1.5 3.5t-1.5 3.5v1q0 1 -1 3t-1 3t-0.5 3t-0.5 3v7q0 1 -1 2.5t-1 2.5z" />
    <glyph glyph-name="underscore" unicode="_" 
d="M-70 -614q0 28 20 48t48 20h2h1365h2q29 0 48.5 -20t19.5 -48q0 -29 -20 -49t-48 -20h-2h-1365h-2q-28 0 -48 20t-20 49z" />
    <glyph glyph-name="grave" unicode="`" horiz-adv-x="819" 
d="M137 1229q0 28 20 48l60 61q22 27 54 27h7q38 -4 55 -32l333 -399q1 -1 1.5 -3.5t1.5 -3.5q12 -22 14 -31v-9v-5v-6q0 -6 -4 -12v-2q0 -1 -1.5 -2.5t-1.5 -2.5q-1 -1 -2 -3.5t-2 -3.5t-1.5 -2.5t-1.5 -2.5l-5 -5l-4 -4l-1 -1l-4 -2l-1 -4h-2l-10 -5q-1 0 -3.5 -1.5
t-3.5 -1.5t-3.5 -1t-3.5 -1h-7h-5h-15v2q-1 0 -8.5 2.5t-10.5 4.5q-1 1 -2.5 1.5t-2.5 1.5t-3.5 2t-3.5 2l-2 1l-408 340q-23 20 -23 53z" />
    <glyph glyph-name="a" unicode="a" 
d="M137 273v137q0 14 3 22l68 205q4 12 17 25l137 137q7 7 17 13l136 69q18 6 31 6h205q13 0 31 -6l136 -69q10 -6 17 -13l21 -19v29q0 1 -1 5t-1 5q0 27 21 48q18 22 47 22q2 0 7 -1t7 -1h56q29 0 49 -20t20 -48v-945q0 -2 0.5 -6t0.5 -5q0 -27 -20 -47q-23 -23 -50 -23
q-2 0 -6 1t-6 1h-56q-28 0 -48 19.5t-20 48.5v40l-21 -19q-9 -10 -17 -14l-136 -68q-21 -7 -31 -7h-205q-10 0 -31 7l-136 68q-8 4 -17 14l-137 136q-13 12 -17 26l-68 205q-3 7 -3 22zM341 283l60 -177l50 -50l110 -56h175l220 111v461l-220 111h-175l-110 -57l-50 -49
l-60 -178v-116z" />
    <glyph glyph-name="b" unicode="b" 
d="M203 1297q0 27 21 48q18 22 47 22q1 0 7 -1t7 -1h56q29 0 49 -20t20 -48v-517l20 19q7 7 17 13l137 69q18 6 30 6h205q13 0 31 -6l136 -69q13 -7 18 -13l136 -137q13 -13 17 -25l68 -205q4 -10 4 -22v-137q0 -12 -4 -22l-68 -205q-5 -13 -17 -26l-136 -136q-8 -8 -18 -14
l-136 -68q-21 -7 -31 -7h-205q-9 0 -30 7l-137 68q-7 4 -17 14l-20 19v-29q0 -2 0.5 -6t0.5 -5q0 -27 -20 -47q-23 -23 -50 -23q-1 0 -6 1t-6 1h-56q-29 0 -48.5 19.5t-19.5 48.5v1424q0 1 -1 5t-1 5zM410 111l220 -111h174l111 56l49 50l60 177v116l-60 178l-49 49l-111 57
h-174l-220 -111v-461z" />
    <glyph glyph-name="c" unicode="c" horiz-adv-x="1228" 
d="M137 273v137q0 14 3 22l68 205q4 12 17 25l137 137q7 7 17 13l136 69q18 6 31 6h205q13 0 31 -6l136 -69q10 -6 17 -13l130 -128q11 -7 19 -23.5t8 -31.5v-2v-6q-4 -34 -27 -50l-61 -60q-20 -20 -48 -20q-18 0 -36 11t-26 26l-58 116l-100 52h-175l-110 -57l-50 -49
l-60 -178v-116l60 -177l50 -50l110 -56h175l100 51l58 116q8 15 26 26.5t36 11.5q27 0 48 -21l61 -59q11 -7 19 -23.5t8 -31.5v-2v-7q-4 -32 -27 -49l-130 -128q-9 -10 -17 -14l-136 -68q-21 -7 -31 -7h-205q-10 0 -31 7l-136 68q-8 4 -17 14l-137 136q-13 12 -17 26
l-68 205q-3 7 -3 22z" />
    <glyph glyph-name="d" unicode="d" 
d="M137 273v137q0 14 3 22l68 205q4 12 17 25l137 137q7 7 17 13l136 69q18 6 31 6h205q13 0 31 -6l136 -69q10 -6 17 -13l21 -19v507q0 1 -1 5t-1 5q0 27 21 48q18 22 47 22q2 0 7 -1t7 -1h56q29 0 49 -20t20 -48v-1423q0 -2 0.5 -6t0.5 -5q0 -27 -20 -47q-23 -23 -50 -23
q-2 0 -6 1t-6 1h-56q-28 0 -48 19.5t-20 48.5v40l-21 -19q-9 -10 -17 -14l-136 -68q-21 -7 -31 -7h-205q-10 0 -31 7l-136 68q-8 4 -17 14l-137 136q-13 12 -17 26l-68 205q-3 7 -3 22zM341 283l60 -177l50 -50l110 -56h175l220 111v461l-220 111h-175l-110 -57l-50 -49
l-60 -178v-116z" />
    <glyph glyph-name="e" unicode="e" horiz-adv-x="1228" 
d="M137 273q0 -15 3 -22l68 -205q4 -14 17 -26l137 -136q9 -10 17 -14l136 -68q21 -7 31 -7h205q10 0 31 7l136 68q8 4 17 14l130 128q23 17 27 49v7v2q0 15 -8 31.5t-19 23.5l-61 59q-21 21 -48 21q-18 0 -36 -11.5t-26 -26.5l-58 -116l-100 -51h-175l-110 56l-50 50
l-56 167h679q28 0 48 19.5t20 48.5v205q0 10 -7 31l-68 136q-6 10 -13 17l-69 69q-7 7 -17 13l-136 69q-18 6 -31 6h-205q-13 0 -31 -6l-136 -69q-10 -6 -17 -13l-137 -137q-13 -13 -17 -25l-68 -205q-3 -8 -3 -22v-137zM369 478l32 99l50 49l110 57h175l100 -52l51 -100
v-53h-518z" />
    <glyph glyph-name="f" unicode="f" horiz-adv-x="1092" 
d="M135 819q0 28 20 48q22 22 50 22q1 0 6 -1t6 -1h124v137q0 12 4 22l68 205q9 26 34 39l137 69q18 6 30 6h127q1 0 4 1t4 1q11 0 27 -6.5t23 -13.5q22 -22 22 -50q0 -1 -1 -6t-1 -6v-56q0 -29 -19.5 -48.5t-48.5 -19.5h-121l-41 -21l-43 -126v-127h137q29 0 48.5 -19.5
t19.5 -48.5v-58q0 -1 1 -5t1 -5q0 -27 -21 -48q-22 -22 -49 -22q-1 0 -6 1t-6 1h-125v-809q0 -2 1 -6t1 -5q0 -26 -21 -47q-23 -23 -49 -23q-2 0 -6 1t-6 1h-56q-29 0 -49 20t-20 48v820h-136q-29 0 -48.5 19.5t-19.5 48.5v58q0 1 -1 5t-1 5z" />
    <glyph glyph-name="g" unicode="g" 
d="M137 273v137q0 14 3 22l68 205q4 12 17 25l137 137q7 7 17 13l136 69q18 6 31 6h205q13 0 31 -6l136 -69q10 -6 17 -13l21 -19v39q0 29 20 48.5t48 19.5h58q2 0 5 1t4 1q29 0 49 -20q22 -22 22 -50q0 -1 -0.5 -6t-0.5 -6v-1012q0 -12 -4 -22l-68 -205q-4 -12 -17 -25
l-137 -137q-9 -10 -17 -14l-136 -68q-21 -7 -31 -7h-205q-10 0 -31 7l-136 68q-7 4 -17 14l-132 130q-27 22 -27 54q0 9 4 19q0 7 3 10q7 16 26 28t37 12h9h128q26 0 47 -21l62 -60l111 -56h106l111 56l49 50l60 177v98l-21 -19q-9 -10 -17 -14l-136 -68q-21 -7 -31 -7h-205
q-10 0 -31 7l-136 68q-8 4 -17 14l-137 136q-13 12 -17 26l-68 205q-3 7 -3 22zM341 283l60 -177l50 -50l110 -56h175l220 111v461l-220 111h-175l-110 -57l-50 -49l-60 -178v-116z" />
    <glyph glyph-name="h" unicode="h" 
d="M203 1297q0 27 21 48q18 22 47 22q1 0 7 -1t7 -1h56q29 0 49 -20t20 -48v-585l88 87q7 7 17 13l137 69q18 6 31 6h204q13 0 31 -6l137 -69q25 -13 34 -39l68 -205q4 -10 4 -22v-672q0 -2 0.5 -6t0.5 -5q0 -27 -20 -47q-23 -23 -50 -23q-2 0 -6 1t-6 1h-56q-28 0 -48 19.5
t-20 48.5v668l-51 100l-101 52h-106l-118 -60l-170 -113v-636q0 -2 0.5 -6t0.5 -5q0 -27 -20 -47q-23 -23 -50 -23q-1 0 -6 1t-6 1h-56q-29 0 -48.5 19.5t-19.5 48.5v1424q0 1 -1 5t-1 5z" />
    <glyph glyph-name="i" unicode="i" horiz-adv-x="682" 
d="M137 1161q0 -28 20 -48l68 -69q20 -20 48 -20h68q28 0 48 20l68 69q21 21 21 48v68q0 27 -21 48l-68 68q-20 20 -48 20h-58h-10h-2q-13 0 -25 -5l-2 -1q-14 -5 -26 -21l-61 -61q-20 -20 -20 -48v-68zM203 819q0 27 21 48q18 22 47 22q1 0 7 -1t7 -1h56q29 0 49 -20
t20 -48v-945q0 -2 0.5 -6t0.5 -5q0 -27 -20 -47q-23 -23 -50 -23q-1 0 -6 1t-6 1h-56q-29 0 -48.5 19.5t-19.5 48.5v946q0 1 -1 5t-1 5z" />
    <glyph glyph-name="j" unicode="j" horiz-adv-x="682" 
d="M137 1161q0 -28 20 -48l68 -69q20 -20 48 -20h68q28 0 48 20l68 69q21 21 21 48v68q0 27 -21 48l-68 68q-20 20 -48 20h-58h-10h-2q-13 0 -25 -5l-2 -1q-14 -5 -26 -21l-61 -61q-20 -20 -20 -48v-68zM203 819q0 27 21 48q18 22 47 22q1 0 7 -1t7 -1h56q29 0 49 -20
t20 -48v-1423q0 -2 0.5 -5t0.5 -5q0 -28 -20 -48q-22 -22 -50 -22q-1 0 -6 0.5t-6 0.5h-56q-28 0 -48 20t-20 49v1423q0 1 -1 5t-1 5z" />
    <glyph glyph-name="k" unicode="k" horiz-adv-x="1228" 
d="M203 1297q0 27 21 48q18 22 47 22q1 0 7 -1t7 -1h56q29 0 49 -20t20 -48v-995l80 80q7 11 15 16l53 53q6 9 15 15l403 401q20 20 48 20h60h8q17 0 35 -10t25 -24q3 -3 3 -6l2 -4l2 -3q0 -1 1 -2.5t1 -2.5v-2q0 -1 0.5 -7t0.5 -7q0 -32 -27 -54l-396 -395l399 -455
q24 -21 24 -52q0 -9 -3 -17q0 -1 -1 -3t-1 -3t-1 -2t-1 -2t-0.5 -2.5t-0.5 -2.5q-1 -1 -2 -2.5t-2 -2.5t-1.5 -2.5t-1.5 -2.5q-22 -26 -55 -26h-8h-128q-30 0 -51 24l-332 386l-163 -166v-165q0 -2 0.5 -6t0.5 -5q0 -27 -20 -47q-23 -23 -50 -23q-1 0 -6 1t-6 1h-56
q-29 0 -48.5 19.5t-19.5 48.5v1424q0 1 -1 5t-1 5z" />
    <glyph glyph-name="l" unicode="l" horiz-adv-x="682" 
d="M203 1297q0 27 21 48q18 22 47 22q1 0 7 -1t7 -1h56q29 0 49 -20t20 -48v-1423q0 -2 0.5 -6t0.5 -5q0 -27 -20 -47q-23 -23 -50 -23q-1 0 -6 1t-6 1h-56q-29 0 -48.5 19.5t-19.5 48.5v1424q0 1 -1 5t-1 5z" />
    <glyph glyph-name="m" unicode="m" horiz-adv-x="2184" 
d="M203 819q0 27 21 48q18 22 47 22q1 0 7 -1t7 -1h56q29 0 49 -20t20 -48v-107l88 87q7 7 17 13l137 69q18 6 31 6h204q13 0 31 -6l137 -69q25 -13 34 -39l34 -101l126 127q7 7 17 13l137 69q18 6 31 6h204q13 0 31 -6l137 -69q25 -13 34 -39l68 -205q3 -8 3 -22v-672
q0 -2 1 -6t1 -5q0 -27 -20 -47q-23 -23 -50 -23q-2 0 -6.5 1t-5.5 1h-56q-29 0 -48.5 19.5t-19.5 48.5v668l-52 100l-100 52h-106l-118 -60l-170 -113v-636q0 -2 0.5 -6t0.5 -5q0 -27 -20 -47q-23 -23 -50 -23q-2 0 -6 1t-6 1h-56q-28 0 -48 19.5t-20 48.5v668l-51 100
l-101 52h-106l-118 -60l-170 -113v-636q0 -2 0.5 -6t0.5 -5q0 -27 -20 -47q-23 -23 -50 -23q-1 0 -6 1t-6 1h-56q-29 0 -48.5 19.5t-19.5 48.5v946q0 1 -1 5t-1 5z" />
    <glyph glyph-name="n" unicode="n" 
d="M203 819q0 27 21 48q18 22 47 22q1 0 7 -1t7 -1h56q29 0 49 -20t20 -48v-107l88 87q7 7 17 13l137 69q18 6 31 6h204q13 0 31 -6l137 -69q25 -13 34 -39l68 -205q4 -10 4 -22v-672q0 -2 0.5 -6t0.5 -5q0 -27 -20 -47q-23 -23 -50 -23q-2 0 -6 1t-6 1h-56q-28 0 -48 19.5
t-20 48.5v668l-51 100l-101 52h-106l-118 -60l-170 -113v-636q0 -2 0.5 -6t0.5 -5q0 -27 -20 -47q-23 -23 -50 -23q-1 0 -6 1t-6 1h-56q-29 0 -48.5 19.5t-19.5 48.5v946q0 1 -1 5t-1 5z" />
    <glyph glyph-name="o" unicode="o" 
d="M137 273v137q0 14 3 22l68 205q4 12 17 25l137 137q7 7 17 13l128 64l2 1q9 5 22 9h1q2 1 14 1h9h196q13 0 31 -6l136 -69q10 -6 17 -13l137 -137q13 -13 17 -25l68 -205q4 -10 4 -22v-137q0 -12 -4 -22l-68 -205q-5 -13 -17 -26l-137 -136q-9 -10 -17 -14l-136 -68
q-21 -7 -31 -7h-205q-10 0 -31 7l-136 68q-8 4 -17 14l-137 136q-13 12 -17 26l-68 205q-3 7 -3 22zM341 283l60 -177l50 -50l110 -56h175l111 56l49 50l60 177v116l-60 178l-49 49l-111 57h-175l-110 -57l-50 -49l-60 -178v-116z" />
    <glyph glyph-name="p" unicode="p" 
d="M203 819q0 27 21 48q18 22 47 22q1 0 7 -1t7 -1h56q29 0 49 -20t20 -48v-39l20 19q7 7 17 13l137 69q18 6 30 6h205q13 0 31 -6l136 -69q13 -7 18 -13l136 -137q13 -13 17 -25l68 -205q4 -10 4 -22v-137q0 -12 -4 -22l-68 -205q-5 -13 -17 -26l-136 -136q-8 -8 -18 -14
l-136 -68q-21 -7 -31 -7h-205q-9 0 -30 7l-137 68q-7 4 -17 14l-20 19v-507q0 -2 0.5 -5t0.5 -5q0 -28 -20 -48q-22 -22 -50 -22q-1 0 -6 0.5t-6 0.5h-56q-28 0 -48 20t-20 49v1423q0 1 -1 5t-1 5zM410 111l220 -111h174l111 56l49 50l60 177v116l-60 178l-49 49l-111 57
h-174l-220 -111v-461z" />
    <glyph glyph-name="q" unicode="q" 
d="M137 273v137q0 14 3 22l68 205q4 12 17 25l137 137q7 7 17 13l136 69q18 6 31 6h205q13 0 31 -6l136 -69q10 -6 17 -13l21 -19v29q0 1 -1 5t-1 5q0 27 21 48q18 22 47 22q2 0 7 -1t7 -1h56q29 0 49 -20t20 -48v-1423q0 -2 0.5 -5t0.5 -5q0 -28 -20 -48q-22 -22 -50 -22
q-2 0 -6 0.5t-6 0.5h-56q-28 0 -48 20t-20 49v517l-21 -19q-9 -10 -17 -14l-136 -68q-21 -7 -31 -7h-205q-10 0 -31 7l-136 68q-8 4 -17 14l-137 136q-13 12 -17 26l-68 205q-3 7 -3 22zM341 283l60 -177l50 -50l110 -56h175l220 111v461l-220 111h-175l-110 -57l-50 -49
l-60 -178v-116z" />
    <glyph glyph-name="r" unicode="r" horiz-adv-x="955" 
d="M203 819q0 27 21 48q18 22 47 22q1 0 7 -1t7 -1h56q29 0 49 -20t20 -48v-107l88 87q7 7 17 13l137 69q18 6 31 6h194q1 0 5 1t5 1q28 0 48 -20q22 -22 22 -50q0 -1 -0.5 -6t-0.5 -6v-56q0 -28 -20 -48t-49 -20h-189l-111 -57l-121 -121l-56 -111v-520q0 -2 0.5 -6t0.5 -5
q0 -27 -20 -47q-23 -23 -50 -23q-1 0 -6 1t-6 1h-56q-29 0 -48.5 19.5t-19.5 48.5v946q0 1 -1 5t-1 5z" />
    <glyph glyph-name="s" unicode="s" horiz-adv-x="1228" 
d="M135 68q0 19 8 33l2 1q0 1 1 2t1 2t1.5 2.5t1.5 2.5h2q22 26 53 26h10h58q18 0 36 -11.5t26 -26.5l27 -56l126 -43h184l127 43l20 41v37l-27 56l-68 35l-340 134q-1 0 -2.5 1t-2.5 1l-137 68q-21 9 -30 31l-69 137q-6 18 -6 30q0 13 6 31l69 137q13 25 39 34l205 68
q7 3 22 3h205q15 0 22 -3l205 -68q26 -9 39 -34l63 -128q14 -20 14 -40q0 -16 -9 -32q0 -1 -1.5 -2.5t-1.5 -2.5l-2 -2q-1 -1 -1 -1.5t-1 -1.5h-1q-22 -26 -53 -26h-11h-58q-18 0 -35.5 11.5t-25.5 26.5l-27 56l-127 43h-184l-126 -43l-12 -26l19 -41l68 -34l340 -135
q1 0 2.5 -0.5t2.5 -0.5l136 -68q22 -9 31 -31l68 -137q7 -21 7 -30v-69q0 -9 -7 -30l-68 -137q-13 -25 -39 -34l-205 -68q-10 -4 -22 -4h-205q-12 0 -22 4l-205 68q-26 9 -39 34l-64 128q-13 19 -13 39z" />
    <glyph glyph-name="t" unicode="t" horiz-adv-x="819" 
d="M67 819q0 28 20 48q22 22 50 22q1 0 5 -1t6 -1h125v400q0 1 -1 5t-1 5q0 27 21 48q7 9 22 15.5t26 6.5q1 0 6 -1t7 -1h57q28 0 48 -19.5t20 -48.5v-410h136q29 0 49 -20t20 -48v-58q0 -1 0.5 -5t0.5 -5q0 -28 -20 -48q-22 -22 -50 -22q-2 0 -6 1t-6 1h-124v-809
q0 -2 1 -6t1 -5q0 -26 -21 -47q-23 -23 -49 -23q-2 0 -6 1t-6 1h-57q-29 0 -48.5 19.5t-19.5 48.5v820h-136q-29 0 -49 20t-20 48v58q0 1 -0.5 5t-0.5 5z" />
    <glyph glyph-name="u" unicode="u" 
d="M203 819q0 27 21 48q18 22 47 22q1 0 7 -1t7 -1h56q29 0 49 -20t20 -48v-667l51 -101l100 -51h106l118 60l171 112v637q0 1 -1 5t-1 5q0 27 21 48q22 22 49 22q2 0 6 -1t6 -1h56q29 0 49 -20t20 -48v-945q0 -2 0.5 -6t0.5 -5q0 -27 -20 -47q-23 -23 -50 -23q-2 0 -6 1
t-6 1h-56q-28 0 -48 19.5t-20 48.5v108l-89 -87q-9 -10 -17 -14l-137 -68q-21 -7 -30 -7h-205q-10 0 -31 7l-136 68q-26 13 -35 40l-68 204q-3 7 -3 23v672q0 1 -1 5t-1 5z" />
    <glyph glyph-name="v" unicode="v" horiz-adv-x="1092" 
d="M67 819q0 7 8 31q0 1 1 2.5t1 2.5l2 2l1 1q0 1 1 2t1 2q7 10 23.5 18.5t29.5 8.5q1 0 6 -1t6 -1h58q19 0 37 -12t26 -30l278 -668l278 668q8 18 25.5 30t37.5 12h58h11q33 0 53 -23l6 -9v-2l2 -1q9 -16 9 -33q0 -16 -11 -36l-402 -938q-5 -19 -22.5 -33.5t-37.5 -16.5
q-1 0 -3.5 -1t-3.5 -1t-2.5 1t-2.5 1q-11 0 -14 2q-15 4 -29 18.5t-18 29.5l-403 938q-10 18 -10 36z" />
    <glyph glyph-name="w" unicode="w" horiz-adv-x="1638" 
d="M135 819q0 16 10 34q1 1 1.5 2.5t1.5 2.5l2 2l2 2q23 27 53 27q1 0 5 -1t5 -1h58q20 0 39 -12.5t26 -31.5l208 -575l207 567q4 19 20 34.5t36 17.5q1 0 5 1t5 1h2q1 0 3.5 -1t3.5 -1q20 -2 37 -17.5t21 -34.5l206 -567l208 575q7 19 26 31.5t39 12.5h58q1 0 5 1t6 1
q32 0 53 -25q1 -1 1.5 -3t1.5 -3q0 -1 1 -1.5t1 -1.5h1q11 -20 11 -36t-9 -32l-336 -939q-4 -20 -22 -36t-40 -17q-1 0 -2.5 -1t-2.5 -1h-1q-22 2 -41 17.5t-24 37.5l-207 567l-206 -567q-4 -19 -20.5 -35t-36.5 -18h-6q-1 0 -2 -1t-2 -1q-2 0 -4 1t-4 1h-2
q-19 2 -35.5 17.5t-20.5 35.5l-335 937v2q-10 18 -10 32z" />
    <glyph glyph-name="x" unicode="x" horiz-adv-x="1228" 
d="M135 -137q0 28 22 50l336 428l-336 429q-22 22 -22 49q0 12 7 28q0 1 0.5 2.5t0.5 2.5q1 1 2 2.5t2 2.5q9 13 26 21.5t32 8.5h8h60q32 0 53 -25l288 -367l289 367q21 25 53 25h58h10q33 0 53 -23q1 -1 3.5 -5.5t3.5 -5.5q0 -1 1.5 -2.5t1.5 -2.5t1 -3.5t1 -3.5
q5 -12 5 -22q0 -27 -22 -49l-336 -429l336 -428q22 -22 22 -50q0 -11 -7 -27q0 -1 -1 -2.5t-1 -2.5q0 -2 -3 -5q-9 -13 -26 -22t-32 -9h-9h-59q-31 0 -53 26l-289 367l-288 -367q-22 -26 -53 -26h-58h-10q-32 0 -53 24q-1 1 -3.5 5t-3.5 5q0 1 -1.5 2.5t-1.5 2.5t-1 3.5
t-1 3.5q-5 13 -5 22z" />
    <glyph glyph-name="y" unicode="y" horiz-adv-x="1092" 
d="M67 819q0 7 8 31q0 1 1 2.5t1 2.5l2 2l1 1q0 1 1 2t1 2q7 10 23.5 18.5t29.5 8.5q1 0 6 -1t6 -1h58q19 0 37 -12t26 -30l278 -668l278 668q8 18 25.5 30t37.5 12h58h11q33 0 53 -23l6 -9v-2l2 -1q9 -16 9 -33q0 -16 -11 -36l-402 -938q-6 -16 -7 -17h-2l-200 -470
q-8 -17 -26 -29t-37 -12h-58h-10q-32 0 -53 24q-1 1 -1.5 2.5t-1.5 2.5q0 1 -2 2t-2 2t-0.5 1.5t-0.5 1.5q-9 16 -9 33q0 22 12 37l227 510l-365 850q-10 18 -10 36z" />
    <glyph glyph-name="z" unicode="z" horiz-adv-x="1228" 
d="M135 819q0 28 20 48q7 9 22 15.5t26 6.5q1 0 6.5 -1t7.5 -1h798h9q33 0 53 -23q1 -1 3.5 -5.5t3.5 -5.5q0 -1 1.5 -2.5t1.5 -2.5t1 -3.5t1 -3.5t1 -2.5t1 -2.5q1 -2 1 -17q0 -32 -20 -49l-592 -770h544q28 0 48 -20t20 -48v-58q0 -2 1 -6t1 -5q0 -26 -21 -47
q-23 -23 -49 -23q-2 0 -6 1t-6 1h-799h-8q-32 0 -53 24q-1 1 -3.5 5t-3.5 5l-2 2q0 1 -0.5 1.5t-0.5 1.5t-1 3.5t-1 3.5t-1 2.5t-1 2.5q-1 3 -1 17q0 33 20 50l592 770h-544q-29 0 -48.5 19.5t-19.5 48.5v58q0 1 -1 5t-1 5z" />
    <glyph glyph-name="braceleft" unicode="{" horiz-adv-x="955" 
d="M137 478q0 15 5 27l478 1092q8 18 26 30.5t37 12.5q29 0 48.5 -20t19.5 -48q0 -17 -5 -29l-466 -1065l466 -1065q5 -12 5 -29q0 -28 -19.5 -48t-48.5 -20q-19 0 -37 12t-26 30l-478 1093q-5 12 -5 27z" />
    <glyph glyph-name="bar" unicode="|" horiz-adv-x="546" 
d="M205 -614v2184v2q0 29 19 48.5t47 19.5q29 0 49.5 -20t20.5 -48v-2v-2184v-2q0 -28 -19.5 -48t-48.5 -20t-48.5 20t-19.5 48v2z" />
    <glyph glyph-name="braceright" unicode="}" horiz-adv-x="955" 
d="M205 -616q0 17 5 29l466 1065l-466 1065q-5 12 -5 27q0 27 19.5 46.5t46.5 21.5q20 0 39 -11.5t26 -29.5l478 -1092q5 -12 5 -27t-5 -27l-478 -1093q-7 -18 -25.5 -30t-37.5 -12q-29 0 -48.5 20t-19.5 48z" />
    <glyph glyph-name="asciitilde" unicode="~" horiz-adv-x="1638" 
d="M137 271q0 -29 19.5 -48.5t48.5 -19.5t48.5 19.5t19.5 48.5v2v121l51 101l101 51h106l116 -58l268 -201q1 -1 4.5 -3.5t5.5 -3.5l137 -68q21 -7 30 -7h137q10 0 31 7l136 68q25 13 34 39l67 203l1 2q4 14 4 22v7v130v1q0 29 -20 49t-48 20h-2q-28 0 -47.5 -20t-19.5 -49
v-1v-122l-51 -100l-101 -51h-105l-116 58l-268 201q-2 1 -6 3.5t-5 3.5l-136 68q-21 7 -31 7h-136q-10 0 -31 -7l-137 -68q-25 -13 -34 -39l-66 -204l-2 -1q-3 -10 -3 -22v-7v-130v-2z" />
    <glyph glyph-name="uni007F" horiz-adv-x="1092" 
d="M-68 -137v1434v2q0 29 19 48.5t47 19.5q18 0 36 -10q14 8 34 8h69q20 0 34 -8q14 8 34 8h68q20 0 34 -8q14 8 34 8h69q20 0 34 -8q14 8 34 8h68q20 0 34 -8q14 8 34 8h69q20 0 34 -8q14 8 34 8h68q20 0 34 -8q14 8 34 8h69q20 0 34 -8q14 8 34 8h68q29 0 49 -20t20 -48
v-1434q0 -28 -20 -48t-49 -20q-18 0 -34 9q-16 -9 -34 -9h-68q-18 0 -34 9q-16 -9 -35 -9h-68q-18 0 -34 9q-16 -9 -34 -9h-68q-18 0 -34 9q-16 -9 -35 -9h-68q-18 0 -34 9q-16 -9 -34 -9h-68q-19 0 -35 9q-16 -9 -34 -9h-68q-18 0 -34 9q-16 -9 -34 -9h-68q-19 0 -35 9
q-16 -9 -34 -9h-68q-28 0 -48 19.5t-20 48.5z" />
    <glyph glyph-name="uni00A0" unicode="&#xa0;" horiz-adv-x="1092" 
 />
    <glyph glyph-name="uni00AD" unicode="&#xad;" horiz-adv-x="1774" 
d="M203 478q0 28 19.5 48t48.5 20h2h1229h2q28 0 48 -20t20 -48t-20 -48t-48 -20h-2h-1229h-2q-29 0 -48.5 20t-19.5 48z" />
    <glyph glyph-name="Agrave" unicode="&#xc0;" 
d="M67 -137q0 17 10 35l539 1416q4 15 16.5 29t26.5 19q1 0 3.5 1t3.5 1t3 0.5t3 0.5h7h2q1 0 1.5 1t1.5 1l2 -2h3h2q20 -2 37 -17.5t21 -35.5l540 -1414q10 -18 10 -35q0 -14 -10 -32q0 -1 -1 -2.5t-1 -2.5l-2 -2q-1 -1 -1 -1.5t-1 -1.5h-1q-22 -26 -53 -26h-10h-58
q-20 0 -38.5 12.5t-25.5 30.5l-116 299h-597l-116 -299q-7 -18 -25 -30.5t-38 -12.5h-58q-1 0 -5 -1t-5 -1q-31 0 -53 26q-1 1 -2 2.5t-2 2.5q0 1 -1.5 2.5t-1.5 2.5q-10 18 -10 34zM464 341h437l-218 564zM819 1845q0 27 21 48l59 61q22 27 55 27h7q37 -4 54 -32l333 -399
q1 -1 2 -3.5t2 -3.5q11 -19 13 -31v-8v-6v-6q0 -8 -3 -12v-2q0 -1 -1.5 -2.5t-1.5 -2.5q-1 -1 -2 -3.5t-2 -3.5t-1.5 -2.5t-1.5 -2.5l-5 -5l-4 -4l-2 -1l-3 -2l-2 -3h-1l-11 -6q-1 0 -3 -1.5t-3 -1.5t-3.5 -1t-3.5 -1h-7h-5h-16v2l-7 3q-8 2 -11 4q-1 1 -2.5 1.5t-2.5 1.5
t-3.5 2t-3.5 2l-2 1l-408 340q-24 21 -24 53z" />
    <glyph glyph-name="Acircumflex" unicode="&#xc2;" 
d="M67 -137q0 17 10 35l539 1416q4 15 16.5 29t26.5 19q1 0 3.5 1t3.5 1t3 0.5t3 0.5h7h2q1 0 1.5 1t1.5 1l2 -2h3h2q20 -2 37 -17.5t21 -35.5l540 -1414q10 -18 10 -35q0 -14 -10 -32q0 -1 -1 -2.5t-1 -2.5l-2 -2q-1 -1 -1 -1.5t-1 -1.5h-1q-22 -26 -53 -26h-10h-58
q-20 0 -38.5 12.5t-25.5 30.5l-116 299h-597l-116 -299q-7 -18 -25 -30.5t-38 -12.5h-58q-1 0 -5 -1t-5 -1q-31 0 -53 26q-1 1 -2 2.5t-2 2.5q0 1 -1.5 2.5t-1.5 2.5q-10 18 -10 34zM67 1504l1 1q0 1 1 7t1 7t1 2.5t1 2.5q6 18 17 29l5 5q1 1 3.5 2t3.5 2h1l545 341
q18 10 32 10h4q18 0 36 -10l544 -340v-1h2q9 -6 10 -7l5 -5q1 -1 1.5 -2.5t1.5 -2.5t2 -3t2 -3q3 -3 3 -5v-1q0 -1 2 -3t2 -3t0.5 -3t0.5 -3t1 -3.5t1 -3.5q0 -2 1 -5t1 -5l-2 -4v-7q0 -1 -1 -3t-1 -3t-0.5 -3.5t-0.5 -3.5t-1 -2t-1 -2v-3q0 -2 -3 -5l-2 -4l-4 -1
q-1 -1 -1.5 -3t-1.5 -3v-1q-1 -1 -2.5 -2t-2.5 -2l-5 -5q-1 -1 -2.5 -1.5t-2.5 -1.5h-2q-1 -1 -6 -2.5t-6 -2.5q-1 0 -3.5 -1t-3.5 -1q-3 -2 -13 -2h-14q-1 0 -2.5 1t-2.5 1q-1 1 -8 3.5t-8 3.5l-513 256l-514 -256l-2 -2q-3 -1 -9 -2.5t-8 -2.5q-1 0 -3.5 -1t-3.5 -1h-8h-5
h-7q-1 0 -2 1t-2 1h-3l-2 2q-1 1 -5 1.5t-5 1.5t-3.5 2.5t-3.5 2.5t-2.5 2t-2.5 2t-2.5 1.5t-2.5 1.5v2l-5 5q-1 1 -1.5 2.5t-1.5 2.5q0 1 -1 1.5t-1 1.5l-2 2q0 1 -1.5 3.5t-1.5 3.5v2q0 1 -1 2.5t-1 2.5t-1 3.5t-1 3.5v6q0 1 -0.5 3t-0.5 3zM464 341h437l-218 564z" />
    <glyph glyph-name="Atilde" unicode="&#xc3;" 
d="M0 1502q0 -28 20 -48t48 -20q29 0 49 20t20 48v2v121l51 100l100 52h106l116 -58l268 -202q2 -1 5.5 -3.5t4.5 -3.5l137 -68q21 -7 31 -7h136q10 0 31 7l137 68q25 12 34 40l66 203l2 1q3 10 3 23v6v130v2q0 29 -19.5 48.5t-48.5 19.5h-2q-28 0 -47 -19.5t-19 -48.5v-2
v-121l-51 -101l-101 -51h-106l-116 58l-268 202q-1 1 -5 3t-5 3l-137 69q-18 6 -30 6h-137q-13 0 -31 -6l-136 -69q-25 -13 -34 -39l-67 -203l-2 -2q-3 -10 -3 -22v-7v-129v-2zM67 -137q0 17 10 35l539 1416q4 15 16.5 29t26.5 19q1 0 3.5 1t3.5 1t3 0.5t3 0.5h7h2
q1 0 1.5 1t1.5 1l2 -2h3h2q20 -2 37 -17.5t21 -35.5l540 -1414q10 -18 10 -35q0 -14 -10 -32q0 -1 -1 -2.5t-1 -2.5l-2 -2q-1 -1 -1 -1.5t-1 -1.5h-1q-22 -26 -53 -26h-10h-58q-20 0 -38.5 12.5t-25.5 30.5l-116 299h-597l-116 -299q-7 -18 -25 -30.5t-38 -12.5h-58
q-1 0 -5 -1t-5 -1q-31 0 -53 26q-1 1 -2 2.5t-2 2.5q0 1 -1.5 2.5t-1.5 2.5q-10 18 -10 34zM464 341h437l-218 564z" />
    <glyph glyph-name="Egrave" unicode="&#xc8;" 
d="M203 -137q0 1 1 6t1 6v1412q0 1 -1 5t-1 5q0 27 21 48q18 22 47 22q1 0 7 -1t7 -1h797q2 0 5 1t5 1q28 0 48 -20q22 -22 22 -50q0 -1 -0.5 -6t-0.5 -6v-56q0 -28 -20 -48t-49 -20h-682v-478h341q28 0 48 -20t20 -49v-58q0 -2 1 -5t1 -5q0 -27 -21 -48q-22 -22 -49 -22
q-1 0 -6 1t-6 1h-329v-478h682q29 0 49 -20t20 -48v-58q0 -2 0.5 -6t0.5 -5q0 -27 -20 -47q-23 -23 -50 -23q-2 0 -6 1t-6 1h-797q-1 0 -5 -1t-5 -1q-27 0 -48 21q-22 22 -22 49zM415 1845q0 28 20 48l60 61q22 27 55 27h6q38 -4 55 -32l333 -399q1 -1 1.5 -3.5t1.5 -3.5
q12 -22 14 -31v-8v-6v-6q0 -6 -4 -12v-2q0 -1 -1.5 -2.5t-1.5 -2.5q-1 -1 -1.5 -3.5t-1.5 -3.5t-2 -2.5t-2 -2.5l-5 -5l-3 -4l-2 -1l-3 -2l-2 -3h-2l-10 -6q-1 0 -3.5 -1.5t-3.5 -1.5t-3.5 -1t-3.5 -1h-7h-5h-15v2q-1 0 -8.5 2.5t-10.5 4.5q-1 1 -2.5 1.5t-2.5 1.5t-3.5 2
t-3.5 2l-1 1l-408 340q-24 21 -24 53z" />
    <glyph glyph-name="Ecircumflex" unicode="&#xca;" 
d="M72 1504l1 1q0 1 1 7t1 7t1 2.5t1 2.5q6 18 17 29l5 5q1 1 3.5 2t3.5 2h2l544 341q18 10 32 10h4q18 0 36 -10l544 -340v-1h2q9 -6 10 -7l5 -5q1 -1 2 -2.5t2 -2.5t1.5 -3t1.5 -3q3 -3 3 -5v-1q0 -1 2 -3t2 -3t0.5 -3t0.5 -3t1 -3.5t1 -3.5q0 -2 1 -5t1 -5l-2 -4v-7
q0 -1 -1 -3t-1 -3t-0.5 -3.5t-0.5 -3.5t-1 -2t-1 -2v-3q0 -2 -3 -5l-2 -4l-3 -1q-1 -1 -2 -3t-2 -3v-1q-1 -1 -2.5 -2t-2.5 -2l-5 -5q-1 -1 -2.5 -1.5t-2.5 -1.5h-2q-2 -1 -6 -2.5t-6 -2.5q-1 0 -3.5 -1t-3.5 -1q-3 -2 -13 -2h-14q-1 0 -2.5 1t-2.5 1q-2 1 -8.5 3.5
t-7.5 3.5l-513 256l-514 -256l-2 -2q-3 -1 -9 -2.5t-8 -2.5q-1 0 -3.5 -1t-3.5 -1h-8h-5h-7q-1 0 -1.5 1t-1.5 1h-4l-2 2q-2 1 -5 1.5t-5 1.5q-1 1 -3.5 2.5t-3.5 2.5t-2.5 2t-2.5 2t-2.5 1.5t-2.5 1.5v2l-5 5q-1 1 -1.5 2.5t-1.5 2.5q0 1 -1 1.5t-1 1.5l-2 2q0 1 -1.5 3.5
t-1.5 3.5v2q0 1 -1 2.5t-1 2.5t-1 3.5t-1 3.5v6q0 1 -0.5 3t-0.5 3zM203 -137q0 1 1 6t1 6v1412q0 1 -1 5t-1 5q0 27 21 48q18 22 47 22q1 0 7 -1t7 -1h797q2 0 5 1t5 1q28 0 48 -20q22 -22 22 -50q0 -1 -0.5 -6t-0.5 -6v-56q0 -28 -20 -48t-49 -20h-682v-478h341
q28 0 48 -20t20 -49v-58q0 -2 1 -5t1 -5q0 -27 -21 -48q-22 -22 -49 -22q-1 0 -6 1t-6 1h-329v-478h682q29 0 49 -20t20 -48v-58q0 -2 0.5 -6t0.5 -5q0 -27 -20 -47q-23 -23 -50 -23q-2 0 -6 1t-6 1h-797q-1 0 -5 -1t-5 -1q-27 0 -48 21q-22 22 -22 49z" />
    <glyph glyph-name="egrave" unicode="&#xe8;" horiz-adv-x="1228" 
d="M137 273q0 -15 3 -22l68 -205q4 -14 17 -26l137 -136q9 -10 17 -14l136 -68q21 -7 31 -7h205q10 0 31 7l136 68q8 4 17 14l130 128q23 17 27 49v7v2q0 15 -8 31.5t-19 23.5l-61 59q-21 21 -48 21q-18 0 -36 -11.5t-26 -26.5l-58 -116l-100 -51h-175l-110 56l-50 50
l-56 167h679q28 0 48 19.5t20 48.5v205q0 10 -7 31l-68 136q-6 10 -13 17l-69 69q-7 7 -17 13l-136 69q-18 6 -31 6h-205q-13 0 -31 -6l-136 -69q-10 -6 -17 -13l-137 -137q-13 -13 -17 -25l-68 -205q-3 -8 -3 -22v-137zM369 478l32 99l50 49l110 57h175l100 -52l51 -100
v-53h-518zM375 1367q0 27 21 48l60 61q22 28 54 28h7q15 -2 31.5 -11.5t23.5 -21.5l333 -399q1 -1 1.5 -3.5t1.5 -3.5q12 -22 14 -31v-8v-5v-7q0 -6 -4 -12v-2q0 -1 -1.5 -2.5t-1.5 -2.5q-1 -1 -2 -3.5t-2 -3.5t-1.5 -2.5t-1.5 -2.5l-5 -5l-4 -3l-1 -2l-4 -2l-1 -3h-2
l-10 -5q-1 0 -3.5 -2t-3.5 -2t-3.5 -1t-3.5 -1h-7h-5h-15v2q-1 0 -8.5 2.5t-10.5 4.5q-1 1 -2.5 1.5t-2.5 1.5t-3.5 2t-3.5 2l-2 2l-408 339q-24 21 -24 53z" />
    <glyph glyph-name="ecircumflex" unicode="&#xea;" horiz-adv-x="1228" 
d="M32 1026l2 1q0 1 1 7t1 7t1 2.5t1 2.5q6 18 17 29l5 5q1 1 3.5 2t3.5 2h1l545 341q18 10 32 10h4q17 0 35 -10l545 -340v-1h2q9 -6 10 -7l5 -5q1 -1 1.5 -2.5t1.5 -2.5t2 -2.5t2 -2.5q3 -3 3 -6v-1q0 -1 2 -2.5t2 -2.5t0.5 -3.5t0.5 -3.5t1 -3.5t1 -3.5q0 -2 1 -5t1 -5
l-2 -4v-7q0 -1 -1 -3t-1 -3t-0.5 -3.5t-0.5 -3.5t-1 -2t-1 -2v-3q0 -1 -4 -5l-1 -4l-4 -1q-1 -1 -1.5 -2.5t-1.5 -2.5v-2q-1 -1 -2.5 -1.5t-2.5 -1.5l-5 -6q-1 -1 -2.5 -1.5t-2.5 -1.5h-2q-1 -1 -6 -2.5t-6 -2.5q-1 0 -3.5 -1t-3.5 -1q-3 -2 -14 -2h-13q-1 0 -2.5 1t-2.5 1
q-2 1 -8.5 3.5t-7.5 3.5l-513 256l-514 -256l-2 -2q-2 -1 -8.5 -2.5t-8.5 -2.5q-1 0 -3.5 -1t-3.5 -1h-8h-5h-7q-1 0 -2 1t-2 1h-3l-2 2q-1 1 -5 1.5t-5 1.5t-3.5 2.5t-3.5 2.5t-2.5 2t-2.5 2t-2.5 1.5t-2.5 1.5v2l-5 5q-1 1 -2 2.5t-2 2.5q0 1 -0.5 2t-0.5 2l-2 1
q0 1 -1.5 3.5t-1.5 3.5v2q0 1 -1 2.5t-1 2.5t-1 3.5t-1 3.5v7q0 1 -1 2.5t-1 2.5zM137 273q0 -15 3 -22l68 -205q4 -14 17 -26l137 -136q9 -10 17 -14l136 -68q21 -7 31 -7h205q10 0 31 7l136 68q8 4 17 14l130 128q23 17 27 49v7v2q0 15 -8 31.5t-19 23.5l-61 59
q-21 21 -48 21q-18 0 -36 -11.5t-26 -26.5l-58 -116l-100 -51h-175l-110 56l-50 50l-56 167h679q28 0 48 19.5t20 48.5v205q0 10 -7 31l-68 136q-6 10 -13 17l-69 69q-7 7 -17 13l-136 69q-18 6 -31 6h-205q-13 0 -31 -6l-136 -69q-10 -6 -17 -13l-137 -137q-13 -13 -17 -25
l-68 -205q-3 -8 -3 -22v-137zM369 478l32 99l50 49l110 57h175l100 -52l51 -100v-53h-518z" />
    <glyph glyph-name="uni2000" unicode="&#x2000;" horiz-adv-x="991" 
 />
    <glyph glyph-name="uni2001" unicode="&#x2001;" horiz-adv-x="1983" 
 />
    <glyph glyph-name="uni2002" unicode="&#x2002;" horiz-adv-x="991" 
 />
    <glyph glyph-name="uni2003" unicode="&#x2003;" horiz-adv-x="1983" 
 />
    <glyph glyph-name="uni2004" unicode="&#x2004;" horiz-adv-x="661" 
 />
    <glyph glyph-name="uni2005" unicode="&#x2005;" horiz-adv-x="495" 
 />
    <glyph glyph-name="uni2006" unicode="&#x2006;" horiz-adv-x="330" 
 />
    <glyph glyph-name="uni2007" unicode="&#x2007;" horiz-adv-x="330" 
 />
    <glyph glyph-name="uni2008" unicode="&#x2008;" horiz-adv-x="247" 
 />
    <glyph glyph-name="uni2009" unicode="&#x2009;" horiz-adv-x="396" 
 />
    <glyph glyph-name="uni200A" unicode="&#x200a;" horiz-adv-x="110" 
 />
    <glyph glyph-name="uni2010" unicode="&#x2010;" horiz-adv-x="1774" 
d="M203 478q0 28 19.5 48t48.5 20h2h1229h2q28 0 48 -20t20 -48t-20 -48t-48 -20h-2h-1229h-2q-29 0 -48.5 20t-19.5 48z" />
    <glyph glyph-name="uni2011" unicode="&#x2011;" horiz-adv-x="1774" 
d="M203 478q0 28 19.5 48t48.5 20h2h1229h2q28 0 48 -20t20 -48t-20 -48t-48 -20h-2h-1229h-2q-29 0 -48.5 20t-19.5 48z" />
    <glyph glyph-name="figuredash" unicode="&#x2012;" horiz-adv-x="1774" 
d="M203 478q0 28 19.5 48t48.5 20h2h1229h2q28 0 48 -20t20 -48t-20 -48t-48 -20h-2h-1229h-2q-29 0 -48.5 20t-19.5 48z" />
    <glyph glyph-name="endash" unicode="&#x2013;" horiz-adv-x="1429" 
d="M203 478q0 28 14.5 48t36.5 20h1h920h1q21 0 36 -20t15 -48t-15 -48t-36 -20h-1h-920h-1q-22 0 -36.5 20t-14.5 48z" />
    <glyph glyph-name="emdash" unicode="&#x2014;" horiz-adv-x="2453" 
d="M203 478q0 28 29 48t73 20h3h1838h3q42 0 72 -20t30 -48t-30 -48t-72 -20h-3h-1838h-3q-44 0 -73 20t-29 48z" />
    <glyph glyph-name="uni202F" unicode="&#x202f;" horiz-adv-x="396" 
 />
    <glyph glyph-name="uni205F" unicode="&#x205f;" horiz-adv-x="495" 
 />
    <glyph glyph-name="uni25FC" unicode="&#x25fc;" horiz-adv-x="887" 
d="M0 0v887h887v-887h-887z" />
  </font>
</defs>
</svg>
