<?xml version="1.0" standalone="no"?>
<!DOCTYPE svg PUBLIC "-//W3C//DTD SVG 1.1//EN" "http://www.w3.org/Graphics/SVG/1.1/DTD/svg11.dtd" >
<svg xmlns="http://www.w3.org/2000/svg" xmlns:xlink="http://www.w3.org/1999/xlink" version="1.1">
<metadata>
Created by FontForge 20170731 at Thu Mar  8 18:42:52 2018
 By Aleksey,,,
Copyright (c) 2017, antoine
</metadata>
<defs>
<font id="Hershey-Noailles-timesb" horiz-adv-x="1365" >
  <font-face 
    font-family="Hershey-Noailles-timesb"
    font-weight="400"
    font-stretch="normal"
    units-per-em="2048"
    panose-1="2 0 5 3 0 0 0 0 0 0"
    ascent="1365"
    descent="-683"
    x-height="853"
    cap-height="1331"
    bbox="-305.333 -649 2287 1879"
    underline-thickness="68"
    underline-position="-681"
    unicode-range="U+000D-25FC"
  />
<missing-glyph horiz-adv-x="748" 
d="M68 0v1365h544v-1365h-544zM136 68h408v1229h-408v-1229z" />
    <glyph glyph-name=".notdef" horiz-adv-x="748" 
d="M68 0v1365h544v-1365h-544zM136 68h408v1229h-408v-1229z" />
    <glyph glyph-name="glyph1" horiz-adv-x="0" 
 />
    <glyph glyph-name="uni000D" unicode="&#xd;" horiz-adv-x="682" 
 />
    <glyph glyph-name="space" unicode=" " horiz-adv-x="1092" 
 />
    <glyph glyph-name="exclam" unicode="!" horiz-adv-x="819" 
d="M239 0v-68q0 -14 10 -24l68 -68q10 -10 24 -11h69q14 0 23 11l69 68q10 10 10 24v68q0 14 -10 24l-69 68q-10 10 -23 10h-64h-5h-6l-4 -1h-2h-1v-2h-4v-2q-9 -3 -10 -8l-65 -65q-10 -10 -10 -24zM239 1089v3v137q0 14 10 24l65 65v1l2 2h1v2h2q8 8 22 8h5h58h6q9 0 12 -2
q2 -2 5 -3l3 -2l2 -1l1 -2l2 -2l67 -66q10 -10 10 -24v-137v-3l-68 -545v-198v-5q0 -10 -7 -20v-2l-2 -2h-2l-1 -1q-9 -9 -22 -9h-6h-63q-14 0 -24 10.5t-10 23.5v203z" />
    <glyph glyph-name="quotedbl" unicode="&#x22;" horiz-adv-x="1228" 
d="M239 811v1v2v3v2v2v408q0 14 10 24l65 65q7 10 21 13h3h3h2h5q12 -3 21 -13l1 -2l63 -63q10 -10 11 -24q0 -7 -2 -10l-137 -408q0 -2 -1 -5l-2 -4v-2l-2 -1l-1 -2v-2h-2v-1q-3 -3 -5 -4h-2v-2h-2l-1 -1h-2h-2l-1 -2h-2h-2h-2h-1h-2h-2h-1h-2h-2h-1l-2 2h-2h-2l-1 1h-2
l-2 2l-1 2h-2v2h-2v1h-2v2h-1v2l-2 3h-2v4l-1 1v2v2h-2zM853 811v1v2v3v2v2v408q0 14 11 24l64 65q7 10 21 13h3h4h1h6q12 -3 20 -13l2 -2l63 -63q10 -10 10 -24q0 -7 -2 -10l-136 -408q0 -2 -2 -5l-2 -4v-2l-1 -1l-2 -2v-2h-2v-1q-3 -3 -5 -4h-1v-2h-2l-2 -1h-2h-1l-2 -2
h-2h-1h-2h-2h-2h-1h-2h-2h-1h-2l-2 2h-1h-2l-2 1h-2v2h-1l-2 2h-2v2h-1v1h-2v2l-2 2l-2 3h-1v4l-2 1v2v2h-2z" />
    <glyph glyph-name="numbersign" unicode="#" horiz-adv-x="1501" 
d="M171 273q0 14 10 24t24 10h235l74 342h-241q-14 0 -24 10t-10 23.5t10 24t24 10.5h256l188 860q7 27 34 27q14 0 24 -10t10 -24v-7l-186 -846h340l187 860q8 27 35 27q14 0 24 -10t10 -24v-7l-186 -846h220q14 0 24 -10.5t10 -24t-10.5 -23.5t-23.5 -10h-236l-73 -342
h241q14 0 24 -10t10 -24t-10.5 -24t-23.5 -10h-256l-188 -860q-7 -27 -34 -28q-14 0 -24 10.5t-10 24.5v6l186 847h-340l-188 -860q-7 -27 -34 -28q-14 0 -24 10.5t-10 24.5v6l186 847h-220q-14 0 -24 10t-10 24zM510 307h340l73 342h-339z" />
    <glyph glyph-name="dollar" unicode="$" 
d="M171 137v136q0 14 10 24t24 10h136q14 0 24 -10t10 -24v-136q0 -14 -10 -24.5t-24 -10.5h-68q-9 0 -15 4l42 -86l60 -58l152 -51v656l-44 15q-5 0 -9 3l-205 137q-12 12 -12 14l-68 136q-3 7 -3 15v205q0 14 10 24l135 135l1 2q7 7 18 10l177 58v249q0 14 10 24t24 10
t24 -10t10 -24v-239h205v239q0 14 10.5 24t24 10t23.5 -10t10 -24v-249l181 -60q10 -5 14 -8l68 -69q5 -5 7 -8l68 -137q3 -7 4 -15v-137q0 -14 -10.5 -24t-23.5 -10h-137q-14 0 -24 10.5t-10 23.5v137q0 14 10 24t24 10h68q9 0 16 -3l-43 85l-60 58l-152 51v-587l45 -15
q5 0 8 -4l205 -136q12 -12 12 -14l68 -136q3 -7 4 -16v-204q0 -9 -4 -16l-68 -136q-2 -3 -7 -9l-66 -66l-2 -2q-7 -7 -17 -10l-178 -58v-250q0 -14 -10 -24t-23.5 -10t-24 10.5t-10.5 23.5v239h-205v-239q0 -14 -10 -24t-24 -10t-24 10.5t-10 23.5v250l-181 59q-10 5 -14 9
l-68 68q-5 5 -7 9l-68 136q-3 7 -3 16zM239 207q3 29 29 32h-29v-32zM239 894q2 12 15 22l-12 24q-3 7 -3 16v-60v-2zM278 239q29 -7 29 -34v34h-29zM307 964l60 -119l125 -62l20 -8v474l-147 -48l-58 -117v-120zM580 -102h205v578l-205 68v-646zM580 753l205 -69v579h-205
v-510zM853 -89l147 48l58 118v188l-60 119l-124 61l-21 9v-543zM1058 922h29q-29 7 -29 34v-34zM1097 922h29v32q-3 -29 -29 -32zM1111 312q13 11 15 23v-62q0 9 -3 15z" />
    <glyph glyph-name="percent" unicode="%" horiz-adv-x="1638" 
d="M171 -136.5q0 13.5 8 22.5l1121 1309l-197 -67q-3 -2 -11 -2h-205q-7 0 -10 2l-170 56q10 -10 10 -23v-137q0 -9 -4 -15l-68 -137q-7 -9 -15 -15l-137 -69q-7 -3 -15 -3h-137q-14 0 -24 10l-136 137q-10 10 -10 24v136q0 9 3 16l68 136q7 9 16 16l136 68q7 3 16 3h131h5
q10 0 17 -5l133 -65l197 -66h194l196 66l132 65q9 5 19 5q7 0 10 -2q2 -2 6 -3.5t6 -1.5l1 -3l4 -2q0 -2 2 -3l1 -4q2 0 2 -1v-4l2 -1v-6v-3q0 -15 -11 -26l-1227 -1430q-9 -12 -25 -12q-14 0 -24 10.5t-10 24zM239 969l116 -116h114l120 60l60 120v114l-117 116h-114
l-119 -60l-60 -119v-115zM922 0q0 -14 10 -24l136 -136q10 -10 24 -11h137q9 0 15 4l137 68q9 7 15 15l68 137q3 7 4 15v137q0 14 -11 24l-136 136q-10 10 -24 10h-131h-5h-7h-2l-2 -1q-5 0 -8 -4l-133 -66q-9 -7 -16 -16l-68 -136q-3 -7 -3 -15v-137zM990 14v114l60 119
l119 60h114l116 -116v-114l-59 -120l-120 -59h-114z" />
    <glyph glyph-name="ampersand" unicode="&#x26;" horiz-adv-x="1774" 
d="M239 68v205q0 9 3 15l69 137q0 2 12 14l286 191l-24 34q-3 3 -3 8l-68 205q-2 3 -2 10v65v4v1v134v1v5q0 2 7 16l65 129v2q5 9 20 17l132 67q6 3 13 3q10 0 17 -3l132 -67q15 -7 20 -19l67 -131q5 -5 5 -15v-4v-1v-134v-1v-5q0 -2 -7 -16l-65 -129v-2q-2 -3 -10 -12
l-131 -132l70 -93l256 -320l27 41l135 338l1 4l69 136l6 9l69 68q10 10 24 10h68q14 0 24 -10l68 -68q10 -10 10 -24v-137q0 -14 -10 -24t-24 -10h-136q-14 0 -24.5 10.5t-10.5 23.5v123l-6 -7l-65 -129l-135 -340q0 -3 -3 -7l-40 -58l168 -169l124 -61h46l48 48v54
q0 14 10 24t24 10t24 -10t10 -24v-63v-5q0 -9 -5 -17l-66 -135q-10 -19 -31 -19h-137q-9 0 -15 4l-137 68q-3 2 -8 7l-149 148l-3 -7l-5 -5l-137 -136q-5 -5 -8 -7l-137 -68q-7 -3 -15 -4h-131h-6h-3h-133q-9 0 -15 4l-137 68q-9 7 -15 15l-69 137q-3 7 -3 15zM442 -80l5 -4
l-3 9v-2q-2 -2 -2 -3zM444 77l59 -120l120 -59h119l125 61l130 131l10 14l-7 9l-3 3l-273 341l-2 2l-58 89l-159 -159l-61 -124v-188zM599 1024l46 -189l91 -120l121 121l46 188l-45 181l-107 55l-108 -55zM1372 -102h2h60q-9 0 -16 3l-24 12q-10 -14 -22 -15zM1468 649h29
q-29 7 -29 34v-34zM1507 649h29v32q-3 -29 -29 -32z" />
    <glyph glyph-name="quotesingle" unicode="'" horiz-adv-x="682" 
d="M239 811v1v2v3v2v2v408q0 14 10 24l65 65q7 10 21 13h3h3h2h5q12 -3 21 -13l1 -2l63 -63q10 -10 11 -24q0 -7 -2 -10l-137 -408q0 -2 -1 -5l-2 -4v-2l-2 -1l-1 -2v-2h-2v-1q-3 -3 -5 -4h-2v-2h-2l-1 -1h-2h-2l-1 -2h-2h-2h-2h-1h-2h-2h-1h-2h-2h-1l-2 2h-2h-2l-1 1h-2
l-2 2l-1 2h-2v2h-2v1h-2v2h-1v2l-2 3h-2v4l-1 1v2v2h-2z" />
    <glyph glyph-name="parenleft" unicode="(" horiz-adv-x="955" 
d="M171 335v6v273v7l68 342q0 5 3 8l137 273q0 2 1 2t1 2l136 203v1l5 5v2h2l2 2l133 133q10 10 23.5 10t24 -10t10.5 -24t-10 -24l-134 -133l-63 -130l-68 -199l-67 -405v-403l67 -404l68 -200l63 -129l134 -134q10 -10 10 -23.5t-10.5 -24t-24 -10.5t-23.5 11l-135 133v2
l-3 3l-2 2l-2 1v2l-136 203q0 2 -1 2t-1 2l-137 273q-3 3 -3 8z" />
    <glyph glyph-name="parenright" unicode=")" horiz-adv-x="955" 
d="M239 -614.5q0 13.5 10 23.5l133 134l63 129l69 200l66 404v403l-66 405l-69 199l-63 130l-133 133q-10 10 -10 24t10 24t24 10t24 -10l135 -133v-2l3 -3l2 -2l2 -2v-1l136 -203q0 -2 1 -2t1 -2l136 -273q3 -3 4 -8l68 -342v-7v-273v-6l-68 -342q0 -5 -4 -8l-136 -273
q0 -2 -1 -2t-1 -2l-136 -203v-2l-6 -5v-1h-1l-2 -2l-133 -133q-10 -10 -24 -10.5t-24 10t-10 24z" />
    <glyph glyph-name="asterisk" unicode="*" horiz-adv-x="1092" 
d="M171 674v4v1v2v2v1v4v63q0 22 22 32l261 104l-261 105q-22 10 -22 32v63v5v5v2v2l1 2v3h2v2q0 2 2.5 5t4.5 3v2h2l1 2l2 1l2 2h1l4 2q3 2 12 1h5h63q10 0 21 -6l201 -152l-51 254v7q0 14 10 24l65 65q3 7 7 8h1l2 2h2q2 0 1 0l4 1q3 2 10 2h7h2l1 -2h2h2q3 -2 10 -8l3 -3
l2 -2l63 -63q10 -10 11 -24v-7l-52 -254l202 152q10 7 20 6h63h5h9h2v-1l3 -2h2l3 -2l2 -1h2l1 -2v-2h2v-2l3 -1q2 -2 2 -4v-1l2 -2v-2v-1l2 -2v-2v-2v-1v-2v-2v-1v-4v-63q0 -22 -23 -32l-261 -105l261 -104q22 -10 23 -32v-63v-5v-5v-2v-2l-2 -2v-3h-2v-2q0 -2 -4 -5l-3 -3
v-2h-1l-2 -2l-2 -1l-1 -2h-2l-2 -2h-2q-3 -2 -12 -1h-5h-63q-10 0 -20 6l-202 152l52 -254v-7q0 -14 -11 -24l-65 -65q-3 -7 -6 -8h-2l-2 -2h-2q-2 0 -1 0l-4 -2q-3 -2 -10 -1h-7h-1l-2 1h-2h-2q-3 2 -10 9l-3 3l-2 2l-63 63q-10 10 -10 24v7l51 254l-201 -152
q-10 -7 -21 -6h-63h-5h-9q-2 0 -1 0v1l-4 2h-2l-3 2l-2 1h-1l-2 2v2h-2v1l-3 2q-2 2 -2 4v1l-2 2v3z" />
    <glyph glyph-name="plus" unicode="+" horiz-adv-x="1774" 
d="M239 478v63v5q0 10 7 21v1l1 2h2v2h2q9 9 22 8h5h507v507v5q0 10 7 21v1l2 2h1v2h2q8 8 22 8h5h63q14 0 24.5 -10t10.5 -24v-512h512q14 0 24 -10t10 -24v-63v-5q0 -10 -7 -21v-1l-2 -2h-2l-1 -2q-9 -9 -22 -8h-6h-506v-507v-5q0 -10 -7 -21v-1l-2 -2h-2l-1 -2
q-9 -9 -23 -8h-5h-63q-14 0 -24 10t-10 24v512h-512q-14 0 -24 10t-10 24z" />
    <glyph glyph-name="comma" unicode="," horiz-adv-x="819" 
d="M237 -410q0 -14 10.5 -24t23.5 -10q10 0 17 4l132 66q15 9 20 17v2l65 130q7 10 7 20v4v129v4v5v63q0 14 -10 24l-69 68q-10 10 -23 10h-69q-14 0 -24 -10l-68 -68q-10 -10 -10 -24v-68q0 -14 10 -24l68 -68q10 -10 24 -11h55l17 -17l-32 -129l-123 -62q-20 -9 -21 -31z
" />
    <glyph glyph-name="hyphen" unicode="-" horiz-adv-x="1774" 
d="M239 478q0 -14 10 -24t24 -10h1229q14 0 24 10t10 24t-10 24t-24 10h-1229q-14 0 -24 -10t-10 -24z" />
    <glyph glyph-name="period" unicode="." horiz-adv-x="819" 
d="M239 0v-68q0 -14 10 -24l68 -68q10 -10 24 -11h69q14 0 23 11l69 68q10 10 10 24v68q0 14 -10 24l-69 68q-10 10 -23 10h-64h-5h-6l-4 -1h-2h-1v-2h-4v-2q-9 -3 -10 -8l-65 -65q-10 -10 -10 -24z" />
    <glyph glyph-name="slash" unicode="/" horiz-adv-x="1638" 
d="M102 -614q0 2 6 17l1225 2179q2 5 10 14v1l4 2q8 5 18 5h5h64q14 0 24 -10t10 -24q0 -2 -5 -17l-1226 -2179q-2 -5 -10 -14v-2l-3 -1q-9 -5 -19 -6h-5h-63q-14 0 -24.5 10.5t-10.5 24.5z" />
    <glyph glyph-name="zero" unicode="0" 
d="M171 471v7v205v6l68 342q0 2 5 12l137 205q7 10 18 13l202 67v1h3l2 2h2h1h2h2h1h6h126h5q7 0 10 -2h2l203 -68q12 -3 19 -13l136 -205q5 -10 5 -12l69 -342v-6v-205v-7l-69 -341q0 -2 -5 -12l-136 -205q-7 -10 -19 -14l-201 -68h-2h-2q-3 -2 -10 -2h-5h-126h-6
q-7 0 -10 2h-2l-203 68q-12 3 -18 14l-137 205q-5 10 -5 12zM375 413l67 -333l61 -123l120 -59h119l120 59l61 123l67 333v335l-67 332l-61 123l-120 60h-119l-120 -60l-61 -123l-67 -332v-335z" />
    <glyph glyph-name="one" unicode="1" 
d="M307 -136.5q0 13.5 10.5 24t23.5 10.5h128l74 37l37 74v1070l-10 -11q-5 -5 -9 -6l-136 -69q-7 -3 -17 -3q-14 0 -24 10t-10 24q0 22 20 31l132 65l61 61l7 7v2l130 128q10 13 27 13h7h1l2 -2h2h2q3 -2 10 -8q10 -10 10 -24v-3v-1285l38 -74l73 -37h128q14 0 24 -10.5
t10 -24t-10 -24t-24 -10.5h-131h-6h-3h-60h-5h-5h-58h-5h-5h-126h-6h-5h-58h-5h-5h-60h-3h-5h-132q-14 0 -24 10.5t-10 24zM649 -72q2 -10 10 -19.5t19 -10.5h-29v29v1zM688 -102q10 2 18.5 11t10.5 19v-1v-29h-29zM695 1193l22 22v-54q0 22 -22 32z" />
    <glyph glyph-name="two" unicode="2" 
d="M171 0v-5v-132q0 -14 10 -24t23.5 -10t24 10.5t10.5 23.5v123l48 48h112l335 -200q7 -5 17 -5h273q14 0 24 11l68 68q5 5 7 8l67 133q5 9 5 19v5v132q0 14 -10.5 24t-24 10t-24 -10.5t-10.5 -23.5v-116l-111 -55h-261l-334 67l-2 1h-2h-6h-4h-133q-14 0 -24 -10l55 162
l126 128l130 63v2l339 135q3 0 7 3l205 137q12 12 12 14l68 136q3 7 4 15v137q0 9 -4 15l-68 137q-2 3 -7 8l-68 69q-3 3 -14 8l-203 68h-2q-3 2 -10 2h-2h-3h-268q-7 0 -10 -2l-205 -68q-10 -5 -14 -8l-68 -69q-5 -5 -7 -8l-68 -137q-3 -7 -3 -15v-68q0 -14 10 -24l68 -68
q10 -10 24 -11h68q14 0 24 11l68 68q10 10 11 24v68q0 14 -11 24l-68 68q-10 10 -24 10h-47l6 14l60 58l191 65h260l117 -58l62 -186v-123l-62 -125l-129 -129l-265 -132l-3 -1l-4 -2l-133 -67q-3 -2 -8 -7l-137 -136q-3 -3 -8 -14l-69 -204q-2 -3 -1 -11v-65v-3zM259 1055
l2 5q2 0 5 -1l4 -1q-3 0 -11 -3zM951 698l29 29q5 5 6 9l4 8q3 -12 7 -15zM1002 1200l3 -2l7 -5q-3 0 -7 -3z" />
    <glyph glyph-name="three" unicode="3" 
d="M171 137v68q0 14 10 24l68 68q10 10 24 10h68q14 0 24 -10l68 -68q10 -10 11 -24v-68q0 -14 -11 -24l-68 -69q-10 -10 -24 -10h-47l6 -14l60 -58l191 -64h260l117 58l62 186v194l-65 191l-58 60l-125 62h-128q-14 0 -24 10t-10 23.5t10.5 24t23.5 10.5h128l120 60l60 119
v188l-60 119l-120 60h-191l-191 -65l-60 -58l-6 -14h47q14 0 24 -10l68 -68q10 -10 11 -24v-68q0 -14 -11 -24l-68 -68q-10 -10 -24 -11h-68q-14 0 -24 11l-68 68q-10 10 -10 24v68q0 9 3 15l68 137q2 3 7 8l68 69q3 3 14 8l205 68q3 2 10 2h200h3h5h65q7 0 10 -2l205 -68
q14 -3 21 -17l68 -136q3 -7 3 -16v-205q0 -9 -3 -15l-68 -136q-7 -14 -21 -17l-126 -43l63 -31q3 -2 9 -7l136 -136q5 -5 7 -9l68 -136q3 -7 4 -16v-204q0 -9 -4 -16l-68 -136q-2 -3 -7 -9l-68 -68q-3 -3 -14 -9l-201 -68h-2h-2q-3 -2 -10 -2h-5h-268q-7 0 -10 2l-205 68
q-10 5 -14 9l-68 68q-5 5 -7 9l-68 136q-3 7 -3 16zM258 106q7 -3 13 -4q-7 0 -10 -1zM259 1055l2 5q2 0 5 -1l4 -1q-3 0 -11 -3zM1000 522l12 -12q-3 0 -7 -3zM1002 -39l3 10q3 -3 7 -3l-7 -6z" />
    <glyph glyph-name="four" unicode="4" 
d="M102 273q0 10 7 21l748 1020q3 7 15 14q6 3 15 3h4h3h2l2 -2h3l2 -1l3 -2l4 -2l1 -3l2 -2q9 -9 9 -22v-3v-987h307q14 0 24 -10t10 -24t-10.5 -24t-23.5 -10h-307v-230l37 -74l74 -37h59q14 0 24 -10.5t10 -24t-10 -24t-24 -10.5h-63h-5h-3h-60h-5h-5h-58h-6h-5h-126h-5
h-5h-58h-5h-5h-60h-4h-5h-63q-14 0 -24 10.5t-10 24t10 24t24 10.5h60l73 37l38 74v230h-580q-14 0 -24.5 10t-10.5 24zM203 307h514v700zM785 -72q2 -10 10.5 -19.5t18.5 -10.5h-29v29v1zM785 1092v7v-7zM824 -102q10 2 18.5 11t10.5 19v-1v-29h-29zM847 1183l6 10v-32
q0 12 -6 22z" />
    <glyph glyph-name="five" unicode="5" 
d="M171 137v68q0 14 10 24l68 68q10 10 24 10h68q14 0 24 -10l68 -68q10 -10 11 -24v-68q0 -14 -11 -24l-68 -69q-10 -10 -24 -10h-47l6 -14l60 -58l191 -64h191l125 61l58 60l65 191v263l-65 191l-58 60l-125 61h-191l-191 -65l-131 -129q-10 -10 -24 -10.5t-24 10
t-10 23.5v7l136 678q0 14 9 22l3 2v1q10 7 22 7h5h675h3q15 0 24 -8v-2l2 -2l3 -1q2 -2 2 -4v-3h1v-4l2 -1v-2v-7v-7v-1l-2 -2v-4q-3 -9 -13 -15q-3 -3 -7 -3l-130 -65q-10 -5 -13 -5l-270 -67q-2 0 -5 -1l-4 -1h-273l-80 -407l56 56q3 3 14 8l205 69q3 2 10 1h200h5
q7 0 10 -1h2l203 -69q10 -5 14 -8l136 -137q3 -3 9 -13l68 -205q2 -3 2 -10v-137q0 -7 -2 -10l-68 -205q-5 -10 -9 -14l-136 -136q-3 -3 -14 -9l-201 -68h-2h-2q-3 -2 -10 -2h-5h-200q-7 0 -10 2l-205 68q-10 5 -14 9l-68 68q-5 5 -7 9l-68 136q-3 7 -3 16zM258 106
q7 -3 13 -4q-7 0 -10 -1zM1000 24l5 15q3 -3 7 -3zM1000 659l12 -12q-3 0 -7 -4z" />
    <glyph glyph-name="six" unicode="6" 
d="M171 273v410v3q2 3 1 5l69 273q0 5 1 7l69 137q2 3 6 8l137 137q3 3 14 8l201 68h3q4 2 11 2h5h199q9 0 16 -3l136 -68q9 -7 16 -16l68 -136q3 -7 3 -16v-68q0 -14 -10 -24l-68 -68q-10 -10 -24 -10h-68q-14 0 -24 10l-68 68q-10 10 -11 24v68q0 14 11 24l68 68
q10 10 24 11h48l-6 8l-119 60h-188l-124 -62l-62 -61l-63 -128l-67 -264v-125l4 7q2 3 7 8l68 69q5 5 9 6l136 69q7 3 15 3h132h5q7 0 10 -2h2l203 -68q10 -5 14 -8l136 -137q3 -3 9 -14l68 -204q2 -3 2 -11v-68q0 -7 -2 -10l-68 -205q-5 -10 -9 -14l-136 -136q-3 -3 -14 -9
l-201 -68h-2h-2q-3 -2 -10 -2h-5h-126h-6q-7 0 -10 2h-2l-203 68q-10 5 -13 9l-137 136q-3 3 -8 14l-69 205q-2 3 -1 10zM375 278l67 -196l61 -125l120 -59h119l125 61l58 60l65 191v194l-65 192l-58 59l-125 62h-119l-125 -62l-61 -61l-62 -125v-191zM1000 24l5 15
q3 -3 7 -3zM1000 591l12 -12q-3 0 -7 -4zM1026 1126q7 0 10 2l3 -5q-7 3 -13 3z" />
    <glyph glyph-name="seven" unicode="7" 
d="M171 887v132v2v1v2v2v1v270q0 14 10 24t23.5 10t24 -10t10.5 -24v-128l3 7q2 3 7 8l137 137q10 10 24 10h136q10 0 17 -5l335 -200h112l55 55l63 128q7 14 17 19q2 2 4 1q3 2 10 2h2h1h4h1l4 -2h3l2 -1l3 -2l4 -2l1 -3l2 -2q0 -2 2.5 -6t4.5 -6q0 -2 1 -5t1 -5v-3v-202
q0 -7 -2 -10l-67 -201q0 -5 -3 -9l-2 -3l-1 -2l-2 -2l-270 -338l-65 -129l-66 -265v-264v-6q0 -10 -7 -20v-2l-2 -1h-1l-2 -2q-9 -9 -22 -9h-5h-58h-6h-5h-63q-14 0 -24 10.5t-10 23.5v274q0 7 2 10l68 205q0 5 3 8l137 205l5 5l336 336l63 191v55l-3 -7q-2 -3 -7 -8
l-68 -69q-10 -10 -24 -10h-133h-2h-3h-4h-1l-2 2l-336 66h-125l-124 -61l-55 -55v-123q0 -14 -10.5 -24t-24 -10t-23.5 10.5t-10 23.5z" />
    <glyph glyph-name="eight" unicode="8" 
d="M171 137v273q0 9 3 15l68 136q2 3 7 9l68 68q3 3 14 9l108 36l-108 36q-14 3 -20 17l-69 136q-3 7 -3 15v205q0 9 3 16l69 136q7 14 20 17l201 67l2 1h2l3 2h5h4h3h263h5q10 0 14 -2l201 -68q14 -3 21 -17l68 -136q3 -7 3 -16v-205q0 -9 -3 -15l-68 -136q-7 -14 -21 -17
l-107 -36l107 -36q10 -5 14 -9l68 -68q5 -5 7 -9l68 -136q3 -7 4 -15v-273q0 -9 -4 -16l-68 -136q-2 -3 -7 -9l-68 -68q-3 -3 -14 -9l-201 -68h-2h-2q-3 -2 -10 -2h-5h-263h-5q-7 0 -10 2h-2l-203 68q-10 5 -14 9l-68 68q-5 5 -7 9l-68 136q-3 7 -3 16zM353 -32q4 0 7 3
l4 -10l-4 1zM353 579l7 5l4 1l-4 -10q-3 3 -7 4zM375 142l62 -186l118 -58h256l117 58l62 186v262l-62 187l-117 58h-256l-118 -58l-62 -187v-262zM444 896l61 -125l55 -54h246l54 54l62 125v188l-62 124l-54 55h-246l-55 -55l-61 -124v-188zM1002 -39l3 10q3 -3 7 -3l-7 -6
zM1002 585l3 -1l7 -5q-3 0 -7 -4z" />
    <glyph glyph-name="nine" unicode="9" 
d="M171 819v68q0 7 1 11l69 205q5 10 8 13l137 137q3 3 13 8l202 68h3q3 2 10 2h6h126h5q7 0 10 -2h2l203 -68q10 -5 14 -8l136 -137q3 -3 9 -13l68 -205q2 -3 2 -11v-409v-4q-2 -3 -2 -5l-68 -273q0 -5 -2 -7l-68 -136q-2 -3 -7 -9l-137 -136q-3 -3 -13 -9l-202 -68h-1h-2
q-3 -2 -10 -2h-5h-200q-9 0 -15 4l-137 68q-9 7 -15 15l-69 137q-3 7 -3 15v69q0 14 10 23l68 69q10 10 24 10h69q14 0 23 -10l69 -69q10 -10 10 -23v-69q0 -14 -10 -24l-69 -68q-10 -10 -23 -10h-48l5 -9l119 -59h188l125 61l61 61l63 128l67 265v125l-4 -7l-6 -9l-69 -68
q-5 -5 -8 -7l-137 -68q-7 -3 -15 -4h-131h-6q-7 0 -10 2h-2l-203 68q-10 5 -13 9l-137 137q-3 3 -8 13l-69 205q-2 3 -1 10zM326 38q7 -3 14 -4q-7 0 -11 -2zM353 582q4 0 7 3l5 -15zM353 1125l12 12l-5 -16q-3 3 -7 4zM375 756l65 -191l58 -60l125 -61h119l125 61l61 62
l62 124v191l-67 197l-61 124l-120 60h-119l-125 -62l-58 -59l-65 -191v-195z" />
    <glyph glyph-name="colon" unicode=":" horiz-adv-x="819" 
d="M239 0v-68q0 -14 10 -24l68 -68q10 -10 24 -11h69q14 0 23 11l69 68q10 10 10 24v68q0 14 -10 24l-69 68q-10 10 -23 10h-64h-5h-6l-4 -1h-2h-1v-2h-4v-2q-9 -3 -10 -8l-65 -65q-10 -10 -10 -24zM239 683q0 -14 10 -24l68 -68q10 -10 24 -11h69q14 0 23 11l69 68
q10 10 10 24v68q0 14 -10 24l-69 68q-10 10 -23 10h-64h-5h-6l-4 -1h-2h-1v-2h-4v-2q-9 -3 -10 -8l-65 -65q-10 -10 -10 -24v-68z" />
    <glyph glyph-name="semicolon" unicode=";" horiz-adv-x="819" 
d="M237 -410q0 -14 10.5 -24t23.5 -10q10 0 17 4l132 66q15 9 20 17v2l65 130q7 10 7 20v4v129v4v5v63q0 14 -10 24l-69 68q-10 10 -23 10h-69q-14 0 -24 -10l-68 -68q-10 -10 -10 -24v-68q0 -14 10 -24l68 -68q10 -10 24 -11h55l17 -17l-32 -129l-123 -62q-20 -9 -21 -31z
M239 683q0 -14 10 -24l68 -68q10 -10 24 -11h69q14 0 23 11l69 68q10 10 10 24v68q0 14 -10 24l-69 68q-10 10 -23 10h-64h-5h-6l-4 -1h-2h-1v-2h-4v-2q-9 -3 -10 -8l-65 -65q-10 -10 -10 -24v-68z" />
    <glyph glyph-name="less" unicode="&#x3c;" horiz-adv-x="1638" 
d="M239 478q0 20 17 29l1092 614q11 5 16 5h1h2q14 0 23 -10t9 -24q0 -20 -17 -29l-1039 -585l1039 -586q17 -9 17 -29q0 -14 -10 -24t-24 -10q-2 0 -17 5l-1092 615q-17 9 -17 29z" />
    <glyph glyph-name="equal" unicode="=" horiz-adv-x="1774" 
d="M239 205q0 -14 10 -24t24 -10h1155h6q14 0 22 8l1 2h2l2 2v1q7 10 7 21v5v63q0 14 -10.5 24t-23.5 10h-1156h-5q-14 0 -22 -8h-2v-2h-2l-1 -2v-1q-7 -10 -7 -21v-5v-63zM239 751q0 -14 10 -24t24 -10h1155h6q14 0 22 8l1 2h2l2 2v1q7 10 7 21v5v63q0 14 -10.5 24
t-23.5 10h-1156h-5q-14 0 -22 -8h-2v-2h-2l-1 -2v-1q-7 -10 -7 -21v-5v-63z" />
    <glyph glyph-name="greater" unicode="&#x3e;" horiz-adv-x="1638" 
d="M239 -137q0 20 17 29l1039 586l-1039 585q-17 9 -17 29q0 31 31 34h1h2q7 0 17 -5l1092 -614q17 -9 17 -29.5t-17 -28.5l-1092 -615q-15 -5 -17 -5q-14 0 -24 10.5t-10 23.5z" />
    <glyph glyph-name="question" unicode="?" 
d="M171 887v137q0 9 3 15l68 137q2 3 7 8l68 69q5 5 9 7l137 68q7 3 15 3h268h3q9 0 12 -2h2l203 -68q10 -5 14 -8l68 -69q5 -5 7 -8l68 -137q3 -7 3 -15v-137q0 -9 -3 -15l-68 -136q-2 -3 -7 -9l-68 -68q-5 -5 -9 -7l-135 -67q-3 -3 -5 -3l-114 -56v-185q0 -14 -10.5 -24
t-23.5 -10h-69q-14 0 -24 10.5t-10 23.5v200v5q0 10 7 21v1l2 2h2v2h1q9 9 22 8h6h54l125 62l61 61l62 125v256l-60 119l-120 60h-256l-124 -62l-62 -61l-42 -85q7 3 15 3h68q14 0 24 -10t10 -24v-137q0 -14 -10 -24t-24 -10h-136q-14 0 -24 10.5t-10 23.5zM239 922v34
q0 -27 29 -34h-29zM278 922q26 3 29 32v-32h-29zM512 0v-68q0 -14 10 -24l69 -68q10 -10 23 -11h69q14 0 24 11l68 68q10 10 10 24v68q0 14 -10 24l-68 68q-10 10 -24 10h-63h-6h-6l-4 -1h-2h-1v-2h-4v-2q-9 -3 -10 -8l-65 -65q-10 -10 -10 -24z" />
    <glyph glyph-name="at" unicode="@" horiz-adv-x="1911" 
d="M171 478q0 -7 1 -10l69 -205l1 -2v-3l69 -137q2 -3 6 -8l137 -137q5 -5 9 -7l136 -68h2l3 -2l205 -68q3 -2 10 -2h205q7 0 10 2l205 68l2 2h3l137 68q3 2 8 7l68 68q10 10 10.5 24t-10 24t-24 10t-23.5 -10l-65 -65l-130 -63l-196 -66h-195l-196 66l-130 63l-129 130
l-64 130l-66 196v195l66 196l64 130l129 129l130 63l196 67h195l196 -67l130 -63l130 -129l63 -130l66 -196v-127l-65 -191l-119 -121h-109l-48 48v121l68 544v4q0 14 -10 24t-24 10q-31 0 -34 -31v-2q-2 14 -12 23.5t-22 9.5q-31 0 -34 -31l-7 -51q-9 9 -12 10l-137 68
q-7 3 -15 4h-200h-5q-7 0 -13 -4h-2l-2 -1l-135 -67q-3 -2 -8 -7l-68 -68q-3 -3 -9 -14l-68 -204q-2 -3 -2 -11v-204q0 -9 3 -16l69 -136q7 -9 15 -16l135 -66q7 -5 17 -5h5h200q9 0 15 3l137 68q9 7 15 16l3 8q3 -17 19 -24l135 -66q7 -5 17 -5h5h132q14 0 23 10l137 136
q3 3 9 14l68 205q2 3 2 10v137q0 7 -2 10l-68 205l-2 1v4l-68 136q-2 3 -7 9l-137 136q-5 5 -8 7l-137 69h-2l-3 1l-205 68q-3 2 -10 2h-205q-7 0 -10 -2l-205 -68l-2 -1h-3l-136 -69q-3 -2 -9 -7l-137 -136q-5 -5 -6 -9l-69 -136v-2l-1 -3l-69 -205q-2 -3 -1 -10v-205z
M649 418v191l64 191l120 122h182l120 -60l37 -77l-44 -365l-61 -121l-120 -60h-182l-55 55z" />
    <glyph glyph-name="A" unicode="A" 
d="M34 -136.5q0 13.5 10.5 24t23.5 10.5h55l53 53l473 1355q3 10 10 17q0 2 1.5 1.5t3.5 1.5l3 2h2l3 1l2 2h4h1h2h2h1h4h3l2 -2h2q3 0 6 -3q12 -7 16 -20l440 -1321l85 -87h55q14 0 24 -10.5t10 -24t-10 -24t-24 -10.5h-63h-5h-4h-59h-5h-6h-58h-5h-5h-58h-5h-5h-58h-5h-5
h-60h-4h-5h-63q-14 0 -24 10.5t-10 24t10.5 24t23.5 10.5h60l73 37l7 14l-95 290h-516l-101 -290l103 -51h128q14 0 24 -10.5t10 -24t-10 -24t-24 -10.5h-132h-5h-3h-198h-3h-6h-63q-14 0 -24 10.5t-10 24zM372 307h468l-227 685zM654 1111q9 15 29 15q14 0 24 -10l-24 75z
" />
    <glyph glyph-name="B" unicode="B" horiz-adv-x="1501" 
d="M102 -136.5q0 13.5 10.5 24t24.5 10.5h59l74 37l37 74v1143l-37 73l-74 38h-59q-14 0 -24.5 10t-10.5 24t10.5 24t24.5 10h63h5h3h60h5h5h58h5h5h127h5h5h58h5h5h60h3h6h331h5q7 0 10 -2h2l203 -68q10 -5 13 -8l69 -69q5 -5 7 -8l68 -137q3 -7 3 -15v-137q0 -9 -3 -15
l-68 -136q-2 -3 -7 -9l-69 -68q-3 -3 -13 -9l-108 -36l108 -35q10 -5 13 -9l69 -68q5 -5 7 -9l68 -136q3 -7 3 -16v-204q0 -9 -3 -16l-68 -136q-2 -3 -7 -9l-69 -68q-3 -3 -13 -9l-202 -68h-1h-2q-3 -2 -10 -2h-5h-331h-6h-3h-60h-5h-5h-58h-5h-5h-127h-5h-5h-58h-5h-5h-60
h-3h-5h-63q-14 0 -24.5 10.5t-10.5 24zM375 -72v-1v-29h29q-10 2 -18.5 11t-10.5 19zM375 1232q2 10 10.5 19.5t18.5 11.5h-29v-29v-2zM415 -102h29v29v1q-2 -10 -10.5 -19.5t-18.5 -10.5zM415 1263q10 -2 18.5 -11.5t10.5 -19.5v2v29h-29zM512 9l38 -74l73 -37h324l120 59
l59 120v324l-59 120l-120 59h-435v-571zM512 649h435l120 59l59 120v256l-59 119l-120 60h-324l-73 -38l-38 -73v-503z" />
    <glyph glyph-name="C" unicode="C" 
d="M171 410v341q0 7 1 10l69 205l1 2v3l69 137q2 3 6 8l137 137q3 3 14 8l201 68h3q4 2 11 2h5h199q9 0 16 -3l136 -68q3 -2 9 -7l97 -98l51 152q5 24 33 24q14 0 24 -10t10 -24v-410q0 -14 -10.5 -24t-23.5 -10q-27 0 -33 24l-66 196l-126 128l-125 62h-188l-121 -62
l-128 -191l-67 -262v-335l67 -263l128 -191l121 -61h188l125 61l129 130l65 131q9 20 31 21q14 0 24 -10.5t10 -23.5q0 -10 -3 -18l-69 -136q-2 -3 -7 -9l-136 -136q-5 -5 -9 -7l-136 -68q-7 -3 -16 -4h-199h-5q-7 0 -11 2h-1l-203 68q-10 5 -14 9l-137 136q-5 5 -6 9
l-69 136v2l-1 4l-69 204q-2 3 -1 11zM422 36l10 5l31 -46zM422 1125l41 41l-31 -46z" />
    <glyph glyph-name="D" unicode="D" horiz-adv-x="1501" 
d="M102 -136.5q0 13.5 10.5 24t24.5 10.5h59l74 37l37 74v1143l-37 73l-74 38h-59q-14 0 -24.5 10t-10.5 24t10.5 24t24.5 10h63h5h3h60h5h5h58h5h5h127h5h5h58h5h5h60h3h6h194h5q7 0 10 -2h2l203 -68q10 -5 14 -8l136 -137q5 -5 7 -8l69 -137v-2l1 -3l68 -205q2 -3 2 -10
v-341q0 -7 -2 -11l-68 -204l-1 -2v-4l-69 -136q-2 -3 -7 -9l-136 -136q-3 -3 -14 -9l-201 -68h-2h-2q-3 -2 -10 -2h-5h-194h-6h-3h-60h-5h-5h-58h-5h-5h-127h-5h-5h-58h-5h-5h-60h-3h-5h-63q-14 0 -24.5 10.5t-10.5 24zM375 -72v-1v-29h29q-10 2 -18.5 11t-10.5 19z
M375 1232q2 10 10.5 19.5t18.5 11.5h-29v-29v-2zM415 -102h29v29v1q-2 -10 -10.5 -19.5t-18.5 -10.5zM415 1263q10 -2 18.5 -11.5t10.5 -19.5v2v29h-29zM512 9l38 -74l73 -37h188l121 61l128 191l66 263v335l-66 262l-128 191l-121 62h-188l-73 -38l-38 -73v-1143zM1039 -5
l41 41l-10 5zM1039 1166l31 -46l10 5z" />
    <glyph glyph-name="E" unicode="E" 
d="M102 -136.5q0 13.5 10.5 24t24.5 10.5h59l74 37l37 74v1143l-37 73l-74 38h-59q-14 0 -24.5 10t-10.5 24t10.5 24t24.5 10h63h5h3h60h5h5h58h5h5h127h5h5h58h5h5h60h3h6h264h2h3h130h5h3h60h5h5h58h6h5h63q14 0 24 -10t10 -24v-63v-5v-5v-58v-5v-6v-59v-4v-3v-200v-2v-1
v-4q0 -2 -1 -1.5t-1 -1.5v-3v-2l-1 -2v-2l-2 -1l-2 -2l-5 -5l-2 -4q-3 -3 -7 -3h-3l-2 -2h-1h-4h-3h-2h-2h-1h-2h-2q-2 2 -3 2h-2l-2 2l-3 1h-2l-1 4l-4 2v1l-2 2l-1 2l-2 1v2l-2 4q0 2 -0.5 3.5t-0.5 2.5l-45 267l-27 42l-55 34l-184 38h-261l-73 -38l-38 -73v-503h99
l167 42l33 33l42 169q0 2 0 1l2 4l2 1v2v4l5 5l2 3q0 2 1.5 2t3.5 1l1 2h2l4 2q2 0 1.5 1t1.5 1h3h2h2h1h2h4h1h2l2 -2h3v-2h2h2l1 -2l2 -1h2v-2l1 -2h2v-1l3 -4q2 0 2 -1q2 -2 2 -4v-3l2 -2v-2v-1v-2v-4v-1v-130v-5v-3v-60v-5v-5v-58v-6v-5v-58v-5v-5v-60v-3v-5v-130v-2v-1
v-4q0 -2 -1 -1.5t-1 -1.5q0 -7 -4 -10l-1 -2l-2 -4l-2 -1h-1l-2 -2v-2h-2l-1 -1q-2 -2 -4 -2h-2h-1l-2 -2h-2h-1h-2h-2h-2h-1h-4h-1h-2l-3 2q-2 0 -2 2h-2h-2v1l-3 2l-2 2l-3 1l-2 4l-2 3q-2 0 -1 2q-3 3 -4 10l-42 169l-33 33l-167 42h-99v-571l38 -74l73 -37h261l184 37
l55 34l27 43l45 266l1 4q0 2 2 5l2 3v2l1 2l2 1v2l2 2q0 2 3 1q2 0 4 2v2h1l2 1h4l3 2h2h3h2h2h1h4h1l2 -2h3l2 -1l4 -2l3 -2l2 -3l1 -2l4 -3q3 -3 3 -5v-4l2 -1v-2v-7v-2v-198v-5v-3v-60v-5v-5v-58v-5v-5v-64q0 -14 -10.5 -24t-23.5 -10h-63h-5h-6h-58h-5h-5h-60h-3h-3
h-132h-2h-1h-266h-6h-3h-60h-5h-5h-58h-5h-5h-127h-5h-5h-58h-5h-5h-60h-3h-5h-63q-14 0 -24.5 10.5t-10.5 24zM375 -72v-1v-29h29q-10 2 -18.5 11t-10.5 19zM375 1232q2 10 10.5 19.5t18.5 11.5h-29v-29v-2zM415 -102h29v29v1q-2 -10 -10.5 -19.5t-18.5 -10.5zM415 1263
q10 -2 18.5 -11.5t10.5 -19.5v2v29h-29z" />
    <glyph glyph-name="F" unicode="F" horiz-adv-x="1228" 
d="M102 -136.5q0 13.5 10.5 24t24.5 10.5h59l74 37l37 74v1143l-37 73l-74 38h-59q-14 0 -24.5 10t-10.5 24t10.5 24t24.5 10h63h5h3h60h5h5h58h5h5h127h5h5h58h5h5h60h3h6h264h2h3h130h5h3h60h5h5h58h6h5h63q14 0 24 -10t10 -24v-63v-5v-5v-58v-5v-6v-59v-4v-3v-200v-2v-1
v-4q0 -2 -1 -1.5t-1 -1.5v-3v-2l-1 -2v-2l-2 -1l-2 -2l-5 -5l-2 -4q-3 -3 -7 -3h-3l-2 -2h-1h-4h-3h-2h-2h-1h-2h-2q-2 2 -3 2h-2l-2 2l-3 1h-2l-1 4l-4 2v1l-2 2l-1 2l-2 1v2l-2 4q0 2 -0.5 3.5t-0.5 2.5l-45 267l-27 42l-55 34l-184 38h-261l-73 -38l-38 -73v-503h99
l167 42l33 33l42 169q0 2 0 1l2 4l2 1v2v4l5 5l2 3q0 2 1.5 2t3.5 1l1 2h2l4 2q2 0 1.5 1t1.5 1h3h2h2h1h2h4h1h2l2 -2h3v-2h2h2l1 -2l2 -1h2v-2l1 -2h2v-1l3 -4q2 0 2 -1q2 -2 2 -4v-3l2 -2v-2v-1v-2v-4v-1v-130v-5v-3v-60v-5v-5v-58v-6v-5v-58v-5v-5v-60v-3v-5v-130v-2v-1
v-4q0 -2 -1 -1.5t-1 -1.5q0 -7 -4 -10l-1 -2l-2 -4l-2 -1h-1l-2 -2v-2h-2l-1 -1q-2 -2 -4 -2h-2h-1l-2 -2h-2h-1h-2h-2h-2h-1h-4h-1h-2l-3 2q-2 0 -2 2h-2h-2v1l-3 2l-2 2l-3 1l-2 4l-2 3q-2 0 -1 2q-3 3 -4 10l-42 169l-33 33l-167 42h-99v-571l38 -74l73 -37h60
q14 0 24 -10.5t10 -24t-10.5 -24t-23.5 -10.5h-63h-6h-3h-60h-5h-5h-58h-5h-5h-127h-5h-5h-58h-5h-5h-60h-3h-5h-63q-14 0 -24.5 10.5t-10.5 24zM375 -72q2 -10 10.5 -19.5t18.5 -10.5h-29v29v1zM375 1232v2v29h29q-10 -2 -18.5 -11.5t-10.5 -19.5zM415 -102q10 2 18.5 11
t10.5 19v-1v-29h-29zM415 1263h29v-29v-2q-2 10 -10.5 19.5t-18.5 11.5z" />
    <glyph glyph-name="G" unicode="G" horiz-adv-x="1638" 
d="M171 410v341q0 7 1 10l69 205l1 2v3l69 137q2 3 6 8l137 137q3 3 14 8l201 68h3q4 2 11 2h5h199q9 0 16 -3l136 -68q3 -2 9 -7l97 -98l51 152q5 24 33 24q14 0 24 -10t10 -24v-410q0 -14 -10.5 -24t-23.5 -10q-27 0 -33 24l-66 196l-126 128l-125 62h-188l-121 -62
l-128 -191l-67 -262v-335l67 -263l128 -191l121 -61h188l125 61l54 55v251l-37 73l-74 37h-60q-14 0 -24 10.5t-10 24t10.5 24t23.5 10.5h64h5h3h60h5h5h58h5h5h127h5h5h58h5h5h60h3h5h64q14 0 24 -10.5t10 -24t-10.5 -24t-23.5 -10.5h-60l-74 -37l-37 -73v-402
q0 -14 -10.5 -24t-24 -10t-23.5 11l-58 58h-114l-130 -65q-7 -3 -16 -4h-199h-5q-7 0 -11 2h-1l-203 68q-10 5 -14 9l-137 136q-5 5 -6 9l-69 136v2l-1 4l-69 204q-2 3 -1 11zM422 36l10 5l31 -46zM422 1125l41 41l-31 -46zM1106 -34l10 10q10 10 10 24q0 -27 29 -34h-49z
M1126 345v1v29h29q-10 -2 -18.5 -11t-10.5 -19zM1164 -34q28 3 31 32v-53l-11 11q-10 10 -20 10zM1166 375h29v-29v-1q-2 10 -10.5 19t-18.5 11z" />
    <glyph glyph-name="H" unicode="H" horiz-adv-x="1638" 
d="M102 -136.5q0 13.5 10.5 24t24.5 10.5h59l74 37l37 74v1143l-37 73l-74 38h-59q-14 0 -24.5 10t-10.5 24t10.5 24t24.5 10h63h5h3h60h5h5h58h5h5h127h5h5h58h5h5h60h3h6h63q14 0 24 -10t10 -24t-10.5 -24t-23.5 -10h-60l-73 -38l-38 -73v-503h614v503l-37 73l-74 38h-59
q-14 0 -24 10t-10 24t10 24t24 10h63h5h3h60h5h5h58h6h5h126h5h5h58h5h5h60h4h5h63q14 0 24 -10t10 -24t-10 -24t-24 -10h-60l-73 -38l-38 -73v-1143l38 -74l73 -37h60q14 0 24 -10.5t10 -24t-10 -24t-24 -10.5h-63h-5h-4h-60h-5h-5h-58h-5h-5h-126h-5h-6h-58h-5h-5h-60h-3
h-5h-63q-14 0 -24 10.5t-10 24t10 24t24 10.5h59l74 37l37 74v571h-614v-571l38 -74l73 -37h60q14 0 24 -10.5t10 -24t-10.5 -24t-23.5 -10.5h-63h-6h-3h-60h-5h-5h-58h-5h-5h-127h-5h-5h-58h-5h-5h-60h-3h-5h-63q-14 0 -24.5 10.5t-10.5 24zM375 -72q2 -10 10.5 -19.5
t18.5 -10.5h-29v29v1zM375 1232v2v29h29q-10 -2 -18.5 -11.5t-10.5 -19.5zM415 -102q10 2 18.5 11t10.5 19v-1v-29h-29zM415 1263h29v-29v-2q-2 10 -10.5 19.5t-18.5 11.5zM1195 -72q2 -10 10 -19.5t19 -10.5h-29v29v1zM1195 1232v2v29h29q-10 -2 -19 -11.5t-10 -19.5z
M1234 -102q10 2 18.5 11t10.5 19v-1v-29h-29zM1234 1263h29v-29v-2q-2 10 -10.5 19.5t-18.5 11.5z" />
    <glyph glyph-name="I" unicode="I" horiz-adv-x="819" 
d="M102 -136.5q0 13.5 10.5 24t24.5 10.5h59l74 37l37 74v1143l-37 73l-74 38h-59q-14 0 -24.5 10t-10.5 24t10.5 24t24.5 10h63h5h3h60h5h5h58h5h5h127h5h5h58h5h5h60h3h6h63q14 0 24 -10t10 -24t-10.5 -24t-23.5 -10h-60l-73 -38l-38 -73v-1143l38 -74l73 -37h60
q14 0 24 -10.5t10 -24t-10.5 -24t-23.5 -10.5h-63h-6h-3h-60h-5h-5h-58h-5h-5h-127h-5h-5h-58h-5h-5h-60h-3h-5h-63q-14 0 -24.5 10.5t-10.5 24zM375 -72q2 -10 10.5 -19.5t18.5 -10.5h-29v29v1zM375 1232v2v29h29q-10 -2 -18.5 -11.5t-10.5 -19.5zM415 -102q10 2 18.5 11
t10.5 19v-1v-29h-29zM415 1263h29v-29v-2q-2 10 -10.5 19.5t-18.5 11.5z" />
    <glyph glyph-name="J" unicode="J" horiz-adv-x="1092" 
d="M102 68v137q0 14 11 24l68 68q10 10 24 10h68q14 0 24 -10l68 -68q10 -10 10 -24v-68q0 -14 -10 -24l-68 -69q-10 -10 -24 -10h-68q-9 0 -16 4l41 -81l120 -59h114l51 53l65 191v1010l-37 73l-74 38h-59q-14 0 -24.5 10t-10.5 24t10.5 24t24.5 10h63h5h3h60h5h5h58h5h6
h126h5h5h58h5h5h60h3h6h63q14 0 24 -10t10 -24t-10.5 -24t-23.5 -10h-60l-73 -38l-38 -73v-1015q0 -7 -2 -11l-68 -205q-7 -15 -22 -22l-201 -66v-2q-3 -2 -14 -2h-5h-132q-9 0 -15 4l-137 68q-9 7 -15 15l-68 137q-3 7 -4 15zM171 75v2v60q0 -14 10 -24.5t24 -10.5
q-27 0 -34 -27zM649 1232v2v29h29q-10 -2 -19 -11.5t-10 -19.5zM688 1263h29v-29v-2q-2 10 -10.5 19.5t-18.5 11.5z" />
    <glyph glyph-name="K" unicode="K" 
d="M102 -136.5q0 13.5 10.5 24t24.5 10.5h59l74 37l37 74v1143l-37 73l-74 38h-59q-14 0 -24.5 10t-10.5 24t10.5 24t24.5 10h63h5h3h60h5h5h58h5h5h127h5h5h58h5h5h60h3h6h63q14 0 24 -10t10 -24t-10.5 -24t-23.5 -10h-60l-73 -38l-38 -73v-592l210 211q2 3 8 7l451 451
l-34 34h-123q-14 0 -24 10t-10 24t10 24t24 10h131h6h3h198h3h5h64q14 0 24 -10t10 -24t-10.5 -24t-23.5 -10h-60l-125 -62l-1 -1l-454 -454l481 -782l101 -66h58q14 0 24 -10.5t10 -24t-10.5 -24t-23.5 -10.5h-64h-5h-3h-60h-5h-5h-58h-5h-5h-58h-5h-6h-128h-3h-5h-63
q-14 0 -24 10.5t-10 24t10 24t24 10.5h54l53 54l-409 644q-3 3 -4 6l-138 -138v-455l38 -74l73 -37h60q14 0 24 -10.5t10 -24t-10.5 -24t-23.5 -10.5h-63h-6h-3h-60h-5h-5h-58h-5h-5h-127h-5h-5h-58h-5h-5h-60h-3h-5h-63q-14 0 -24.5 10.5t-10.5 24zM375 -72
q2 -10 10.5 -19.5t18.5 -10.5h-29v29v1zM375 1232v2v29h29q-10 -2 -18.5 -11.5t-10.5 -19.5zM415 -102q10 2 18.5 11t10.5 19v-1v-29h-29zM415 1263h29v-29v-2q-2 10 -10.5 19.5t-18.5 11.5zM695 647q10 -3 17 -14l5 -10q7 26 34 26q20 0 29 -16l118 -188l-154 251z" />
    <glyph glyph-name="L" unicode="L" horiz-adv-x="1228" 
d="M102 -136.5q0 13.5 10.5 24t24.5 10.5h59l74 37l37 74v1143l-37 73l-74 38h-59q-14 0 -24.5 10t-10.5 24t10.5 24t24.5 10h63h5h3h60h5h5h58h5h5h127h5h5h58h5h5h60h3h6h63q14 0 24 -10t10 -24t-10.5 -24t-23.5 -10h-60l-73 -38l-38 -73v-1143l38 -74l73 -37h193l184 37
l55 34l27 43l44 266l2 4q0 2 2 5l2 3v2l1 2l2 1v2l2 2q0 2 3 1.5t3 1.5v2h2l2 1h3l2 2h2h1h4h2h1h2h3h2l2 -2h3l2 -1l3 -2l4 -2l1 -3l2 -2l4 -3q3 -3 3 -5v-4l2 -1v-2v-7v-2v-198v-5v-3v-60v-5v-5v-58v-5v-5v-64q0 -14 -10.5 -24t-23.5 -10h-64h-5h-5h-58h-5h-5h-60h-3h-4
h-131h-2h-2h-197h-6h-3h-60h-5h-5h-58h-5h-5h-127h-5h-5h-58h-5h-5h-60h-3h-5h-63q-14 0 -24.5 10.5t-10.5 24zM375 -72q2 -10 10.5 -19.5t18.5 -10.5h-29v29v1zM375 1232v2v29h29q-10 -2 -18.5 -11.5t-10.5 -19.5zM415 -102q10 2 18.5 11t10.5 19v-1v-29h-29zM415 1263h29
v-29v-2q-2 10 -10.5 19.5t-18.5 11.5z" />
    <glyph glyph-name="M" unicode="M" horiz-adv-x="1774" 
d="M102 -136.5q0 13.5 10.5 24t24.5 10.5h59l111 54v1256l-111 55h-59q-14 0 -24.5 10t-10.5 24t10.5 24t24.5 10h63h5h3h128h4h1h2h3h58h6h5h58h5q9 0 15 -3l4 -2l1 -2l4 -1q7 -7 10 -21l375 -1126l376 1126v2q3 10 7 14v1l1 2h2v2h2q2 0 2 1.5t1 1.5l2 2h2q0 2 1 1h4l2 2
h1h4h3h3h2h126h6h5h58h5h5h60h3h5h63q14 0 24.5 -10t10.5 -24t-10.5 -24t-24.5 -10h-59l-74 -38l-37 -73v-1143l37 -74l74 -37h59q14 0 24.5 -10.5t10.5 -24t-10.5 -24t-24.5 -10.5h-63h-5h-3h-60h-5h-5h-58h-5h-6h-126h-5h-5h-58h-5h-5h-60h-3h-6h-63q-14 0 -24 10.5
t-10 24t10.5 24t23.5 10.5h60l73 37l38 74v1078l-341 -1026q0 -5 -4 -8l-65 -196q-3 -17 -15 -23q-2 -2 -3 -1l-2 -2h-4l-1 -2h-2h-3h-4h-2h-1h-2h-3q-2 0 -2 1t-2 1q-3 0 -7 3q-12 7 -15 23l-410 1230v-1135l111 -54h60q14 0 24 -10.5t10 -24t-10 -24t-24 -10.5h-63h-5h-4
h-266h-3h-5h-63q-14 0 -24.5 10.5t-10.5 24zM795 44q10 -10 24 -10q15 0 24 9l-24 -72zM1331 -72q2 -10 10.5 -19.5t18.5 -10.5h-29v29v1zM1331 1231v32h29q-26 -3 -29 -32zM1370 -102q10 2 18.5 11t10.5 19v-1v-29h-29zM1370 1263h29v-29v-2q-2 10 -10.5 19.5t-18.5 11.5z
" />
    <glyph glyph-name="N" unicode="N" horiz-adv-x="1638" 
d="M102 -136.5q0 13.5 10.5 24t24.5 10.5h59l111 54v1256l-111 55h-59q-14 0 -24.5 10t-10.5 24t10.5 24t24.5 10h63h5h3h128h2h3h5h58h6h5h58h5q9 0 12 -2l3 -1l4 -2q10 -7 12 -14l754 -1131v1027l-111 55h-60q-14 0 -24 10t-10 24t10.5 24t23.5 10h63h6h3h266h4h5h63
q14 0 24 -10t10 -24t-10 -24t-24 -10h-60l-111 -55v-1136v-4v-3v-198v-4q0 -20 -13 -29h-2l-2 -1h-2q-2 -2 -3 -2q-2 0 -5 -1l-4 -1h-3q-2 0 -5 1t-5 1q-15 3 -21 15v2l-891 1336v-1232l111 -54h60q14 0 24 -10.5t10 -24t-10 -24t-24 -10.5h-63h-5h-4h-266h-3h-5h-63
q-14 0 -24.5 10.5t-10.5 24zM1224 34h5q27 0 34 26v-84z" />
    <glyph glyph-name="O" unicode="O" horiz-adv-x="1501" 
d="M171 478v205v3q2 3 1 5l69 273q0 5 1 7l69 137q2 3 6 8l137 137q3 3 14 8l201 67v1h3l2 2h2h2h1h2h2h5h126h5q7 0 10 -2h2l203 -68q10 -5 14 -8l136 -137q5 -5 7 -8l69 -137q2 -2 1 -7l68 -273q0 -2 1 -5l1 -3v-205v-4q-2 -3 -2 -5l-68 -273q0 -5 -1 -7l-69 -136
q-2 -3 -7 -9l-136 -136q-3 -3 -14 -9l-201 -68h-2h-2q-3 -2 -10 -2h-5h-126h-5q-7 0 -11 2h-1l-203 68q-10 5 -14 9l-137 136q-5 5 -6 9l-69 136q-2 2 -1 7l-69 273v5zM375 413l67 -263l128 -191l121 -61h120l121 61l128 191l66 263v335l-66 262l-128 191l-121 62h-120
l-121 -62l-128 -191l-67 -262v-335zM422 36l41 -41l-31 46zM422 1125l10 -5l31 46zM1039 -5l41 41l-10 5zM1039 1166l31 -46l10 5z" />
    <glyph glyph-name="P" unicode="P" horiz-adv-x="1501" 
d="M102 -136.5q0 13.5 10.5 24t24.5 10.5h59l74 37l37 74v1143l-37 73l-74 38h-59q-14 0 -24.5 10t-10.5 24t10.5 24t24.5 10h63h5h3h60h5h5h58h5h5h127h5h5h58h5h5h60h3h6h331h5q7 0 10 -2h2l203 -68q10 -5 13 -8l69 -69q5 -5 7 -8l68 -137q3 -7 3 -15v-205q0 -9 -3 -15
l-68 -137q-2 -3 -7 -8l-69 -68q-3 -3 -13 -9l-202 -68h-1h-2q-3 -2 -10 -2h-5h-439v-503l38 -74l73 -37h60q14 0 24 -10.5t10 -24t-10.5 -24t-23.5 -10.5h-63h-6h-3h-60h-5h-5h-58h-5h-5h-127h-5h-5h-58h-5h-5h-60h-3h-5h-63q-14 0 -24.5 10.5t-10.5 24zM375 -72
q2 -10 10.5 -19.5t18.5 -10.5h-29v29v1zM375 1232v2v29h29q-10 -2 -18.5 -11.5t-10.5 -19.5zM415 -102q10 2 18.5 11t10.5 19v-1v-29h-29zM415 1263h29v-29v-2q-2 10 -10.5 19.5t-18.5 11.5zM512 580h435l120 60l59 119v325l-59 119l-120 60h-324l-73 -38l-38 -73v-572z" />
    <glyph glyph-name="Q" unicode="Q" horiz-adv-x="1501" 
d="M171 478v205v3q2 3 1 5l69 273q0 5 1 7l69 137q2 3 6 8l137 137q3 3 14 8l201 67v1h3l2 2h2h2h1h2h2h5h126h5q7 0 10 -2h2l203 -68q10 -5 14 -8l136 -137q5 -5 7 -8l69 -137q2 -2 1 -7l68 -273q0 -2 1 -5l1 -3v-205v-4q-2 -3 -2 -5l-68 -273q0 -5 -1 -7l-69 -136
q-2 -3 -7 -9l-129 -131l66 -167l53 -53h41l48 48v54q0 14 10 24t24 10t24 -10t10 -24v-63v-5v-3v-65q0 -9 -3 -16l-68 -136q-10 -19 -31 -19h-137q-20 0 -30 19l-69 136q-3 3 -3 11l-36 218l-121 -41h-2h-2q-3 -2 -10 -2h-5h-126h-5q-7 0 -11 2h-1l-203 68q-10 5 -14 9
l-137 136q-5 5 -6 9l-69 136q-2 2 -1 7l-69 273v5zM375 413l67 -263l22 -34l51 104q7 9 16 16l136 68q7 3 16 3h68q9 0 15 -3l137 -68q9 -7 15 -16l67 -133q2 -2 1 -3l2 -4l9 -24l63 94l66 263v335l-66 262l-128 191l-121 62h-120l-121 -62l-128 -191l-67 -262v-335zM422 36
l41 -41l-31 46zM422 1125l10 -5l31 46zM507 51l63 -92l121 -61h120l121 61l7 9l-16 90l-61 121l-120 60h-51l-119 -60l-63 -126zM1039 -5l41 41l-10 5zM1039 1166l31 -46l10 5zM1080 -377l57 -56q10 -10 24 -11h-48zM1229 -375q8 0 15 3l-3 -5q-3 2 -12 2z" />
    <glyph glyph-name="R" unicode="R" horiz-adv-x="1501" 
d="M102 -136.5q0 13.5 10.5 24t24.5 10.5h59l74 37l37 74v1143l-37 73l-74 38h-59q-14 0 -24.5 10t-10.5 24t10.5 24t24.5 10h63h5h3h60h5h5h58h5h5h127h5h5h58h5h5h60h3h6h331h5q7 0 10 -2h2l203 -68q10 -5 13 -8l69 -69q5 -5 7 -8l68 -137q3 -7 3 -15v-137q0 -9 -3 -15
l-68 -136q-2 -3 -7 -9l-69 -68q-3 -3 -13 -9l-202 -68h-1h-2q-3 -2 -10 -2h-5h-55l3 -1h2l2 -2h2l1 -4l4 -1l1 -2l69 -68q5 -5 6 -9l202 -404l54 -55h41l48 48v55q0 14 10.5 24t24 10t23.5 -10.5t10 -23.5v-64v-5v-3v-65q0 -9 -3 -15l-68 -137q-10 -19 -31 -19h-136
q-20 0 -31 19l-68 137q0 2 0 1l-2 4l-137 406l-61 125l-120 59h-230v-571l38 -74l73 -37h60q14 0 24 -10.5t10 -24t-10.5 -24t-23.5 -10.5h-63h-6h-3h-60h-5h-5h-58h-5h-5h-127h-5h-5h-58h-5h-5h-60h-3h-5h-63q-14 0 -24.5 10.5t-10.5 24zM375 -72q2 -10 10.5 -19.5
t18.5 -10.5h-29v29v1zM375 1232v2v29h29q-10 -2 -18.5 -11.5t-10.5 -19.5zM415 -102q10 2 18.5 11t10.5 19v-1v-29h-29zM415 1263h29v-29v-2q-2 10 -10.5 19.5t-18.5 11.5zM512 649h234h5h3h193l120 59l59 120v256l-59 119l-120 60h-324l-73 -38l-38 -73v-503zM1072 169
l1 -3zM1149 -36l56 -56q10 -10 24 -10h-48zM1297 -34q8 0 15 3l-3 -5q-3 2 -12 2z" />
    <glyph glyph-name="S" unicode="S" 
d="M171 -137v410q0 14 10 24t24 10q27 0 32 -24l67 -196l124 -125l192 -64h194l186 61l58 118v188l-60 119l-124 61l-406 137q-5 0 -9 3l-205 137q-12 12 -12 14l-68 136q-3 7 -3 15v205q0 14 10 24l135 135l1 2q7 7 18 10l201 66q3 2 10 2h205q7 0 10 -2l205 -68
q10 -5 14 -8l97 -98l51 152q5 24 33 24q14 0 24 -10t10 -24v-410q0 -14 -10.5 -24t-23.5 -10q-27 0 -33 24l-66 196l-125 125l-191 65h-195l-186 -62l-58 -117v-120l60 -119l125 -62l406 -136q5 0 8 -4l205 -136q12 -12 12 -14l68 -136q3 -7 4 -16v-204q0 -9 -4 -16
l-68 -136q-2 -3 -7 -9l-66 -66l-2 -2q-7 -7 -17 -10l-202 -67q-3 -2 -10 -2h-205q-7 0 -10 2l-205 68q-10 5 -13 9l-98 97l-51 -152q-5 -24 -32 -24q-14 0 -24 10.5t-10 23.5zM239 894v2v60q0 -9 3 -16l12 -24q-14 -10 -15 -22zM1111 312q13 11 15 23v-62q0 9 -3 15z" />
    <glyph glyph-name="T" unicode="T" 
d="M102 879v2v6v2v198v5v4v59v6v5v58v5v5v58v5q0 10 7 21v1l2 2h2v2h1q9 8 23 8h5h58h5h5h58h5h5h60h3h4h131h2h2h129h5h6h126h5h5h128h2h3h130h5h3h60h5h5h58h6h5h58h5q10 0 20 -7h2l2 -1v-2l1 -2q9 -9 9 -22v-5v-58v-5v-5v-58v-5v-6v-59v-4v-3v-200v-2v-1v-4q0 -2 -1 -1.5
t-1 -1.5v-3v-2l-1 -2v-2l-2 -1l-2 -2l-5 -5l-2 -4q-3 -3 -7 -3h-3l-2 -2h-1h-4h-3h-2h-2h-1h-2h-2q-2 2 -3 2h-2l-2 2l-3 1h-2l-1 4l-4 2v1l-2 2l-1 2l-2 1v2l-2 4q0 2 -0.5 3.5t-0.5 2.5l-45 267l-27 42l-55 34l-184 38h-99v-1254l38 -74l73 -37h60q14 0 24 -10.5t10 -24
t-10.5 -24t-23.5 -10.5h-63h-6h-3h-60h-5h-5h-58h-5h-5h-126h-6h-5h-58h-5h-5h-60h-3h-5h-63q-14 0 -24.5 10.5t-10.5 24t10.5 24t24.5 10.5h59l74 37l37 74v1254h-99l-184 -38l-55 -34l-27 -42l-44 -267l-2 -3q0 -2 -2 -5l-1 -4v-1l-2 -2l-2 -3l-2 -2q0 -2 -3 -2t-3 -2v-1
h-2h-2l-3 -2l-2 -2h-2h-1h-4h-1h-2h-2h-3h-2l-2 2h-1h-2l-2 2l-3 1l-2 2h-2l-1 4l-2 1l-3 4q-3 3 -4 5v3zM649 -72q2 -10 10 -19.5t19 -10.5h-29v29v1zM649 1231v32h29q-26 -3 -29 -32zM688 -102q10 2 18.5 11t10.5 19v-1v-29h-29zM688 1263h29v-34q0 27 -29 34z" />
    <glyph glyph-name="U" unicode="U" horiz-adv-x="1638" 
d="M102 1297q0 14 10.5 24t24.5 10h63h5h3h60h5h5h58h5h5h127h5h5h58h5h5h60h3h6h63q14 0 24 -10t10 -24t-10.5 -24t-23.5 -10h-60l-73 -38l-38 -73v-942l65 -191l58 -60l124 -61h123l191 64l125 125l65 191v930l-111 55h-60q-14 0 -24 10t-10 24t10.5 24t23.5 10h63h6h3
h266h4h5h63q14 0 24 -10t10 -24t-10 -24t-24 -10h-60l-111 -55v-935q0 -7 -2 -10l-68 -205q-5 -10 -8 -14l-137 -136q-3 -3 -13 -9l-205 -68q-3 -2 -11 -2h-131h-5q-7 0 -10 2h-2l-203 68q-10 5 -14 9l-136 136q-3 3 -9 14l-68 205q-2 3 -2 10v879l-37 73l-74 38h-59
q-14 0 -24.5 10t-10.5 24zM375 1232q2 10 10.5 19.5t18.5 11.5h-29v-29v-2zM415 1263q10 -2 18.5 -11.5t10.5 -19.5v2v29h-29zM490 36l12 -12l-5 15q-3 -3 -7 -3z" />
    <glyph glyph-name="V" unicode="V" 
d="M34 1297q0 14 10.5 24t23.5 10h63h6h3h60h5h5h58h5h5h58h5h5h58h6h5h59h4h5h63q14 0 24 -10t10 -24t-10 -24t-24 -10h-60l-73 -38l-7 -13l347 -1043l365 1043l-103 51h-128q-14 0 -24 10t-10 24t10.5 24t23.5 10h132h5h3h198h4h5h63q14 0 24 -10t10 -24t-10 -24t-24 -10
h-55l-52 -53l-473 -1355h-2v-3l-2 -4q0 -2 -3 -5l-2 -3l-1 -2h-2l-2 -2v-2h-2h-1v-1h-2l-2 -2h-1h-2l-2 -2h-3h-2h-2h-1h-2h-2h-1h-2h-2l-2 2h-1h-2l-2 2l-3 1l-4 2l-1 4l-2 1q-2 2 -4.5 6.5t-2.5 5.5l-1 2l-441 1321l-85 87h-55q-14 0 -24 10t-10 24z" />
    <glyph glyph-name="W" unicode="W" horiz-adv-x="1638" 
d="M34 1297q0 14 10.5 24t23.5 10h65h4h1h62h5h3h60h5h5h58h5h5h58h6h5h58h5h5h60h3h5h63q14 0 24.5 -10t10.5 -24t-10.5 -24t-24.5 -10h-59l-74 -38l-17 -32l150 -802l171 906q0 10 5 19l2 2l2 1l1 2l4 3l1 2l2 2h4h1l2 1l2 2h1h4h3h2h2h1h58h5h6h58h5q10 0 20 -7h2l2 -1
v-2q10 -10 10 -24l172 -913l164 826l-106 53h-59q-14 0 -24.5 10t-10.5 24t10.5 24t24.5 10h63h5h3h266h4h5h63q14 0 24 -10t10 -24t-10 -24t-24 -10h-60l-114 -58l-201 -1004v-3l-2 -3l-67 -335v-2v-1l-1 -2q0 -5 -2 -7q0 -2 -3 -5v-2l-2 -1h-2l-2 -2v-2h-1v-2h-2l-2 -1
q-2 -2 -3 -2h-3l-2 -2h-2h-7h-5h-2h-1l-2 2h-3l-2 2h-2l-2 1l-3 2l-2 4l-1 1q-2 2 -4.5 6.5t-2.5 5.5l-2 2v2v3l-239 1253l-170 -912v-3l-2 -3l-67 -335v-2v-1l-1 -2q0 -5 -2 -7q0 -2 -4 -5v-2l-1 -1h-2l-2 -2v-2h-1v-2h-2l-2 -1q-2 -2 -3 -2h-4l-1 -2h-2h-7h-5h-2h-1l-2 2
h-4l-1 2h-2l-2 1l-3 2l-2 4l-1 1q0 2 -3 6.5t-4 5.5l-2 2v2v3l-254 1336l-38 36l-89 31h-63q-14 0 -24 10t-10 24z" />
    <glyph glyph-name="X" unicode="X" 
d="M34 -136.5q0 13.5 10.5 24t23.5 10.5h60l121 59l359 567l-386 676l-96 63h-58q-14 0 -24 10t-10 24t10.5 24t23.5 10h63h6h3h60h3h7h58h5h5h58h5h5h58h6h5h59h4h5h63q14 0 24 -10t10 -24t-10 -24t-24 -10h-60l-66 -34l300 -526l323 512l-96 48h-60q-14 0 -24 10t-10 24
t10.5 24t23.5 10h64h5h3h266h4h5h63q14 0 24 -10t10 -24t-10 -24t-24 -10h-60l-121 -60l-358 -566l385 -676l96 -63h58q14 0 24 -10.5t10 -24t-10 -24t-24 -10.5h-63h-5h-4h-59h-5h-6h-58h-5h-5h-58h-5h-5h-58h-5h-5h-60h-4h-5h-63q-14 0 -24 10.5t-10 24t10.5 24t23.5 10.5
h60l66 34l-300 525l-322 -512l95 -47h60q14 0 24 -10.5t10 -24t-10 -24t-24 -10.5h-63h-5h-4h-266h-3h-6h-63q-14 0 -24 10.5t-10 24z" />
    <glyph glyph-name="Y" unicode="Y" horiz-adv-x="1501" 
d="M34 1297q0 14 10.5 24t23.5 10h63h6h3h60h5h5h58h5h5h58h5h5h128h4h5h63q14 0 24 -10t10 -24t-10 -24t-24 -10h-60l-63 -31l394 -621l364 604l-97 48h-60q-14 0 -24 10t-10 24t10 24t24 10h63h5h4h266h3h5h64q14 0 24 -10t10 -24t-10.5 -24t-23.5 -10h-60l-121 -60
l-400 -667v-527l38 -74l73 -37h60q14 0 24 -10.5t10 -24t-10 -24t-24 -10.5h-63h-5h-4h-59h-6h-5h-58h-5h-5h-126h-5h-5h-58h-6h-5h-59h-4h-5h-63q-14 0 -24 10.5t-10 24t10 24t24 10.5h60l73 37l38 74v527l-436 684l-85 43h-60q-14 0 -24 10t-10 24zM717 -72
q2 -10 10.5 -19.5t18.5 -10.5h-29v29v1zM756 -102q10 2 18.5 11t10.5 19v-1v-29h-29z" />
    <glyph glyph-name="Z" unicode="Z" 
d="M171 -137q0 12 6 23l789 1377h-416l-185 -38l-54 -34l-28 -42l-44 -267l-2 -3q0 -2 -1 -5l-2 -4v-1l-2 -2l-2 -3l-1 -2q-2 -2 -4 -2q-3 0 -3 -2v-1h-2h-2l-3 -2l-2 -2h-1h-2h-3h-2h-2h-2h-3h-2l-1 2h-2h-2l-2 2l-3 1l-2 2h-1l-2 4l-2 1l-3 4q-3 3 -4 5v3l-1 2v2v6v2v198
v5v4v59v6v5v58v5v5v63q0 14 10 24t24 10h63h3h2h5h58h5h5h60h4h3h131h2h2h471h5h5h58h5h5h58h6q17 0 25 -12h2l2 -1v-2l1 -2v-2q2 -2 2 -3v-2q0 -2 1 -5t1 -5q0 -12 -7 -22l-789 -1377h417l184 37l55 34l27 43l44 266l2 4q0 2 2 5l2 3v2l1 2l2 1v2l2 2q0 2 3 1.5t3 1.5v2h2
l2 1h3l2 2h2h1h4h2h1h2h3h2l2 -2h3l2 -1l3 -2l4 -2l1 -3l2 -2l4 -3q3 -3 3 -5v-4l2 -1v-2v-7v-2v-198v-5v-3v-60v-5v-5v-58v-5v-5v-64q0 -14 -10.5 -24t-23.5 -10h-64h-5h-5h-58h-5h-5h-60h-3h-4h-131h-2h-2h-471h-5h-5h-58h-5h-5h-58h-5q-17 0 -26 12h-2v2l-1 2l-2 1v2
q-2 2 -2 4v1q0 2 -0.5 5.5t-0.5 4.5z" />
    <glyph glyph-name="bracketleft" unicode="[" horiz-adv-x="955" 
d="M239 -609v2174v5q0 10 7 21v1l1 2h2v2h2q8 8 22 8h5h58h5h5h405q14 0 24 -10t10 -24t-10 -24t-24 -10h-376v-2116h376q14 0 24 -10.5t10 -24t-10 -24t-24 -10.5h-405h-5h-5h-58h-5q-10 0 -20 7h-2l-2 2v2h-2v1q-9 9 -8 23v5z" />
    <glyph glyph-name="backslash" unicode="\" horiz-adv-x="955" 
d="M-34 1297q0 14 9 24t23 10q22 0 31 -17l956 -1638q5 -7 5 -19q0 -14 -10.5 -24t-23.5 -10q-20 0 -29 19l-956 1638q-5 7 -5 17z" />
    <glyph glyph-name="bracketright" unicode="]" horiz-adv-x="955" 
d="M171 -614.5q0 13.5 10 24t24 10.5h375v2116h-375q-14 0 -24 10t-10 24t10 24t24 10h404h5h6h58h5q10 0 20 -7h2l2 -1v-2l1 -2q9 -9 9 -22v-5v-2174v-5q0 -10 -7 -21v-2l-2 -1h-1l-2 -2q-9 -9 -22 -9h-5h-58h-6h-5h-404q-14 0 -24 10.5t-10 24z" />
    <glyph glyph-name="asciicircum" unicode="^" horiz-adv-x="1501" 
d="M444 335v3v3v4v3v2l1 2v1l2 2v3l4 2v2l1 2q2 2 2 3l2 2h1l4 1l271 342q5 5 17 5t21 -5l271 -342h2l1 -1l2 -2l4 -2q2 0 3.5 -3.5t1.5 -5t0.5 -3t0.5 -3.5h2v-4v-3v-2v-1v-4v-3l-2 -2v-2l-1 -3l-2 -2v-1q0 -2 -3 -6l-2 -1h-2l-2 -2l-1 -2q-2 -2 -4 -1q-7 -3 -13 -4h-4h-3
q-2 0 -2 1t-2 1h-3h-2l-1 2h-2l-256 266l-258 -266l-1 -2h-6q-2 0 -5 -1l-3 -1h-4h-3h-2l-1 2h-4l-3 2l-2 1l-2 2l-1 2l-2 1l-3 2l-2 4l-2 3v2l-2 1v2z" />
    <glyph glyph-name="underscore" unicode="_" 
d="M-34 -614.5q0 -13.5 10 -24t24 -10.5h1365q14 0 24 10.5t10 24t-10 24t-24 10.5h-1365q-14 0 -24 -10.5t-10 -24z" />
    <glyph glyph-name="grave" unicode="`" horiz-adv-x="819" 
d="M171 1229q0 14 10 24l65 65q10 13 27 13h3q17 0 26 -15l338 -406l2 -2l1 -3q3 -3 4 -7l2 -2v-3v-6v-1v-4v-3l-2 -2v-1v-2l-2 -2v-2l-2 -1l-1 -2v-2l-2 -1h-2l-5 -6h-2v-1h-1l-2 -2h-3l-2 -2h-2h-1h-2h-4h-3h-3h-2l-2 2q-5 0 -7 2l-1 1l-4 2v2l-1 2l-408 339q-12 9 -12 26
zM256 1231l92 -77l-77 92z" />
    <glyph glyph-name="a" unicode="a" horiz-adv-x="1501" 
d="M171 68q0 -9 3 -15l68 -137q7 -14 21 -17l201 -68q3 -2 14 -2h5h200q9 0 15 4l137 68q9 7 15 15l37 75l38 -75q7 -14 20 -17l202 -68q3 -2 14 -2h5h63q14 0 24 10.5t10 24t-10.5 24t-23.5 10.5h-55l-54 54l-62 125v469q0 9 -3 15l-69 137l-6 9l-69 68q-5 5 -8 7l-135 66
q-7 5 -17 5h-5h-268q-9 0 -15 -3l-137 -68q-3 -2 -9 -7l-68 -68q-10 -10 -10 -24v-137q0 -14 10 -24t24 -10h137q14 0 24 10t10 24v137q0 14 -10.5 24t-23.5 10h-55l7 7l124 61h251l55 -55l61 -124v-114l-51 -52l-331 -65h-2l-1 -1l-205 -69q-14 -3 -21 -17l-68 -136
q-3 -7 -3 -15v-69zM307 580v34q0 -27 29 -34h-29zM346 580q26 4 29 33v-33h-29zM375 77v51l60 119l123 62l268 66l2 2h1h2l2 2h3q7 3 11 10l6 7v-319l-59 -120l-120 -59h-182l-55 54z" />
    <glyph glyph-name="b" unicode="b" 
d="M102 1297q0 14 10.5 24t24.5 10h63h5h3h60h5h5h58h5h5h132q14 0 24 -10t10 -24v-538l3 7q7 9 16 16l136 68q7 3 16 3h131h5q7 0 10 -1h2l203 -69q10 -5 14 -8l136 -137q3 -3 9 -13l68 -205q2 -3 2 -10v-137q0 -7 -2 -10l-68 -205q-5 -10 -9 -14l-136 -136q-3 -3 -14 -9
l-201 -68h-2h-2q-3 -2 -10 -2h-5h-131q-9 0 -16 4l-129 65h-55h-5h-5h-50l-58 -58q-10 -10 -23.5 -10.5t-24 10t-10.5 23.5v1289l-37 73l-74 38h-59q-14 0 -24.5 10t-10.5 24zM375 0q0 -31 31 -34q-10 0 -20 -10l-11 -11v55zM375 1232v2v29h29q-10 -2 -18.5 -11.5
t-10.5 -19.5zM415 -34q26 3 29 32v-32h-29zM415 1263h29v-34q0 27 -29 34zM512 77l60 -120l119 -59h120l124 61l58 60l65 191v263l-65 191l-58 60l-124 61h-120l-119 -60l-60 -119v-529zM1068 24l5 15q3 -3 7 -3zM1068 659l12 -12q-3 0 -7 -4z" />
    <glyph glyph-name="c" unicode="c" horiz-adv-x="1228" 
d="M171 273v137q0 7 1 10l69 205q5 10 8 13l137 137q3 3 13 8l202 69h3q3 1 10 1h6h199q9 0 16 -3l136 -68q3 -2 9 -7l136 -137q10 -10 10 -24v-136q0 -14 -10 -24t-24 -10h-136q-14 0 -24 10t-10 24v136q0 14 10 24.5t24 10.5h54l-75 75l-124 61h-188l-125 -61l-58 -60
l-65 -191v-263l65 -191l58 -60l125 -61h123l191 64l131 130q10 10 24 10t24 -10t10 -23.5t-10 -24.5l-136 -136q-3 -3 -14 -9l-205 -68q-3 -2 -10 -2h-131h-6q-7 0 -10 2h-2l-203 68q-10 5 -13 9l-137 136q-3 3 -8 14l-69 205q-2 3 -1 10zM353 36q4 0 7 3l5 -15zM353 647
l12 12l-5 -16q-3 3 -7 4zM990 512v34q0 -27 29 -34h-29zM1029 512q26 3 29 32v-32h-29z" />
    <glyph glyph-name="d" unicode="d" horiz-adv-x="1501" 
d="M171 273v137q0 7 1 10l69 205q5 10 8 13l137 137q3 3 13 8l202 69h3q3 2 10 1h6h131q9 0 15 -3l137 -68q9 -7 15 -16l4 -7v393l-38 73l-73 38h-60q-14 0 -24 10t-10 24t10 24t24 10h63h5h4h59h5h6h58h5h5h131q14 0 24 -10t10 -24v-1288l38 -74l73 -37h60q14 0 24 -10.5
t10 -24t-10 -24t-24 -10.5h-63h-5h-4h-59h-5h-6h-58h-5h-5h-131q-14 0 -24 10.5t-10 23.5v60l-4 -7q-7 -9 -15 -15l-137 -68q-7 -3 -15 -4h-131h-6q-7 0 -10 2h-2l-203 68q-10 5 -13 9l-137 136q-3 3 -8 14l-69 205q-2 3 -1 10zM353 36q4 0 7 3l5 -15zM353 647l12 12l-5 -16
q-3 3 -7 4zM375 210l65 -191l58 -60l125 -61h119l120 59l60 120v529l-60 119l-120 60h-119l-125 -61l-58 -60l-65 -191v-263zM990 -68q0 -27 29 -34h-29v34zM990 1232v2v29h29q-10 -2 -18.5 -11.5t-10.5 -19.5zM1029 -102q10 2 18.5 11t10.5 19v-1v-29h-29zM1029 1263h29
v-34q0 27 -29 34z" />
    <glyph glyph-name="e" unicode="e" horiz-adv-x="1228" 
d="M171 273v137q0 7 1 10l69 205q5 10 8 13l137 137q3 3 13 8l202 69h3q3 1 10 1h6h126h5q7 0 10 -1h2l203 -69q10 -5 14 -8l68 -68q5 -5 7 -9l68 -137q3 -7 3 -15v-136q0 -14 -10 -24.5t-24 -10.5h-131h-5h-5h-576v-165l65 -191l58 -60l125 -61h123l191 64l131 130
q10 10 24 10t24 -10t10 -23.5t-10 -24.5l-136 -136q-3 -3 -14 -9l-205 -68q-3 -2 -10 -2h-131h-6q-7 0 -10 2h-2l-203 68q-10 5 -13 9l-137 136q-3 3 -8 14l-69 205q-2 3 -1 10zM353 36l12 -12l-5 15q-3 -3 -7 -3zM353 647q3 0 7 -4l5 16zM375 444h547v162l-60 119l-120 60
h-119l-125 -61l-58 -60l-65 -191v-29zM990 444h29q-29 7 -29 34v-34zM1029 444h29v32q-3 -29 -29 -32z" />
    <glyph glyph-name="f" unicode="f" horiz-adv-x="955" 
d="M102 -136.5q0 13.5 10.5 24t24.5 10.5h59l74 37l37 74v776h-170q-14 0 -24.5 10.5t-10.5 24t10.5 23.5t24.5 10h170v103q0 7 2 10l68 205q5 10 9 13l68 69q5 5 9 7l134 66l2 2h2q6 3 13 3h6h199q14 0 24 -10l68 -68q10 -10 11 -24v-137q0 -14 -10.5 -24t-24.5 -10h-136
q-14 0 -24 10.5t-10 23.5v137q0 14 10 24t24 10h-123l-55 -55l-61 -124v-231h239q14 0 24 -10t10 -23.5t-10 -24t-24 -10.5h-239v-776l38 -74l73 -37h60q14 0 24 -10.5t10 -24t-10.5 -24t-23.5 -10.5h-63h-6h-3h-60h-5h-5h-58h-5h-5h-127h-5h-5h-58h-5h-5h-60h-3h-5h-63
q-14 0 -24.5 10.5t-10.5 24zM375 -72q2 -10 10.5 -19.5t18.5 -10.5h-29v29v1zM415 -102q10 2 18.5 11t10.5 19v-1v-29h-29zM785 1126v35q0 -27 29 -35h-29zM824 1126q26 4 29 33v-33h-29z" />
    <glyph glyph-name="g" unicode="g" 
d="M102 -341q0 9 4 15l68 137q7 14 21 17l49 17q0 2 -1 1.5t-1 1.5l-66 135l-2 2v1q-3 7 -3 14v5v63q0 9 3 16l68 136q2 3 7 9l51 51l-58 114q-3 7 -3 16v136q0 9 3 15l69 137l6 9l69 68q5 5 8 7l133 66h2v2h3v2h2h2l3 1h4h3h4h1h127h5q10 0 17 -5l135 -66q3 -2 8 -7l10 -10
l11 10q5 5 8 7l137 68q7 3 15 3h68q14 0 24 -10l68 -68q10 -10 10.5 -24t-10.5 -24l-68 -68q-10 -10 -23.5 -10t-24.5 10l-68 68q-10 10 -10 24q0 7 3 14l-85 -41l-7 -7l10 -10q5 -5 7 -9l68 -137q3 -7 4 -15v-136q0 -9 -4 -16l-68 -136q-2 -3 -7 -9l-68 -68q-5 -5 -8 -7
l-135 -66l-2 -2h-2q-7 -3 -13 -4h-5h-127h-5q-10 0 -17 6l-135 66q-3 2 -8 7l-45 44l-41 -41l-61 -124v-46l53 -52l191 -64h336q7 0 10 -2l205 -68q14 -3 21 -17l68 -137q3 -7 3 -15v-65v-4q0 -10 -6 -20l-65 -131q-7 -14 -21 -18l-205 -68q-3 -2 -10 -2h-404h-5q-7 0 -11 2
h-1l-203 68q-14 3 -21 18l-68 136q-3 7 -4 15v69zM239 -350v-51l60 -120l119 -59h396l186 61l51 103l-46 44l-191 65h-268q-7 0 -10 2l-205 68q-10 5 -14 8l-5 5l-13 -6zM299 -113l1 -3l9 -9q0 3 3 7zM444 350l61 -125l55 -54h109l55 54l61 125v256l-61 124l-55 55h-109
l-55 -55l-61 -124v-256zM1029 -307q2 0 3.5 1t3.5 1l3 -6q-2 0 -1 0l-4 2zM1031 785q10 -3 17 -10l44 -45l21 21l-34 34h-46h-2z" />
    <glyph glyph-name="h" unicode="h" horiz-adv-x="1638" 
d="M102 -136.5q0 13.5 10.5 24t24.5 10.5h59l74 37l37 74v1143l-37 73l-74 38h-59q-14 0 -24.5 10t-10.5 24t10.5 24t24.5 10h63h5h3h60h5h5h58h5h5h132q14 0 24 -10t10 -24v-606l3 7q2 3 7 9l69 68q5 5 8 7l137 68q7 3 15 3h200h5q10 0 17 -5l135 -66q3 -2 8 -7l68 -68
q3 -3 9 -14l68 -205q2 -3 2 -10v-469l37 -74l74 -37h60q14 0 24 -10.5t10 -24t-10.5 -24t-23.5 -10.5h-64h-5h-3h-60h-5h-5h-58h-5h-5h-127h-5h-5h-58h-5h-5h-60h-3h-5h-64q-14 0 -24 10.5t-10 24t10.5 24t23.5 10.5h60l74 37l37 74v532l-65 191l-51 53h-183l-124 -61
l-62 -62l-61 -124v-529l38 -74l73 -37h60q14 0 24 -10.5t10 -24t-10.5 -24t-23.5 -10.5h-63h-6h-3h-60h-5h-5h-58h-5h-5h-127h-5h-5h-58h-5h-5h-60h-3h-5h-63q-14 0 -24.5 10.5t-10.5 24zM375 -72q2 -10 10.5 -19.5t18.5 -10.5h-29v29v1zM375 1232v2v29h29
q-10 -2 -18.5 -11.5t-10.5 -19.5zM415 -102q10 2 18.5 11t10.5 19v-1v-29h-29zM415 1263h29v-34q0 27 -29 34zM1068 725l12 -10q-3 0 -7 -3zM1126 -72q2 -10 10.5 -19.5t18.5 -10.5h-29v29v1zM1166 -102q10 2 18.5 11t10.5 19v-1v-29h-29z" />
    <glyph glyph-name="i" unicode="i" horiz-adv-x="819" 
d="M102 -136.5q0 13.5 10.5 24t24.5 10.5h59l74 37l37 74v665l-37 74l-74 37h-59q-14 0 -24.5 10.5t-10.5 24t10.5 23.5t24.5 10h63h5h3h60h5h5h58h5h5h132q14 0 24 -10t10 -24v-810l38 -74l73 -37h60q14 0 24 -10.5t10 -24t-10.5 -24t-23.5 -10.5h-63h-6h-3h-60h-5h-5h-58
h-5h-5h-127h-5h-5h-58h-5h-5h-60h-3h-5h-63q-14 0 -24.5 10.5t-10.5 24zM307 1161q0 -14 10.5 -24.5t23.5 -10.5h63h6h5h63q14 0 24 10.5t10 24.5v63v5v5v63q0 14 -10 24t-24 10h-63h-5h-6h-58h-5q-14 0 -22 -8h-2v-2h-1l-2 -2v-1q-7 -10 -7 -21v-5v-58v-5v-5v-63zM375 -72
q2 -10 10.5 -19.5t18.5 -10.5h-29v29v1zM375 754v2v29h29q-10 -2 -18.5 -11t-10.5 -20zM415 -102q10 2 18.5 11t10.5 19v-1v-29h-29zM415 785h29v-34q0 27 -29 34z" />
    <glyph glyph-name="j" unicode="j" horiz-adv-x="819" 
d="M34 -410q0 14 10.5 24.5t23.5 10.5h137q14 0 24 -10.5t10 -24.5v-136q0 -14 -10.5 -24t-23.5 -10h123l51 53l65 191v1010l-38 74l-73 37h-60q-14 0 -24 10.5t-10 24t10 23.5t24 10h63h5h4h59h6h5h58h5h5h131q14 0 24.5 -10t10.5 -24v-1092q0 -7 -2 -10l-68 -205
q-5 -10 -9 -14l-68 -68q-5 -5 -9 -7l-135 -66l-1 -2h-2q-7 -3 -14 -4h-5h-199q-14 0 -24 11l-69 68q-10 10 -10 24v136zM102 -444h29q-26 -3 -29 -32v32zM142 -444h29v-34q0 27 -29 34zM444 1161q0 -14 10 -24.5t24 -10.5h63h5h5h63q14 0 24.5 10.5t10.5 24.5v63v5v5v63
q0 14 -10.5 24t-24.5 10h-63h-5h-5h-58h-5q-14 0 -22 -8h-2v-2h-2l-1 -2v-1q-7 -10 -7 -21v-5v-58v-5v-5v-63zM454 -521l5 14q3 -3 7 -3l-9 -9zM512 754v2v29h29q-10 -2 -18.5 -11t-10.5 -20zM551 785h29v-34q0 27 -29 34z" />
    <glyph glyph-name="k" unicode="k" horiz-adv-x="1501" 
d="M102 -136.5q0 13.5 10.5 24t24.5 10.5h59l74 37l37 74v1143l-37 73l-74 38h-59q-14 0 -24.5 10t-10.5 24t10.5 24t24.5 10h63h5h3h60h5h5h58h5h5h132q14 0 24 -10t10 -24v-1079l143 144l7 7v1l62 60l6 7l304 305l-87 43h-60q-14 0 -24 10.5t-10 24t10.5 23.5t23.5 10h64
h5h3h335h3h3h65q14 0 24 -10t10 -23.5t-10 -24t-24 -10.5h-63l-191 -65l-314 -312l399 -456l110 -54h59q14 0 24 -10.5t10 -24t-10 -24t-24 -10.5h-63h-5h-3h-60h-5h-4h-59h-5h-6h-58h-5h-5h-128h-3h-5h-64q-14 0 -24 10.5t-10 24t10.5 24t23.5 10.5h55l41 41l-302 353
l-169 -169v-114l38 -74l73 -37h60q14 0 24 -10.5t10 -24t-10.5 -24t-23.5 -10.5h-63h-6h-3h-60h-5h-5h-58h-5h-5h-127h-5h-5h-58h-5h-5h-60h-3h-5h-63q-14 0 -24.5 10.5t-10.5 24zM375 -72q2 -10 10.5 -19.5t18.5 -10.5h-29v29v1zM375 1232v2v29h29q-10 -2 -18.5 -11.5
t-10.5 -19.5zM415 -102q10 2 18.5 11t10.5 19v-1v-29h-29zM415 1263h29v-34q0 27 -29 34z" />
    <glyph glyph-name="l" unicode="l" horiz-adv-x="819" 
d="M102 -136.5q0 13.5 10.5 24t24.5 10.5h59l74 37l37 74v1143l-37 73l-74 38h-59q-14 0 -24.5 10t-10.5 24t10.5 24t24.5 10h63h5h3h60h5h5h58h5h5h132q14 0 24 -10t10 -24v-1288l38 -74l73 -37h60q14 0 24 -10.5t10 -24t-10.5 -24t-23.5 -10.5h-63h-6h-3h-60h-5h-5h-58h-5
h-5h-127h-5h-5h-58h-5h-5h-60h-3h-5h-63q-14 0 -24.5 10.5t-10.5 24zM375 -72q2 -10 10.5 -19.5t18.5 -10.5h-29v29v1zM375 1232v2v29h29q-10 -2 -18.5 -11.5t-10.5 -19.5zM415 -102q10 2 18.5 11t10.5 19v-1v-29h-29zM415 1263h29v-34q0 27 -29 34z" />
    <glyph glyph-name="m" unicode="m" horiz-adv-x="2321" 
d="M102 -136.5q0 13.5 10.5 24t24.5 10.5h59l74 37l37 74v665l-37 74l-74 37h-59q-14 0 -24.5 10.5t-10.5 24t10.5 23.5t24.5 10h63h5h3h60h5h5h58h5h5h132q14 0 24 -10t10 -24v-128l3 7q2 3 7 9l69 68q5 5 8 7l137 68q7 3 15 3h200h5q10 0 17 -5l135 -66q3 -2 8 -7l68 -68
q3 -3 9 -14l29 -85l44 90q2 3 7 9l68 68q5 5 9 7l137 68q7 3 15 3h200h5q9 0 17 -5l135 -66q3 -2 8 -7l68 -68q3 -3 9 -14l68 -205q2 -3 2 -10v-469l37 -74l74 -37h60q14 0 24 -10.5t10 -24t-10.5 -24t-23.5 -10.5h-64h-5h-3h-60h-5h-5h-58h-5h-5h-127h-5h-5h-58h-5h-5h-60
h-3h-5h-64q-14 0 -24 10.5t-10 24t10.5 24t23.5 10.5h60l74 37l37 74v532l-65 191l-51 53h-183l-124 -61l-62 -62l-64 -131q-3 -9 -9 -10l10 -33q2 -3 2 -10v-469l37 -74l74 -37h60q14 0 24 -10.5t10 -24t-10.5 -24t-23.5 -10.5h-64h-5h-3h-60h-5h-5h-58h-5h-5h-127h-5h-5
h-58h-5h-5h-60h-3h-5h-64q-14 0 -24 10.5t-10 24t10.5 24t23.5 10.5h60l74 37l37 74v532l-65 191l-51 53h-183l-124 -61l-62 -62l-61 -124v-529l38 -74l73 -37h60q14 0 24 -10.5t10 -24t-10.5 -24t-23.5 -10.5h-63h-6h-3h-60h-5h-5h-58h-5h-5h-127h-5h-5h-58h-5h-5h-60h-3
h-5h-63q-14 0 -24.5 10.5t-10.5 24zM375 -72q2 -10 10.5 -19.5t18.5 -10.5h-29v29v1zM375 754v2v29h29q-10 -2 -18.5 -11t-10.5 -20zM415 -102q10 2 18.5 11t10.5 19v-1v-29h-29zM415 785h29v-34q0 27 -29 34zM1068 725l12 -10q-3 0 -7 -3zM1126 -72q2 -10 10.5 -19.5
t18.5 -10.5h-29v29v1zM1166 -102q10 2 18.5 11t10.5 19v-1v-29h-29zM1819 725l12 -10q-3 0 -7 -3zM1877 -72q2 -10 10.5 -19.5t18.5 -10.5h-29v29v1zM1917 -102q10 2 18.5 11t10.5 19v-1v-29h-29z" />
    <glyph glyph-name="n" unicode="n" horiz-adv-x="1638" 
d="M102 -136.5q0 13.5 10.5 24t24.5 10.5h59l74 37l37 74v665l-37 74l-74 37h-59q-14 0 -24.5 10.5t-10.5 24t10.5 23.5t24.5 10h63h5h3h60h5h5h58h5h5h132q14 0 24 -10t10 -24v-128l3 7q2 3 7 9l69 68q5 5 8 7l137 68q7 3 15 3h200h5q10 0 17 -5l135 -66q3 -2 8 -7l68 -68
q3 -3 9 -14l68 -205q2 -3 2 -10v-469l37 -74l74 -37h60q14 0 24 -10.5t10 -24t-10.5 -24t-23.5 -10.5h-64h-5h-3h-60h-5h-5h-58h-5h-5h-127h-5h-5h-58h-5h-5h-60h-3h-5h-64q-14 0 -24 10.5t-10 24t10.5 24t23.5 10.5h60l74 37l37 74v532l-65 191l-51 53h-183l-124 -61
l-62 -62l-61 -124v-529l38 -74l73 -37h60q14 0 24 -10.5t10 -24t-10.5 -24t-23.5 -10.5h-63h-6h-3h-60h-5h-5h-58h-5h-5h-127h-5h-5h-58h-5h-5h-60h-3h-5h-63q-14 0 -24.5 10.5t-10.5 24zM375 -72q2 -10 10.5 -19.5t18.5 -10.5h-29v29v1zM375 754v2v29h29q-10 -2 -18.5 -11
t-10.5 -20zM415 -102q10 2 18.5 11t10.5 19v-1v-29h-29zM415 785h29v-34q0 27 -29 34zM1068 725l12 -10q-3 0 -7 -3zM1126 -72q2 -10 10.5 -19.5t18.5 -10.5h-29v29v1zM1166 -102q10 2 18.5 11t10.5 19v-1v-29h-29z" />
    <glyph glyph-name="o" unicode="o" 
d="M171 273v137q0 7 1 10l69 205q5 10 8 13l137 137q3 3 13 8l202 67v2h3l2 1h2h1h2h2h1h6h126h5q7 0 10 -1h2l203 -69q10 -5 14 -8l136 -137q3 -3 9 -13l68 -205q2 -3 2 -10v-137q0 -7 -2 -10l-68 -205q-5 -10 -9 -14l-136 -136q-3 -3 -14 -9l-201 -68h-2h-2q-3 -2 -10 -2
h-5h-126h-6q-7 0 -10 2h-2l-203 68q-10 5 -13 9l-137 136q-3 3 -8 14l-69 205q-2 3 -1 10zM353 36q4 0 7 3l5 -15zM353 647l12 12l-5 -16q-3 3 -7 4zM375 210l65 -191l58 -60l125 -61h119l125 61l58 60l65 191v263l-65 191l-58 60l-125 61h-119l-125 -61l-58 -60l-65 -191
v-263zM1000 24l5 15q3 -3 7 -3zM1000 659l12 -12q-3 0 -7 -4z" />
    <glyph glyph-name="p" unicode="p" 
d="M102 -614.5q0 13.5 10.5 24t24.5 10.5h59l74 37l37 74v1143l-37 74l-74 37h-59q-14 0 -24.5 10.5t-10.5 24t10.5 23.5t24.5 10h63h5h3h60h5h5h58h5h5h132q14 0 24 -10t10 -24v-60l3 7q7 9 16 16l136 68q7 3 16 3h131h5q7 0 10 -1h2l203 -69q10 -5 14 -8l136 -137
q3 -3 9 -13l68 -205q2 -3 2 -10v-137q0 -7 -2 -10l-68 -205q-5 -10 -9 -14l-136 -136q-3 -3 -14 -9l-201 -68h-2h-2q-3 -2 -10 -2h-5h-131q-9 0 -16 4l-136 68q-9 7 -16 15l-3 7v-392l38 -74l73 -37h60q14 0 24 -10.5t10 -24t-10.5 -24t-23.5 -10.5h-63h-6h-3h-60h-5h-5h-58
h-5h-5h-127h-5h-5h-58h-5h-5h-60h-3h-5h-63q-14 0 -24.5 10.5t-10.5 24zM375 -550q2 -10 10.5 -19.5t18.5 -10.5h-29v29v1zM375 754v2v29h29q-10 -2 -18.5 -11t-10.5 -20zM415 -580q10 2 18.5 11t10.5 19v-1v-29h-29zM415 785h29v-34q0 27 -29 34zM512 77l60 -120l119 -59
h120l124 61l58 60l65 191v263l-65 191l-58 60l-124 61h-120l-119 -60l-60 -119v-529zM1068 24l5 15q3 -3 7 -3zM1068 659l12 -12q-3 0 -7 -4z" />
    <glyph glyph-name="q" unicode="q" 
d="M171 273v137q0 7 1 10l69 205q5 10 8 13l137 137q3 3 13 8l202 69h3q3 1 10 1h6h131q9 0 15 -3l130 -65h55h5h5h49l58 58q10 10 24 10t24 -10t10 -24v-1288l38 -74l73 -37h60q14 0 24 -10.5t10 -24t-10 -24t-24 -10.5h-63h-5h-4h-59h-5h-6h-58h-5h-5h-126h-5h-5h-58h-6
h-5h-59h-4h-5h-63q-14 0 -24 10.5t-10 24t10 24t24 10.5h60l73 37l38 74v392l-4 -7q-7 -9 -15 -15l-137 -68q-7 -3 -15 -4h-131h-6q-7 0 -10 2h-2l-203 68q-10 5 -13 9l-137 136q-3 3 -8 14l-69 205q-2 3 -1 10zM353 36q4 0 7 3l5 -15zM353 647l12 12l-5 -16q-3 3 -7 4z
M375 210l65 -191l58 -60l125 -61h119l120 59l60 120v529l-60 119l-120 60h-119l-125 -61l-58 -60l-65 -191v-263zM990 -550q2 -10 10.5 -19.5t18.5 -10.5h-29v29v1zM990 684v33h29q-26 -3 -29 -33zM1027 717q10 0 21 10l10 10v-54q0 31 -31 34zM1029 -580q10 2 18.5 11
t10.5 19v-1v-29h-29z" />
    <glyph glyph-name="r" unicode="r" horiz-adv-x="1092" 
d="M102 -136.5q0 13.5 10.5 24t24.5 10.5h59l74 37l37 74v665l-37 74l-74 37h-59q-14 0 -24.5 10.5t-10.5 24t10.5 23.5t24.5 10h63h5h3h60h5h5h58h5h5h132q14 0 24 -10t10 -24v-199l2 5q5 10 8 13l137 137q5 5 8 7l137 68q7 3 15 3h137q14 0 24 -10l68 -68q10 -10 10 -24
v-137q0 -14 -10 -24t-24 -10h-137q-14 0 -24 10.5t-10 23.5v137q0 14 10.5 24t23.5 10h-59l-125 -61l-126 -128l-65 -192v-395l38 -74l73 -37h60q14 0 24 -10.5t10 -24t-10.5 -24t-23.5 -10.5h-63h-6h-3h-60h-5h-5h-58h-5h-5h-127h-5h-5h-58h-5h-5h-60h-3h-5h-63
q-14 0 -24.5 10.5t-10.5 24zM375 -72q2 -10 10.5 -19.5t18.5 -10.5h-29v29v1zM375 754v2v29h29q-10 -2 -18.5 -11t-10.5 -20zM415 -102q10 2 18.5 11t10.5 19v-1v-29h-29zM415 785h29v-34q0 27 -29 34zM922 649v34q0 -27 29 -34h-29zM961 649q26 3 29 32v-32h-29z" />
    <glyph glyph-name="s" unicode="s" horiz-adv-x="1228" 
d="M171 137v-274q0 -14 10 -24t24 -10q20 0 31 19l46 94l35 -34q5 -5 9 -7l137 -68q7 -3 15 -4h273q9 0 15 4l132 66q14 5 17 11l61 63q14 10 14 27v3v200v2v3q0 10 -5 16l-67 133q-7 9 -15 15l-137 68q-3 3 -8 4l-336 66l-123 62l-29 59l30 96l118 58h256l125 -61l61 -62
l65 -131q10 -19 31 -19q14 0 24 10t10 24v273q0 14 -10.5 24t-23.5 10q-20 0 -31 -18l-46 -94l-36 34q-5 5 -8 7l-137 68q-7 3 -15 3h-273q-9 0 -16 -3l-131 -67q-10 -3 -16 -10l-63 -61q-14 -9 -13 -29v-4v-131v-2q0 -10 6 -20l65 -132q7 -9 16 -15l136 -68q3 -3 9 -4
l336 -66l121 -60l31 -94l-33 -131l-116 -58h-256l-124 61l-62 61l-64 132q-10 19 -31 19q-14 0 -24 -10.5t-10 -23.5zM258 515l8 -3h-1q-2 -2 -4 -2zM894 239h2q1 2 3 2l4 -5z" />
    <glyph glyph-name="t" unicode="t" horiz-adv-x="1092" 
d="M102 819.5q0 13.5 10.5 23.5t24.5 10h170v302v6v5l2 3v2v1v2l2 2q2 3 10 12v2l133 131q10 10 22 10q14 0 25 -10t11 -24v-444h239q14 0 24 -10t10 -23.5t-10 -24t-24 -10.5h-239v-643l65 -191l51 -53h114l120 59l63 127q9 20 31 20q14 0 24 -10t10 -24q0 -10 -4 -17
l-68 -137q-7 -9 -15 -15l-137 -68q-7 -3 -15 -4h-131h-6q-10 0 -17 5l-134 67q-3 2 -9 7l-68 68q-3 3 -9 14l-68 205q-2 3 -2 10v580h-170q-14 0 -24.5 10.5t-10.5 24zM422 1193l22 22v-54q0 22 -22 32zM490 -32q4 0 7 3l5 -14l-4 2z" />
    <glyph glyph-name="u" unicode="u" horiz-adv-x="1638" 
d="M102 819.5q0 13.5 10.5 23.5t24.5 10h63h5h3h60h5h5h58h5h5h132q14 0 24 -10t10 -24v-677l65 -191l51 -53h183l124 61l62 61l61 125v640h-171q-14 0 -24 10.5t-10 24t10.5 23.5t23.5 10h200h5h5h132q14 0 24 -10t10 -24v-810l37 -74l74 -37h60q14 0 24 -10.5t10 -24
t-10.5 -24t-23.5 -10.5h-64h-5h-3h-60h-5h-5h-58h-5h-5h-132q-14 0 -24 10.5t-10 23.5v128l-3 -6q-2 -3 -7 -9l-68 -68q-5 -5 -9 -7l-136 -68q-7 -3 -16 -4h-199h-6q-10 0 -17 5l-134 67q-3 2 -9 7l-68 68q-3 3 -9 14l-68 205q-2 3 -2 10v469l-37 74l-74 37h-59
q-14 0 -24.5 10.5t-10.5 24zM375 754v2v29h29q-10 -2 -18.5 -11t-10.5 -20zM415 785h29v-34q0 27 -29 34zM490 -32q4 0 7 3l5 -14l-4 2zM1126 -68q0 -27 29 -34h-29v34zM1126 753v32h29q-26 -3 -29 -32zM1166 -102q10 2 18.5 11t10.5 19v-1v-29h-29zM1166 785h29v-34
q0 27 -29 34z" />
    <glyph glyph-name="v" unicode="v" horiz-adv-x="1228" 
d="M34 819.5q0 13.5 10.5 23.5t23.5 10h63h6h3h60h3h7h58h5h5h58h5h5h128h4h5h63q14 0 24 -10t10 -23.5t-10 -24t-24 -10.5h-60l-78 -39l276 -661l296 651l-101 49h-128q-14 0 -24 10.5t-10 24t10 23.5t24 10h131h5h4h198h3h5h64q14 0 24 -10t10 -23.5t-10.5 -24
t-23.5 -10.5h-55l-53 -55l-338 -740l-5 -10l-63 -128q-5 -15 -21 -21h-1l-2 -2h-7h-2h-1h-2h-2q-22 3 -27 24l-377 879l-79 53h-58q-14 0 -24 10.5t-10 24zM608 -34h6q7 0 14 3l-12 -24z" />
    <glyph glyph-name="w" unicode="w" horiz-adv-x="1638" 
d="M34 819.5q0 13.5 10.5 23.5t23.5 10h65h4h1h130h5h5h58h5h5h58h6h5h128h3h5h63q14 0 24.5 -10t10.5 -23.5t-10.5 -24t-24.5 -10.5h-59l-89 -44l148 -543l171 625q0 5 5 15l2 2v1l3 2q2 2 7 5q0 2 2 2q2 2 3.5 2t1.5 0.5t2 0.5h1h2h2h1h2h2h2h1h58h5h6h63q26 0 32 -25
l174 -635l162 541l-104 51h-59q-14 0 -24.5 10.5t-10.5 24t10.5 23.5t24.5 10h63h5h3h266h4h5h63q14 0 24 -10t10 -23.5t-10 -24t-24 -10.5h-60l-116 -58l-199 -666q0 -5 -4 -8l-65 -196q-3 -19 -23 -26l-4 -2h-3h-4h-3h-4l-3 2q-20 5 -24 27l-239 835l-170 -630
q0 -7 -4 -10l-65 -196q-3 -19 -24 -26l-3 -2h-3h-4h-3h-4l-3 2q-20 5 -24 27l-253 884l-128 43h-63q-14 0 -24 10.5t-10 24zM532 38q7 -3 14 -4q14 0 24 10l-22 -64zM1079 38q7 -3 13 -4q14 0 24 10l-22 -64z" />
    <glyph glyph-name="x" unicode="x" 
d="M102 -136.5q0 13.5 10.5 24t24.5 10.5h59l123 61l283 340l-314 440l-92 46h-59q-14 0 -24.5 10.5t-10.5 24t10.5 23.5t24.5 10h63h5h3h60h3h7h58h5h5h58h6h5h128h3h5h63q14 0 24.5 -10t10.5 -23.5t-10.5 -24t-24.5 -10.5h-59l-58 -29l225 -314l247 297l-90 46h-60
q-14 0 -24 10.5t-10 24t10.5 23.5t23.5 10h63h5h4h266h4h5h63q14 0 24 -10t10 -23.5t-10.5 -24t-23.5 -10.5h-60l-123 -61l-283 -340l314 -440l92 -46h60q14 0 24 -10.5t10 -24t-10.5 -24t-23.5 -10.5h-63h-5h-4h-60h-5h-5h-58h-5h-5h-58h-5h-5h-128h-4h-5h-63
q-14 0 -24 10.5t-10 24t10 24t24 10.5h60l58 29l-226 314l-247 -297l90 -46h60q14 0 24 -10.5t10 -24t-10 -24t-24 -10.5h-63h-5h-4h-266h-3h-5h-63q-14 0 -24.5 10.5t-10.5 24z" />
    <glyph glyph-name="y" unicode="y" horiz-adv-x="1228" 
d="M34 -410q0 14 10.5 24.5t23.5 10.5h137q14 0 24 -10.5t10 -24.5v-136q0 -14 -10.5 -24t-23.5 -10h60l124 61l130 130l126 254l-372 867l-78 53h-58q-14 0 -24.5 10.5t-10.5 24t10.5 23.5t24.5 10h63h5h3h60h3h7h58h5h5h58h6h5h128h3h5h63q14 0 24.5 -10t10.5 -23.5
t-10.5 -24t-24.5 -10.5h-59l-79 -39l277 -661l295 651l-101 49h-128q-14 0 -24 10.5t-10 24t10.5 23.5t23.5 10h132h5h3h198h4h5h63q14 0 24 -10t10 -23.5t-10.5 -24t-23.5 -10.5h-55l-53 -55l-338 -740l-5 -10l-63 -128q-2 -2 -2 -6q0 -3 -1 -3l-135 -268q-2 -3 -7 -8
l-137 -137q-5 -5 -8 -7l-137 -68q-7 -3 -15 -4h-136q-14 0 -24 11l-69 68q-10 10 -10 24v136zM102 -444h29q-26 -3 -29 -32v32zM142 -444h29v-34q0 27 -29 34zM676 -34h7q6 0 13 3l-12 -24z" />
    <glyph glyph-name="z" unicode="z" horiz-adv-x="1228" 
d="M171 -137q0 15 8 24h2l640 898h-271l-185 -37l-54 -35l-46 -71l-26 -101v-2l-2 -3l-1 -2v-2v-3l-6 -5v-2l-1 -1q0 -2 -2 -2t-3 -2l-2 -2h-2l-3 -1q-2 0 -2 -1t-2 -1h-3h-2h-1h-2h-2h-3h-2h-2l-1 2h-4v1h-2h-1l-2 2l-2 2h-1v2l-2 1h-2v2l-3 3q-2 0 -2 2q-2 2 -2 3v4l-1 2
v1v2v2v3v2v61v5v4v60v5v5v58v5v5v63q0 14 10 24t24 10h63h3h2h5h58h5h5h60h4h3h131h2h2h334h5h6h58h5h5h58h5q17 0 26 -12h1l2 -1v-2l2 -2v-1l1 -4v-3q0 -2 2 -2v-7q0 -15 -8 -24h-2l-640 -897h271l185 37l54 34l46 72l26 101q0 2 0 1l2 4l1 1v2v4l5 5l2 3q0 2 2 2t3 2l2 1
h2l3 2q2 0 2 1t1 1h4h2h1h2h2h3h2h2l1 -2h4v-2h1h2l2 -1l1 -2h2v-2l2 -2h2v-1l3 -4q2 0 2 -1q2 -2 1 -4v-3l2 -2v-2v-1v-2v-3v-2v-62v-5v-3v-60v-5v-5v-58v-5v-5v-64q0 -14 -10 -24t-24 -10h-63h-5h-5h-58h-6h-5h-59h-4h-3h-132h-1h-2h-335h-5h-5h-58h-5h-5h-58h-5
q-17 0 -26 12h-2v2l-1 2l-2 1v2l-2 4v3q0 2 -1 2v6z" />
    <glyph glyph-name="braceleft" unicode="{" horiz-adv-x="955" 
d="M239 477.5q0 20.5 19 31.5l131 64l123 123v115l-61 124l-65 65q-5 5 -7 9l-68 136q-3 7 -4 16v136q0 9 4 15l68 137q2 3 7 8l66 67l2 2q3 3 14 8l131 67q6 3 15 3q14 0 24.5 -10t10.5 -24q0 -20 -19 -31l-127 -63l-59 -119v-120l61 -124l65 -65q5 -5 7 -9l68 -136
q3 -7 4 -16v-136q0 -9 -4 -15l-68 -137q-7 -9 -16 -15l-134 -67q-3 -3 -5 -3l-72 -36l72 -36h1l2 -2l2 -1l134 -67q9 -7 16 -15l68 -137q3 -7 4 -15v-137q0 -9 -4 -15l-68 -137q-2 -3 -7 -8l-65 -65l-61 -125v-119l59 -120l127 -63q20 -9 20 -30q0 -14 -10 -24.5t-24 -10.5
q-10 0 -17 4l-131 66q-7 2 -16 11l-66 66q-5 5 -7 9l-68 136q-3 7 -4 16v136q0 9 4 16l68 136q2 3 7 9l65 64l61 125v114l-123 123l-131 65q-19 10 -19 30.5zM375 -213l62 124l65 65q5 5 7 9l68 136q3 7 3 16v-60l-61 -125l-65 -65q-5 -5 -7 -8l-68 -137q-3 -7 -4 -15v60z
M375 1169v60q0 -9 4 -16l68 -136q2 -3 7 -9l65 -64l61 -125v-60q0 9 -3 16l-68 136q-2 3 -7 9l-65 64z" />
    <glyph glyph-name="bar" unicode="|" horiz-adv-x="546" 
d="M239 -614v2184q0 14 10 24t24 10t24 -10t10 -24v-2184q0 -14 -10 -24.5t-24 -10.5t-24 10.5t-10 24.5z" />
    <glyph glyph-name="braceright" unicode="}" horiz-adv-x="955" 
d="M305 -614q0 22 21 30l126 63l60 120v119l-61 125l-65 65q-5 5 -7 8l-68 137q-3 7 -4 15v137q0 9 4 15l68 137q7 9 15 15l135 67q3 3 5 3l72 36l-72 36h-2l-1 1l-2 2l-135 67q-9 7 -15 15l-68 137q-3 7 -4 15v136q0 9 4 16l68 136q2 3 7 9l65 65l61 124v120l-60 119
l-126 63q-19 10 -19 31q0 14 9.5 24t23.5 10q10 0 17 -3l131 -67q7 -2 15 -10l67 -67q5 -5 7 -8l68 -137q3 -7 4 -15v-136q0 -9 -4 -16l-68 -136q-2 -3 -7 -9l-65 -65l-61 -124v-115l123 -123l131 -64q19 -10 19 -31t-19 -31l-131 -65l-123 -123v-114l61 -125l65 -64
q5 -5 7 -9l68 -136q3 -7 4 -16v-136q0 -9 -4 -16l-68 -136q-2 -3 -7 -9l-67 -66l-1 -2q-3 -3 -14 -9l-131 -66q-7 -3 -17 -4q-14 0 -24.5 10.5t-10.5 24.5zM375 77v60q0 -9 4 -16l68 -136q2 -3 7 -9l65 -65l61 -124v-60q0 9 -3 15l-68 137q-2 3 -7 8l-65 65zM375 819v60
l62 125l65 64q5 5 7 9l68 136q3 7 3 16v-60l-61 -125l-65 -64q-5 -5 -7 -9l-68 -136q-3 -7 -4 -16z" />
    <glyph glyph-name="asciitilde" unicode="~" horiz-adv-x="1638" 
d="M171 273q0 -14 10 -24t23.5 -10t24 10t10.5 24v128l60 120l119 59h120l126 -63l271 -203q3 -3 5 -3l137 -69q7 -3 15 -3h137q9 0 15 3l137 69q14 7 17 20l68 203v2q2 3 2 10v5v132q0 14 -10.5 24t-24 10t-24 -10.5t-10.5 -23.5v-128l-59 -120l-120 -60h-119l-126 64
l-272 203q-3 3 -5 3l-137 68q-7 3 -15 4h-136q-9 0 -16 -4l-136 -68q-14 -7 -17 -20l-69 -203v-2q-2 -3 -1 -10v-6v-131z" />
    <glyph glyph-name="uni007F" horiz-adv-x="1092" 
d="M-34 -137v1434q0 14 10 24t24 10t24 -10t10 -24q0 14 10.5 24t23.5 10h69q14 0 24 -10t10 -24q0 14 10 24t24 10h68q14 0 24 -10t10 -24q0 14 10.5 24t23.5 10h69q14 0 24 -10t10 -24q0 14 10 24t24 10h68q14 0 24 -10t10 -24q0 14 10.5 24t23.5 10h69q14 0 24 -10
t10 -24q0 14 10 24t24 10h68q14 0 24 -10t10 -24q0 14 10.5 24t23.5 10h69q14 0 24 -10t10 -24q0 14 10 24t24 10h68q14 0 24 -10t10 -24v-1434q0 -14 -10 -24t-23.5 -10t-24 10.5t-10.5 23.5q0 -14 -10 -24t-24 -10h-68q-14 0 -24 10.5t-10 23.5q0 -14 -10.5 -24t-24.5 -10
h-68q-14 0 -24 10.5t-10 23.5q0 -14 -10 -24t-24 -10h-68q-14 0 -24 10.5t-10 23.5q0 -14 -10.5 -24t-24.5 -10h-68q-14 0 -24 10.5t-10 23.5q0 -14 -10 -24t-24 -10h-68q-14 0 -24.5 10.5t-10.5 23.5q0 -14 -10 -24t-24 -10h-68q-14 0 -24 10.5t-10 23.5q0 -14 -10.5 -24
t-23.5 -10h-68q-14 0 -24.5 10.5t-10.5 23.5q0 -14 -10 -24t-24 -10h-68q-14 0 -24 10.5t-10 23.5z" />
    <glyph glyph-name="uni00A0" unicode="&#xa0;" horiz-adv-x="1092" 
 />
    <glyph glyph-name="guillemotleft" unicode="&#xab;" horiz-adv-x="887" 
d="M65 408q0 12 5 20l340 272l1 1v2l4 2l1 3q0 2 3.5 3.5t5.5 1.5h2l3 2l2 2h3h4h1h2h3h4l2 -2h1l2 -2l3 -1h2l4 -4l3 -1v-2l2 -2l1 -2q2 -2 2 -3q3 -7 3 -14v-3v-3q0 -2 -0.5 -2t-0.5 -2l-2 -3v-2v-2l-2 -1l-264 -256l264 -258h2v-2v-2q2 -2 2 -3q0 -2 1 -5v-3v-4v-2l-1 -1
v-4l-2 -3l-2 -4l-1 -1v-2l-2 -2l-2 -1l-3 -4l-2 -1l-3 -2h-2l-2 -2h-3l-2 -2h-2h-3h-2h-5h-3q-2 0 -2 1t-2 1l-1 2h-4l-3 3l-2 2q-2 2 -3 2l-2 1v2h-2l-1 3l-340 272q-5 5 -5 17zM406 408q0 12 5 20l340 272l2 1v2l3 2l2 3q0 2 3.5 3.5t4.5 1.5h2l3 2l2 2h4h3h2h1h4h3l2 -2
h2l1 -2l4 -1h1l4 -4l3 -1v-2l2 -2l2 -2q2 -2 1 -3q3 -7 4 -14v-3v-3q0 -2 -1 -2t-1 -2l-2 -3v-2v-2l-1 -1l-265 -256l265 -258h1v-2v-2q2 -2 2 -3q0 -2 1 -5l1 -3v-4v-2l-2 -1v-4l-2 -3l-1 -4l-2 -1v-2l-2 -2l-1 -1l-4 -4l-2 -1l-3 -2h-2l-1 -2h-4l-2 -2h-1h-4h-1h-5h-4
q-2 0 -2 1t-1 1l-2 2h-3l-4 3l-2 2q-2 2 -3 2l-2 1v2h-1l-2 3l-340 272q-5 5 -5 17z" />
    <glyph glyph-name="uni00AD" unicode="&#xad;" horiz-adv-x="1774" 
d="M239 478q0 -14 10 -24t24 -10h1229q14 0 24 10t10 24t-10 24t-24 10h-1229q-14 0 -24 -10t-10 -24z" />
    <glyph glyph-name="acute" unicode="&#xb4;" horiz-adv-x="819" 
d="M171 882q0 -2 0.5 -1.5t0.5 -1.5v-2v-1v-2l2 -2l2 -2v-1l1 -2v-2l4 -1l5 -6h2v-1h1l2 -2h4l1 -2h2h2h1h4h3h4h1l2 2q5 0 7 2l2 1l3 2v2l2 2l408 339q12 9 12 26q0 14 -11 24l-63 65q-10 13 -27 13h-4q-19 0 -27 -15l-338 -406l-2 -2l-1 -3q-3 -3 -4 -7l-1 -2v-3v-6v-1v-4
zM473 1154l77 92l15 -15z" />
    <glyph glyph-name="guillemotright" unicode="&#xbb;" horiz-adv-x="887" 
d="M65 128l2 -2v-3l1 -4l2 -1l2 -2v-2l3 -1l2 -4l3 -1l2 -2h2h1v-2h4l3 -2h4h3h3h4h2l1 2h2l2 2h3l2 3q2 0 1 2l4 2l2 1l1 2l2 3l341 272q5 5 5 17t-5 20l-341 272v1l-2 2l-1 2l-4 3q-2 2 -5 4l-3 1h-2q-2 2 -3 2v2h-4h-3h-2h-2h-3h-2h-2l-3 -2l-3 -2l-4 -1q-2 0 -5 -4
l-2 -1v-2l-3 -2l-2 -2v-3q-3 -7 -3 -14v-3v-3v-4l2 -3v-2l1 -2v-1l265 -256l-265 -258l-1 -2l-2 -2v-3v-8v-4v-3v-2zM406 128l2 -2v-3l2 -4l1 -1l2 -2v-2l3 -1l2 -4l4 -1l1 -2h2h2v-2h3l3 -2h4h3h4h3h2l2 2h1l2 2h3l2 3q2 0 2 2l3 2l2 1l2 2l1 3l342 272q5 5 5 17t-5 20
l-342 272v1l-1 2l-2 2l-3 3q-2 2 -5 4l-4 1h-2q-2 2 -3 2v2h-4h-3h-2h-1h-4h-2h-1l-4 -2l-3 -2l-3 -1q-2 0 -6 -4l-1 -1v-2l-4 -2l-1 -2v-3q-3 -7 -4 -14v-3v-3v-4l2 -3v-2l2 -2v-1l264 -256l-264 -258l-2 -2l-2 -2v-3v-8v-4v-3v-2z" />
    <glyph glyph-name="Agrave" unicode="&#xc0;" 
d="M34 -136.5q0 13.5 10.5 24t23.5 10.5h55l53 53l473 1355q3 10 10 17q0 2 1.5 1.5t3.5 1.5l3 2h2l3 1l2 2h4h1h2h2h1h4h3l2 -2h2q3 0 6 -3q12 -7 16 -20l440 -1321l85 -87h55q14 0 24 -10.5t10 -24t-10 -24t-24 -10.5h-63h-5h-4h-59h-5h-6h-58h-5h-5h-58h-5h-5h-58h-5h-5
h-60h-4h-5h-63q-14 0 -24 10.5t-10 24t10.5 24t23.5 10.5h60l73 37l7 14l-95 290h-516l-101 -290l103 -51h128q14 0 24 -10.5t10 -24t-10 -24t-24 -10.5h-132h-5h-3h-198h-3h-6h-63q-14 0 -24 10.5t-10 24zM372 307h468l-227 685zM514 1775q0 14 10 24l65 65q10 13 27 13h3
q17 0 26 -15l338 -406l2 -2l1 -3q3 -3 4 -7l2 -2v-3v-6v-1v-4v-3l-2 -2v-1v-2l-2 -2v-2l-2 -1l-1 -2v-2l-2 -1h-2l-5 -6h-2v-1h-1l-2 -2h-3l-2 -2h-2h-1h-2h-4h-3h-3h-2l-2 2q-5 0 -7 2l-1 1l-4 2v2l-1 2l-408 339q-12 9 -12 26zM599 1777l92 -77l-77 92zM654 1111
q9 15 29 15q14 0 24 -10l-24 75z" />
    <glyph glyph-name="Aacute" unicode="&#xc1;" 
d="M34 -136.5q0 13.5 10.5 24t23.5 10.5h55l53 53l473 1355q3 10 10 17q0 2 1.5 1.5t3.5 1.5l3 2h2l3 1l2 2h4h1h2h2h1h4h3l2 -2h2q3 0 6 -3q12 -7 16 -20l440 -1321l85 -87h55q14 0 24 -10.5t10 -24t-10 -24t-24 -10.5h-63h-5h-4h-59h-5h-6h-58h-5h-5h-58h-5h-5h-58h-5h-5
h-60h-4h-5h-63q-14 0 -24 10.5t-10 24t10.5 24t23.5 10.5h60l73 37l7 14l-95 290h-516l-101 -290l103 -51h128q14 0 24 -10.5t10 -24t-10 -24t-24 -10.5h-132h-5h-3h-198h-3h-6h-63q-14 0 -24 10.5t-10 24zM372 307h468l-227 685zM446 1428q0 -2 0.5 -1.5t0.5 -1.5v-2v-1v-2
l2 -2l2 -2v-1l1 -2v-2l4 -1l5 -6h2v-1h1l2 -2h4l1 -2h2h2h1h4h3h4h1l2 2q5 0 7 2l2 1l3 2v2l2 2l408 339q12 9 12 26q0 14 -11 24l-63 65q-10 13 -27 13h-4q-19 0 -27 -15l-338 -406l-2 -2l-1 -3q-3 -3 -4 -7l-1 -2v-3v-6v-1v-4zM654 1111q9 15 29 15q14 0 24 -10l-24 75z
M748 1700l77 92l15 -15z" />
    <glyph glyph-name="Acircumflex" unicode="&#xc2;" 
d="M34 -136.5q0 13.5 10.5 24t23.5 10.5h55l53 53l473 1355q3 10 10 17q0 2 1.5 1.5t3.5 1.5l3 2h2l3 1l2 2h4h1h2h2h1h4h3l2 -2h2q3 0 6 -3q12 -7 16 -20l440 -1321l85 -87h55q14 0 24 -10.5t10 -24t-10 -24t-24 -10.5h-63h-5h-4h-59h-5h-6h-58h-5h-5h-58h-5h-5h-58h-5h-5
h-60h-4h-5h-63q-14 0 -24 10.5t-10 24t10.5 24t23.5 10.5h60l73 37l7 14l-95 290h-516l-101 -290l103 -51h128q14 0 24 -10.5t10 -24t-10 -24t-24 -10.5h-132h-5h-3h-198h-3h-6h-63q-14 0 -24 10.5t-10 24zM372 307h468l-227 685zM376 1427v3v3v4v3v2l1 2v1l2 2v3l4 2v2l1 2
q2 2 2 3l2 2h1l4 1l271 342q5 5 17 5t21 -5l271 -342h2l1 -1l2 -2l4 -2q2 0 3.5 -3.5t1.5 -5t0.5 -3t0.5 -3.5h2v-4v-3v-2v-1v-4v-3l-2 -2v-2l-1 -3l-2 -2v-1q0 -2 -3 -6l-2 -1h-2l-2 -2l-1 -2q-2 -2 -4 -1q-7 -3 -13 -4h-4h-3q-2 0 -2 1t-2 1h-3h-2l-1 2h-2l-256 266
l-258 -266l-1 -2h-6q-2 0 -5 -1l-3 -1h-4h-3h-2l-1 2h-4l-3 2l-2 1l-2 2l-1 2l-2 1l-3 2l-2 4l-2 3v2l-2 1v2zM654 1111q9 15 29 15q14 0 24 -10l-24 75z" />
    <glyph glyph-name="Atilde" unicode="&#xc3;" 
d="M34 -136.5q0 13.5 10.5 24t23.5 10.5h55l53 53l473 1355q3 10 10 17q0 2 1.5 1.5t3.5 1.5l3 2h2l3 1l2 2h4h1h2h2h1h4h3l2 -2h2q3 0 6 -3q12 -7 16 -20l440 -1321l85 -87h55q14 0 24 -10.5t10 -24t-10 -24t-24 -10.5h-63h-5h-4h-59h-5h-6h-58h-5h-5h-58h-5h-5h-58h-5h-5
h-60h-4h-5h-63q-14 0 -24 10.5t-10 24t10.5 24t23.5 10.5h60l73 37l7 14l-95 290h-516l-101 -290l103 -51h128q14 0 24 -10.5t10 -24t-10 -24t-24 -10.5h-132h-5h-3h-198h-3h-6h-63q-14 0 -24 10.5t-10 24zM36 1435q0 -14 10 -24t23.5 -10t24 10t10.5 24v128l60 120l119 59
h120l126 -63l271 -203q3 -3 5 -3l137 -69q7 -3 15 -3h137q9 0 15 3l137 69q14 7 17 20l68 203v2q2 3 2 10v5v132q0 14 -10.5 24t-24 10t-24 -10.5t-10.5 -23.5v-128l-59 -120l-120 -60h-119l-126 64l-272 203q-3 3 -5 3l-137 68q-7 3 -15 4h-136q-9 0 -16 -4l-136 -68
q-14 -7 -17 -20l-69 -203v-2q-2 -3 -1 -10v-6v-131zM372 307h468l-227 685zM654 1111q9 15 29 15q14 0 24 -10l-24 75z" />
    <glyph glyph-name="Egrave" unicode="&#xc8;" 
d="M102 -136.5q0 13.5 10.5 24t24.5 10.5h59l74 37l37 74v1143l-37 73l-74 38h-59q-14 0 -24.5 10t-10.5 24t10.5 24t24.5 10h63h5h3h60h5h5h58h5h5h127h5h5h58h5h5h60h3h6h264h2h3h130h5h3h60h5h5h58h6h5h63q14 0 24 -10t10 -24v-63v-5v-5v-58v-5v-6v-59v-4v-3v-200v-2v-1
v-4q0 -2 -1 -1.5t-1 -1.5v-3v-2l-1 -2v-2l-2 -1l-2 -2l-5 -5l-2 -4q-3 -3 -7 -3h-3l-2 -2h-1h-4h-3h-2h-2h-1h-2h-2q-2 2 -3 2h-2l-2 2l-3 1h-2l-1 4l-4 2v1l-2 2l-1 2l-2 1v2l-2 4q0 2 -0.5 3.5t-0.5 2.5l-45 267l-27 42l-55 34l-184 38h-261l-73 -38l-38 -73v-503h99
l167 42l33 33l42 169q0 2 0 1l2 4l2 1v2v4l5 5l2 3q0 2 1.5 2t3.5 1l1 2h2l4 2q2 0 1.5 1t1.5 1h3h2h2h1h2h4h1h2l2 -2h3v-2h2h2l1 -2l2 -1h2v-2l1 -2h2v-1l3 -4q2 0 2 -1q2 -2 2 -4v-3l2 -2v-2v-1v-2v-4v-1v-130v-5v-3v-60v-5v-5v-58v-6v-5v-58v-5v-5v-60v-3v-5v-130v-2v-1
v-4q0 -2 -1 -1.5t-1 -1.5q0 -7 -4 -10l-1 -2l-2 -4l-2 -1h-1l-2 -2v-2h-2l-1 -1q-2 -2 -4 -2h-2h-1l-2 -2h-2h-1h-2h-2h-2h-1h-4h-1h-2l-3 2q-2 0 -2 2h-2h-2v1l-3 2l-2 2l-3 1l-2 4l-2 3q-2 0 -1 2q-3 3 -4 10l-42 169l-33 33l-167 42h-99v-571l38 -74l73 -37h261l184 37
l55 34l27 43l45 266l1 4q0 2 2 5l2 3v2l1 2l2 1v2l2 2q0 2 3 1q2 0 4 2v2h1l2 1h4l3 2h2h3h2h2h1h4h1l2 -2h3l2 -1l4 -2l3 -2l2 -3l1 -2l4 -3q3 -3 3 -5v-4l2 -1v-2v-7v-2v-198v-5v-3v-60v-5v-5v-58v-5v-5v-64q0 -14 -10.5 -24t-23.5 -10h-63h-5h-6h-58h-5h-5h-60h-3h-3
h-132h-2h-1h-266h-6h-3h-60h-5h-5h-58h-5h-5h-127h-5h-5h-58h-5h-5h-60h-3h-5h-63q-14 0 -24.5 10.5t-10.5 24zM375 -72v-1v-29h29q-10 2 -18.5 11t-10.5 19zM375 1232q2 10 10.5 19.5t18.5 11.5h-29v-29v-2zM415 -102h29v29v1q-2 -10 -10.5 -19.5t-18.5 -10.5zM415 1263
q10 -2 18.5 -11.5t10.5 -19.5v2v29h-29zM512 1777q0 14 10 24l65 65q10 13 27 13h3q17 0 26 -15l338 -406l2 -2l1 -3q3 -3 4 -7l2 -2v-3v-6v-1v-4v-3l-2 -2v-1v-2l-2 -2v-2l-2 -1l-1 -2v-2l-2 -1h-2l-5 -6h-2v-1h-1l-2 -2h-3l-2 -2h-2h-1h-2h-4h-3h-3h-2l-2 2q-5 0 -7 2
l-1 1l-4 2v2l-1 2l-408 339q-12 9 -12 26zM597 1779l92 -77l-77 92z" />
    <glyph glyph-name="Eacute" unicode="&#xc9;" 
d="M102 -136.5q0 13.5 10.5 24t24.5 10.5h59l74 37l37 74v1143l-37 73l-74 38h-59q-14 0 -24.5 10t-10.5 24t10.5 24t24.5 10h63h5h3h60h5h5h58h5h5h127h5h5h58h5h5h60h3h6h264h2h3h130h5h3h60h5h5h58h6h5h63q14 0 24 -10t10 -24v-63v-5v-5v-58v-5v-6v-59v-4v-3v-200v-2v-1
v-4q0 -2 -1 -1.5t-1 -1.5v-3v-2l-1 -2v-2l-2 -1l-2 -2l-5 -5l-2 -4q-3 -3 -7 -3h-3l-2 -2h-1h-4h-3h-2h-2h-1h-2h-2q-2 2 -3 2h-2l-2 2l-3 1h-2l-1 4l-4 2v1l-2 2l-1 2l-2 1v2l-2 4q0 2 -0.5 3.5t-0.5 2.5l-45 267l-27 42l-55 34l-184 38h-261l-73 -38l-38 -73v-503h99
l167 42l33 33l42 169q0 2 0 1l2 4l2 1v2v4l5 5l2 3q0 2 1.5 2t3.5 1l1 2h2l4 2q2 0 1.5 1t1.5 1h3h2h2h1h2h4h1h2l2 -2h3v-2h2h2l1 -2l2 -1h2v-2l1 -2h2v-1l3 -4q2 0 2 -1q2 -2 2 -4v-3l2 -2v-2v-1v-2v-4v-1v-130v-5v-3v-60v-5v-5v-58v-6v-5v-58v-5v-5v-60v-3v-5v-130v-2v-1
v-4q0 -2 -1 -1.5t-1 -1.5q0 -7 -4 -10l-1 -2l-2 -4l-2 -1h-1l-2 -2v-2h-2l-1 -1q-2 -2 -4 -2h-2h-1l-2 -2h-2h-1h-2h-2h-2h-1h-4h-1h-2l-3 2q-2 0 -2 2h-2h-2v1l-3 2l-2 2l-3 1l-2 4l-2 3q-2 0 -1 2q-3 3 -4 10l-42 169l-33 33l-167 42h-99v-571l38 -74l73 -37h261l184 37
l55 34l27 43l45 266l1 4q0 2 2 5l2 3v2l1 2l2 1v2l2 2q0 2 3 1q2 0 4 2v2h1l2 1h4l3 2h2h3h2h2h1h4h1l2 -2h3l2 -1l4 -2l3 -2l2 -3l1 -2l4 -3q3 -3 3 -5v-4l2 -1v-2v-7v-2v-198v-5v-3v-60v-5v-5v-58v-5v-5v-64q0 -14 -10.5 -24t-23.5 -10h-63h-5h-6h-58h-5h-5h-60h-3h-3
h-132h-2h-1h-266h-6h-3h-60h-5h-5h-58h-5h-5h-127h-5h-5h-58h-5h-5h-60h-3h-5h-63q-14 0 -24.5 10.5t-10.5 24zM375 -72v-1v-29h29q-10 2 -18.5 11t-10.5 19zM375 1232q2 10 10.5 19.5t18.5 11.5h-29v-29v-2zM415 -102h29v29v1q-2 -10 -10.5 -19.5t-18.5 -10.5zM415 1263
q10 -2 18.5 -11.5t10.5 -19.5v2v29h-29zM512 1430q0 -2 0.5 -1.5t0.5 -1.5v-2v-1v-2l2 -2l2 -2v-1l1 -2v-2l4 -1l5 -6h2v-1h1l2 -2h4l1 -2h2h2h1h4h3h4h1l2 2q5 0 7 2l2 1l3 2v2l2 2l408 339q12 9 12 26q0 14 -11 24l-63 65q-10 13 -27 13h-4q-19 0 -27 -15l-338 -406l-2 -2
l-1 -3q-3 -3 -4 -7l-1 -2v-3v-6v-1v-4zM814 1702l77 92l15 -15z" />
    <glyph glyph-name="Ecircumflex" unicode="&#xca;" 
d="M102 -136.5q0 13.5 10.5 24t24.5 10.5h59l74 37l37 74v1143l-37 73l-74 38h-59q-14 0 -24.5 10t-10.5 24t10.5 24t24.5 10h63h5h3h60h5h5h58h5h5h127h5h5h58h5h5h60h3h6h264h2h3h130h5h3h60h5h5h58h6h5h63q14 0 24 -10t10 -24v-63v-5v-5v-58v-5v-6v-59v-4v-3v-200v-2v-1
v-4q0 -2 -1 -1.5t-1 -1.5v-3v-2l-1 -2v-2l-2 -1l-2 -2l-5 -5l-2 -4q-3 -3 -7 -3h-3l-2 -2h-1h-4h-3h-2h-2h-1h-2h-2q-2 2 -3 2h-2l-2 2l-3 1h-2l-1 4l-4 2v1l-2 2l-1 2l-2 1v2l-2 4q0 2 -0.5 3.5t-0.5 2.5l-45 267l-27 42l-55 34l-184 38h-261l-73 -38l-38 -73v-503h99
l167 42l33 33l42 169q0 2 0 1l2 4l2 1v2v4l5 5l2 3q0 2 1.5 2t3.5 1l1 2h2l4 2q2 0 1.5 1t1.5 1h3h2h2h1h2h4h1h2l2 -2h3v-2h2h2l1 -2l2 -1h2v-2l1 -2h2v-1l3 -4q2 0 2 -1q2 -2 2 -4v-3l2 -2v-2v-1v-2v-4v-1v-130v-5v-3v-60v-5v-5v-58v-6v-5v-58v-5v-5v-60v-3v-5v-130v-2v-1
v-4q0 -2 -1 -1.5t-1 -1.5q0 -7 -4 -10l-1 -2l-2 -4l-2 -1h-1l-2 -2v-2h-2l-1 -1q-2 -2 -4 -2h-2h-1l-2 -2h-2h-1h-2h-2h-2h-1h-4h-1h-2l-3 2q-2 0 -2 2h-2h-2v1l-3 2l-2 2l-3 1l-2 4l-2 3q-2 0 -1 2q-3 3 -4 10l-42 169l-33 33l-167 42h-99v-571l38 -74l73 -37h261l184 37
l55 34l27 43l45 266l1 4q0 2 2 5l2 3v2l1 2l2 1v2l2 2q0 2 3 1q2 0 4 2v2h1l2 1h4l3 2h2h3h2h2h1h4h1l2 -2h3l2 -1l4 -2l3 -2l2 -3l1 -2l4 -3q3 -3 3 -5v-4l2 -1v-2v-7v-2v-198v-5v-3v-60v-5v-5v-58v-5v-5v-64q0 -14 -10.5 -24t-23.5 -10h-63h-5h-6h-58h-5h-5h-60h-3h-3
h-132h-2h-1h-266h-6h-3h-60h-5h-5h-58h-5h-5h-127h-5h-5h-58h-5h-5h-60h-3h-5h-63q-14 0 -24.5 10.5t-10.5 24zM375 -72v-1v-29h29q-10 2 -18.5 11t-10.5 19zM375 1232q2 10 10.5 19.5t18.5 11.5h-29v-29v-2zM415 -102h29v29v1q-2 -10 -10.5 -19.5t-18.5 -10.5zM415 1263
q10 -2 18.5 -11.5t10.5 -19.5v2v29h-29zM444 1427v3v3v4v3v2l1 2v1l2 2v3l4 2v2l1 2q2 2 2 3l2 2h1l4 1l271 342q5 5 17 5t21 -5l271 -342h2l1 -1l2 -2l4 -2q2 0 3.5 -3.5t1.5 -5t0.5 -3t0.5 -3.5h2v-4v-3v-2v-1v-4v-3l-2 -2v-2l-1 -3l-2 -2v-1q0 -2 -3 -6l-2 -1h-2l-2 -2
l-1 -2q-2 -2 -4 -1q-7 -3 -13 -4h-4h-3q-2 0 -2 1t-2 1h-3h-2l-1 2h-2l-256 266l-258 -266l-1 -2h-6q-2 0 -5 -1l-3 -1h-4h-3h-2l-1 2h-4l-3 2l-2 1l-2 2l-1 2l-2 1l-3 2l-2 4l-2 3v2l-2 1v2z" />
    <glyph glyph-name="Igrave" unicode="&#xcc;" horiz-adv-x="819" 
d="M102 -136.5q0 13.5 10.5 24t24.5 10.5h59l74 37l37 74v1143l-37 73l-74 38h-59q-14 0 -24.5 10t-10.5 24t10.5 24t24.5 10h63h5h3h60h5h5h58h5h5h127h5h5h58h5h5h60h3h6h63q14 0 24 -10t10 -24t-10.5 -24t-23.5 -10h-60l-73 -38l-38 -73v-1143l38 -74l73 -37h60
q14 0 24 -10.5t10 -24t-10.5 -24t-23.5 -10.5h-63h-6h-3h-60h-5h-5h-58h-5h-5h-127h-5h-5h-58h-5h-5h-60h-3h-5h-63q-14 0 -24.5 10.5t-10.5 24zM171 1777q0 14 10 24l65 65q10 13 27 13h3q17 0 26 -15l338 -406l2 -2l1 -3q3 -3 4 -7l2 -2v-3v-6v-1v-4v-3l-2 -2v-1v-2l-2 -2
v-2l-2 -1l-1 -2v-2l-2 -1h-2l-5 -6h-2v-1h-1l-2 -2h-3l-2 -2h-2h-1h-2h-4h-3h-3h-2l-2 2q-5 0 -7 2l-1 1l-4 2v2l-1 2l-408 339q-12 9 -12 26zM256 1779l92 -77l-77 92zM375 -72q2 -10 10.5 -19.5t18.5 -10.5h-29v29v1zM375 1232v2v29h29q-10 -2 -18.5 -11.5t-10.5 -19.5z
M415 -102q10 2 18.5 11t10.5 19v-1v-29h-29zM415 1263h29v-29v-2q-2 10 -10.5 19.5t-18.5 11.5z" />
    <glyph glyph-name="Iacute" unicode="&#xcd;" horiz-adv-x="819" 
d="M102 -136.5q0 13.5 10.5 24t24.5 10.5h59l74 37l37 74v1143l-37 73l-74 38h-59q-14 0 -24.5 10t-10.5 24t10.5 24t24.5 10h63h5h3h60h5h5h58h5h5h127h5h5h58h5h5h60h3h6h63q14 0 24 -10t10 -24t-10.5 -24t-23.5 -10h-60l-73 -38l-38 -73v-1143l38 -74l73 -37h60
q14 0 24 -10.5t10 -24t-10.5 -24t-23.5 -10.5h-63h-6h-3h-60h-5h-5h-58h-5h-5h-127h-5h-5h-58h-5h-5h-60h-3h-5h-63q-14 0 -24.5 10.5t-10.5 24zM171 1430q0 -2 0.5 -1.5t0.5 -1.5v-2v-1v-2l2 -2l2 -2v-1l1 -2v-2l4 -1l5 -6h2v-1h1l2 -2h4l1 -2h2h2h1h4h3h4h1l2 2q5 0 7 2
l2 1l3 2v2l2 2l408 339q12 9 12 26q0 14 -11 24l-63 65q-10 13 -27 13h-4q-19 0 -27 -15l-338 -406l-2 -2l-1 -3q-3 -3 -4 -7l-1 -2v-3v-6v-1v-4zM375 -72q2 -10 10.5 -19.5t18.5 -10.5h-29v29v1zM375 1232v2v29h29q-10 -2 -18.5 -11.5t-10.5 -19.5zM415 -102q10 2 18.5 11
t10.5 19v-1v-29h-29zM415 1263h29v-29v-2q-2 10 -10.5 19.5t-18.5 11.5zM473 1702l77 92l15 -15z" />
    <glyph glyph-name="Icircumflex" unicode="&#xce;" horiz-adv-x="819" 
d="M102 -136.5q0 13.5 10.5 24t24.5 10.5h59l74 37l37 74v1143l-37 73l-74 38h-59q-14 0 -24.5 10t-10.5 24t10.5 24t24.5 10h63h5h3h60h5h5h58h5h5h127h5h5h58h5h5h60h3h6h63q14 0 24 -10t10 -24t-10.5 -24t-23.5 -10h-60l-73 -38l-38 -73v-1143l38 -74l73 -37h60
q14 0 24 -10.5t10 -24t-10.5 -24t-23.5 -10.5h-63h-6h-3h-60h-5h-5h-58h-5h-5h-127h-5h-5h-58h-5h-5h-60h-3h-5h-63q-14 0 -24.5 10.5t-10.5 24zM103 1427v3v3v4v3v2l1 2v1l2 2v3l4 2v2l1 2q2 2 2 3l2 2h1l4 1l271 342q5 5 17 5t21 -5l271 -342h2l1 -1l2 -2l4 -2
q2 0 3.5 -3.5t1.5 -5t0.5 -3t0.5 -3.5h2v-4v-3v-2v-1v-4v-3l-2 -2v-2l-1 -3l-2 -2v-1q0 -2 -3 -6l-2 -1h-2l-2 -2l-1 -2q-2 -2 -4 -1q-7 -3 -13 -4h-4h-3q-2 0 -2 1t-2 1h-3h-2l-1 2h-2l-256 266l-258 -266l-1 -2h-6q-2 0 -5 -1l-3 -1h-4h-3h-2l-1 2h-4l-3 2l-2 1l-2 2l-1 2
l-2 1l-3 2l-2 4l-2 3v2l-2 1v2zM375 -72q2 -10 10.5 -19.5t18.5 -10.5h-29v29v1zM375 1232v2v29h29q-10 -2 -18.5 -11.5t-10.5 -19.5zM415 -102q10 2 18.5 11t10.5 19v-1v-29h-29zM415 1263h29v-29v-2q-2 10 -10.5 19.5t-18.5 11.5z" />
    <glyph glyph-name="Ntilde" unicode="&#xd1;" horiz-adv-x="1638" 
d="M-305 1435q0 -14 10 -24t23.5 -10t24 10t10.5 24v128l60 120l119 59h120l126 -63l271 -203q3 -3 5 -3l137 -69q7 -3 15 -3h137q9 0 15 3l137 69q14 7 17 20l68 203v2q2 3 2 10v5v132q0 14 -10.5 24t-24 10t-24 -10.5t-10.5 -23.5v-128l-59 -120l-120 -60h-119l-126 64
l-272 203q-3 3 -5 3l-137 68q-7 3 -15 4h-136q-9 0 -16 -4l-136 -68q-14 -7 -17 -20l-69 -203v-2q-2 -3 -1 -10v-6v-131zM102 -136.5q0 13.5 10.5 24t24.5 10.5h59l111 54v1256l-111 55h-59q-14 0 -24.5 10t-10.5 24t10.5 24t24.5 10h63h5h3h128h2h3h5h58h6h5h58h5
q9 0 12 -2l3 -1l4 -2q10 -7 12 -14l754 -1131v1027l-111 55h-60q-14 0 -24 10t-10 24t10.5 24t23.5 10h63h6h3h266h4h5h63q14 0 24 -10t10 -24t-10 -24t-24 -10h-60l-111 -55v-1136v-4v-3v-198v-4q0 -20 -13 -29h-2l-2 -1h-2q-2 -2 -3 -2q-2 0 -5 -1l-4 -1h-3q-2 0 -5 1
t-5 1q-15 3 -21 15v2l-891 1336v-1232l111 -54h60q14 0 24 -10.5t10 -24t-10 -24t-24 -10.5h-63h-5h-4h-266h-3h-5h-63q-14 0 -24.5 10.5t-10.5 24zM1224 34h5q27 0 34 26v-84z" />
    <glyph glyph-name="Ograve" unicode="&#xd2;" horiz-adv-x="1501" 
d="M171 478v205v3q2 3 1 5l69 273q0 5 1 7l69 137q2 3 6 8l137 137q3 3 14 8l201 67v1h3l2 2h2h2h1h2h2h5h126h5q7 0 10 -2h2l203 -68q10 -5 14 -8l136 -137q5 -5 7 -8l69 -137q2 -2 1 -7l68 -273q0 -2 1 -5l1 -3v-205v-4q-2 -3 -2 -5l-68 -273q0 -5 -1 -7l-69 -136
q-2 -3 -7 -9l-136 -136q-3 -3 -14 -9l-201 -68h-2h-2q-3 -2 -10 -2h-5h-126h-5q-7 0 -11 2h-1l-203 68q-10 5 -14 9l-137 136q-5 5 -6 9l-69 136q-2 2 -1 7l-69 273v5zM375 413l67 -263l128 -191l121 -61h120l121 61l128 191l66 263v335l-66 262l-128 191l-121 62h-120
l-121 -62l-128 -191l-67 -262v-335zM422 36l41 -41l-31 46zM422 1125l10 -5l31 46zM514 1775q0 14 10 24l65 65q10 13 27 13h3q17 0 26 -15l338 -406l2 -2l1 -3q3 -3 4 -7l2 -2v-3v-6v-1v-4v-3l-2 -2v-1v-2l-2 -2v-2l-2 -1l-1 -2v-2l-2 -1h-2l-5 -6h-2v-1h-1l-2 -2h-3l-2 -2
h-2h-1h-2h-4h-3h-3h-2l-2 2q-5 0 -7 2l-1 1l-4 2v2l-1 2l-408 339q-12 9 -12 26zM599 1777l92 -77l-77 92zM1039 -5l41 41l-10 5zM1039 1166l31 -46l10 5z" />
    <glyph glyph-name="Oacute" unicode="&#xd3;" horiz-adv-x="1501" 
d="M171 478v205v3q2 3 1 5l69 273q0 5 1 7l69 137q2 3 6 8l137 137q3 3 14 8l201 67v1h3l2 2h2h2h1h2h2h5h126h5q7 0 10 -2h2l203 -68q10 -5 14 -8l136 -137q5 -5 7 -8l69 -137q2 -2 1 -7l68 -273q0 -2 1 -5l1 -3v-205v-4q-2 -3 -2 -5l-68 -273q0 -5 -1 -7l-69 -136
q-2 -3 -7 -9l-136 -136q-3 -3 -14 -9l-201 -68h-2h-2q-3 -2 -10 -2h-5h-126h-5q-7 0 -11 2h-1l-203 68q-10 5 -14 9l-137 136q-5 5 -6 9l-69 136q-2 2 -1 7l-69 273v5zM375 413l67 -263l128 -191l121 -61h120l121 61l128 191l66 263v335l-66 262l-128 191l-121 62h-120
l-121 -62l-128 -191l-67 -262v-335zM422 36l41 -41l-31 46zM422 1125l10 -5l31 46zM514 1428q0 -2 0.5 -1.5t0.5 -1.5v-2v-1v-2l2 -2l2 -2v-1l1 -2v-2l4 -1l5 -6h2v-1h1l2 -2h4l1 -2h2h2h1h4h3h4h1l2 2q5 0 7 2l2 1l3 2v2l2 2l408 339q12 9 12 26q0 14 -11 24l-63 65
q-10 13 -27 13h-4q-19 0 -27 -15l-338 -406l-2 -2l-1 -3q-3 -3 -4 -7l-1 -2v-3v-6v-1v-4zM816 1700l77 92l15 -15zM1039 -5l41 41l-10 5zM1039 1166l31 -46l10 5z" />
    <glyph glyph-name="Ocircumflex" unicode="&#xd4;" horiz-adv-x="1501" 
d="M171 478v205v3q2 3 1 5l69 273q0 5 1 7l69 137q2 3 6 8l137 137q3 3 14 8l201 67v1h3l2 2h2h2h1h2h2h5h126h5q7 0 10 -2h2l203 -68q10 -5 14 -8l136 -137q5 -5 7 -8l69 -137q2 -2 1 -7l68 -273q0 -2 1 -5l1 -3v-205v-4q-2 -3 -2 -5l-68 -273q0 -5 -1 -7l-69 -136
q-2 -3 -7 -9l-136 -136q-3 -3 -14 -9l-201 -68h-2h-2q-3 -2 -10 -2h-5h-126h-5q-7 0 -11 2h-1l-203 68q-10 5 -14 9l-137 136q-5 5 -6 9l-69 136q-2 2 -1 7l-69 273v5zM375 413l67 -263l128 -191l121 -61h120l121 61l128 191l66 263v335l-66 262l-128 191l-121 62h-120
l-121 -62l-128 -191l-67 -262v-335zM422 36l41 -41l-31 46zM422 1125l10 -5l31 46zM446 1427v3v3v4v3v2l1 2v1l2 2v3l4 2v2l1 2q2 2 2 3l2 2h1l4 1l271 342q5 5 17 5t21 -5l271 -342h2l1 -1l2 -2l4 -2q2 0 3.5 -3.5t1.5 -5t0.5 -3t0.5 -3.5h2v-4v-3v-2v-1v-4v-3l-2 -2v-2
l-1 -3l-2 -2v-1q0 -2 -3 -6l-2 -1h-2l-2 -2l-1 -2q-2 -2 -4 -1q-7 -3 -13 -4h-4h-3q-2 0 -2 1t-2 1h-3h-2l-1 2h-2l-256 266l-258 -266l-1 -2h-6q-2 0 -5 -1l-3 -1h-4h-3h-2l-1 2h-4l-3 2l-2 1l-2 2l-1 2l-2 1l-3 2l-2 4l-2 3v2l-2 1v2zM1039 -5l41 41l-10 5zM1039 1166
l31 -46l10 5z" />
    <glyph glyph-name="Otilde" unicode="&#xd5;" horiz-adv-x="1501" 
d="M36 1434q0 -14 10 -24t23.5 -10t24 10t10.5 24v128l60 120l119 59h120l126 -63l271 -203q3 -3 5 -3l137 -69q7 -3 15 -3h137q9 0 15 3l137 69q14 7 17 20l68 203v2q2 3 2 10v5v132q0 14 -10.5 24t-24 10t-24 -10.5t-10.5 -23.5v-128l-59 -120l-120 -60h-119l-126 64
l-272 203q-3 3 -5 3l-137 68q-7 3 -15 4h-136q-9 0 -16 -4l-136 -68q-14 -7 -17 -20l-69 -203v-2q-2 -3 -1 -10v-6v-131zM171 478v205v3q2 3 1 5l69 273q0 5 1 7l69 137q2 3 6 8l137 137q3 3 14 8l201 67v1h3l2 2h2h2h1h2h2h5h126h5q7 0 10 -2h2l203 -68q10 -5 14 -8
l136 -137q5 -5 7 -8l69 -137q2 -2 1 -7l68 -273q0 -2 1 -5l1 -3v-205v-4q-2 -3 -2 -5l-68 -273q0 -5 -1 -7l-69 -136q-2 -3 -7 -9l-136 -136q-3 -3 -14 -9l-201 -68h-2h-2q-3 -2 -10 -2h-5h-126h-5q-7 0 -11 2h-1l-203 68q-10 5 -14 9l-137 136q-5 5 -6 9l-69 136q-2 2 -1 7
l-69 273v5zM375 413l67 -263l128 -191l121 -61h120l121 61l128 191l66 263v335l-66 262l-128 191l-121 62h-120l-121 -62l-128 -191l-67 -262v-335zM422 36l41 -41l-31 46zM422 1125l10 -5l31 46zM1039 -5l41 41l-10 5zM1039 1166l31 -46l10 5z" />
    <glyph glyph-name="Ugrave" unicode="&#xd9;" horiz-adv-x="1638" 
d="M102 1297q0 14 10.5 24t24.5 10h63h5h3h60h5h5h58h5h5h127h5h5h58h5h5h60h3h6h63q14 0 24 -10t10 -24t-10.5 -24t-23.5 -10h-60l-73 -38l-38 -73v-942l65 -191l58 -60l124 -61h123l191 64l125 125l65 191v930l-111 55h-60q-14 0 -24 10t-10 24t10.5 24t23.5 10h63h6h3
h266h4h5h63q14 0 24 -10t10 -24t-10 -24t-24 -10h-60l-111 -55v-935q0 -7 -2 -10l-68 -205q-5 -10 -8 -14l-137 -136q-3 -3 -13 -9l-205 -68q-3 -2 -11 -2h-131h-5q-7 0 -10 2h-2l-203 68q-10 5 -14 9l-136 136q-3 3 -9 14l-68 205q-2 3 -2 10v879l-37 73l-74 38h-59
q-14 0 -24.5 10t-10.5 24zM375 1232q2 10 10.5 19.5t18.5 11.5h-29v-29v-2zM415 1263q10 -2 18.5 -11.5t10.5 -19.5v2v29h-29zM490 36l12 -12l-5 15q-3 -3 -7 -3zM512 1777q0 14 10 24l65 65q10 13 27 13h3q17 0 26 -15l338 -406l2 -2l1 -3q3 -3 4 -7l2 -2v-3v-6v-1v-4v-3
l-2 -2v-1v-2l-2 -2v-2l-2 -1l-1 -2v-2l-2 -1h-2l-5 -6h-2v-1h-1l-2 -2h-3l-2 -2h-2h-1h-2h-4h-3h-3h-2l-2 2q-5 0 -7 2l-1 1l-4 2v2l-1 2l-408 339q-12 9 -12 26zM597 1779l92 -77l-77 92z" />
    <glyph glyph-name="Uacute" unicode="&#xda;" horiz-adv-x="1638" 
d="M102 1297q0 14 10.5 24t24.5 10h63h5h3h60h5h5h58h5h5h127h5h5h58h5h5h60h3h6h63q14 0 24 -10t10 -24t-10.5 -24t-23.5 -10h-60l-73 -38l-38 -73v-942l65 -191l58 -60l124 -61h123l191 64l125 125l65 191v930l-111 55h-60q-14 0 -24 10t-10 24t10.5 24t23.5 10h63h6h3
h266h4h5h63q14 0 24 -10t10 -24t-10 -24t-24 -10h-60l-111 -55v-935q0 -7 -2 -10l-68 -205q-5 -10 -8 -14l-137 -136q-3 -3 -13 -9l-205 -68q-3 -2 -11 -2h-131h-5q-7 0 -10 2h-2l-203 68q-10 5 -14 9l-136 136q-3 3 -9 14l-68 205q-2 3 -2 10v879l-37 73l-74 38h-59
q-14 0 -24.5 10t-10.5 24zM375 1232q2 10 10.5 19.5t18.5 11.5h-29v-29v-2zM415 1263q10 -2 18.5 -11.5t10.5 -19.5v2v29h-29zM490 36l12 -12l-5 15q-3 -3 -7 -3zM649 1430q0 -2 0.5 -1.5t0.5 -1.5v-2v-1v-2l2 -2l2 -2v-1l1 -2v-2l4 -1l5 -6h2v-1h1l2 -2h4l1 -2h2h2h1h4h3h4
h1l2 2q5 0 7 2l2 1l3 2v2l2 2l408 339q12 9 12 26q0 14 -11 24l-63 65q-10 13 -27 13h-4q-19 0 -27 -15l-338 -406l-2 -2l-1 -3q-3 -3 -4 -7l-1 -2v-3v-6v-1v-4zM951 1702l77 92l15 -15z" />
    <glyph glyph-name="Ucircumflex" unicode="&#xdb;" horiz-adv-x="1638" 
d="M102 1297q0 14 10.5 24t24.5 10h63h5h3h60h5h5h58h5h5h127h5h5h58h5h5h60h3h6h63q14 0 24 -10t10 -24t-10.5 -24t-23.5 -10h-60l-73 -38l-38 -73v-942l65 -191l58 -60l124 -61h123l191 64l125 125l65 191v930l-111 55h-60q-14 0 -24 10t-10 24t10.5 24t23.5 10h63h6h3
h266h4h5h63q14 0 24 -10t10 -24t-10 -24t-24 -10h-60l-111 -55v-935q0 -7 -2 -10l-68 -205q-5 -10 -8 -14l-137 -136q-3 -3 -13 -9l-205 -68q-3 -2 -11 -2h-131h-5q-7 0 -10 2h-2l-203 68q-10 5 -14 9l-136 136q-3 3 -9 14l-68 205q-2 3 -2 10v879l-37 73l-74 38h-59
q-14 0 -24.5 10t-10.5 24zM375 1232q2 10 10.5 19.5t18.5 11.5h-29v-29v-2zM415 1263q10 -2 18.5 -11.5t10.5 -19.5v2v29h-29zM490 36l12 -12l-5 15q-3 -3 -7 -3zM581 1427v3v3v4v3v2l1 2v1l2 2v3l4 2v2l1 2q2 2 2 3l2 2h1l4 1l271 342q5 5 17 5t21 -5l271 -342h2l1 -1l2 -2
l4 -2q2 0 3.5 -3.5t1.5 -5t0.5 -3t0.5 -3.5h2v-4v-3v-2v-1v-4v-3l-2 -2v-2l-1 -3l-2 -2v-1q0 -2 -3 -6l-2 -1h-2l-2 -2l-1 -2q-2 -2 -4 -1q-7 -3 -13 -4h-4h-3q-2 0 -2 1t-2 1h-3h-2l-1 2h-2l-256 266l-258 -266l-1 -2h-6q-2 0 -5 -1l-3 -1h-4h-3h-2l-1 2h-4l-3 2l-2 1l-2 2
l-1 2l-2 1l-3 2l-2 4l-2 3v2l-2 1v2z" />
    <glyph glyph-name="Yacute" unicode="&#xdd;" horiz-adv-x="1501" 
d="M34 1297q0 14 10.5 24t23.5 10h63h6h3h60h5h5h58h5h5h58h5h5h128h4h5h63q14 0 24 -10t10 -24t-10 -24t-24 -10h-60l-63 -31l394 -621l364 604l-97 48h-60q-14 0 -24 10t-10 24t10 24t24 10h63h5h4h266h3h5h64q14 0 24 -10t10 -24t-10.5 -24t-23.5 -10h-60l-121 -60
l-400 -667v-527l38 -74l73 -37h60q14 0 24 -10.5t10 -24t-10 -24t-24 -10.5h-63h-5h-4h-59h-6h-5h-58h-5h-5h-126h-5h-5h-58h-6h-5h-59h-4h-5h-63q-14 0 -24 10.5t-10 24t10 24t24 10.5h60l73 37l38 74v527l-436 684l-85 43h-60q-14 0 -24 10t-10 24zM581 1428
q0 -2 0.5 -1.5t0.5 -1.5v-2v-1v-2l2 -2l2 -2v-1l1 -2v-2l4 -1l5 -6h2v-1h1l2 -2h4l1 -2h2h2h1h4h3h4h1l2 2q5 0 7 2l2 1l3 2v2l2 2l408 339q12 9 12 26q0 14 -11 24l-63 65q-10 13 -27 13h-4q-19 0 -27 -15l-338 -406l-2 -2l-1 -3q-3 -3 -4 -7l-1 -2v-3v-6v-1v-4zM717 -72
q2 -10 10.5 -19.5t18.5 -10.5h-29v29v1zM756 -102q10 2 18.5 11t10.5 19v-1v-29h-29zM883 1700l77 92l15 -15z" />
    <glyph glyph-name="agrave" unicode="&#xe0;" horiz-adv-x="1501" 
d="M171 68q0 -9 3 -15l68 -137q7 -14 21 -17l201 -68q3 -2 14 -2h5h200q9 0 15 4l137 68q9 7 15 15l37 75l38 -75q7 -14 20 -17l202 -68q3 -2 14 -2h5h63q14 0 24 10.5t10 24t-10.5 24t-23.5 10.5h-55l-54 54l-62 125v469q0 9 -3 15l-69 137l-6 9l-69 68q-5 5 -8 7l-135 66
q-7 5 -17 5h-5h-268q-9 0 -15 -3l-137 -68q-3 -2 -9 -7l-68 -68q-10 -10 -10 -24v-137q0 -14 10 -24t24 -10h137q14 0 24 10t10 24v137q0 14 -10.5 24t-23.5 10h-55l7 7l124 61h251l55 -55l61 -124v-114l-51 -52l-331 -65h-2l-1 -1l-205 -69q-14 -3 -21 -17l-68 -136
q-3 -7 -3 -15v-69zM307 580v34q0 -27 29 -34h-29zM346 580q26 4 29 33v-33h-29zM375 77v51l60 119l123 62l268 66l2 2h1h2l2 2h3q7 3 11 10l6 7v-319l-59 -120l-120 -59h-182l-55 54zM383 1366q0 14 10 24l65 65q10 13 27 13h3q17 0 26 -15l338 -406l2 -2l1 -3q3 -3 4 -7
l2 -2v-3v-6v-1v-4v-3l-2 -2v-1v-2l-2 -2v-2l-2 -1l-1 -2v-2l-2 -1h-2l-5 -6h-2v-1h-1l-2 -2h-3l-2 -2h-2h-1h-2h-4h-3h-3h-2l-2 2q-5 0 -7 2l-1 1l-4 2v2l-1 2l-408 339q-12 9 -12 26zM468 1368l92 -77l-77 92z" />
    <glyph glyph-name="aacute" unicode="&#xe1;" horiz-adv-x="1501" 
d="M171 68q0 -9 3 -15l68 -137q7 -14 21 -17l201 -68q3 -2 14 -2h5h200q9 0 15 4l137 68q9 7 15 15l37 75l38 -75q7 -14 20 -17l202 -68q3 -2 14 -2h5h63q14 0 24 10.5t10 24t-10.5 24t-23.5 10.5h-55l-54 54l-62 125v469q0 9 -3 15l-69 137l-6 9l-69 68q-5 5 -8 7l-135 66
q-7 5 -17 5h-5h-268q-9 0 -15 -3l-137 -68q-3 -2 -9 -7l-68 -68q-10 -10 -10 -24v-137q0 -14 10 -24t24 -10h137q14 0 24 10t10 24v137q0 14 -10.5 24t-23.5 10h-55l7 7l124 61h251l55 -55l61 -124v-114l-51 -52l-331 -65h-2l-1 -1l-205 -69q-14 -3 -21 -17l-68 -136
q-3 -7 -3 -15v-69zM307 580v34q0 -27 29 -34h-29zM346 580q26 4 29 33v-33h-29zM375 77v51l60 119l123 62l268 66l2 2h1h2l2 2h3q7 3 11 10l6 7v-319l-59 -120l-120 -59h-182l-55 54zM383 1019q0 -2 0.5 -1.5t0.5 -1.5v-2v-1v-2l2 -2l2 -2v-1l1 -2v-2l4 -1l5 -6h2v-1h1l2 -2
h4l1 -2h2h2h1h4h3h4h1l2 2q5 0 7 2l2 1l3 2v2l2 2l408 339q12 9 12 26q0 14 -11 24l-63 65q-10 13 -27 13h-4q-19 0 -27 -15l-338 -406l-2 -2l-1 -3q-3 -3 -4 -7l-1 -2v-3v-6v-1v-4zM685 1291l77 92l15 -15z" />
    <glyph glyph-name="acircumflex" unicode="&#xe2;" horiz-adv-x="1501" 
d="M171 68q0 -9 3 -15l68 -137q7 -14 21 -17l201 -68q3 -2 14 -2h5h200q9 0 15 4l137 68q9 7 15 15l37 75l38 -75q7 -14 20 -17l202 -68q3 -2 14 -2h5h63q14 0 24 10.5t10 24t-10.5 24t-23.5 10.5h-55l-54 54l-62 125v469q0 9 -3 15l-69 137l-6 9l-69 68q-5 5 -8 7l-135 66
q-7 5 -17 5h-5h-268q-9 0 -15 -3l-137 -68q-3 -2 -9 -7l-68 -68q-10 -10 -10 -24v-137q0 -14 10 -24t24 -10h137q14 0 24 10t10 24v137q0 14 -10.5 24t-23.5 10h-55l7 7l124 61h251l55 -55l61 -124v-114l-51 -52l-331 -65h-2l-1 -1l-205 -69q-14 -3 -21 -17l-68 -136
q-3 -7 -3 -15v-69zM307 580v34q0 -27 29 -34h-29zM314 1018v3v3v4v3v2l1 2v1l2 2v3l4 2v2l1 2q2 2 2 3l2 2h1l4 1l271 342q5 5 17 5t21 -5l271 -342h2l1 -1l2 -2l4 -2q2 0 3.5 -3.5t1.5 -5t0.5 -3t0.5 -3.5h2v-4v-3v-2v-1v-4v-3l-2 -2v-2l-1 -3l-2 -2v-1q0 -2 -3 -6l-2 -1
h-2l-2 -2l-1 -2q-2 -2 -4 -1q-7 -3 -13 -4h-4h-3q-2 0 -2 1t-2 1h-3h-2l-1 2h-2l-256 266l-258 -266l-1 -2h-6q-2 0 -5 -1l-3 -1h-4h-3h-2l-1 2h-4l-3 2l-2 1l-2 2l-1 2l-2 1l-3 2l-2 4l-2 3v2l-2 1v2zM346 580q26 4 29 33v-33h-29zM375 77v51l60 119l123 62l268 66l2 2h1h2
l2 2h3q7 3 11 10l6 7v-319l-59 -120l-120 -59h-182l-55 54z" />
    <glyph glyph-name="atilde" unicode="&#xe3;" horiz-adv-x="1501" 
d="M110 957q0 -14 10 -24t23.5 -10t24 10t10.5 24v128l60 120l119 59h120l126 -63l271 -203q3 -3 5 -3l137 -69q7 -3 15 -3h137q9 0 15 3l137 69q14 7 17 20l68 203v2q2 3 2 10v5v132q0 14 -10.5 24t-24 10t-24 -10.5t-10.5 -23.5v-128l-59 -120l-120 -60h-119l-126 64
l-272 203q-3 3 -5 3l-137 68q-7 3 -15 4h-136q-9 0 -16 -4l-136 -68q-14 -7 -17 -20l-69 -203v-2q-2 -3 -1 -10v-6v-131zM171 68q0 -9 3 -15l68 -137q7 -14 21 -17l201 -68q3 -2 14 -2h5h200q9 0 15 4l137 68q9 7 15 15l37 75l38 -75q7 -14 20 -17l202 -68q3 -2 14 -2h5h63
q14 0 24 10.5t10 24t-10.5 24t-23.5 10.5h-55l-54 54l-62 125v469q0 9 -3 15l-69 137l-6 9l-69 68q-5 5 -8 7l-135 66q-7 5 -17 5h-5h-268q-9 0 -15 -3l-137 -68q-3 -2 -9 -7l-68 -68q-10 -10 -10 -24v-137q0 -14 10 -24t24 -10h137q14 0 24 10t10 24v137q0 14 -10.5 24
t-23.5 10h-55l7 7l124 61h251l55 -55l61 -124v-114l-51 -52l-331 -65h-2l-1 -1l-205 -69q-14 -3 -21 -17l-68 -136q-3 -7 -3 -15v-69zM307 580v34q0 -27 29 -34h-29zM346 580q26 4 29 33v-33h-29zM375 77v51l60 119l123 62l268 66l2 2h1h2l2 2h3q7 3 11 10l6 7v-319
l-59 -120l-120 -59h-182l-55 54z" />
    <glyph glyph-name="egrave" unicode="&#xe8;" horiz-adv-x="1228" 
d="M171 273v137q0 7 1 10l69 205q5 10 8 13l137 137q3 3 13 8l202 69h3q3 1 10 1h6h126h5q7 0 10 -1h2l203 -69q10 -5 14 -8l68 -68q5 -5 7 -9l68 -137q3 -7 3 -15v-136q0 -14 -10 -24.5t-24 -10.5h-131h-5h-5h-576v-165l65 -191l58 -60l125 -61h123l191 64l131 130
q10 10 24 10t24 -10t10 -23.5t-10 -24.5l-136 -136q-3 -3 -14 -9l-205 -68q-3 -2 -10 -2h-131h-6q-7 0 -10 2h-2l-203 68q-10 5 -13 9l-137 136q-3 3 -8 14l-69 205q-2 3 -1 10zM353 36l12 -12l-5 15q-3 -3 -7 -3zM353 647q3 0 7 -4l5 16zM375 444h547v162l-60 119l-120 60
h-119l-125 -61l-58 -60l-65 -191v-29zM441 1366q0 14 10 24l65 65q10 13 27 13h3q17 0 26 -15l338 -406l2 -2l1 -3q3 -3 4 -7l2 -2v-3v-6v-1v-4v-3l-2 -2v-1v-2l-2 -2v-2l-2 -1l-1 -2v-2l-2 -1h-2l-5 -6h-2v-1h-1l-2 -2h-3l-2 -2h-2h-1h-2h-4h-3h-3h-2l-2 2q-5 0 -7 2l-1 1
l-4 2v2l-1 2l-408 339q-12 9 -12 26zM526 1368l92 -77l-77 92zM990 444h29q-29 7 -29 34v-34zM1029 444h29v32q-3 -29 -29 -32z" />
    <glyph glyph-name="eacute" unicode="&#xe9;" horiz-adv-x="1228" 
d="M171 273v137q0 7 1 10l69 205q5 10 8 13l137 137q3 3 13 8l202 69h3q3 1 10 1h6h126h5q7 0 10 -1h2l203 -69q10 -5 14 -8l68 -68q5 -5 7 -9l68 -137q3 -7 3 -15v-136q0 -14 -10 -24.5t-24 -10.5h-131h-5h-5h-576v-165l65 -191l58 -60l125 -61h123l191 64l131 130
q10 10 24 10t24 -10t10 -23.5t-10 -24.5l-136 -136q-3 -3 -14 -9l-205 -68q-3 -2 -10 -2h-131h-6q-7 0 -10 2h-2l-203 68q-10 5 -13 9l-137 136q-3 3 -8 14l-69 205q-2 3 -1 10zM353 36l12 -12l-5 15q-3 -3 -7 -3zM353 647q3 0 7 -4l5 16zM372 1019q0 -2 0.5 -1.5t0.5 -1.5
v-2v-1v-2l2 -2l2 -2v-1l1 -2v-2l4 -1l5 -6h2v-1h1l2 -2h4l1 -2h2h2h1h4h3h4h1l2 2q5 0 7 2l2 1l3 2v2l2 2l408 339q12 9 12 26q0 14 -11 24l-63 65q-10 13 -27 13h-4q-19 0 -27 -15l-338 -406l-2 -2l-1 -3q-3 -3 -4 -7l-1 -2v-3v-6v-1v-4zM375 444h547v162l-60 119l-120 60
h-119l-125 -61l-58 -60l-65 -191v-29zM674 1291l77 92l15 -15zM990 444h29q-29 7 -29 34v-34zM1029 444h29v32q-3 -29 -29 -32z" />
    <glyph glyph-name="ecircumflex" unicode="&#xea;" horiz-adv-x="1228" 
d="M171 273v137q0 7 1 10l69 205q5 10 8 13l137 137q3 3 13 8l202 69h3q3 1 10 1h6h126h5q7 0 10 -1h2l203 -69q10 -5 14 -8l68 -68q5 -5 7 -9l68 -137q3 -7 3 -15v-136q0 -14 -10 -24.5t-24 -10.5h-131h-5h-5h-576v-165l65 -191l58 -60l125 -61h123l191 64l131 130
q10 10 24 10t24 -10t10 -23.5t-10 -24.5l-136 -136q-3 -3 -14 -9l-205 -68q-3 -2 -10 -2h-131h-6q-7 0 -10 2h-2l-203 68q-10 5 -13 9l-137 136q-3 3 -8 14l-69 205q-2 3 -1 10zM353 36l12 -12l-5 15q-3 -3 -7 -3zM353 647q3 0 7 -4l5 16zM372 1018v3v3v4v3v2l1 2v1l2 2v3
l4 2v2l1 2q2 2 2 3l2 2h1l4 1l271 342q5 5 17 5t21 -5l271 -342h2l1 -1l2 -2l4 -2q2 0 3.5 -3.5t1.5 -5t0.5 -3t0.5 -3.5h2v-4v-3v-2v-1v-4v-3l-2 -2v-2l-1 -3l-2 -2v-1q0 -2 -3 -6l-2 -1h-2l-2 -2l-1 -2q-2 -2 -4 -1q-7 -3 -13 -4h-4h-3q-2 0 -2 1t-2 1h-3h-2l-1 2h-2
l-256 266l-258 -266l-1 -2h-6q-2 0 -5 -1l-3 -1h-4h-3h-2l-1 2h-4l-3 2l-2 1l-2 2l-1 2l-2 1l-3 2l-2 4l-2 3v2l-2 1v2zM375 444h547v162l-60 119l-120 60h-119l-125 -61l-58 -60l-65 -191v-29zM990 444h29q-29 7 -29 34v-34zM1029 444h29v32q-3 -29 -29 -32z" />
    <glyph glyph-name="igrave" unicode="&#xec;" horiz-adv-x="819" 
d="M102 -136.5q0 13.5 10.5 24t24.5 10.5h59l74 37l37 74v665l-37 74l-74 37h-59q-14 0 -24.5 10.5t-10.5 24t10.5 23.5t24.5 10h63h5h3h60h5h5h58h5h5h132q14 0 24 -10t10 -24v-810l38 -74l73 -37h60q14 0 24 -10.5t10 -24t-10.5 -24t-23.5 -10.5h-63h-6h-3h-60h-5h-5h-58
h-5h-5h-127h-5h-5h-58h-5h-5h-60h-3h-5h-63q-14 0 -24.5 10.5t-10.5 24zM307 1161q0 -14 10.5 -24.5t23.5 -10.5h63h6h5h63q14 0 24 10.5t10 24.5v63v5v5v63q0 14 -10 24t-24 10h-63h-5h-6h-58h-5q-14 0 -22 -8h-2v-2h-1l-2 -2v-1q-7 -10 -7 -21v-5v-58v-5v-5v-63zM375 -72
q2 -10 10.5 -19.5t18.5 -10.5h-29v29v1zM375 754v2v29h29q-10 -2 -18.5 -11t-10.5 -20zM415 -102q10 2 18.5 11t10.5 19v-1v-29h-29zM415 785h29v-34q0 27 -29 34zM514 1777q0 14 10 24l65 65q10 13 27 13h3q17 0 26 -15l338 -406l2 -2l1 -3q3 -3 4 -7l2 -2v-3v-6v-1v-4v-3
l-2 -2v-1v-2l-2 -2v-2l-2 -1l-1 -2v-2l-2 -1h-2l-5 -6h-2v-1h-1l-2 -2h-3l-2 -2h-2h-1h-2h-4h-3h-3h-2l-2 2q-5 0 -7 2l-1 1l-4 2v2l-1 2l-408 339q-12 9 -12 26zM599 1779l92 -77l-77 92z" />
    <glyph glyph-name="iacute" unicode="&#xed;" horiz-adv-x="819" 
d="M102 -136.5q0 13.5 10.5 24t24.5 10.5h59l74 37l37 74v665l-37 74l-74 37h-59q-14 0 -24.5 10.5t-10.5 24t10.5 23.5t24.5 10h63h5h3h60h5h5h58h5h5h132q14 0 24 -10t10 -24v-810l38 -74l73 -37h60q14 0 24 -10.5t10 -24t-10.5 -24t-23.5 -10.5h-63h-6h-3h-60h-5h-5h-58
h-5h-5h-127h-5h-5h-58h-5h-5h-60h-3h-5h-63q-14 0 -24.5 10.5t-10.5 24zM307 1161q0 -14 10.5 -24.5t23.5 -10.5h63h6h5h63q14 0 24 10.5t10 24.5v63v5v5v63q0 14 -10 24t-24 10h-63h-5h-6h-58h-5q-14 0 -22 -8h-2v-2h-1l-2 -2v-1q-7 -10 -7 -21v-5v-58v-5v-5v-63zM375 -72
q2 -10 10.5 -19.5t18.5 -10.5h-29v29v1zM375 754v2v29h29q-10 -2 -18.5 -11t-10.5 -20zM415 -102q10 2 18.5 11t10.5 19v-1v-29h-29zM415 785h29v-34q0 27 -29 34zM514 1430q0 -2 0.5 -1.5t0.5 -1.5v-2v-1v-2l2 -2l2 -2v-1l1 -2v-2l4 -1l5 -6h2v-1h1l2 -2h4l1 -2h2h2h1h4h3
h4h1l2 2q5 0 7 2l2 1l3 2v2l2 2l408 339q12 9 12 26q0 14 -11 24l-63 65q-10 13 -27 13h-4q-19 0 -27 -15l-338 -406l-2 -2l-1 -3q-3 -3 -4 -7l-1 -2v-3v-6v-1v-4zM816 1702l77 92l15 -15z" />
    <glyph glyph-name="icircumflex" unicode="&#xee;" horiz-adv-x="819" 
d="M36 1427v3v3v4v3v2l1 2v1l2 2v3l4 2v2l1 2q2 2 2 3l2 2h1l4 1l271 342q5 5 17 5t21 -5l271 -342h2l1 -1l2 -2l4 -2q2 0 3.5 -3.5t1.5 -5t0.5 -3t0.5 -3.5h2v-4v-3v-2v-1v-4v-3l-2 -2v-2l-1 -3l-2 -2v-1q0 -2 -3 -6l-2 -1h-2l-2 -2l-1 -2q-2 -2 -4 -1q-7 -3 -13 -4h-4h-3
q-2 0 -2 1t-2 1h-3h-2l-1 2h-2l-256 266l-258 -266l-1 -2h-6q-2 0 -5 -1l-3 -1h-4h-3h-2l-1 2h-4l-3 2l-2 1l-2 2l-1 2l-2 1l-3 2l-2 4l-2 3v2l-2 1v2zM102 -136.5q0 13.5 10.5 24t24.5 10.5h59l74 37l37 74v665l-37 74l-74 37h-59q-14 0 -24.5 10.5t-10.5 24t10.5 23.5
t24.5 10h63h5h3h60h5h5h58h5h5h132q14 0 24 -10t10 -24v-810l38 -74l73 -37h60q14 0 24 -10.5t10 -24t-10.5 -24t-23.5 -10.5h-63h-6h-3h-60h-5h-5h-58h-5h-5h-127h-5h-5h-58h-5h-5h-60h-3h-5h-63q-14 0 -24.5 10.5t-10.5 24zM307 1161q0 -14 10.5 -24.5t23.5 -10.5h63h6h5
h63q14 0 24 10.5t10 24.5v63v5v5v63q0 14 -10 24t-24 10h-63h-5h-6h-58h-5q-14 0 -22 -8h-2v-2h-1l-2 -2v-1q-7 -10 -7 -21v-5v-58v-5v-5v-63zM375 -72q2 -10 10.5 -19.5t18.5 -10.5h-29v29v1zM375 754v2v29h29q-10 -2 -18.5 -11t-10.5 -20zM415 -102q10 2 18.5 11t10.5 19
v-1v-29h-29zM415 785h29v-34q0 27 -29 34z" />
    <glyph glyph-name="ntilde" unicode="&#xf1;" horiz-adv-x="1638" 
d="M102 -136.5q0 13.5 10.5 24t24.5 10.5h59l74 37l37 74v665l-37 74l-74 37h-59q-14 0 -24.5 10.5t-10.5 24t10.5 23.5t24.5 10h63h5h3h60h5h5h58h5h5h132q14 0 24 -10t10 -24v-128l3 7q2 3 7 9l69 68q5 5 8 7l137 68q7 3 15 3h200h5q10 0 17 -5l135 -66q3 -2 8 -7l68 -68
q3 -3 9 -14l68 -205q2 -3 2 -10v-469l37 -74l74 -37h60q14 0 24 -10.5t10 -24t-10.5 -24t-23.5 -10.5h-64h-5h-3h-60h-5h-5h-58h-5h-5h-127h-5h-5h-58h-5h-5h-60h-3h-5h-64q-14 0 -24 10.5t-10 24t10.5 24t23.5 10.5h60l74 37l37 74v532l-65 191l-51 53h-183l-124 -61
l-62 -62l-61 -124v-529l38 -74l73 -37h60q14 0 24 -10.5t10 -24t-10.5 -24t-23.5 -10.5h-63h-6h-3h-60h-5h-5h-58h-5h-5h-127h-5h-5h-58h-5h-5h-60h-3h-5h-63q-14 0 -24.5 10.5t-10.5 24zM137 957q0 -14 10 -24t23.5 -10t24 10t10.5 24v128l60 120l119 59h120l126 -63
l271 -203q3 -3 5 -3l137 -69q7 -3 15 -3h137q9 0 15 3l137 69q14 7 17 20l68 203v2q2 3 2 10v5v132q0 14 -10.5 24t-24 10t-24 -10.5t-10.5 -23.5v-128l-59 -120l-120 -60h-119l-126 64l-272 203q-3 3 -5 3l-137 68q-7 3 -15 4h-136q-9 0 -16 -4l-136 -68q-14 -7 -17 -20
l-69 -203v-2q-2 -3 -1 -10v-6v-131zM375 -72q2 -10 10.5 -19.5t18.5 -10.5h-29v29v1zM375 754v2v29h29q-10 -2 -18.5 -11t-10.5 -20zM415 -102q10 2 18.5 11t10.5 19v-1v-29h-29zM415 785h29v-34q0 27 -29 34zM1068 725l12 -10q-3 0 -7 -3zM1126 -72q2 -10 10.5 -19.5
t18.5 -10.5h-29v29v1zM1166 -102q10 2 18.5 11t10.5 19v-1v-29h-29z" />
    <glyph glyph-name="ograve" unicode="&#xf2;" 
d="M171 273v137q0 7 1 10l69 205q5 10 8 13l137 137q3 3 13 8l202 67v2h3l2 1h2h1h2h2h1h6h126h5q7 0 10 -1h2l203 -69q10 -5 14 -8l136 -137q3 -3 9 -13l68 -205q2 -3 2 -10v-137q0 -7 -2 -10l-68 -205q-5 -10 -9 -14l-136 -136q-3 -3 -14 -9l-201 -68h-2h-2q-3 -2 -10 -2
h-5h-126h-6q-7 0 -10 2h-2l-203 68q-10 5 -13 9l-137 136q-3 3 -8 14l-69 205q-2 3 -1 10zM353 36q4 0 7 3l5 -15zM353 647l12 12l-5 -16q-3 3 -7 4zM375 210l65 -191l58 -60l125 -61h119l125 61l58 60l65 191v263l-65 191l-58 60l-125 61h-119l-125 -61l-58 -60l-65 -191
v-263zM514 1366q0 14 10 24l65 65q10 13 27 13h3q17 0 26 -15l338 -406l2 -2l1 -3q3 -3 4 -7l2 -2v-3v-6v-1v-4v-3l-2 -2v-1v-2l-2 -2v-2l-2 -1l-1 -2v-2l-2 -1h-2l-5 -6h-2v-1h-1l-2 -2h-3l-2 -2h-2h-1h-2h-4h-3h-3h-2l-2 2q-5 0 -7 2l-1 1l-4 2v2l-1 2l-408 339
q-12 9 -12 26zM599 1368l92 -77l-77 92zM1000 24l5 15q3 -3 7 -3zM1000 659l12 -12q-3 0 -7 -4z" />
    <glyph glyph-name="oacute" unicode="&#xf3;" 
d="M171 273v137q0 7 1 10l69 205q5 10 8 13l137 137q3 3 13 8l202 67v2h3l2 1h2h1h2h2h1h6h126h5q7 0 10 -1h2l203 -69q10 -5 14 -8l136 -137q3 -3 9 -13l68 -205q2 -3 2 -10v-137q0 -7 -2 -10l-68 -205q-5 -10 -9 -14l-136 -136q-3 -3 -14 -9l-201 -68h-2h-2q-3 -2 -10 -2
h-5h-126h-6q-7 0 -10 2h-2l-203 68q-10 5 -13 9l-137 136q-3 3 -8 14l-69 205q-2 3 -1 10zM353 36q4 0 7 3l5 -15zM353 647l12 12l-5 -16q-3 3 -7 4zM375 210l65 -191l58 -60l125 -61h119l125 61l58 60l65 191v263l-65 191l-58 60l-125 61h-119l-125 -61l-58 -60l-65 -191
v-263zM446 1019q0 -2 0.5 -1.5t0.5 -1.5v-2v-1v-2l2 -2l2 -2v-1l1 -2v-2l4 -1l5 -6h2v-1h1l2 -2h4l1 -2h2h2h1h4h3h4h1l2 2q5 0 7 2l2 1l3 2v2l2 2l408 339q12 9 12 26q0 14 -11 24l-63 65q-10 13 -27 13h-4q-19 0 -27 -15l-338 -406l-2 -2l-1 -3q-3 -3 -4 -7l-1 -2v-3v-6
v-1v-4zM748 1291l77 92l15 -15zM1000 24l5 15q3 -3 7 -3zM1000 659l12 -12q-3 0 -7 -4z" />
    <glyph glyph-name="ocircumflex" unicode="&#xf4;" 
d="M171 273v137q0 7 1 10l69 205q5 10 8 13l137 137q3 3 13 8l202 67v2h3l2 1h2h1h2h2h1h6h126h5q7 0 10 -1h2l203 -69q10 -5 14 -8l136 -137q3 -3 9 -13l68 -205q2 -3 2 -10v-137q0 -7 -2 -10l-68 -205q-5 -10 -9 -14l-136 -136q-3 -3 -14 -9l-201 -68h-2h-2q-3 -2 -10 -2
h-5h-126h-6q-7 0 -10 2h-2l-203 68q-10 5 -13 9l-137 136q-3 3 -8 14l-69 205q-2 3 -1 10zM353 36q4 0 7 3l5 -15zM353 647l12 12l-5 -16q-3 3 -7 4zM375 210l65 -191l58 -60l125 -61h119l125 61l58 60l65 191v263l-65 191l-58 60l-125 61h-119l-125 -61l-58 -60l-65 -191
v-263zM377 1018v3v3v4v3v2l1 2v1l2 2v3l4 2v2l1 2q2 2 2 3l2 2h1l4 1l271 342q5 5 17 5t21 -5l271 -342h2l1 -1l2 -2l4 -2q2 0 3.5 -3.5t1.5 -5t0.5 -3t0.5 -3.5h2v-4v-3v-2v-1v-4v-3l-2 -2v-2l-1 -3l-2 -2v-1q0 -2 -3 -6l-2 -1h-2l-2 -2l-1 -2q-2 -2 -4 -1q-7 -3 -13 -4h-4
h-3q-2 0 -2 1t-2 1h-3h-2l-1 2h-2l-256 266l-258 -266l-1 -2h-6q-2 0 -5 -1l-3 -1h-4h-3h-2l-1 2h-4l-3 2l-2 1l-2 2l-1 2l-2 1l-3 2l-2 4l-2 3v2l-2 1v2zM1000 24l5 15q3 -3 7 -3zM1000 659l12 -12q-3 0 -7 -4z" />
    <glyph glyph-name="otilde" unicode="&#xf5;" 
d="M-32 956q0 -14 10 -24t23.5 -10t24 10t10.5 24v128l60 120l119 59h120l126 -63l271 -203q3 -3 5 -3l137 -69q7 -3 15 -3h137q9 0 15 3l137 69q14 7 17 20l68 203v2q2 3 2 10v5v132q0 14 -10.5 24t-24 10t-24 -10.5t-10.5 -23.5v-128l-59 -120l-120 -60h-119l-126 64
l-272 203q-3 3 -5 3l-137 68q-7 3 -15 4h-136q-9 0 -16 -4l-136 -68q-14 -7 -17 -20l-69 -203v-2q-2 -3 -1 -10v-6v-131zM171 273v137q0 7 1 10l69 205q5 10 8 13l137 137q3 3 13 8l202 67v2h3l2 1h2h1h2h2h1h6h126h5q7 0 10 -1h2l203 -69q10 -5 14 -8l136 -137q3 -3 9 -13
l68 -205q2 -3 2 -10v-137q0 -7 -2 -10l-68 -205q-5 -10 -9 -14l-136 -136q-3 -3 -14 -9l-201 -68h-2h-2q-3 -2 -10 -2h-5h-126h-6q-7 0 -10 2h-2l-203 68q-10 5 -13 9l-137 136q-3 3 -8 14l-69 205q-2 3 -1 10zM353 36q4 0 7 3l5 -15zM353 647l12 12l-5 -16q-3 3 -7 4z
M375 210l65 -191l58 -60l125 -61h119l125 61l58 60l65 191v263l-65 191l-58 60l-125 61h-119l-125 -61l-58 -60l-65 -191v-263zM1000 24l5 15q3 -3 7 -3zM1000 659l12 -12q-3 0 -7 -4z" />
    <glyph glyph-name="ugrave" unicode="&#xf9;" horiz-adv-x="1638" 
d="M102 819.5q0 13.5 10.5 23.5t24.5 10h63h5h3h60h5h5h58h5h5h132q14 0 24 -10t10 -24v-677l65 -191l51 -53h183l124 61l62 61l61 125v640h-171q-14 0 -24 10.5t-10 24t10.5 23.5t23.5 10h200h5h5h132q14 0 24 -10t10 -24v-810l37 -74l74 -37h60q14 0 24 -10.5t10 -24
t-10.5 -24t-23.5 -10.5h-64h-5h-3h-60h-5h-5h-58h-5h-5h-132q-14 0 -24 10.5t-10 23.5v128l-3 -6q-2 -3 -7 -9l-68 -68q-5 -5 -9 -7l-136 -68q-7 -3 -16 -4h-199h-6q-10 0 -17 5l-134 67q-3 2 -9 7l-68 68q-3 3 -9 14l-68 205q-2 3 -2 10v469l-37 74l-74 37h-59
q-14 0 -24.5 10.5t-10.5 24zM375 754v2v29h29q-10 -2 -18.5 -11t-10.5 -20zM415 785h29v-34q0 27 -29 34zM490 -32q4 0 7 3l5 -14l-4 2zM512 1367q0 14 10 24l65 65q10 13 27 13h3q17 0 26 -15l338 -406l2 -2l1 -3q3 -3 4 -7l2 -2v-3v-6v-1v-4v-3l-2 -2v-1v-2l-2 -2v-2
l-2 -1l-1 -2v-2l-2 -1h-2l-5 -6h-2v-1h-1l-2 -2h-3l-2 -2h-2h-1h-2h-4h-3h-3h-2l-2 2q-5 0 -7 2l-1 1l-4 2v2l-1 2l-408 339q-12 9 -12 26zM597 1369l92 -77l-77 92zM1126 -68q0 -27 29 -34h-29v34zM1126 753v32h29q-26 -3 -29 -32zM1166 -102q10 2 18.5 11t10.5 19v-1v-29
h-29zM1166 785h29v-34q0 27 -29 34z" />
    <glyph glyph-name="uacute" unicode="&#xfa;" horiz-adv-x="1638" 
d="M102 819.5q0 13.5 10.5 23.5t24.5 10h63h5h3h60h5h5h58h5h5h132q14 0 24 -10t10 -24v-677l65 -191l51 -53h183l124 61l62 61l61 125v640h-171q-14 0 -24 10.5t-10 24t10.5 23.5t23.5 10h200h5h5h132q14 0 24 -10t10 -24v-810l37 -74l74 -37h60q14 0 24 -10.5t10 -24
t-10.5 -24t-23.5 -10.5h-64h-5h-3h-60h-5h-5h-58h-5h-5h-132q-14 0 -24 10.5t-10 23.5v128l-3 -6q-2 -3 -7 -9l-68 -68q-5 -5 -9 -7l-136 -68q-7 -3 -16 -4h-199h-6q-10 0 -17 5l-134 67q-3 2 -9 7l-68 68q-3 3 -9 14l-68 205q-2 3 -2 10v469l-37 74l-74 37h-59
q-14 0 -24.5 10.5t-10.5 24zM375 754v2v29h29q-10 -2 -18.5 -11t-10.5 -20zM415 785h29v-34q0 27 -29 34zM490 -32q4 0 7 3l5 -14l-4 2zM512 1020q0 -2 0.5 -1.5t0.5 -1.5v-2v-1v-2l2 -2l2 -2v-1l1 -2v-2l4 -1l5 -6h2v-1h1l2 -2h4l1 -2h2h2h1h4h3h4h1l2 2q5 0 7 2l2 1l3 2v2
l2 2l408 339q12 9 12 26q0 14 -11 24l-63 65q-10 13 -27 13h-4q-19 0 -27 -15l-338 -406l-2 -2l-1 -3q-3 -3 -4 -7l-1 -2v-3v-6v-1v-4zM814 1292l77 92l15 -15zM1126 -68q0 -27 29 -34h-29v34zM1126 753v32h29q-26 -3 -29 -32zM1166 -102q10 2 18.5 11t10.5 19v-1v-29h-29z
M1166 785h29v-34q0 27 -29 34z" />
    <glyph glyph-name="ucircumflex" unicode="&#xfb;" horiz-adv-x="1638" 
d="M102 819.5q0 13.5 10.5 23.5t24.5 10h63h5h3h60h5h5h58h5h5h132q14 0 24 -10t10 -24v-677l65 -191l51 -53h183l124 61l62 61l61 125v640h-171q-14 0 -24 10.5t-10 24t10.5 23.5t23.5 10h200h5h5h132q14 0 24 -10t10 -24v-810l37 -74l74 -37h60q14 0 24 -10.5t10 -24
t-10.5 -24t-23.5 -10.5h-64h-5h-3h-60h-5h-5h-58h-5h-5h-132q-14 0 -24 10.5t-10 23.5v128l-3 -6q-2 -3 -7 -9l-68 -68q-5 -5 -9 -7l-136 -68q-7 -3 -16 -4h-199h-6q-10 0 -17 5l-134 67q-3 2 -9 7l-68 68q-3 3 -9 14l-68 205q-2 3 -2 10v469l-37 74l-74 37h-59
q-14 0 -24.5 10.5t-10.5 24zM375 754v2v29h29q-10 -2 -18.5 -11t-10.5 -20zM415 785h29v-34q0 27 -29 34zM444 1086v3v3v4v3v2l1 2v1l2 2v3l4 2v2l1 2q2 2 2 3l2 2h1l4 1l271 342q5 5 17 5t21 -5l271 -342h2l1 -1l2 -2l4 -2q2 0 3.5 -3.5t1.5 -5t0.5 -3t0.5 -3.5h2v-4v-3v-2
v-1v-4v-3l-2 -2v-2l-1 -3l-2 -2v-1q0 -2 -3 -6l-2 -1h-2l-2 -2l-1 -2q-2 -2 -4 -1q-7 -3 -13 -4h-4h-3q-2 0 -2 1t-2 1h-3h-2l-1 2h-2l-256 266l-258 -266l-1 -2h-6q-2 0 -5 -1l-3 -1h-4h-3h-2l-1 2h-4l-3 2l-2 1l-2 2l-1 2l-2 1l-3 2l-2 4l-2 3v2l-2 1v2zM490 -32q4 0 7 3
l5 -14l-4 2zM1126 -68q0 -27 29 -34h-29v34zM1126 753v32h29q-26 -3 -29 -32zM1166 -102q10 2 18.5 11t10.5 19v-1v-29h-29zM1166 785h29v-34q0 27 -29 34z" />
    <glyph glyph-name="yacute" unicode="&#xfd;" horiz-adv-x="1228" 
d="M34 -410q0 14 10.5 24.5t23.5 10.5h137q14 0 24 -10.5t10 -24.5v-136q0 -14 -10.5 -24t-23.5 -10h60l124 61l130 130l126 254l-372 867l-78 53h-58q-14 0 -24.5 10.5t-10.5 24t10.5 23.5t24.5 10h63h5h3h60h3h7h58h5h5h58h6h5h128h3h5h63q14 0 24.5 -10t10.5 -23.5
t-10.5 -24t-24.5 -10.5h-59l-79 -39l277 -661l295 651l-101 49h-128q-14 0 -24 10.5t-10 24t10.5 23.5t23.5 10h132h5h3h198h4h5h63q14 0 24 -10t10 -23.5t-10.5 -24t-23.5 -10.5h-55l-53 -55l-338 -740l-5 -10l-63 -128q-2 -2 -2 -6q0 -3 -1 -3l-135 -268q-2 -3 -7 -8
l-137 -137q-5 -5 -8 -7l-137 -68q-7 -3 -15 -4h-136q-14 0 -24 11l-69 68q-10 10 -10 24v136zM102 -444h29q-26 -3 -29 -32v32zM142 -444h29v-34q0 27 -29 34zM512 950q0 -2 0.5 -1.5t0.5 -1.5v-2v-1v-2l2 -2l2 -2v-1l1 -2v-2l4 -1l5 -6h2v-1h1l2 -2h4l1 -2h2h2h1h4h3h4h1
l2 2q5 0 7 2l2 1l3 2v2l2 2l408 339q12 9 12 26q0 14 -11 24l-63 65q-10 13 -27 13h-4q-19 0 -27 -15l-338 -406l-2 -2l-1 -3q-3 -3 -4 -7l-1 -2v-3v-6v-1v-4zM676 -34h7q6 0 13 3l-12 -24zM814 1222l77 92l15 -15z" />
    <glyph glyph-name="uni2000" unicode="&#x2000;" horiz-adv-x="939" 
 />
    <glyph glyph-name="uni2001" unicode="&#x2001;" horiz-adv-x="1879" 
 />
    <glyph glyph-name="uni2002" unicode="&#x2002;" horiz-adv-x="939" 
 />
    <glyph glyph-name="uni2003" unicode="&#x2003;" horiz-adv-x="1879" 
 />
    <glyph glyph-name="uni2004" unicode="&#x2004;" horiz-adv-x="626" 
 />
    <glyph glyph-name="uni2005" unicode="&#x2005;" horiz-adv-x="469" 
 />
    <glyph glyph-name="uni2006" unicode="&#x2006;" horiz-adv-x="313" 
 />
    <glyph glyph-name="uni2007" unicode="&#x2007;" horiz-adv-x="313" 
 />
    <glyph glyph-name="uni2008" unicode="&#x2008;" horiz-adv-x="234" 
 />
    <glyph glyph-name="uni2009" unicode="&#x2009;" horiz-adv-x="375" 
 />
    <glyph glyph-name="uni200A" unicode="&#x200a;" horiz-adv-x="104" 
 />
    <glyph glyph-name="uni2010" unicode="&#x2010;" horiz-adv-x="1774" 
d="M239 478q0 -14 10 -24t24 -10h1229q14 0 24 10t10 24t-10 24t-24 10h-1229q-14 0 -24 -10t-10 -24z" />
    <glyph glyph-name="uni2011" unicode="&#x2011;" horiz-adv-x="1774" 
d="M239 478q0 -14 10 -24t24 -10h1229q14 0 24 10t10 24t-10 24t-24 10h-1229q-14 0 -24 -10t-10 -24z" />
    <glyph glyph-name="figuredash" unicode="&#x2012;" horiz-adv-x="1774" 
d="M239 478q0 -14 10 -24t24 -10h1229q14 0 24 10t10 24t-10 24t-24 10h-1229q-14 0 -24 -10t-10 -24z" />
    <glyph glyph-name="endash" unicode="&#x2013;" horiz-adv-x="1501" 
d="M239 478q0 -14 8 -24t19 -10h970q11 0 19 10t8 24t-8 24t-19 10h-970q-11 0 -19 -10t-8 -24z" />
    <glyph glyph-name="emdash" unicode="&#x2014;" horiz-adv-x="2525" 
d="M239 478q0 -14 16 -24t38 -10h1940q22 0 38 10t16 24t-16 24t-38 10h-1940q-22 0 -38 -10t-16 -24z" />
    <glyph glyph-name="uni202F" unicode="&#x202f;" horiz-adv-x="375" 
 />
    <glyph glyph-name="uni205F" unicode="&#x205f;" horiz-adv-x="469" 
 />
    <glyph glyph-name="uni25FC" unicode="&#x25fc;" horiz-adv-x="853" 
d="M0 0v853h853v-853h-853z" />
  </font>
</defs>
</svg>
