<?xml version="1.0" standalone="no"?>
<!DOCTYPE svg PUBLIC "-//W3C//DTD SVG 1.1//EN" "http://www.w3.org/Graphics/SVG/1.1/DTD/svg11.dtd" >
<svg xmlns="http://www.w3.org/2000/svg" xmlns:xlink="http://www.w3.org/1999/xlink" version="1.1">
<metadata>
Created by FontForge 20170731 at Thu Mar  8 18:42:49 2018
 By Aleksey,,,
Copyright (c) 2017, antoine
</metadata>
<defs>
<font id="Hershey-Noailles-timesr" horiz-adv-x="1365" >
  <font-face 
    font-family="Hershey-Noailles-timesr"
    font-weight="400"
    font-stretch="normal"
    units-per-em="2048"
    panose-1="2 0 5 3 0 0 0 0 0 0"
    ascent="1365"
    descent="-683"
    x-height="853"
    cap-height="1331"
    bbox="-36 -649 2287 1879"
    underline-thickness="68"
    underline-position="-681"
    unicode-range="U+000D-25FC"
  />
<missing-glyph horiz-adv-x="748" 
d="M68 0v1365h544v-1365h-544zM136 68h408v1229h-408v-1229z" />
    <glyph glyph-name=".notdef" horiz-adv-x="748" 
d="M68 0v1365h544v-1365h-544zM136 68h408v1229h-408v-1229z" />
    <glyph glyph-name="glyph1" horiz-adv-x="0" 
 />
    <glyph glyph-name="uni000D" unicode="&#xd;" horiz-adv-x="682" 
 />
    <glyph glyph-name="space" unicode=" " horiz-adv-x="1092" 
 />
    <glyph glyph-name="exclam" unicode="!" horiz-adv-x="682" 
d="M239 -68q0 -14 10 -24l68 -68q10 -10 24 -10.5t24 10.5l68 68q10 10 10.5 23.5t-10.5 24.5l-63 63l-1 1q-9 10 -21 14h-5h-2h-3h-3q-14 -3 -21 -14l-65 -64q-10 -10 -10 -24zM239 1157v4q0 9 3 15l67 131q3 14 17 21q2 2 3.5 1.5t1.5 0.5t2 1h3h2h2h1h4h3q19 -3 26 -22
l66 -133q3 -7 4 -15v-4l-69 -819q-3 -31 -33.5 -31t-34.5 31zM321 -68l20 20l21 -20l-21 -21zM328 1191l13 29l14 -29q-7 3 -13.5 3.5t-13.5 -3.5z" />
    <glyph glyph-name="quotedbl" unicode="&#x22;" horiz-adv-x="1228" 
d="M239 811v1v2v3v2v2v408q0 14 10 24l65 65q7 10 21 13h3h3h2h5q12 -3 21 -13l1 -2l63 -63q10 -10 11 -24q0 -7 -2 -10l-137 -408q0 -2 -1 -5l-2 -4v-2l-2 -1l-1 -2v-2h-2v-1q-3 -3 -5 -4h-2v-2h-2l-1 -1h-2h-2l-1 -2h-2h-2h-2h-1h-2h-2h-1h-2h-2h-1l-2 2h-2h-2l-1 1h-2
l-2 2l-1 2h-2v2h-2v1h-2v2h-1v2l-2 3h-2v4l-1 1v2v2h-2zM853 811v1v2v3v2v2v408q0 14 11 24l64 65q7 10 21 13h3h4h1h6q12 -3 20 -13l2 -2l63 -63q10 -10 10 -24q0 -7 -2 -10l-136 -408q0 -2 -2 -5l-2 -4v-2l-1 -1l-2 -2v-2h-2v-1q-3 -3 -5 -4h-1v-2h-2l-2 -1h-2h-1l-2 -2
h-2h-1h-2h-2h-2h-1h-2h-2h-1h-2l-2 2h-1h-2l-2 1h-2v2h-1l-2 2h-2v2h-1v1h-2v2l-2 2l-2 3h-1v4l-2 1v2v2h-2z" />
    <glyph glyph-name="numbersign" unicode="#" horiz-adv-x="1501" 
d="M171 273q0 14 10 24t24 10h235l74 342h-241q-14 0 -24 10t-10 23.5t10 24t24 10.5h256l188 860q7 27 34 27q14 0 24 -10t10 -24v-7l-186 -846h340l187 860q8 27 35 27q14 0 24 -10t10 -24v-7l-186 -846h220q14 0 24 -10.5t10 -24t-10.5 -23.5t-23.5 -10h-236l-73 -342
h241q14 0 24 -10t10 -24t-10.5 -24t-23.5 -10h-256l-188 -860q-7 -27 -34 -28q-14 0 -24 10.5t-10 24.5v6l186 847h-340l-188 -860q-7 -27 -34 -28q-14 0 -24 10.5t-10 24.5v6l186 847h-220q-14 0 -24 10t-10 24zM510 307h340l73 342h-339z" />
    <glyph glyph-name="dollar" unicode="$" 
d="M171 68v69q0 14 10 23l68 69q10 10 24 10t24 -10l68 -69q10 -10 10 -23.5t-10 -23.5l-68 -69q-5 -5 -12 -8l75 -74l152 -51v724l-44 15l-2 2h-3l-137 68q-3 2 -9 7l-68 68q-5 5 -7 9l-66 135l-2 1v2q-3 7 -3 14v5v131q0 14 10 24l136 137q3 3 14 8l181 60v249q0 14 10 24
t24 10t24 -10t10 -24v-239h205v239q0 14 10.5 24t24 10t23.5 -10t10 -24v-249l181 -60q10 -5 14 -8l136 -137q10 -10 11 -24v-68q0 -14 -11 -24l-68 -68q-10 -10 -23.5 -10t-24.5 10l-68 68q-10 10 -10 24t10 24l68 68q5 5 12 9l-75 73l-152 51v-587l45 -15l1 -2h4l136 -68
q3 -2 9 -7l68 -68q5 -5 7 -9l67 -135l1 -1v-2q3 -7 4 -14v-5v-268q0 -14 -11 -24l-136 -136q-3 -3 -14 -9l-181 -59v-250q0 -14 -10 -24t-23.5 -10t-24 10.5t-10.5 23.5v239h-205v-239q0 -14 -10 -24t-24 -10t-24 10.5t-10 23.5v250l-181 59q-10 5 -14 9l-136 136
q-10 10 -10 24zM239 82v41l34 34l21 -20l-45 -45q-5 -5 -8 -12zM239 969l123 -122l130 -64l20 -8v474l-152 -51l-121 -119v-110zM580 -102h205v646l-205 69v-715zM580 753l205 -69v579h-205v-510zM853 -89l152 51l121 120v246l-122 123l-130 63l-21 8v-611zM1072 1024l44 44
q6 5 9 12l1 -42l-34 -34z" />
    <glyph glyph-name="percent" unicode="%" horiz-adv-x="1638" 
d="M171 -136.5q0 13.5 8 22.5l1121 1309l-197 -67q-3 -2 -11 -2h-205q-7 0 -10 2l-170 56q10 -10 10 -23v-137q0 -9 -4 -15l-68 -137q-7 -9 -15 -15l-137 -69q-7 -3 -15 -3h-137q-14 0 -24 10l-136 137q-10 10 -10 24v136q0 9 3 16l68 136q7 9 16 16l136 68q7 3 16 3h131h5
q10 0 17 -5l133 -65l197 -66h194l196 66l132 65q9 5 19 5q7 0 10 -2q2 -2 6 -3.5t6 -1.5l1 -3l4 -2q0 -2 2 -3l1 -4q2 0 2 -1v-4l2 -1v-6v-3q0 -15 -11 -26l-1227 -1430q-9 -12 -25 -12q-14 0 -24 10.5t-10 24zM239 969l116 -116h114l120 60l60 120v114l-117 116h-114
l-119 -60l-60 -119v-115zM922 0q0 -14 10 -24l136 -136q10 -10 24 -11h137q9 0 15 4l137 68q9 7 15 15l68 137q3 7 4 15v137q0 14 -11 24l-136 136q-10 10 -24 10h-131h-5h-7h-2l-2 -1q-5 0 -8 -4l-133 -66q-9 -7 -16 -16l-68 -136q-3 -7 -3 -15v-137zM990 14v114l60 119
l119 60h114l116 -116v-114l-59 -120l-120 -59h-114z" />
    <glyph glyph-name="ampersand" unicode="&#x26;" horiz-adv-x="1774" 
d="M171 68q0 -9 3 -15l68 -137q7 -14 21 -17l203 -68h2q3 -2 10 -2h5h200q9 0 15 4l137 68q3 2 8 7l137 136l5 5l5 9l7 -10l3 -4l137 -136q3 -3 13 -9l203 -68h2q3 -2 10 -2h5h64q14 0 23 11l69 68q10 10 10 24v68q0 14 -10 24t-24 10t-24 -10t-10 -24v-55l-48 -47h-46
l-125 61l-131 131l-55 77l58 87q3 3 4 7l135 340l64 129l55 55h41l2 -2q-7 -3 -12 -8l-69 -68q-10 -10 -10 -24t10 -24l69 -68q10 -10 23.5 -10.5t23.5 10.5l69 68q10 10 10 24v68q0 14 -10 24l-69 68q-10 10 -23 10h-69q-14 0 -24 -10l-68 -68q-5 -5 -7 -9l-68 -136l-2 -4
l-134 -338l-41 -63l-314 432v2l136 136q5 5 7 9l68 136q3 7 4 16v136q0 9 -4 16l-68 136q-7 9 -15 16l-137 68q-7 3 -15 3h-2q-7 0 -14 -3l-136 -68q-9 -7 -16 -16l-68 -136q-3 -7 -3 -16v-131v-5q0 -7 1 -11v-3l69 -201q0 -5 3 -9l55 -82l-111 -73l-2 -2l-2 -2l-203 -134
q-12 -12 -12 -14l-68 -137q-3 -7 -3 -15v-205zM307 77v188l62 124l131 130l111 75l43 -67l1 -1l292 -408l-19 -28l-129 -131l-125 -61h-188l-119 59zM512 964v120l60 119l111 57l111 -57l59 -119v-120l-61 -124l-126 -127l-91 123zM1413 683l44 44q6 5 9 12l2 -43l-34 -34z
" />
    <glyph glyph-name="quotesingle" unicode="'" horiz-adv-x="546" 
d="M171 814v5v2v3v2l68 476q3 29 34 29h2q29 0 32 -31l2 6q6 27 32 27q14 0 24 -10.5t10 -23.5q0 -7 -1 -10l-135 -477l-2 -1v-2v-2t-3 -5l-2 -3l-2 -4l-1 -1h-2l-2 -2l-1 -2l-2 -2h-2h-2q0 -2 -1.5 -1.5t-1.5 -0.5t-2 -1h-3h-3h-2h-2h-3h-4q-2 0 -1 0v2h-2h-2l-2 1h-1l-2 2
l-2 2h-1l-2 2l-2 1l-2 4l-1 1l-2 4l-2 2v1v4q0 2 -0.5 1.5t-0.5 1.5z" />
    <glyph glyph-name="parenleft" unicode="(" horiz-adv-x="955" 
d="M239 335v6v273v7l68 342q0 5 4 8l136 273q0 2 1 2t1 2l136 203v1l6 5v2h1l2 2l133 133q10 10 24 10t24 -10t10 -24t-10 -24l-133 -133l-132 -266l-68 -200l-67 -336v-266l67 -336l68 -200l132 -266l133 -134q10 -10 10 -23.5t-10 -24t-24 -10.5t-24 11l-135 133v2l-3 3
l-2 2l-2 1v2l-136 203q0 2 -1 2t-1 2l-136 273q-3 3 -4 8z" />
    <glyph glyph-name="parenright" unicode=")" horiz-adv-x="955" 
d="M171 -614.5q0 13.5 10 23.5l133 134l131 266l69 200l66 336v266l-66 336l-69 200l-131 266l-133 133q-10 10 -10 24t10 24t23.5 10t24.5 -10l135 -133v-2l3 -3l2 -2l1 -2v-1l137 -203q0 -2 1 -2t1 -2l136 -273q3 -3 4 -8l68 -342v-7v-273v-6l-68 -342q0 -5 -4 -8
l-136 -273q0 -2 -1 -2t-1 -2l-137 -203v-2l-5 -5v-1h-1l-2 -2l-133 -133q-10 -10 -24 -10.5t-24 10t-10 24z" />
    <glyph glyph-name="asterisk" unicode="*" horiz-adv-x="1092" 
d="M171 273q0 19 17 29l292 176l-292 176q-17 10 -17 29q0 14 10 24t24 10q9 0 17 -5l290 -174v349q0 14 10 24.5t24 10.5t24 -10.5t10 -24.5v-349l290 174q7 5 17 5q14 0 24.5 -10.5t10.5 -23.5q0 -19 -17 -29l-292 -176l292 -176q17 -10 17 -29q0 -14 -10.5 -24t-24.5 -10
q-10 0 -17 5l-290 174v-350q0 -14 -10 -24t-24 -10t-24 10.5t-10 23.5v350l-290 -174q-9 -5 -17 -5q-14 0 -24 10t-10 24z" />
    <glyph glyph-name="plus" unicode="+" horiz-adv-x="1774" 
d="M239 478q0 14 10 24t24 10h580v580q0 14 10.5 24t24 10t24 -10t10.5 -24v-580h580q14 0 24 -10t10 -24t-10 -24t-24 -10h-580v-581q0 -14 -10.5 -24t-24 -10t-24 10.5t-10.5 23.5v581h-580q-14 0 -24 10t-10 24z" />
    <glyph glyph-name="comma" unicode="," horiz-adv-x="546" 
d="M171 136.5q0 -13.5 10 -23.5l68 -69q10 -10 24 -10t24 10l10 11v-41l-126 -127q-10 -10 -10 -23.5t10 -24t23.5 -10.5t24.5 11l136 136q10 10 10 24v133v4q0 19 -13 27l-65 65q-10 10 -24 10t-24 -10l-68 -69q-10 -10 -10 -23.5zM253 137l20 20l21 -20l-21 -21z" />
    <glyph glyph-name="hyphen" unicode="-" horiz-adv-x="1774" 
d="M239 478q0 -14 10 -24t24 -10h1229q14 0 24 10t10 24t-10 24t-24 10h-1229q-14 0 -24 -10t-10 -24z" />
    <glyph glyph-name="period" unicode="." horiz-adv-x="546" 
d="M171 136.5q0 -13.5 10 -23.5l68 -69q10 -10 24 -10t24 10l68 69q10 10 10 23.5t-10 23.5l-63 64l-2 1q-9 10 -20 14h-5h-2h-3h-4q-14 -3 -20 -14l-65 -65q-10 -10 -10 -23.5zM253 137l20 20l21 -20l-21 -21z" />
    <glyph glyph-name="slash" unicode="/" horiz-adv-x="1501" 
d="M102 -614q0 2 6 17l1228 2184q9 17 29 17q14 0 24 -10t10 -24q0 -2 -5 -17l-1228 -2184q-9 -17 -29 -18q-14 0 -24.5 10.5t-10.5 24.5z" />
    <glyph glyph-name="zero" unicode="0" 
d="M171 471v7v205v6l68 342q0 2 5 12l137 205q7 10 18 13l202 67v1h3l2 2h2h1h2h2h1h6h126h5q7 0 10 -2h2l203 -68q12 -3 19 -13l136 -205q5 -10 5 -12l69 -342v-6v-205v-7l-69 -341q0 -2 -5 -12l-136 -205q-7 -10 -19 -14l-201 -68h-2h-2q-3 -2 -10 -2h-5h-126h-6
q-7 0 -10 2h-2l-203 68q-12 3 -18 14l-137 205q-5 10 -5 12zM307 481l67 -333l63 -128l61 -61l125 -61h119l125 61l61 61l64 128l66 333v198l-66 333l-64 128l-61 61l-125 62h-119l-125 -62l-61 -61l-63 -128l-67 -333v-198z" />
    <glyph glyph-name="one" unicode="1" 
d="M374 1024q0 22 20 31l132 65l129 129l7 7v2l65 63q10 10 22 10q14 0 25 -10t11 -24v-1399h239q14 0 24 -10.5t10 -24t-10 -24t-24 -10.5h-268h-5h-5h-58h-5h-5h-268q-14 0 -24.5 10.5t-10.5 24t10.5 24t24.5 10.5h239v1249l-79 -79q-5 -5 -9 -6l-136 -69q-7 -3 -17 -3
q-14 0 -24 10t-10 24z" />
    <glyph glyph-name="two" unicode="2" 
d="M171 0v-5v-132q0 -14 10 -24t23.5 -10t24 10.5t10.5 23.5v123l48 48h112l335 -200q7 -5 17 -5h273q14 0 24 11l68 68q5 5 7 8l67 135q5 7 5 17v5v132q0 14 -10.5 24t-24 10t-24 -10.5t-10.5 -23.5v-123l-54 -55l-125 -61h-189l-333 133l-2 2h-1q-3 2 -12 1h-4h-133
q-14 0 -24 -10l55 162l126 128l130 63v2l339 135q3 0 7 3l205 137q12 12 12 14l68 136q3 7 4 15v137q0 9 -4 15l-68 137q-2 3 -7 8l-68 69q-3 3 -14 8l-203 68h-2q-3 2 -10 2h-2h-3h-268q-7 0 -10 -2l-205 -68q-10 -5 -14 -8l-68 -69q-5 -5 -7 -8l-68 -137q-3 -7 -3 -15v-68
q0 -14 10 -24l68 -68q10 -10 24 -10.5t24 10.5l68 68q10 10 10 23.5t-10 24.5l-68 68q-10 10 -24 10q-9 0 -15 -3l42 85l60 58l191 65h260l124 -62l62 -61l61 -125v-119l-61 -121l-195 -132l-268 -133l-3 -1l-4 -2l-133 -67q-3 -2 -8 -7l-137 -136q-3 -3 -8 -14l-69 -204
q-2 -3 -1 -11v-65v-3zM239 969v46v2q3 -10 10 -17l45 -44l-21 -21zM956 -102q9 0 15 3l85 43l-46 -46h-54z" />
    <glyph glyph-name="three" unicode="3" 
d="M171 137v68q0 14 10 24l68 68q10 10 24 10t24 -10l68 -68q10 -10 10 -24t-10 -24l-68 -68q-10 -10 -24 -11q-7 0 -14 4l41 -86l60 -58l191 -64h260l124 61l62 61l61 125v191l-65 191l-58 60l-124 62h-197q-14 0 -24 10t-10 23.5t10.5 24t23.5 10.5h197l119 60l60 119v188
l-60 119l-119 60h-260l-191 -65l-60 -58l-42 -85q7 3 15 3q14 0 24 -10l68 -68q10 -10 10 -24t-10 -24l-68 -68q-10 -10 -24 -10.5t-24 10.5l-68 68q-10 10 -10 24v68q0 9 3 15l68 137q2 3 7 8l68 69q3 3 14 8l205 68q3 2 10 2h268h3q9 0 12 -2h2l203 -68q14 -3 21 -17
l68 -136q3 -7 3 -16v-205q0 -9 -3 -15l-68 -136q-7 -14 -21 -17l-126 -43l63 -31q3 -2 9 -7l64 -65h2q2 0 2 -1.5t2 -3.5l66 -66q5 -5 7 -9l68 -136q3 -7 4 -16v-204q0 -9 -4 -16l-68 -136q-2 -3 -7 -9l-68 -68q-3 -3 -14 -9l-201 -68h-2h-2q-3 -2 -10 -2h-5h-268
q-7 0 -10 2l-205 68q-10 5 -14 9l-68 68q-5 5 -7 9l-68 136q-3 7 -3 16zM239 143v2v46l34 34l21 -20l-45 -45q-7 -7 -10 -17zM239 969v46v2q3 -10 10 -17l45 -44l-21 -21z" />
    <glyph glyph-name="four" unicode="4" 
d="M102 273q0 10 7 21l748 1020q3 7 15 14q6 3 15 3h4h3h2l2 -2h3l2 -1l3 -2l4 -2l1 -3l2 -2q9 -9 9 -22v-3v-987h307q14 0 24 -10t10 -24t-10.5 -24t-23.5 -10h-307v-341h170q14 0 24 -10.5t10 -24t-10 -24t-24 -10.5h-199h-6h-5h-58h-5h-5h-200q-14 0 -24 10.5t-10 24
t10.5 24t23.5 10.5h171v341h-648q-14 0 -24.5 10t-10.5 24zM203 307h582v792zM847 1183l6 10v-32q0 12 -6 22z" />
    <glyph glyph-name="five" unicode="5" 
d="M171 137v68q0 14 10 24l68 68q10 10 24 10t24 -10l68 -68q10 -10 10 -24t-10 -24l-68 -68q-10 -10 -24 -11q-7 0 -14 4l41 -86l60 -58l191 -64h191l125 61l126 128l65 191v126l-65 192l-126 128l-125 61h-191l-191 -65l-128 -126q-10 -14 -27 -14h-7h-2l-1 2h-2h-2
q-2 0 -5 3l-5 6l-5 5l-2 1l-2 4q-2 3 -1 13q0 2 0.5 5.5t0.5 5.5l135 674q0 14 9 22l3 2v1q10 7 22 7h5h676h2h2t3.5 -1t3.5 -1h3l3 -1q2 0 2 -2l3 -2l6 -5l3 -1q3 -3 3 -7q2 -3 2 -14v-7v-3l-2 -4q0 -2 -3 -5l-5 -5l-5 -5q0 -2 -2 -2h-2l-1 -1q-2 -2 -9 -2l-340 -68h-6
h-328l-94 -476l56 56q3 3 14 8l205 69q3 2 10 1h200h5q7 0 10 -1h2l203 -69q10 -5 14 -8l136 -137q3 -3 9 -13l68 -205q2 -3 2 -10v-137q0 -7 -2 -10l-68 -205q-5 -10 -9 -14l-136 -136q-3 -3 -14 -9l-201 -68h-2h-2q-3 -2 -10 -2h-5h-200q-7 0 -10 2l-205 68q-10 5 -14 9
l-68 68q-5 5 -7 9l-68 136q-3 7 -3 16zM239 143v2v46l34 34l21 -20l-45 -45q-7 -7 -10 -17z" />
    <glyph glyph-name="six" unicode="6" 
d="M171 273v410v3q2 3 1 5l69 273q0 5 1 7l69 137q2 3 6 8l137 137q3 3 14 8l201 68h3q4 2 11 2h5h199q9 0 16 -3l136 -68q9 -7 16 -16l68 -136q3 -7 3 -16v-68q0 -14 -10 -24l-68 -68q-10 -10 -24 -10t-24 10l-68 68q-10 10 -10 24t10 24l68 68q10 10 24 10q7 0 14 -3
l-40 80l-119 60h-188l-124 -62l-130 -129l-63 -128l-67 -265v-128l2 5q5 10 8 14l137 137q3 3 14 8l204 68q3 2 11 2h63h5q7 0 10 -2h2l203 -68q10 -5 14 -8l136 -137q3 -3 9 -14l68 -204q2 -3 2 -11v-68q0 -7 -2 -10l-68 -205q-5 -10 -9 -14l-136 -136q-3 -3 -14 -9
l-201 -68h-2h-2q-3 -2 -10 -2h-5h-126h-6q-7 0 -10 2h-2l-203 68q-10 5 -13 9l-137 136q-3 3 -8 14l-69 205q-2 3 -1 10zM307 278l65 -191l126 -128l125 -61h119l125 61l126 128l65 191v58l-65 191l-126 128l-125 62h-54l-191 -65l-125 -125l-65 -191v-58zM1004 1024l44 44
q7 7 10 17v-47l-34 -34z" />
    <glyph glyph-name="seven" unicode="7" 
d="M171 887v132v5v3v270q0 14 10 24t23.5 10t24 -10t10.5 -24v-128l2 2q2 7 10 15l135 135q10 10 24 10h136q10 0 17 -5l335 -200h112l55 55l63 128q7 14 17 19q2 2 4 1q3 2 10 2h2h1h4h1l4 -2h3l2 -1l3 -2l4 -2l1 -3l2 -2q0 -2 2.5 -6t4.5 -6q0 -2 1 -5t1 -5v-3v-202
q0 -7 -2 -10l-67 -201q0 -5 -3 -9l-2 -3l-1 -2l-2 -2l-270 -338l-65 -131l-66 -196v-337q0 -14 -10.5 -24t-24 -10t-23.5 10.5t-10 23.5q0 -14 -10.5 -24t-24 -10t-24 10.5t-10.5 23.5v342q0 7 2 10l68 205l2 2v3l68 136q2 3 7 9l336 336l63 191v55l-3 -7q-2 -3 -7 -8
l-68 -69q-10 -10 -24 -10h-133h-2h-3q-2 0 -3.5 1t-3.5 1h-3l-4 2l-333 133h-121l-119 -60l-60 -120v-128q0 -14 -10.5 -24t-24 -10t-23.5 10.5t-10 23.5z" />
    <glyph glyph-name="eight" unicode="8" 
d="M171 137v273q0 9 3 15l68 136q2 3 7 9l68 68q3 3 14 9l108 36l-108 36q-14 3 -20 17l-69 136q-3 7 -3 15v205q0 9 3 16l69 136q7 14 20 17l201 67v1h4l2 2h1h2h2h1h2h5h263h5q7 0 10 -2h2l203 -68q14 -3 21 -17l68 -136q3 -7 3 -16v-205q0 -9 -3 -15l-68 -136
q-7 -14 -21 -17l-107 -36l107 -36q10 -5 14 -9l68 -68q5 -5 7 -9l68 -136q3 -7 4 -15v-273q0 -9 -4 -16l-68 -136q-2 -3 -7 -9l-68 -68q-3 -3 -14 -9l-201 -68h-2h-2q-3 -2 -10 -2h-5h-263h-5q-7 0 -10 2h-2l-203 68q-10 5 -14 9l-68 68q-5 5 -7 9l-68 136q-3 7 -3 16z
M307 145l62 -125l61 -61l125 -61h256l124 61l62 61l61 125v256l-61 125l-62 61l-124 62h-256l-125 -62l-61 -61l-62 -125v-256zM375 896l60 -119l120 -60h256l119 60l60 119v188l-60 119l-119 60h-256l-120 -60l-60 -119v-188z" />
    <glyph glyph-name="nine" unicode="9" 
d="M171 819v68q0 7 1 11l69 205q5 10 8 13l137 137q3 3 13 8l202 68h3q3 2 10 2h6h126h5q7 0 10 -2h2l203 -68q10 -5 14 -8l136 -137q3 -3 9 -13l68 -205q2 -3 2 -11v-409v-4q-2 -3 -2 -5l-68 -273q0 -5 -2 -7l-68 -136q-2 -3 -7 -9l-137 -136q-3 -3 -13 -9l-202 -68h-1h-2
q-3 -2 -10 -2h-5h-200q-9 0 -15 4l-137 68q-9 7 -15 15l-69 137q-3 7 -3 15v69q0 14 10 23l68 69q10 10 24 10t24 -10l68 -69q10 -10 10.5 -23.5t-10.5 -23.5l-68 -69q-10 -10 -24 -10q-7 0 -13 4l39 -81l119 -59h188l125 61l129 130l64 128l66 264v128l-2 -5q-5 -10 -8 -13
l-137 -137q-3 -3 -13 -9l-205 -68q-3 -2 -10 -2h-63h-6q-7 0 -10 2h-2l-203 68q-10 5 -13 9l-137 137q-3 3 -8 13l-69 205q-2 3 -1 10zM307 75v2v46l34 34l21 -20l-45 -45q-7 -7 -10 -17zM307 824l65 -191l126 -128l125 -61h55l191 65l124 124l65 191v58l-65 191l-126 128
l-125 62h-119l-125 -62l-126 -128l-65 -191v-58z" />
    <glyph glyph-name="colon" unicode=":" horiz-adv-x="546" 
d="M171 136.5q0 -13.5 10 -23.5l68 -69q10 -10 24 -10t24 10l68 69q10 10 10 23.5t-10 23.5l-63 64l-2 1q-9 10 -20 14h-5h-2h-3h-4q-14 -3 -20 -14l-65 -65q-10 -10 -10 -23.5zM171 614.5q0 -13.5 10 -23.5l68 -69q10 -10 24 -10t24 10l68 69q10 10 10 23.5t-10 23.5
l-63 63l-2 2q-9 10 -20 14h-5h-2h-3h-4q-14 -3 -20 -14l-65 -65q-10 -10 -10 -23.5zM253 137l20 20l21 -20l-21 -21zM253 614l20 21l21 -21l-21 -20z" />
    <glyph glyph-name="semicolon" unicode=";" horiz-adv-x="546" 
d="M171 136.5q0 -13.5 10 -23.5l68 -69q10 -10 24 -10t24 10l10 11v-41l-126 -127q-10 -10 -10 -23.5t10 -24t23.5 -10.5t24.5 11l136 136q10 10 10 24v133v4q0 19 -13 27l-65 65q-10 10 -24 10t-24 -10l-68 -69q-10 -10 -10 -23.5zM171 614.5q0 -13.5 10 -23.5l68 -69
q10 -10 24 -10t24 10l68 69q10 10 10 23.5t-10 23.5l-63 63l-2 2q-9 10 -20 14h-5h-2h-3h-4q-14 -3 -20 -14l-65 -65q-10 -10 -10 -23.5zM253 137l20 20l21 -20l-21 -21zM253 614l20 21l21 -21l-21 -20z" />
    <glyph glyph-name="less" unicode="&#x3c;" horiz-adv-x="1638" 
d="M239 478q0 20 17 29l1092 614q11 5 16 5h1h2q14 0 23 -10t9 -24q0 -20 -17 -29l-1039 -585l1039 -586q17 -9 17 -29q0 -14 -10 -24t-24 -10q-2 0 -17 5l-1092 615q-17 9 -17 29z" />
    <glyph glyph-name="equal" unicode="=" horiz-adv-x="1774" 
d="M239 273q0 -14 10 -24t24 -10h1229q14 0 24 10t10 24t-10 24t-24 10h-1229q-14 0 -24 -10t-10 -24zM239 682.5q0 -13.5 10 -23.5t24 -10h1229q14 0 24 10t10 23.5t-10 24t-24 10.5h-1229q-14 0 -24 -10.5t-10 -24z" />
    <glyph glyph-name="greater" unicode="&#x3e;" horiz-adv-x="1638" 
d="M239 -137q0 20 17 29l1039 586l-1039 585q-17 9 -17 29q0 31 31 34h1h2q7 0 17 -5l1092 -614q17 -9 17 -29.5t-17 -28.5l-1092 -615q-15 -5 -17 -5q-14 0 -24 10.5t-10 23.5z" />
    <glyph glyph-name="question" unicode="?" horiz-adv-x="1228" 
d="M171 956v68q0 9 3 15l68 137q2 3 7 8l68 69q5 5 9 7l137 68q7 3 15 3h200h3q9 0 12 -2h2l203 -68q10 -5 13 -8l69 -69q5 -5 6 -8l69 -137q3 -7 3 -15v-137q0 -9 -3 -15l-69 -136l-6 -9l-69 -68q-5 -5 -8 -7l-135 -67q-3 -3 -5 -3l-114 -56v-185q0 -14 -10.5 -24t-24 -10
t-24 10.5t-10.5 23.5v205q0 20 19 31l131 65l130 129l62 125v119l-62 125l-61 61l-125 62h-188l-124 -62l-62 -61l-42 -85q7 3 15 3q14 0 24 -10l68 -68q10 -10 10 -24t-10 -24l-68 -68q-10 -10 -24 -10.5t-24 10.5l-68 68q-10 10 -10 24zM239 969v46v2q3 -10 10 -17l45 -44
l-21 -21zM512 -68q0 -14 10 -24l69 -68q10 -10 23.5 -10.5t23.5 10.5l69 68q10 10 10 23.5t-10 24.5l-64 63l-1 1q-9 10 -21 14h-5h-2h-3h-3q-14 -3 -21 -14l-65 -64q-10 -10 -10 -24zM594 -68l20 20l21 -20l-21 -21z" />
    <glyph glyph-name="at" unicode="@" horiz-adv-x="1911" 
d="M171 478q0 -7 1 -10l69 -205l1 -2v-3l69 -137q2 -3 6 -8l137 -137q5 -5 9 -7l136 -68h2l3 -2l205 -68q3 -2 10 -2h205q7 0 10 2l205 68l2 2h3l137 68q3 2 8 7l68 68q10 10 10.5 24t-10 24t-24 10t-23.5 -10l-65 -65l-130 -63l-196 -66h-195l-196 66l-130 63l-129 130
l-64 130l-66 196v195l66 196l64 130l129 129l130 63l196 67h195l196 -67l130 -63l130 -129l63 -130l66 -196v-127l-65 -191l-119 -121h-109l-48 48v121l68 544v4q0 14 -10 24t-24 10q-31 0 -34 -31v-2q-2 14 -12 23.5t-22 9.5q-31 0 -34 -31l-7 -51q-9 9 -12 10l-137 68
q-7 3 -15 4h-200h-5q-7 0 -13 -4h-2l-2 -1l-135 -67q-3 -2 -8 -7l-68 -68q-3 -3 -9 -14l-68 -204q-2 -3 -2 -11v-204q0 -9 3 -16l69 -136q7 -9 15 -16l135 -66q7 -5 17 -5h5h200q9 0 15 3l137 68q9 7 15 16l3 8q3 -17 19 -24l135 -66q7 -5 17 -5h5h132q14 0 23 10l137 136
q3 3 9 14l68 205q2 3 2 10v137q0 7 -2 10l-68 205l-2 1v4l-68 136q-2 3 -7 9l-137 136q-5 5 -8 7l-137 69h-2l-3 1l-205 68q-3 2 -10 2h-205q-7 0 -10 -2l-205 -68l-2 -1h-3l-136 -69q-3 -2 -9 -7l-137 -136q-5 -5 -6 -9l-69 -136v-2l-1 -3l-69 -205q-2 -3 -1 -10v-205z
M649 418v191l64 191l120 122h182l120 -60l37 -77l-44 -365l-61 -121l-120 -60h-182l-55 55z" />
    <glyph glyph-name="A" unicode="A" 
d="M34 -136.5q0 13.5 10.5 24t23.5 10.5h113l126 380v2q0 5 4 8l338 1016q3 17 15 22q2 2 3 2l2 1h3l2 2h4h1h2h2h1h2h2h3q2 0 2 -1t2 -1q3 0 6 -3q12 -7 16 -22l467 -1406h113q14 0 24 -10.5t10 -24t-10 -24t-24 -10.5h-131h-5h-6h-58h-5h-5h-200q-14 0 -24 10.5t-10 24
t10.5 24t23.5 10.5h157l-112 341h-567l-112 -341h225q14 0 24 -10.5t10 -24t-10 -24t-24 -10.5h-268h-5h-5h-132q-14 0 -24 10.5t-10 24zM389 307h519l-258 775l-1 2v3zM659 1118q9 9 24 8q14 0 24 -10l-24 74z" />
    <glyph glyph-name="B" unicode="B" horiz-adv-x="1501" 
d="M102 -136.5q0 13.5 10.5 24t24.5 10.5h170v1365h-170q-14 0 -24.5 10t-10.5 24t10.5 24t24.5 10h199h5h5h58h6h5h536h5q7 0 10 -2h2l203 -68q10 -5 13 -8l69 -69q5 -5 7 -8l68 -137q3 -7 3 -15v-137q0 -9 -3 -15l-68 -136q-2 -3 -7 -9l-69 -68q-3 -3 -13 -9l-108 -36
l108 -35q10 -5 13 -9l69 -68q5 -5 7 -9l68 -136q3 -7 3 -16v-204q0 -9 -3 -16l-68 -136q-2 -3 -7 -9l-69 -68q-3 -3 -13 -9l-202 -68h-1h-2q-3 -2 -10 -2h-5h-536h-5h-6h-58h-5h-5h-199q-14 0 -24.5 10.5t-10.5 24zM444 -102h503l125 61l61 61l62 125v188l-62 124l-61 62
l-125 61h-503v-682zM444 649h503l125 61l61 61l62 125v119l-62 125l-61 61l-125 62h-503v-614z" />
    <glyph glyph-name="C" unicode="C" 
d="M171 410v341q0 7 1 10l69 205l1 2v3l69 137q2 3 6 8l137 137q3 3 14 8l201 68h3q4 2 11 2h5h131q7 0 10 -2l205 -68q10 -5 14 -8l97 -98l51 152q5 24 33 24q14 0 24 -10t10 -24v-410q0 -14 -10.5 -24t-23.5 -10q-27 0 -33 24l-66 196l-125 125l-191 65h-123l-124 -62
l-130 -129l-63 -130l-67 -196v-331l67 -197l63 -129l130 -130l124 -61h123l191 64l128 127l65 131q9 20 31 21q14 0 24 -10.5t10 -23.5q0 -10 -3 -18l-69 -136q-2 -3 -7 -9l-136 -136q-3 -3 -14 -9l-205 -68q-3 -2 -10 -2h-131h-5q-7 0 -11 2h-1l-203 68q-10 5 -14 9
l-137 136q-5 5 -6 9l-69 136v2l-1 4l-69 204q-2 3 -1 11z" />
    <glyph glyph-name="D" unicode="D" horiz-adv-x="1501" 
d="M102 -136.5q0 13.5 10.5 24t24.5 10.5h170v1365h-170q-14 0 -24.5 10t-10.5 24t10.5 24t24.5 10h199h5h5h58h6h5h399h5q7 0 10 -2h2l203 -68q10 -5 14 -8l136 -137q5 -5 7 -8l69 -137v-2l1 -3l68 -205q2 -3 2 -10v-341q0 -7 -2 -11l-68 -204l-1 -2v-4l-69 -136
q-2 -3 -7 -9l-136 -136q-3 -3 -14 -9l-201 -68h-2h-2q-3 -2 -10 -2h-5h-399h-5h-6h-58h-5h-5h-199q-14 0 -24.5 10.5t-10.5 24zM444 -102h367l124 61l130 130l63 129l67 197v331l-67 196l-63 130l-130 129l-124 62h-367v-1365z" />
    <glyph glyph-name="E" unicode="E" 
d="M102 -136.5q0 13.5 10.5 24t24.5 10.5h170v1365h-170q-14 0 -24.5 10t-10.5 24t10.5 24t24.5 10h199h5h5h58h6h5h740h6h5h63q14 0 24 -10t10 -24v-410q0 -14 -10.5 -24t-23.5 -10q-12 0 -22.5 8.5t-11.5 20.5l-63 381h-688v-614h341v238q0 14 10.5 24.5t24 10.5
t23.5 -10.5t10 -24.5v-267v-6v-5v-268q0 -14 -10 -24t-23.5 -10t-24 10.5t-10.5 23.5v239h-341v-682h688l63 380q2 12 12 20.5t22 8.5q14 0 24 -10t10 -24v-410q0 -14 -10.5 -24t-23.5 -10h-63h-5h-6h-740h-5h-6h-58h-5h-5h-199q-14 0 -24.5 10.5t-10.5 24z" />
    <glyph glyph-name="F" unicode="F" horiz-adv-x="1228" 
d="M102 -136.5q0 13.5 10.5 24t24.5 10.5h170v1365h-170q-14 0 -24.5 10t-10.5 24t10.5 24t24.5 10h199h5h5h58h6h5h740h6h5h63q14 0 24 -10t10 -24v-410q0 -14 -10.5 -24t-23.5 -10q-12 0 -22.5 8.5t-11.5 20.5l-63 381h-688v-614h341v238q0 14 10.5 24.5t24 10.5
t23.5 -10.5t10 -24.5v-267v-6v-5v-268q0 -14 -10 -24t-23.5 -10t-24 10.5t-10.5 23.5v239h-341v-682h170q14 0 24.5 -10.5t10.5 -24t-10.5 -24t-24.5 -10.5h-199h-5h-6h-58h-5h-5h-199q-14 0 -24.5 10.5t-10.5 24z" />
    <glyph glyph-name="G" unicode="G" horiz-adv-x="1638" 
d="M171 410v341q0 7 1 10l69 205l1 2v3l69 137q2 3 6 8l137 137q3 3 14 8l201 68h3q4 2 11 2h5h131q7 0 10 -2l205 -68q10 -5 14 -8l97 -98l51 152q5 24 33 24q14 0 24 -10t10 -24v-410q0 -14 -10.5 -24t-23.5 -10q-27 0 -33 24l-66 196l-125 125l-191 65h-123l-124 -62
l-130 -129l-63 -130l-67 -196v-331l67 -197l63 -129l130 -130l124 -61h123l191 64l121 120v293h-170q-14 0 -24 10.5t-10 24t10 24t24 10.5h199h6h5h58h5h5h200q14 0 24 -10.5t10 -24t-10.5 -24t-23.5 -10.5h-171v-512q0 -14 -10.5 -24t-24 -10t-23.5 10.5t-10 23.5
q0 -14 -10.5 -24t-24 -10t-24 10.5t-10.5 23.5v123l-78 -78q-3 -3 -14 -9l-205 -68q-3 -2 -10 -2h-131h-5q-7 0 -11 2h-1l-203 68q-10 5 -14 9l-137 136q-5 5 -6 9l-69 136v2l-1 4l-69 204q-2 3 -1 11z" />
    <glyph glyph-name="H" unicode="H" horiz-adv-x="1638" 
d="M102 -136.5q0 13.5 10.5 24t24.5 10.5h170v1365h-170q-14 0 -24.5 10t-10.5 24t10.5 24t24.5 10h199h5h5h58h6h5h199q14 0 24.5 -10t10.5 -24t-10.5 -24t-24.5 -10h-170v-614h751v614h-171q-14 0 -24 10t-10 24t10 24t24 10h200h5h5h58h5h5h200q14 0 24 -10t10 -24
t-10 -24t-24 -10h-171v-1365h171q14 0 24 -10.5t10 -24t-10 -24t-24 -10.5h-200h-5h-5h-58h-5h-5h-200q-14 0 -24 10.5t-10 24t10 24t24 10.5h171v682h-751v-682h170q14 0 24.5 -10.5t10.5 -24t-10.5 -24t-24.5 -10.5h-199h-5h-6h-58h-5h-5h-199q-14 0 -24.5 10.5t-10.5 24z
" />
    <glyph glyph-name="I" unicode="I" horiz-adv-x="819" 
d="M102 -136.5q0 13.5 10.5 24t24.5 10.5h170v1365h-170q-14 0 -24.5 10t-10.5 24t10.5 24t24.5 10h199h5h5h58h6h5h199q14 0 24.5 -10t10.5 -24t-10.5 -24t-24.5 -10h-170v-1365h170q14 0 24.5 -10.5t10.5 -24t-10.5 -24t-24.5 -10.5h-199h-5h-6h-58h-5h-5h-199
q-14 0 -24.5 10.5t-10.5 24z" />
    <glyph glyph-name="J" unicode="J" horiz-adv-x="1092" 
d="M102 68v137q0 14 11 24l68 68q10 10 23.5 10t24.5 -10l68 -68q10 -10 10 -24t-10 -24l-68 -68q-10 -10 -24 -11q-31 0 -34 29v-54l59 -120l120 -59h114l51 53l65 191v1121h-170q-14 0 -24.5 10t-10.5 24t10.5 24t24.5 10h199h5h6h58h5h5h199q14 0 24.5 -10t10.5 -24
t-10.5 -24t-24.5 -10h-170v-1126q0 -7 -2 -11l-68 -205q-3 -14 -17 -20l-135 -67l-2 -1h-1q-7 -3 -14 -4h-5h-132q-9 0 -15 4l-137 68q-9 7 -15 15l-68 137q-3 7 -4 15zM171 140v51l34 34l20 -20l-44 -45q-7 -7 -10 -20z" />
    <glyph glyph-name="K" unicode="K" 
d="M102 -136.5q0 13.5 10.5 24t24.5 10.5h170v1365h-170q-14 0 -24.5 10t-10.5 24t10.5 24t24.5 10h199h5h5h58h6h5h199q14 0 24.5 -10t10.5 -24t-10.5 -24t-24.5 -10h-170v-771l211 211l7 7l2 2l551 551h-191q-14 0 -24 10t-10 24t10 24t24 10h270h3h5h132q14 0 24 -10
t10 -24t-10.5 -24t-23.5 -10h-123l-548 -548q10 -3 17 -14l536 -803h118q14 0 24 -10.5t10 -24t-10.5 -24t-23.5 -10.5h-132h-5h-5h-58h-5h-5h-200q-14 0 -24 10.5t-10 24t10 24t24 10.5h142l-488 732l-234 -234v-498h170q14 0 24.5 -10.5t10.5 -24t-10.5 -24t-24.5 -10.5
h-199h-5h-6h-58h-5h-5h-199q-14 0 -24.5 10.5t-10.5 24z" />
    <glyph glyph-name="L" unicode="L" horiz-adv-x="1228" 
d="M102 -136.5q0 13.5 10.5 24t24.5 10.5h170v1365h-170q-14 0 -24.5 10t-10.5 24t10.5 24t24.5 10h199h5h5h58h6h5h199q14 0 24.5 -10t10.5 -24t-10.5 -24t-24.5 -10h-170v-1365h619l63 380q2 12 12.5 20.5t22.5 8.5q14 0 24 -10t10 -24v-410q0 -14 -10.5 -24t-23.5 -10
h-64h-5h-5h-672h-5h-6h-58h-5h-5h-199q-14 0 -24.5 10.5t-10.5 24z" />
    <glyph glyph-name="M" unicode="M" horiz-adv-x="1774" 
d="M102 -136.5q0 13.5 10.5 24t24.5 10.5h170v1365h-170q-14 0 -24.5 10t-10.5 24t10.5 24t24.5 10h199h4h1h2h3h58h6q9 0 15 -3l3 -2l2 -2l3 -1q7 -7 11 -21l408 -1223l1 -2v-4l410 1229v2q3 10 7 14v1l1 2h2v2h2q2 0 2 1.5t1 1.5l2 2h2q0 2 1 1h4l2 2h1h4h3h3h2h58h5h5
h200q14 0 24 -10t10 -24t-10 -24t-24 -10h-171v-1365h171q14 0 24 -10.5t10 -24t-10 -24t-24 -10.5h-200h-5h-5h-58h-5h-5h-200q-14 0 -24 10.5t-10 24t10.5 24t23.5 10.5h171v1189l-410 -1230q-3 -17 -15 -23q-2 -2 -3 -1l-2 -2h-4l-1 -2h-2h-3h-4h-2h-1h-2h-3q-2 0 -2 1
t-2 1q-3 0 -7 3q-12 7 -15 23l-410 1230v-1189h171q14 0 24 -10.5t10 -24t-10 -24t-24 -10.5h-200h-5h-5h-199q-14 0 -24.5 10.5t-10.5 24zM795 44q10 -10 24 -10q15 0 24 9l-24 -72z" />
    <glyph glyph-name="N" unicode="N" horiz-adv-x="1638" 
d="M102 -136.5q0 13.5 10.5 24t24.5 10.5h170v1365h-170q-14 0 -24.5 10t-10.5 24t10.5 24t24.5 10h199h5h5h58h6q9 0 15 -3h2v-2l1 -2q12 -9 14 -13l753 -1193v1145h-171q-14 0 -24 10t-10 24t10 24t24 10h200h5h5h200q14 0 24 -10t10 -24t-10.5 -24t-23.5 -10h-171v-1260
v-3v-5v-128v-4q0 -17 -12 -25l-2 -2v-2h-1l-2 -1q-2 -2 -4 -2h-3l-2 -2h-1h-7h-7h-2l-1 2h-4q-12 5 -17 17l-817 1294q-5 10 -6 15v-1259h171q14 0 24 -10.5t10 -24t-10 -24t-24 -10.5h-200h-5h-5h-199q-14 0 -24.5 10.5t-10.5 24zM375 1166q3 29 35 29q20 0 29 -16
l756 -1198v9l-804 1273h-16v-97z" />
    <glyph glyph-name="O" unicode="O" horiz-adv-x="1501" 
d="M171 478v205v3q2 3 1 5l69 273q0 5 1 7l69 137q2 3 6 8l137 137q3 3 14 8l201 67v1h3l2 2h2h2h1h2h2h5h126h5q7 0 10 -2h2l203 -68q10 -5 14 -8l136 -137q5 -5 7 -8l69 -137q2 -2 1 -7l68 -273q0 -2 1 -5l1 -3v-205v-4q-2 -3 -2 -5l-68 -273q0 -5 -1 -7l-69 -136
q-2 -3 -7 -9l-136 -136q-3 -3 -14 -9l-201 -68h-2h-2q-3 -2 -10 -2h-5h-126h-5q-7 0 -11 2h-1l-203 68q-10 5 -14 9l-137 136q-5 5 -6 9l-69 136q-2 2 -1 7l-69 273v5zM307 481l67 -264l63 -128l130 -130l124 -61h120l124 61l130 130l63 128l67 264v198l-67 265l-63 128
l-130 129l-124 62h-120l-124 -62l-130 -129l-63 -128l-67 -265v-198z" />
    <glyph glyph-name="P" unicode="P" horiz-adv-x="1501" 
d="M102 -136.5q0 13.5 10.5 24t24.5 10.5h170v1365h-170q-14 0 -24.5 10t-10.5 24t10.5 24t24.5 10h199h5h5h58h6h5h536h5q7 0 10 -2h2l203 -68q10 -5 13 -8l69 -69q5 -5 7 -8l68 -137q3 -7 3 -15v-205q0 -9 -3 -15l-68 -137q-2 -3 -7 -8l-69 -68q-3 -3 -13 -9l-202 -68h-1
h-2q-3 -2 -10 -2h-5h-507v-614h170q14 0 24.5 -10.5t10.5 -24t-10.5 -24t-24.5 -10.5h-199h-5h-6h-58h-5h-5h-199q-14 0 -24.5 10.5t-10.5 24zM444 580h503l125 62l61 61l62 125v187l-62 125l-61 61l-125 62h-503v-683z" />
    <glyph glyph-name="Q" unicode="Q" horiz-adv-x="1501" 
d="M171 478v205v3q2 3 1 5l69 273q0 5 1 7l69 137q2 3 6 8l137 137q3 3 14 8l201 67v1h3l2 2h2h2h1h2h2h5h126h5q7 0 10 -2h2l203 -68q10 -5 14 -8l136 -137q5 -5 7 -8l69 -137q2 -2 1 -7l68 -273q0 -2 1 -5l1 -3v-205v-4q-2 -3 -2 -5l-68 -273q0 -5 -1 -7l-69 -136
q-2 -3 -7 -9l-136 -136q-3 -3 -14 -9h-1l23 -92l64 -128l54 -54h41l48 47v55q0 14 10 24t24 10t24 -10t10 -24v-63v-5q0 -10 -5 -17l-66 -135q-10 -19 -31 -19h-137q-14 0 -24 10l-68 69q-7 7 -10 18l-41 285l-116 -39h-2h-2q-3 -2 -10 -2h-5h-126h-5q-7 0 -11 2h-1l-203 68
q-10 5 -14 9l-137 136q-5 5 -6 9l-69 136q-2 2 -1 7l-69 273v5zM307 481l67 -264l63 -128l8 -9l2 4l68 136q7 9 16 16l136 68q7 3 16 3h68q9 0 15 -3l137 -68q9 -7 15 -16l67 -133v-2q3 -3 3 -5v-1l2 -2v-2l12 -49l63 63l63 128l67 264v198l-67 265l-63 128l-130 129
l-124 62h-120l-124 -62l-130 -129l-63 -128l-67 -265v-198zM512 14l55 -55l124 -61h120l124 61l2 2l-14 97l-61 121l-120 60h-51l-119 -60l-60 -119v-46zM1046 -326l16 -31q2 -3 6 -8l69 -68q10 -10 24 -11h-55l-50 50z" />
    <glyph glyph-name="R" unicode="R" horiz-adv-x="1501" 
d="M102 -136.5q0 13.5 10.5 24t24.5 10.5h170v1365h-170q-14 0 -24.5 10t-10.5 24t10.5 24t24.5 10h199h5h5h58h6h5h536h5q7 0 10 -2h2l203 -68q10 -5 13 -8l69 -69q5 -5 7 -8l68 -137q3 -7 3 -15v-137q0 -9 -3 -15l-68 -136q-2 -3 -7 -9l-69 -68q-3 -3 -13 -9l-202 -68h-1
h-2q-3 -2 -10 -2h-5h-55l2 -1q7 -2 15 -11l67 -66q3 -3 6 -10l204 -473l52 -53h41l48 48v54q0 14 10.5 24t24 10t23.5 -10t10 -24v-63v-5q0 -9 -5 -17l-66 -135q-10 -19 -31 -19h-136q-14 0 -24 11l-69 68q-5 5 -8 15l-137 475l-61 123l-120 59h-298v-682h170
q14 0 24.5 -10.5t10.5 -24t-10.5 -24t-24.5 -10.5h-199h-5h-6h-58h-5h-5h-199q-14 0 -24.5 10.5t-10.5 24zM444 649h302h5h3h193l125 61l61 61l62 125v119l-62 125l-61 61l-125 62h-503v-614zM1079 106l51 -120q3 -7 7 -10l68 -68q10 -10 24 -10h-55l-51 51z" />
    <glyph glyph-name="S" unicode="S" 
d="M171 -137v410q0 14 10 24t24 10q27 0 32 -24l67 -196l124 -125l192 -64h194l191 64l121 120v246l-122 123l-130 63l-406 136l-2 2h-3l-137 68q-3 2 -9 7l-68 68q-5 5 -7 9l-66 135l-2 1v2q-3 7 -3 14v5v131q0 14 10 24l136 137q3 3 14 8l205 68q3 2 10 2h205q7 0 10 -2
l205 -68q10 -5 14 -8l97 -98l51 152q5 24 33 24q14 0 24 -10t10 -24v-410q0 -14 -10.5 -24t-23.5 -10q-27 0 -33 24l-66 196l-125 125l-191 65h-195l-191 -65l-121 -119v-110l123 -122l130 -64l406 -136l1 -2h4l136 -68q3 -2 9 -7l68 -68q5 -5 7 -9l67 -135l1 -1v-2
q3 -7 4 -14v-5v-268q0 -14 -11 -24l-136 -136q-3 -3 -14 -9l-205 -68q-3 -2 -10 -2h-205q-7 0 -10 2l-205 68q-10 5 -13 9l-98 97l-51 -152q-5 -24 -32 -24q-14 0 -24 10.5t-10 23.5z" />
    <glyph glyph-name="T" unicode="T" 
d="M102 887v410q0 14 10.5 24t24.5 10h63h3h7h399h5h6h58h5h5h399h5h5h64q14 0 24 -10t10 -24v-410q0 -14 -10.5 -24t-23.5 -10q-12 0 -22.5 8.5t-12.5 20.5l-63 381h-346v-1365h170q14 0 24.5 -10.5t10.5 -24t-10.5 -24t-24.5 -10.5h-199h-5h-5h-58h-6h-5h-199
q-14 0 -24.5 10.5t-10.5 24t10.5 24t24.5 10.5h170v1365h-346l-63 -381q-2 -12 -12.5 -20.5t-21.5 -8.5q-14 0 -24.5 10.5t-10.5 23.5z" />
    <glyph glyph-name="U" unicode="U" horiz-adv-x="1638" 
d="M102 1297q0 14 10.5 24t24.5 10h199h5h5h58h6h5h199q14 0 24.5 -10t10.5 -24t-10.5 -24t-24.5 -10h-170v-985l65 -191l126 -128l124 -61h123l191 64l125 125l65 191v985h-171q-14 0 -24 10t-10 24t10.5 24t23.5 10h200h5h5h200q14 0 24 -10t10 -24t-10 -24t-24 -10h-171
v-990q0 -7 -2 -10l-68 -205q-5 -10 -8 -14l-137 -136q-3 -3 -13 -9l-205 -68q-3 -2 -11 -2h-131h-5q-7 0 -10 2h-2l-203 68q-10 5 -14 9l-136 136q-3 3 -9 14l-68 205q-2 3 -2 10v990h-170q-14 0 -24.5 10t-10.5 24z" />
    <glyph glyph-name="V" unicode="V" 
d="M34 1297q0 14 10.5 24t23.5 10h132h3h7h58h5h5h200q14 0 24 -10t10 -24t-10 -24t-24 -10h-157l394 -1184l2 -2v-4l396 1190h-226q-14 0 -24 10t-10 24t10.5 24t23.5 10h268h6h5h131q14 0 24 -10t10 -24t-10 -24t-24 -10h-113l-467 -1406q-3 -17 -16 -23q-2 -2 -3 -1
l-2 -2h-3l-2 -2h-2h-3h-3h-2h-2h-1h-4q-2 0 -2 1t-1 1q-3 0 -7 3q-12 7 -15 23l-468 1406h-113q-14 0 -24 10t-10 24zM659 44q10 -10 24 -10q15 0 24 9l-24 -72z" />
    <glyph glyph-name="W" unicode="W" horiz-adv-x="1638" 
d="M34 1297q0 14 10.5 24t23.5 10h200h5h5h58h5h5h200q14 0 24 -10t10 -24t-10 -24t-24 -10h-164l197 -1046l206 1083q0 5 3 12q0 2 4 6q0 3 1.5 3t1.5 2l4 1l1 2l2 2q2 2 4 1h3l2 2h1h4h3h2h2h3h2l1 -2h2h2l2 -1h1l2 -2q2 -2 3 -2l2 -3q10 -10 10 -21q3 31 34 31
q27 0 35 -27l203 -1087l199 1046h-163q-14 0 -24.5 10t-10.5 24t10.5 24t24.5 10h199h5h7h198q14 0 24 -10t10 -24t-10 -24t-24 -10h-177l-267 -1403q0 -5 -3 -12q0 -2 -3 -5q0 -3 -2 -3t-2 -2l-3 -2l-2 -2l-2 -1q-2 -2 -3 -2l-3 -2h-4h-3h-4h-1h-2h-4h-1l-2 2h-3l-2 2h-2
l-2 1q-2 2 -3 2l-2 4q-10 10 -10 20l-239 1254l-239 -1254q0 -5 -3 -12q0 -2 -4 -5q0 -3 -1.5 -3t-1.5 -2l-3 -2l-2 -2l-2 -1q-2 -2 -3 -2l-4 -2h-3h-3h-4h-2h-1h-4h-1l-2 2h-2h-2l-1 2h-2l-2 1q-2 2 -3 2l-2 4q-10 10 -10 20l-266 1403h-178q-14 0 -24 10t-10 24zM521 183
l25 -137l26 137q-9 -12 -25.5 -12t-25.5 12zM1067 183l25 -137l26 137q-9 -12 -25.5 -12t-25.5 12z" />
    <glyph glyph-name="X" unicode="X" 
d="M34 -136.5q0 13.5 10.5 24t23.5 10.5h118l439 657l-439 708h-118q-14 0 -24 10t-10 24t10.5 24t23.5 10h132h5h5h58h5h5h200q14 0 24 -10t10 -24t-10 -24t-24 -10h-143l366 -592l396 592h-210q-14 0 -24 10t-10 24t10.5 24t23.5 10h268h6h5h131q14 0 24 -10t10 -24
t-10 -24t-24 -10h-118l-438 -657l438 -708h118q14 0 24 -10.5t10 -24t-10 -24t-24 -10.5h-131h-5h-6h-58h-5h-5h-200q-14 0 -24 10.5t-10 24t10.5 24t23.5 10.5h144l-367 592l-396 -592h210q14 0 24 -10.5t10 -24t-10 -24t-24 -10.5h-268h-5h-5h-132q-14 0 -24 10.5t-10 24z
" />
    <glyph glyph-name="Y" unicode="Y" horiz-adv-x="1501" 
d="M34 1297q0 14 10.5 24t23.5 10h132h5h5h58h5h5h200q14 0 24 -10t10 -24t-10 -24t-24 -10h-143l416 -654l416 654h-211q-14 0 -24 10t-10 24t10 24t24 10h268h5h5h131q14 0 24 -10t10 -24t-10 -24t-24 -10h-117l-463 -727v-638h171q14 0 24 -10.5t10 -24t-10.5 -24
t-23.5 -10.5h-200h-5h-5h-58h-5h-5h-200q-14 0 -24 10.5t-10 24t10 24t24 10.5h171v638l-463 727h-118q-14 0 -24 10t-10 24z" />
    <glyph glyph-name="Z" unicode="Z" 
d="M171 -137q0 12 6 23l854 1377h-729l-63 -381q-2 -12 -12 -20.5t-22 -8.5q-14 0 -24 10.5t-10 23.5v410q0 14 10 24t24 10h63h3h2h5h809h5h5h58h6q15 0 23 -8l2 -2v-2l2 -1h2q2 -2 1 -4v-2q0 -2 1 -1.5t1 -1.5q2 -3 2 -12q0 -12 -7 -22l-853 -1377h728l63 380
q2 12 12.5 20.5t22.5 8.5q14 0 24 -10t10 -24v-410q0 -14 -10.5 -24t-23.5 -10h-64h-5h-5h-809h-5h-5h-58h-5q-15 0 -24 9l-2 2v1l-2 2h-1q-2 2 -2 3v2t-1 2t-1 2q-2 3 -1 11z" />
    <glyph glyph-name="bracketleft" unicode="[" horiz-adv-x="955" 
d="M239 -609v2174v5q0 10 7 21v1l1 2h2v2h2q8 8 22 8h5h58h5h5h405q14 0 24 -10t10 -24t-10 -24t-24 -10h-376v-2116h376q14 0 24 -10.5t10 -24t-10 -24t-24 -10.5h-405h-5h-5h-58h-5q-10 0 -20 7h-2l-2 2v2h-2v1q-9 9 -8 23v5z" />
    <glyph glyph-name="backslash" unicode="\" horiz-adv-x="955" 
d="M-34 1297q0 14 9 24t23 10q22 0 31 -17l956 -1638q5 -7 5 -19q0 -14 -10.5 -24t-23.5 -10q-20 0 -29 19l-956 1638q-5 7 -5 17z" />
    <glyph glyph-name="bracketright" unicode="]" horiz-adv-x="955" 
d="M171 -614.5q0 13.5 10 24t24 10.5h375v2116h-375q-14 0 -24 10t-10 24t10 24t24 10h404h5h6h58h5q10 0 20 -7h2l2 -1v-2l1 -2q9 -9 9 -22v-5v-2174v-5q0 -10 -7 -21v-2l-2 -1h-1l-2 -2q-9 -9 -22 -9h-5h-58h-6h-5h-404q-14 0 -24 10.5t-10 24z" />
    <glyph glyph-name="asciicircum" unicode="^" horiz-adv-x="1501" 
d="M375 335v3v3v4v3v2l2 2v1l2 2v3l3 2v2l2 2q2 2 2 3l1 2h2l4 1l339 342q5 5 17 5t21 -5l339 -342h2l2 -1l1 -2l4 -2q2 0 3.5 -3.5t1.5 -5t1 -3t1 -3.5h1v-4v-3v-2v-1v-4v-3l-1 -2v-2l-2 -3l-2 -2v-1q0 -2 -3 -6l-2 -1h-2l-1 -2l-2 -2q-2 -2 -3 -1q-7 -3 -14 -4h-3h-4
q-2 0 -2 1t-1 1h-4h-1l-2 2h-2l-324 266l-326 -266l-2 -2h-5q-2 0 -5 -1l-3 -1h-4h-3h-2l-2 2h-3l-3 2l-2 1l-2 2l-2 2l-1 1l-4 2l-1 4l-2 3v2l-2 1v2z" />
    <glyph glyph-name="underscore" unicode="_" 
d="M-34 -614.5q0 -13.5 10 -24t24 -10.5h1365q14 0 24 10.5t10 24t-10 24t-24 10.5h-1365q-14 0 -24 -10.5t-10 -24z" />
    <glyph glyph-name="grave" unicode="`" horiz-adv-x="819" 
d="M171 1229q0 14 10 24l65 65q10 13 27 13h3q17 0 26 -15l338 -406l2 -2l1 -3q3 -3 4 -7l2 -2v-3v-6v-1v-4v-3l-2 -2v-1v-2l-2 -2v-2l-2 -1l-1 -2v-2l-2 -1h-2l-5 -6h-2v-1h-1l-2 -2h-3l-2 -2h-2h-1h-2h-4h-3h-3h-2l-2 2q-5 0 -7 2l-1 1l-4 2v2l-1 2l-408 339q-12 9 -12 26
zM256 1231l92 -77l-77 92z" />
    <glyph glyph-name="a" unicode="a" horiz-adv-x="1501" 
d="M171 68q0 -9 3 -15l68 -137q7 -14 21 -17l203 -68h2q3 -2 10 -2h5h200q9 0 15 4l137 68q3 2 8 7l104 102l46 -94q7 -9 16 -15l134 -67q7 -5 18 -5h5h63q14 0 24 10.5t10 24t-10.5 24t-23.5 10.5h-55l-54 54l-62 125v469q0 9 -3 15l-67 134q-3 10 -12 15l-65 65q-5 5 -8 7
l-137 68q-7 3 -15 3h-273q-9 0 -15 -3l-137 -68q-3 -2 -9 -7l-68 -68q-10 -10 -10 -24v-69q0 -14 10 -24t24 -10h68q14 0 24 10.5t10 23.5v69q0 22 -22 32l9 9l124 61h256l125 -61l55 -55v-109l-52 -50l-396 -66h-1h-2l-3 -2h-4l-201 -68q-14 -3 -21 -17l-68 -137
q-3 -7 -3 -15v-137zM307 77v119l60 120l121 61l405 67q12 3 18 10l11 10v-382l-123 -123l-125 -61h-188l-119 59z" />
    <glyph glyph-name="b" unicode="b" 
d="M102 1297q0 14 10.5 24t24.5 10h199h5h5h58h6q10 0 20 -7h2l1 -1v-2l2 -2q9 -9 9 -22v-5v-596l78 79q5 5 9 7l136 68q7 3 16 3h131h5q7 0 10 -1h2l203 -69q10 -5 14 -8l136 -137q3 -3 9 -13l68 -205q2 -3 2 -10v-137q0 -7 -2 -10l-68 -205q-5 -10 -9 -14l-136 -136
q-3 -3 -14 -9l-201 -68h-2h-2q-3 -2 -10 -2h-5h-131q-9 0 -16 4l-136 68q-3 2 -9 7l-78 78v-123q0 -14 -10.5 -24t-24 -10t-24 10.5t-10.5 23.5q0 -14 -10 -24t-23.5 -10t-24 10.5t-10.5 23.5v1400h-170q-14 0 -24.5 10t-10.5 24zM444 82l123 -123l124 -61h120l124 61
l127 128l64 191v126l-64 192l-127 128l-124 61h-120l-124 -61l-123 -123v-519z" />
    <glyph glyph-name="c" unicode="c" horiz-adv-x="1228" 
d="M171 273v137q0 7 1 10l69 205q5 10 8 13l137 137q3 3 13 8l202 69h3q3 1 10 1h6h199q9 0 16 -3l136 -68q3 -2 9 -7l136 -137q10 -10 10 -24v-68q0 -14 -10 -24l-68 -68q-10 -10 -24 -10t-24 10l-68 68q-10 10 -10 24t10 24l68 68q5 5 12 9l-77 77l-124 61h-188l-125 -61
l-126 -128l-65 -192v-126l65 -191l126 -128l125 -61h123l191 64l131 130q10 10 24 10t24 -10t10 -23.5t-10 -24.5l-136 -136q-3 -3 -14 -9l-205 -68q-3 -2 -10 -2h-131h-6q-7 0 -10 2h-2l-203 68q-10 5 -13 9l-137 136q-3 3 -8 14l-69 205q-2 3 -1 10zM1004 546l44 45
q5 4 8 11l2 -42l-34 -34z" />
    <glyph glyph-name="d" unicode="d" horiz-adv-x="1501" 
d="M171 273v137q0 7 1 10l69 205q5 10 8 13l137 137q3 3 13 8l202 69h3q3 2 10 1h6h131q9 0 15 -3l137 -68q3 -2 8 -7l79 -79v567h-171q-14 0 -24 10t-10 24t10.5 24t23.5 10h200h5h5h58h5q10 0 21 -7h1l2 -1v-2l2 -2q9 -9 8 -22v-5v-1394h171q14 0 24 -10.5t10 -24t-10 -24
t-24 -10.5h-200h-5h-5h-58h-5q-10 0 -20 7h-2l-2 2v2h-2v1q-9 9 -8 22v6v117l-79 -78q-5 -5 -8 -7l-137 -68q-7 -3 -15 -4h-131h-6q-7 0 -10 2h-2l-203 68q-10 5 -13 9l-137 136q-3 3 -8 14l-69 205q-2 3 -1 10zM307 278l65 -191l126 -128l125 -61h119l125 61l123 123v519
l-123 123l-125 61h-119l-125 -61l-126 -128l-65 -192v-126z" />
    <glyph glyph-name="e" unicode="e" horiz-adv-x="1228" 
d="M171 273v137q0 7 1 10l69 205q5 10 8 13l137 137q3 3 13 8l202 69h3q3 1 10 1h6h199q9 0 16 -3l131 -67q7 -2 15 -10l67 -66q5 -5 7 -9l68 -137q3 -7 3 -15v-136q0 -14 -10 -24.5t-24 -10.5h-63h-5h-5h-712v-97l65 -191l126 -128l125 -61h123l191 64l131 130q10 10 24 10
t24 -10t10 -23.5t-10 -24.5l-136 -136q-3 -3 -14 -9l-205 -68q-3 -2 -10 -2h-131h-6q-7 0 -10 2h-2l-203 68q-10 5 -13 9l-137 136q-3 3 -8 14l-69 205q-2 3 -1 10zM321 444h669v162l-60 119l-119 60h-188l-125 -61l-126 -128z" />
    <glyph glyph-name="f" unicode="f" horiz-adv-x="819" 
d="M102 -136.5q0 13.5 10.5 24t24.5 10.5h170v887h-170q-14 0 -24.5 10.5t-10.5 24t10.5 23.5t24.5 10h170v239q0 9 4 16l68 136q7 9 15 16l135 66l2 2h1q7 3 14 3h5h132q14 0 24 -10l68 -68q10 -10 10 -24v-68q0 -14 -10 -24l-68 -69q-10 -10 -24 -10t-24 10l-68 69
q-10 10 -10.5 23.5t10.5 23.5l68 69q5 5 12 8l-2 2h-109l-55 -55l-61 -124v-231h239q14 0 24 -10t10 -23.5t-10.5 -24t-23.5 -10.5h-239v-887h170q14 0 24.5 -10.5t10.5 -24t-10.5 -24t-24.5 -10.5h-199h-5h-6h-58h-5h-5h-199q-14 0 -24.5 10.5t-10.5 24zM662 1161l45 44
q5 5 8 12l2 -43l-34 -34z" />
    <glyph glyph-name="g" unicode="g" 
d="M102 -341q0 9 4 15l68 137q7 14 21 17l49 17q0 2 -1 1.5t-1 1.5l-66 135l-2 2v1q-3 7 -3 14v5v63q0 9 3 16l68 136q2 3 7 9l51 51l-58 114q-3 7 -3 16v136q0 9 3 15l69 137l6 9l67 66l2 2q3 3 13 8l128 65q3 3 9 4l2 1h1h7h5h132q9 0 15 -3l131 -67q7 -2 16 -10l42 -43
l41 41q5 9 16 12l133 67q7 3 15 3q14 0 24 -10t10 -24v-68q0 -14 -10 -24t-24 -10h-123l-41 -41l58 -115q3 -7 4 -15v-136q0 -9 -4 -16l-68 -136q-2 -3 -7 -9l-66 -66l-2 -2q-3 -3 -14 -9l-131 -66q-7 -3 -15 -4h-137q-9 0 -15 4l-132 66q-9 2 -15 11l-43 42l-41 -41
l-61 -124v-46l53 -52l191 -64h336q7 0 10 -2l205 -68q14 -3 21 -17l66 -135l2 -2v-2q3 -7 3 -13v-5v-64q0 -9 -3 -15l-68 -136q-7 -14 -21 -18l-205 -68q-3 -2 -10 -2h-409q-7 0 -11 2l-204 68q-14 3 -21 18l-68 136q-3 7 -4 15v69zM171 -350v-51l58 -118l186 -61h399
l186 61l58 118v46l-53 51l-191 65h-336q-7 0 -10 2l-127 42l-112 -37zM375 350l60 -120l120 -59h119l120 59l59 120v256l-59 119l-120 60h-119l-120 -60l-60 -119v-256z" />
    <glyph glyph-name="h" unicode="h" horiz-adv-x="1501" 
d="M102 -136.5q0 13.5 10.5 24t24.5 10.5h170v1365h-170q-14 0 -24.5 10t-10.5 24t10.5 24t24.5 10h199h5h5h58h6q10 0 20 -7h2l1 -1v-2l2 -2q9 -9 9 -22v-5v-596l78 79q3 3 14 8l205 69q3 2 10 1h131h5q7 0 11 -1h1l204 -69q14 -3 20 -17l68 -136q3 -7 4 -16v-716h170
q14 0 24 -10.5t10 -24t-10 -24t-24 -10.5h-199h-5h-6h-58h-5h-5h-200q-14 0 -24 10.5t-10 24t10.5 24t23.5 10.5h171v708l-60 119l-119 60h-123l-191 -65l-121 -119v-703h170q14 0 24.5 -10.5t10.5 -24t-10.5 -24t-24.5 -10.5h-199h-5h-6h-58h-5h-5h-199q-14 0 -24.5 10.5
t-10.5 24z" />
    <glyph glyph-name="i" unicode="i" horiz-adv-x="819" 
d="M102 -136.5q0 13.5 10.5 24t24.5 10.5h170v887h-170q-14 0 -24.5 10.5t-10.5 24t10.5 23.5t24.5 10h199h5h5h58h6q10 0 20 -6h2l1 -2v-2l2 -2q9 -9 9 -22v-5v-916h170q14 0 24.5 -10.5t10.5 -24t-10.5 -24t-24.5 -10.5h-199h-5h-6h-58h-5h-5h-199q-14 0 -24.5 10.5
t-10.5 24zM239 1229q0 -14 10 -24l68 -68q10 -10 24 -10.5t24 10.5l68 68q10 10 10.5 23.5t-10.5 24.5l-63 63l-1 2q-9 10 -21 13h-5h-2h-3h-3q-14 -3 -21 -13l-65 -65q-10 -10 -10 -24zM321 1229l20 20l21 -20l-21 -21z" />
    <glyph glyph-name="j" unicode="j" horiz-adv-x="819" 
d="M34 -478q0 14 10 24l69 68q10 10 23.5 10.5t23.5 -10.5l69 -68q10 -10 10 -24t-10 -24l-69 -68q-5 -5 -12 -9l2 -1h109l55 54l61 125v1186h-170q-14 0 -24 10.5t-10 24t10 23.5t24 10h199h6h5h58h5q10 0 20 -6h2l2 -2v-2l1 -2q9 -9 9 -22v-5v-1224q0 -9 -3 -15l-69 -136
q-7 -9 -15 -16l-135 -66l-2 -2h-1q-7 -3 -14 -4h-5h-131q-14 0 -24 11l-69 68q-10 10 -10 24v68zM102 -492l35 35l20 -21l-44 -44q-5 -5 -9 -12l-2 2v40zM307 1229q0 -14 10 -24l69 -68q10 -10 23.5 -10.5t23.5 10.5l69 68q10 10 10 23.5t-10 24.5l-63 63l-2 2q-9 10 -21 13
h-5h-1h-4h-3q-14 -3 -21 -13l-65 -65q-10 -10 -10 -24zM389 1229l21 20l20 -20l-20 -21z" />
    <glyph glyph-name="k" unicode="k" 
d="M102 -136.5q0 13.5 10.5 24t24.5 10.5h170v1365h-170q-14 0 -24.5 10t-10.5 24t10.5 24t24.5 10h199h5h5h58h6q10 0 20 -7h2l1 -1v-2l2 -2q9 -9 9 -22v-5v-1074l210 212q2 3 8 7l348 348h-123q-14 0 -24 10.5t-10 24t10.5 23.5t23.5 10h202h3h5h200q14 0 24 -10t10 -23.5
t-10 -24t-24 -10.5h-191l-343 -343q10 -3 15 -12l400 -532h119q14 0 24 -10.5t10 -24t-10 -24t-24 -10.5h-131h-5h-6h-58h-5h-5h-200q-14 0 -24 10.5t-10 24t10.5 24t23.5 10.5h137l-345 460l-235 -235v-225h170q14 0 24.5 -10.5t10.5 -24t-10.5 -24t-24.5 -10.5h-199h-5h-6
h-58h-5h-5h-199q-14 0 -24.5 10.5t-10.5 24z" />
    <glyph glyph-name="l" unicode="l" horiz-adv-x="819" 
d="M102 -136.5q0 13.5 10.5 24t24.5 10.5h170v1365h-170q-14 0 -24.5 10t-10.5 24t10.5 24t24.5 10h199h5h5h58h6q10 0 20 -7h2l1 -1v-2l2 -2q9 -9 9 -22v-5v-1394h170q14 0 24.5 -10.5t10.5 -24t-10.5 -24t-24.5 -10.5h-199h-5h-6h-58h-5h-5h-199q-14 0 -24.5 10.5
t-10.5 24z" />
    <glyph glyph-name="m" unicode="m" horiz-adv-x="2321" 
d="M102 -136.5q0 13.5 10.5 24t24.5 10.5h170v887h-170q-14 0 -24.5 10.5t-10.5 24t10.5 23.5t24.5 10h199h5h5h58h6q10 0 20 -6h2l1 -2v-2l2 -2q9 -9 9 -22v-5v-118l78 79q3 3 14 8l205 69q3 2 10 1h131h5q7 0 11 -1h1l204 -69q14 -3 20 -17l46 -94l104 103q3 3 14 8
l205 69q3 2 10 1h131h5q7 0 11 -1h1l203 -69q14 -3 21 -17l68 -136q3 -7 4 -16v-716h170q14 0 24 -10.5t10 -24t-10 -24t-24 -10.5h-199h-6h-5h-58h-5h-5h-200q-14 0 -24 10.5t-10 24t10.5 24t23.5 10.5h171v708l-60 119l-119 60h-123l-191 -65l-121 -119v-703h170
q14 0 24 -10.5t10 -24t-10 -24t-24 -10.5h-199h-5h-6h-58h-5h-5h-200q-14 0 -24 10.5t-10 24t10.5 24t23.5 10.5h171v708l-60 119l-119 60h-123l-191 -65l-121 -119v-703h170q14 0 24.5 -10.5t10.5 -24t-10.5 -24t-24.5 -10.5h-199h-5h-6h-58h-5h-5h-199q-14 0 -24.5 10.5
t-10.5 24z" />
    <glyph glyph-name="n" unicode="n" horiz-adv-x="1501" 
d="M102 -136.5q0 13.5 10.5 24t24.5 10.5h170v887h-170q-14 0 -24.5 10.5t-10.5 24t10.5 23.5t24.5 10h199h5h5h58h6q10 0 20 -6h2l1 -2v-2l2 -2q9 -9 9 -22v-5v-118l78 79q3 3 14 8l205 69q3 2 10 1h131h5q7 0 11 -1h1l204 -69q14 -3 20 -17l68 -136q3 -7 4 -16v-716h170
q14 0 24 -10.5t10 -24t-10 -24t-24 -10.5h-199h-5h-6h-58h-5h-5h-200q-14 0 -24 10.5t-10 24t10.5 24t23.5 10.5h171v708l-60 119l-119 60h-123l-191 -65l-121 -119v-703h170q14 0 24.5 -10.5t10.5 -24t-10.5 -24t-24.5 -10.5h-199h-5h-6h-58h-5h-5h-199q-14 0 -24.5 10.5
t-10.5 24z" />
    <glyph glyph-name="o" unicode="o" 
d="M171 273v137q0 7 1 10l69 205q5 10 8 13l137 137q3 3 13 8l202 67v2h3l2 1h2h1h2h2h1h6h126h5q7 0 10 -1h2l203 -69q10 -5 14 -8l136 -137q3 -3 9 -13l68 -205q2 -3 2 -10v-137q0 -7 -2 -10l-68 -205q-5 -10 -9 -14l-136 -136q-3 -3 -14 -9l-201 -68h-2h-2q-3 -2 -10 -2
h-5h-126h-6q-7 0 -10 2h-2l-203 68q-10 5 -13 9l-137 136q-3 3 -8 14l-69 205q-2 3 -1 10zM307 278l65 -191l126 -128l125 -61h119l125 61l126 128l65 191v126l-65 192l-126 128l-125 61h-119l-125 -61l-126 -128l-65 -192v-126z" />
    <glyph glyph-name="p" unicode="p" 
d="M102 -614.5q0 13.5 10.5 24t24.5 10.5h170v1365h-170q-14 0 -24.5 10.5t-10.5 24t10.5 23.5t24.5 10h199h5h5h58h6q10 0 20 -6h2l1 -2v-2l2 -2q9 -9 9 -22v-5v-118l78 79q5 5 9 7l136 68q7 3 16 3h131h5q7 0 10 -1h2l203 -69q10 -5 14 -8l136 -137q3 -3 9 -13l68 -205
q2 -3 2 -10v-137q0 -7 -2 -10l-68 -205q-5 -10 -9 -14l-136 -136q-3 -3 -14 -9l-201 -68h-2h-2q-3 -2 -10 -2h-5h-131q-9 0 -16 4l-136 68q-3 2 -9 7l-78 78v-566h170q14 0 24.5 -10.5t10.5 -24t-10.5 -24t-24.5 -10.5h-199h-5h-6h-58h-5h-5h-199q-14 0 -24.5 10.5t-10.5 24
zM444 82l123 -123l124 -61h120l124 61l127 128l64 191v126l-64 192l-127 128l-124 61h-120l-124 -61l-123 -123v-519z" />
    <glyph glyph-name="q" unicode="q" 
d="M171 273v137q0 7 1 10l69 205q5 10 8 13l137 137q3 3 13 8l202 69h3q3 2 10 1h6h131q9 0 15 -3l137 -68q3 -2 8 -7l79 -79v123q0 14 10 24t24 10t24 -10t10 -24q0 14 10.5 24t24 10t23.5 -10t10 -24v-1399h171q14 0 24 -10.5t10 -24t-10 -24t-24 -10.5h-200h-5h-5h-58h-5
h-5h-200q-14 0 -24 10.5t-10 24t10.5 24t23.5 10.5h171v566l-79 -78q-5 -5 -8 -7l-137 -68q-7 -3 -15 -4h-131h-6q-7 0 -10 2h-2l-203 68q-10 5 -13 9l-137 136q-3 3 -8 14l-69 205q-2 3 -1 10zM307 278l65 -191l126 -128l125 -61h119l125 61l123 123v519l-123 123l-125 61
h-119l-125 -61l-126 -128l-65 -192v-126z" />
    <glyph glyph-name="r" unicode="r" horiz-adv-x="1092" 
d="M102 -136.5q0 13.5 10.5 24t24.5 10.5h170v887h-170q-14 0 -24.5 10.5t-10.5 24t10.5 23.5t24.5 10h199h5h5h58h6q10 0 20 -6h2l1 -2v-2l2 -2q9 -9 9 -22v-5v-194l1 5q5 10 9 13l137 137q5 5 8 7l137 68q7 3 15 3h205q14 0 24 -10l68 -68q10 -10 10 -24v-68
q0 -14 -10 -24l-68 -68q-10 -10 -24 -10.5t-24 10.5l-68 68q-10 10 -10.5 23.5t10.5 24.5l68 68q5 5 12 8l-2 2h-183l-124 -61l-126 -128l-65 -192v-506h170q14 0 24.5 -10.5t10.5 -24t-10.5 -24t-24.5 -10.5h-199h-5h-6h-58h-5h-5h-199q-14 0 -24.5 10.5t-10.5 24zM935 683
l45 44q5 5 8 12l2 -43l-34 -34z" />
    <glyph glyph-name="s" unicode="s" horiz-adv-x="1228" 
d="M171 137v-274q0 -14 10 -24t24 -10q20 0 31 19l46 94l35 -34q5 -5 9 -7l137 -68q7 -3 15 -4h273q9 0 15 4l137 68q3 2 8 7l69 68q10 10 10 24v131v6v3v65q0 14 -10 24l-69 68q-5 5 -8 7l-137 68l-3 2l-340 135l-129 64l-55 55v41l55 55l124 61h256l125 -61l61 -62
l65 -131q10 -19 31 -19q14 0 24 10t10 24v273q0 14 -10.5 24t-23.5 10q-20 0 -31 -18l-46 -94l-36 34q-5 5 -8 7l-137 68q-7 3 -15 3h-273q-9 0 -16 -3l-136 -68q-3 -2 -9 -7l-68 -68q-10 -10 -10 -24v-63v-6v-3v-65q0 -14 10 -24l68 -68q5 -5 9 -7l136 -68l4 -2l339 -135
l130 -65l55 -54v-109l-55 -55l-125 -61h-256l-124 61l-62 61l-64 132q-10 19 -31 19q-14 0 -24 -10.5t-10 -23.5z" />
    <glyph glyph-name="t" unicode="t" horiz-adv-x="1092" 
d="M102 819.5q0 13.5 10.5 23.5t24.5 10h170v444q0 14 10.5 24t24 10t23.5 -10t10 -24q0 14 10.5 24t24 10t24 -10t10.5 -24v-444h239q14 0 24 -10t10 -23.5t-10.5 -24t-23.5 -10.5h-239v-643l65 -191l51 -53h114l120 59l63 127q9 20 30 20q14 0 24.5 -10t10.5 -24
q0 -10 -4 -17l-68 -137q-7 -9 -15 -15l-137 -68q-7 -3 -15 -4h-132h-5q-10 0 -17 5l-135 67q-14 7 -17 20l-68 205q-2 3 -2 11v648h-170q-14 0 -24.5 10.5t-10.5 24z" />
    <glyph glyph-name="u" unicode="u" horiz-adv-x="1501" 
d="M102 819.5q0 13.5 10.5 23.5t24.5 10h199h5h5h58h6q10 0 20 -6h2l1 -2v-2l2 -2q9 -9 9 -22v-5v-737l59 -120l120 -59h123l191 64l121 120v703h-171q-14 0 -24 10.5t-10 24t10.5 23.5t23.5 10h200h5h5h58h6q10 0 20 -6h2l1 -2v-2l2 -2q9 -9 9 -22v-5v-916h170
q14 0 24 -10.5t10 -24t-10 -24t-24 -10.5h-199h-5h-6h-58h-5q-10 0 -20 7h-2l-2 2v2h-1v1q-9 9 -9 22v6v117l-78 -78q-3 -3 -14 -9l-205 -68q-3 -2 -10 -2h-131h-6q-7 0 -10 2h-2l-203 68q-14 3 -20 17l-68 137q-3 7 -4 15v717h-170q-14 0 -24.5 10.5t-10.5 24z" />
    <glyph glyph-name="v" unicode="v" horiz-adv-x="1228" 
d="M34 819.5q0 13.5 10.5 23.5t23.5 10h132h3h7h58h5h5h200q14 0 24 -10t10 -23.5t-10 -24t-24 -10.5h-154l319 -766l330 766h-222q-14 0 -24 10.5t-10 24t10 23.5t24 10h268h5h5h132q14 0 24 -10t10 -23.5t-10.5 -24t-23.5 -10.5h-115l-399 -930v-2q-5 -17 -22 -22l-4 -2
h-3h-2h-2h-3q-24 3 -29 24l-399 932h-115q-14 0 -24 10.5t-10 24zM608 -34h6h7l-7 -15z" />
    <glyph glyph-name="w" unicode="w" horiz-adv-x="1638" 
d="M34 819.5q0 13.5 10.5 23.5t23.5 10h200h5h5h58h5h5h200q14 0 24 -10t10 -23.5t-10 -24t-24 -10.5h-160l189 -695l210 734q3 17 17 26q2 2 5 2q2 0 7 1h2h1h2h2h2h3h2l1 -1h4q3 -2 10 -9q9 -14 10 -19v-1q3 31 34 30q26 0 33 -25l201 -738l200 695h-160q-14 0 -24.5 10.5
t-10.5 24t10.5 23.5t24.5 10h199h5h5h200q14 0 24 -10t10 -23.5t-10 -24t-24 -10.5h-179l-265 -927q-3 -17 -17 -25q-2 -2 -5 -2q-2 0 -3.5 -1t-3.5 -1h-1h-2h-2h-1h-2h-4h-1l-2 2h-3q-3 2 -11 9q-9 14 -10 18l-239 837l-239 -837q-3 -17 -17 -25q-2 -2 -5 -2q-2 0 -3.5 -1
t-3.5 -1h-1h-2h-2h-2h-1h-4h-1l-2 2h-4q-3 2 -10 9q-9 14 -10 18l-265 927h-179q-14 0 -24 10.5t-10 24zM532 38q7 -3 14 -4q10 0 14 2l-14 -48zM1079 38q7 -3 13 -4q10 0 14 2l-14 -48z" />
    <glyph glyph-name="x" unicode="x" 
d="M102 -136.5q0 13.5 10.5 24t24.5 10.5h121l363 423l-365 464h-119q-14 0 -24.5 10.5t-10.5 24t10.5 23.5t24.5 10h131h5h5h58h5h5h200q14 0 24 -10t10 -23.5t-10 -24t-24 -10.5h-135l290 -369l316 369h-198q-14 0 -24 10.5t-10 24t10.5 23.5t23.5 10h270h3h5h132
q14 0 24 -10t10 -23.5t-10.5 -24t-23.5 -10.5h-121l-364 -423l365 -464h120q14 0 24 -10.5t10 -24t-10.5 -24t-23.5 -10.5h-132h-5h-5h-58h-5h-5h-200q-14 0 -24 10.5t-10 24t10.5 24t23.5 10.5h135l-290 368l-316 -368h198q14 0 24 -10.5t10 -24t-10 -24t-24 -10.5h-270h-3
h-5h-131q-14 0 -24.5 10.5t-10.5 24z" />
    <glyph glyph-name="y" unicode="y" horiz-adv-x="1228" 
d="M102 819.5q0 13.5 10.5 23.5t24.5 10h131h3h7h58h5h5h200q14 0 24 -10t10 -23.5t-10 -24t-24 -10.5h-153l319 -766l329 766h-222q-14 0 -24 10.5t-10 24t10.5 23.5t23.5 10h268h5h5h132q14 0 24 -10t10 -23.5t-10.5 -24t-23.5 -10.5h-115l-399 -930v-2q-2 -2 -2 -5t-1 -5
l-135 -268q-2 -3 -7 -8l-137 -137q-5 -5 -8 -7l-137 -68q-7 -3 -15 -4h-68q-14 0 -24 11l-68 68q-10 10 -10.5 24t10.5 24l68 68q10 10 23.5 10t24.5 -10l68 -68q10 -10 10 -24q0 -7 -3 -14l85 41l130 130l126 254l-394 920h-114q-14 0 -24.5 10.5t-10.5 24zM184 -546l21 20
l44 -44q7 -7 17 -10h-1h-47zM676 -34h7h6l-6 -15z" />
    <glyph glyph-name="z" unicode="z" horiz-adv-x="1228" 
d="M171 -137q0 15 10 26l705 896h-586l-63 -247q-7 -26 -32 -26q-14 0 -24 10t-10 24v273q0 14 10 24t24 10h63h3h2h5h673h5h5h58h5q20 0 29 -13l2 -4v-3h1v-4q2 -3 2 -10q0 -15 -10 -25l-705 -896h585l64 247q7 26 32 26q14 0 24 -10.5t10 -23.5v-274q0 -14 -10 -24
t-24 -10h-63h-5h-5h-673h-5h-5h-58h-5q-20 0 -29 14l-2 3v4q-2 2 -2 3q-2 3 -1 10z" />
    <glyph glyph-name="braceleft" unicode="{" horiz-adv-x="955" 
d="M239 477.5q0 20.5 19 31.5l131 64l123 123v115l-61 124l-65 65q-5 5 -7 9l-68 136q-3 7 -4 16v136q0 9 4 15l68 137q2 3 7 8l66 67l2 2q3 3 14 8l131 67q6 3 15 3q14 0 24.5 -10t10.5 -24q0 -20 -19 -31l-127 -63l-59 -119v-120l61 -124l65 -65q5 -5 7 -9l68 -136
q3 -7 4 -16v-136q0 -9 -4 -15l-68 -137q-7 -9 -16 -15l-134 -67q-3 -3 -5 -3l-72 -36l72 -36h1l2 -2l2 -1l134 -67q9 -7 16 -15l68 -137q3 -7 4 -15v-137q0 -9 -4 -15l-68 -137q-2 -3 -7 -8l-65 -65l-61 -125v-119l59 -120l127 -63q20 -9 20 -30q0 -14 -10 -24.5t-24 -10.5
q-10 0 -17 4l-131 66q-7 2 -16 11l-66 66q-5 5 -7 9l-68 136q-3 7 -4 16v136q0 9 4 16l68 136q2 3 7 9l65 64l61 125v114l-123 123l-131 65q-19 10 -19 30.5zM375 -213l62 124l65 65q5 5 7 9l68 136q3 7 3 16v-60l-61 -125l-65 -65q-5 -5 -7 -8l-68 -137q-3 -7 -4 -15v60z
M375 1169v60q0 -9 4 -16l68 -136q2 -3 7 -9l65 -64l61 -125v-60q0 9 -3 16l-68 136q-2 3 -7 9l-65 64z" />
    <glyph glyph-name="bar" unicode="|" horiz-adv-x="546" 
d="M239 -614v2184q0 14 10 24t24 10t24 -10t10 -24v-2184q0 -14 -10 -24.5t-24 -10.5t-24 10.5t-10 24.5z" />
    <glyph glyph-name="braceright" unicode="}" horiz-adv-x="955" 
d="M305 -614q0 22 21 30l126 63l60 120v119l-61 125l-65 65q-5 5 -7 8l-68 137q-3 7 -4 15v137q0 9 4 15l68 137q7 9 15 15l135 67q3 3 5 3l72 36l-72 36h-2l-1 1l-2 2l-135 67q-9 7 -15 15l-68 137q-3 7 -4 15v136q0 9 4 16l68 136q2 3 7 9l65 65l61 124v120l-60 119
l-126 63q-19 10 -19 31q0 14 9.5 24t23.5 10q10 0 17 -3l131 -67q7 -2 15 -10l67 -67q5 -5 7 -8l68 -137q3 -7 4 -15v-136q0 -9 -4 -16l-68 -136q-2 -3 -7 -9l-65 -65l-61 -124v-115l123 -123l131 -64q19 -10 19 -31t-19 -31l-131 -65l-123 -123v-114l61 -125l65 -64
q5 -5 7 -9l68 -136q3 -7 4 -16v-136q0 -9 -4 -16l-68 -136q-2 -3 -7 -9l-67 -66l-1 -2q-3 -3 -14 -9l-131 -66q-7 -3 -17 -4q-14 0 -24.5 10.5t-10.5 24.5zM375 77v60q0 -9 4 -16l68 -136q2 -3 7 -9l65 -65l61 -124v-60q0 9 -3 15l-68 137q-2 3 -7 8l-65 65zM375 819v60
l62 125l65 64q5 5 7 9l68 136q3 7 3 16v-60l-61 -125l-65 -64q-5 -5 -7 -9l-68 -136q-3 -7 -4 -16z" />
    <glyph glyph-name="asciitilde" unicode="~" horiz-adv-x="1638" 
d="M171 273q0 -14 10 -24t23.5 -10t24 10t10.5 24v128l60 120l119 59h120l126 -63l271 -203q3 -3 5 -3l137 -69q7 -3 15 -3h137q9 0 15 3l137 69q14 7 17 20l68 203v2q2 3 2 10v5v132q0 14 -10.5 24t-24 10t-24 -10.5t-10.5 -23.5v-128l-59 -120l-120 -60h-119l-126 64
l-272 203q-3 3 -5 3l-137 68q-7 3 -15 4h-136q-9 0 -16 -4l-136 -68q-14 -7 -17 -20l-69 -203v-2q-2 -3 -1 -10v-6v-131z" />
    <glyph glyph-name="uni007F" horiz-adv-x="1092" 
d="M-34 -137v1434q0 14 10 24t24 10t24 -10t10 -24q0 14 10.5 24t23.5 10h69q14 0 24 -10t10 -24q0 14 10 24t24 10h68q14 0 24 -10t10 -24q0 14 10.5 24t23.5 10h69q14 0 24 -10t10 -24q0 14 10 24t24 10h68q14 0 24 -10t10 -24q0 14 10.5 24t23.5 10h69q14 0 24 -10
t10 -24q0 14 10 24t24 10h68q14 0 24 -10t10 -24q0 14 10.5 24t23.5 10h69q14 0 24 -10t10 -24q0 14 10 24t24 10h68q14 0 24 -10t10 -24v-1434q0 -14 -10 -24t-23.5 -10t-24 10.5t-10.5 23.5q0 -14 -10 -24t-24 -10h-68q-14 0 -24 10.5t-10 23.5q0 -14 -10.5 -24t-24.5 -10
h-68q-14 0 -24 10.5t-10 23.5q0 -14 -10 -24t-24 -10h-68q-14 0 -24 10.5t-10 23.5q0 -14 -10.5 -24t-24.5 -10h-68q-14 0 -24 10.5t-10 23.5q0 -14 -10 -24t-24 -10h-68q-14 0 -24.5 10.5t-10.5 23.5q0 -14 -10 -24t-24 -10h-68q-14 0 -24 10.5t-10 23.5q0 -14 -10.5 -24
t-23.5 -10h-68q-14 0 -24.5 10.5t-10.5 23.5q0 -14 -10 -24t-24 -10h-68q-14 0 -24 10.5t-10 23.5z" />
    <glyph glyph-name="uni00A0" unicode="&#xa0;" horiz-adv-x="1092" 
 />
    <glyph glyph-name="guillemotleft" unicode="&#xab;" horiz-adv-x="750" 
d="M34 340q0 12 5 20l342 271v2l1 2l2 2l2 3q0 2 3.5 3.5t4.5 1.5h4q2 2 3 2v2h3h4h2h1h4h3l2 -2h2l3 -2l2 -2h1q2 0 5 -3l2 -2v-1l2 -2l2 -2q2 -2 1 -3q3 -7 4 -14v-3v-4q0 -2 -1 -1.5t-1 -1.5v-4v-1l-2 -2v-2l-266 -256l266 -257l2 -2v-5q0 -2 1 -5l1 -4v-3v-4v-1l-2 -2
v-3l-2 -4l-1 -2l-2 -1l-2 -2l-2 -2l-1 -3l-4 -2l-3 -1h-2l-1 -2h-2l-4 -2h-3h-3h-4h-3h-2l-2 2h-1l-2 2h-3l-2 3h-2l-2 2q-2 2 -3 1l-2 2v2l-1 3l-342 272q-5 5 -5 17zM307 340q0 12 5 20l342 271v2l1 2l2 2l2 3q0 2 3.5 3.5t5 1.5t3 1t3.5 1v2h4h3h2h1h4h3l2 -2h2l3 -2
l2 -2h1q2 0 6 -3l1 -2v-1l2 -2l2 -2q2 -2 1 -3q3 -7 4 -14v-3v-4q0 -2 -1 -1.5t-1 -1.5v-4v-1l-2 -2v-2l-266 -256l266 -257l2 -2v-5q0 -2 1 -5l1 -4v-3v-4v-1l-2 -2v-3l-2 -4l-1 -2l-2 -1l-2 -2l-1 -2l-2 -3l-4 -2l-3 -1h-2l-1 -2h-2l-4 -2h-3h-3h-4h-3h-2l-2 2h-1l-2 2h-3
l-2 3h-2l-2 2q-2 2 -3 1l-2 2v2l-1 3l-342 272q-5 5 -5 17z" />
    <glyph glyph-name="uni00AD" unicode="&#xad;" horiz-adv-x="1774" 
d="M239 478q0 -14 10 -24t24 -10h1229q14 0 24 10t10 24t-10 24t-24 10h-1229q-14 0 -24 -10t-10 -24z" />
    <glyph glyph-name="acute" unicode="&#xb4;" horiz-adv-x="819" 
d="M171 882q0 -2 0.5 -1.5t0.5 -1.5v-2v-1v-2l2 -2l2 -2v-1l1 -2v-2l4 -1l5 -6h2v-1h1l2 -2h4l1 -2h2h2h1h4h3h4h1l2 2q5 0 7 2l2 1l3 2v2l2 2l408 339q12 9 12 26q0 14 -11 24l-63 65q-10 13 -27 13h-4q-19 0 -27 -15l-338 -406l-2 -2l-1 -3q-3 -3 -4 -7l-1 -2v-3v-6v-1v-4
zM473 1154l77 92l15 -15z" />
    <glyph glyph-name="guillemotright" unicode="&#xbb;" horiz-adv-x="750" 
d="M34 67v3v3q0 2 1 2t1 2v3v2l2 2v1l266 256l-266 258l-2 2v5q0 2 -1 5l-1 3v4v3v2l2 2v3l2 3l1 2l2 2l2 2l1 1l2 4l3 1l4 2h2l1 2h2l3 2h4h3h4h3h2l2 -2h1l2 -2h3l2 -3h2l1 -2q2 -2 4 -2l2 -1v-2l1 -4l342 -271q5 -5 5 -17t-5 -20l-342 -272v-2l-1 -1l-2 -2l-2 -3
q0 -2 -3.5 -3.5t-5 -1.5t-3 -1t-3.5 -1v-2h-4h-3h-2h-1h-4h-3l-2 2h-2l-3 2l-2 1h-2q-2 0 -5 4l-1 1v2l-2 2l-2 1q-2 2 -1 4q-3 7 -4 14zM307 67v3v3q0 2 1 2t1 2v3v2l2 2v1l266 256l-266 258l-2 2v5q0 2 -1 5l-1 3v4v3v2l2 2v3l2 3l1 2l2 2l2 2l1 1l2 4l4 1l3 2h2l1 2h2
l4 2h3h3h4h3h2l2 -2h1l2 -2h3l2 -3h2l2 -2q2 -2 3 -2l2 -1v-2l1 -4l342 -271q5 -5 5 -17t-5 -20l-342 -272v-2l-1 -1l-2 -2l-2 -3q0 -2 -3.5 -3.5t-5 -1.5t-3 -1t-3.5 -1v-2h-4h-3h-2h-1h-4h-3l-2 2h-2l-3 2l-2 1h-1q-2 0 -6 4l-1 1v2l-2 2l-2 1q-2 2 -1 4q-3 7 -4 14z" />
    <glyph glyph-name="Agrave" unicode="&#xc0;" 
d="M34 -136.5q0 13.5 10.5 24t23.5 10.5h113l126 380v2q0 5 4 8l338 1016q3 17 15 22q2 2 3 2l2 1h3l2 2h4h1h2h2h1h2h2h3q2 0 2 -1t2 -1q3 0 6 -3q12 -7 16 -22l467 -1406h113q14 0 24 -10.5t10 -24t-10 -24t-24 -10.5h-131h-5h-6h-58h-5h-5h-200q-14 0 -24 10.5t-10 24
t10.5 24t23.5 10.5h157l-112 341h-567l-112 -341h225q14 0 24 -10.5t10 -24t-10 -24t-24 -10.5h-268h-5h-5h-132q-14 0 -24 10.5t-10 24zM389 307h519l-258 775l-1 2v3zM444 1775q0 14 10 24l65 65q10 13 27 13h3q17 0 26 -15l338 -406l2 -2l1 -3q3 -3 4 -7l2 -2v-3v-6v-1
v-4v-3l-2 -2v-1v-2l-2 -2v-2l-2 -1l-1 -2v-2l-2 -1h-2l-5 -6h-2v-1h-1l-2 -2h-3l-2 -2h-2h-1h-2h-4h-3h-3h-2l-2 2q-5 0 -7 2l-1 1l-4 2v2l-1 2l-408 339q-12 9 -12 26zM529 1777l92 -77l-77 92zM659 1118q9 9 24 8q14 0 24 -10l-24 74z" />
    <glyph glyph-name="Aacute" unicode="&#xc1;" 
d="M34 -136.5q0 13.5 10.5 24t23.5 10.5h113l126 380v2q0 5 4 8l338 1016q3 17 15 22q2 2 3 2l2 1h3l2 2h4h1h2h2h1h2h2h3q2 0 2 -1t2 -1q3 0 6 -3q12 -7 16 -22l467 -1406h113q14 0 24 -10.5t10 -24t-10 -24t-24 -10.5h-131h-5h-6h-58h-5h-5h-200q-14 0 -24 10.5t-10 24
t10.5 24t23.5 10.5h157l-112 341h-567l-112 -341h225q14 0 24 -10.5t10 -24t-10 -24t-24 -10.5h-268h-5h-5h-132q-14 0 -24 10.5t-10 24zM389 307h519l-258 775l-1 2v3zM444 1428q0 -2 0.5 -1.5t0.5 -1.5v-2v-1v-2l2 -2l2 -2v-1l1 -2v-2l4 -1l5 -6h2v-1h1l2 -2h4l1 -2h2h2h1
h4h3h4h1l2 2q5 0 7 2l2 1l3 2v2l2 2l408 339q12 9 12 26q0 14 -11 24l-63 65q-10 13 -27 13h-4q-19 0 -27 -15l-338 -406l-2 -2l-1 -3q-3 -3 -4 -7l-1 -2v-3v-6v-1v-4zM659 1118q9 9 24 8q14 0 24 -10l-24 74zM746 1700l77 92l15 -15z" />
    <glyph glyph-name="Acircumflex" unicode="&#xc2;" 
d="M34 -136.5q0 13.5 10.5 24t23.5 10.5h113l126 380v2q0 5 4 8l338 1016q3 17 15 22q2 2 3 2l2 1h3l2 2h4h1h2h2h1h2h2h3q2 0 2 -1t2 -1q3 0 6 -3q12 -7 16 -22l467 -1406h113q14 0 24 -10.5t10 -24t-10 -24t-24 -10.5h-131h-5h-6h-58h-5h-5h-200q-14 0 -24 10.5t-10 24
t10.5 24t23.5 10.5h157l-112 341h-567l-112 -341h225q14 0 24 -10.5t10 -24t-10 -24t-24 -10.5h-268h-5h-5h-132q-14 0 -24 10.5t-10 24zM307 1427v3v3v4v3v2l2 2v1l2 2v3l3 2v2l2 2q2 2 2 3l1 2h2l4 1l339 342q5 5 17 5t21 -5l339 -342h2l2 -1l1 -2l4 -2q2 0 3.5 -3.5
t1.5 -5t1 -3t1 -3.5h1v-4v-3v-2v-1v-4v-3l-1 -2v-2l-2 -3l-2 -2v-1q0 -2 -3 -6l-2 -1h-2l-1 -2l-2 -2q-2 -2 -3 -1q-7 -3 -14 -4h-3h-4q-2 0 -2 1t-1 1h-4h-1l-2 2h-2l-324 266l-326 -266l-2 -2h-5q-2 0 -5 -1l-3 -1h-4h-3h-2l-2 2h-3l-3 2l-2 1l-2 2l-2 2l-1 1l-4 2l-1 4
l-2 3v2l-2 1v2zM389 307h519l-258 775l-1 2v3zM659 1118q9 9 24 8q14 0 24 -10l-24 74z" />
    <glyph glyph-name="Atilde" unicode="&#xc3;" 
d="M34 -136.5q0 13.5 10.5 24t23.5 10.5h113l126 380v2q0 5 4 8l338 1016q3 17 15 22q2 2 3 2l2 1h3l2 2h4h1h2h2h1h2h2h3q2 0 2 -1t2 -1q3 0 6 -3q12 -7 16 -22l467 -1406h113q14 0 24 -10.5t10 -24t-10 -24t-24 -10.5h-131h-5h-6h-58h-5h-5h-200q-14 0 -24 10.5t-10 24
t10.5 24t23.5 10.5h157l-112 341h-567l-112 -341h225q14 0 24 -10.5t10 -24t-10 -24t-24 -10.5h-268h-5h-5h-132q-14 0 -24 10.5t-10 24zM34 1435q0 -14 10 -24t23.5 -10t24 10t10.5 24v128l60 120l119 59h120l126 -63l271 -203q3 -3 5 -3l137 -69q7 -3 15 -3h137q9 0 15 3
l137 69q14 7 17 20l68 203v2q2 3 2 10v5v132q0 14 -10.5 24t-24 10t-24 -10.5t-10.5 -23.5v-128l-59 -120l-120 -60h-119l-126 64l-272 203q-3 3 -5 3l-137 68q-7 3 -15 4h-136q-9 0 -16 -4l-136 -68q-14 -7 -17 -20l-69 -203v-2q-2 -3 -1 -10v-6v-131zM389 307h519
l-258 775l-1 2v3zM659 1118q9 9 24 8q14 0 24 -10l-24 74z" />
    <glyph glyph-name="Egrave" unicode="&#xc8;" 
d="M102 -136.5q0 13.5 10.5 24t24.5 10.5h170v1365h-170q-14 0 -24.5 10t-10.5 24t10.5 24t24.5 10h199h5h5h58h6h5h740h6h5h63q14 0 24 -10t10 -24v-410q0 -14 -10.5 -24t-23.5 -10q-12 0 -22.5 8.5t-11.5 20.5l-63 381h-688v-614h341v238q0 14 10.5 24.5t24 10.5
t23.5 -10.5t10 -24.5v-267v-6v-5v-268q0 -14 -10 -24t-23.5 -10t-24 10.5t-10.5 23.5v239h-341v-682h688l63 380q2 12 12 20.5t22 8.5q14 0 24 -10t10 -24v-410q0 -14 -10.5 -24t-23.5 -10h-63h-5h-6h-740h-5h-6h-58h-5h-5h-199q-14 0 -24.5 10.5t-10.5 24zM512 1777
q0 14 10 24l65 65q10 13 27 13h3q17 0 26 -15l338 -406l2 -2l1 -3q3 -3 4 -7l2 -2v-3v-6v-1v-4v-3l-2 -2v-1v-2l-2 -2v-2l-2 -1l-1 -2v-2l-2 -1h-2l-5 -6h-2v-1h-1l-2 -2h-3l-2 -2h-2h-1h-2h-4h-3h-3h-2l-2 2q-5 0 -7 2l-1 1l-4 2v2l-1 2l-408 339q-12 9 -12 26zM597 1779
l92 -77l-77 92z" />
    <glyph glyph-name="Eacute" unicode="&#xc9;" 
d="M102 -136.5q0 13.5 10.5 24t24.5 10.5h170v1365h-170q-14 0 -24.5 10t-10.5 24t10.5 24t24.5 10h199h5h5h58h6h5h740h6h5h63q14 0 24 -10t10 -24v-410q0 -14 -10.5 -24t-23.5 -10q-12 0 -22.5 8.5t-11.5 20.5l-63 381h-688v-614h341v238q0 14 10.5 24.5t24 10.5
t23.5 -10.5t10 -24.5v-267v-6v-5v-268q0 -14 -10 -24t-23.5 -10t-24 10.5t-10.5 23.5v239h-341v-682h688l63 380q2 12 12 20.5t22 8.5q14 0 24 -10t10 -24v-410q0 -14 -10.5 -24t-23.5 -10h-63h-5h-6h-740h-5h-6h-58h-5h-5h-199q-14 0 -24.5 10.5t-10.5 24zM512 1430
q0 -2 0.5 -1.5t0.5 -1.5v-2v-1v-2l2 -2l2 -2v-1l1 -2v-2l4 -1l5 -6h2v-1h1l2 -2h4l1 -2h2h2h1h4h3h4h1l2 2q5 0 7 2l2 1l3 2v2l2 2l408 339q12 9 12 26q0 14 -11 24l-63 65q-10 13 -27 13h-4q-19 0 -27 -15l-338 -406l-2 -2l-1 -3q-3 -3 -4 -7l-1 -2v-3v-6v-1v-4zM814 1702
l77 92l15 -15z" />
    <glyph glyph-name="Ecircumflex" unicode="&#xca;" 
d="M102 -136.5q0 13.5 10.5 24t24.5 10.5h170v1365h-170q-14 0 -24.5 10t-10.5 24t10.5 24t24.5 10h199h5h5h58h6h5h740h6h5h63q14 0 24 -10t10 -24v-410q0 -14 -10.5 -24t-23.5 -10q-12 0 -22.5 8.5t-11.5 20.5l-63 381h-688v-614h341v238q0 14 10.5 24.5t24 10.5
t23.5 -10.5t10 -24.5v-267v-6v-5v-268q0 -14 -10 -24t-23.5 -10t-24 10.5t-10.5 23.5v239h-341v-682h688l63 380q2 12 12 20.5t22 8.5q14 0 24 -10t10 -24v-410q0 -14 -10.5 -24t-23.5 -10h-63h-5h-6h-740h-5h-6h-58h-5h-5h-199q-14 0 -24.5 10.5t-10.5 24zM375 1427v3v3v4
v3v2l2 2v1l2 2v3l3 2v2l2 2q2 2 2 3l1 2h2l4 1l339 342q5 5 17 5t21 -5l339 -342h2l2 -1l1 -2l4 -2q2 0 3.5 -3.5t1.5 -5t1 -3t1 -3.5h1v-4v-3v-2v-1v-4v-3l-1 -2v-2l-2 -3l-2 -2v-1q0 -2 -3 -6l-2 -1h-2l-1 -2l-2 -2q-2 -2 -3 -1q-7 -3 -14 -4h-3h-4q-2 0 -2 1t-1 1h-4h-1
l-2 2h-2l-324 266l-326 -266l-2 -2h-5q-2 0 -5 -1l-3 -1h-4h-3h-2l-2 2h-3l-3 2l-2 1l-2 2l-2 2l-1 1l-4 2l-1 4l-2 3v2l-2 1v2z" />
    <glyph glyph-name="Igrave" unicode="&#xcc;" horiz-adv-x="819" 
d="M102 -136.5q0 13.5 10.5 24t24.5 10.5h170v1365h-170q-14 0 -24.5 10t-10.5 24t10.5 24t24.5 10h199h5h5h58h6h5h199q14 0 24.5 -10t10.5 -24t-10.5 -24t-24.5 -10h-170v-1365h170q14 0 24.5 -10.5t10.5 -24t-10.5 -24t-24.5 -10.5h-199h-5h-6h-58h-5h-5h-199
q-14 0 -24.5 10.5t-10.5 24zM171 1777q0 14 10 24l65 65q10 13 27 13h3q17 0 26 -15l338 -406l2 -2l1 -3q3 -3 4 -7l2 -2v-3v-6v-1v-4v-3l-2 -2v-1v-2l-2 -2v-2l-2 -1l-1 -2v-2l-2 -1h-2l-5 -6h-2v-1h-1l-2 -2h-3l-2 -2h-2h-1h-2h-4h-3h-3h-2l-2 2q-5 0 -7 2l-1 1l-4 2v2
l-1 2l-408 339q-12 9 -12 26zM256 1779l92 -77l-77 92z" />
    <glyph glyph-name="Iacute" unicode="&#xcd;" horiz-adv-x="819" 
d="M102 -136.5q0 13.5 10.5 24t24.5 10.5h170v1365h-170q-14 0 -24.5 10t-10.5 24t10.5 24t24.5 10h199h5h5h58h6h5h199q14 0 24.5 -10t10.5 -24t-10.5 -24t-24.5 -10h-170v-1365h170q14 0 24.5 -10.5t10.5 -24t-10.5 -24t-24.5 -10.5h-199h-5h-6h-58h-5h-5h-199
q-14 0 -24.5 10.5t-10.5 24zM103 1430q0 -2 0.5 -1.5t0.5 -1.5v-2v-1v-2l2 -2l2 -2v-1l1 -2v-2l4 -1l5 -6h2v-1h1l2 -2h4l1 -2h2h2h1h4h3h4h1l2 2q5 0 7 2l2 1l3 2v2l2 2l408 339q12 9 12 26q0 14 -11 24l-63 65q-10 13 -27 13h-4q-19 0 -27 -15l-338 -406l-2 -2l-1 -3
q-3 -3 -4 -7l-1 -2v-3v-6v-1v-4zM405 1702l77 92l15 -15z" />
    <glyph glyph-name="Icircumflex" unicode="&#xce;" horiz-adv-x="819" 
d="M-35 1427v3v3v4v3v2l2 2v1l2 2v3l3 2v2l2 2q2 2 2 3l1 2h2l4 1l339 342q5 5 17 5t21 -5l339 -342h2l2 -1l1 -2l4 -2q2 0 3.5 -3.5t1.5 -5t1 -3t1 -3.5h1v-4v-3v-2v-1v-4v-3l-1 -2v-2l-2 -3l-2 -2v-1q0 -2 -3 -6l-2 -1h-2l-1 -2l-2 -2q-2 -2 -3 -1q-7 -3 -14 -4h-3h-4
q-2 0 -2 1t-1 1h-4h-1l-2 2h-2l-324 266l-326 -266l-2 -2h-5q-2 0 -5 -1l-3 -1h-4h-3h-2l-2 2h-3l-3 2l-2 1l-2 2l-2 2l-1 1l-4 2l-1 4l-2 3v2l-2 1v2zM102 -136.5q0 13.5 10.5 24t24.5 10.5h170v1365h-170q-14 0 -24.5 10t-10.5 24t10.5 24t24.5 10h199h5h5h58h6h5h199
q14 0 24.5 -10t10.5 -24t-10.5 -24t-24.5 -10h-170v-1365h170q14 0 24.5 -10.5t10.5 -24t-10.5 -24t-24.5 -10.5h-199h-5h-6h-58h-5h-5h-199q-14 0 -24.5 10.5t-10.5 24z" />
    <glyph glyph-name="Ntilde" unicode="&#xd1;" horiz-adv-x="1638" 
d="M102 -136.5q0 13.5 10.5 24t24.5 10.5h170v1365h-170q-14 0 -24.5 10t-10.5 24t10.5 24t24.5 10h199h5h5h58h6q9 0 15 -3h2v-2l1 -2q12 -9 14 -13l753 -1193v1145h-171q-14 0 -24 10t-10 24t10 24t24 10h200h5h5h200q14 0 24 -10t10 -24t-10.5 -24t-23.5 -10h-171v-1260
v-3v-5v-128v-4q0 -17 -12 -25l-2 -2v-2h-1l-2 -1q-2 -2 -4 -2h-3l-2 -2h-1h-7h-7h-2l-1 2h-4q-12 5 -17 17l-817 1294q-5 10 -6 15v-1259h171q14 0 24 -10.5t10 -24t-10 -24t-24 -10.5h-200h-5h-5h-199q-14 0 -24.5 10.5t-10.5 24zM103 1435q0 -14 10 -24t23.5 -10t24 10
t10.5 24v128l60 120l119 59h120l126 -63l271 -203q3 -3 5 -3l137 -69q7 -3 15 -3h137q9 0 15 3l137 69q14 7 17 20l68 203v2q2 3 2 10v5v132q0 14 -10.5 24t-24 10t-24 -10.5t-10.5 -23.5v-128l-59 -120l-120 -60h-119l-126 64l-272 203q-3 3 -5 3l-137 68q-7 3 -15 4h-136
q-9 0 -16 -4l-136 -68q-14 -7 -17 -20l-69 -203v-2q-2 -3 -1 -10v-6v-131zM375 1166q3 29 35 29q20 0 29 -16l756 -1198v9l-804 1273h-16v-97z" />
    <glyph glyph-name="Ograve" unicode="&#xd2;" horiz-adv-x="1501" 
d="M171 478v205v3q2 3 1 5l69 273q0 5 1 7l69 137q2 3 6 8l137 137q3 3 14 8l201 67v1h3l2 2h2h2h1h2h2h5h126h5q7 0 10 -2h2l203 -68q10 -5 14 -8l136 -137q5 -5 7 -8l69 -137q2 -2 1 -7l68 -273q0 -2 1 -5l1 -3v-205v-4q-2 -3 -2 -5l-68 -273q0 -5 -1 -7l-69 -136
q-2 -3 -7 -9l-136 -136q-3 -3 -14 -9l-201 -68h-2h-2q-3 -2 -10 -2h-5h-126h-5q-7 0 -11 2h-1l-203 68q-10 5 -14 9l-137 136q-5 5 -6 9l-69 136q-2 2 -1 7l-69 273v5zM307 481l67 -264l63 -128l130 -130l124 -61h120l124 61l130 130l63 128l67 264v198l-67 265l-63 128
l-130 129l-124 62h-120l-124 -62l-130 -129l-63 -128l-67 -265v-198zM582 1775q0 14 10 24l65 65q10 13 27 13h3q17 0 26 -15l338 -406l2 -2l1 -3q3 -3 4 -7l2 -2v-3v-6v-1v-4v-3l-2 -2v-1v-2l-2 -2v-2l-2 -1l-1 -2v-2l-2 -1h-2l-5 -6h-2v-1h-1l-2 -2h-3l-2 -2h-2h-1h-2h-4
h-3h-3h-2l-2 2q-5 0 -7 2l-1 1l-4 2v2l-1 2l-408 339q-12 9 -12 26zM667 1777l92 -77l-77 92z" />
    <glyph glyph-name="Oacute" unicode="&#xd3;" horiz-adv-x="1501" 
d="M171 478v205v3q2 3 1 5l69 273q0 5 1 7l69 137q2 3 6 8l137 137q3 3 14 8l201 67v1h3l2 2h2h2h1h2h2h5h126h5q7 0 10 -2h2l203 -68q10 -5 14 -8l136 -137q5 -5 7 -8l69 -137q2 -2 1 -7l68 -273q0 -2 1 -5l1 -3v-205v-4q-2 -3 -2 -5l-68 -273q0 -5 -1 -7l-69 -136
q-2 -3 -7 -9l-136 -136q-3 -3 -14 -9l-201 -68h-2h-2q-3 -2 -10 -2h-5h-126h-5q-7 0 -11 2h-1l-203 68q-10 5 -14 9l-137 136q-5 5 -6 9l-69 136q-2 2 -1 7l-69 273v5zM307 481l67 -264l63 -128l130 -130l124 -61h120l124 61l130 130l63 128l67 264v198l-67 265l-63 128
l-130 129l-124 62h-120l-124 -62l-130 -129l-63 -128l-67 -265v-198zM514 1428q0 -2 0.5 -1.5t0.5 -1.5v-2v-1v-2l2 -2l2 -2v-1l1 -2v-2l4 -1l5 -6h2v-1h1l2 -2h4l1 -2h2h2h1h4h3h4h1l2 2q5 0 7 2l2 1l3 2v2l2 2l408 339q12 9 12 26q0 14 -11 24l-63 65q-10 13 -27 13h-4
q-19 0 -27 -15l-338 -406l-2 -2l-1 -3q-3 -3 -4 -7l-1 -2v-3v-6v-1v-4zM816 1700l77 92l15 -15z" />
    <glyph glyph-name="Ocircumflex" unicode="&#xd4;" horiz-adv-x="1501" 
d="M171 478v205v3q2 3 1 5l69 273q0 5 1 7l69 137q2 3 6 8l137 137q3 3 14 8l201 67v1h3l2 2h2h2h1h2h2h5h126h5q7 0 10 -2h2l203 -68q10 -5 14 -8l136 -137q5 -5 7 -8l69 -137q2 -2 1 -7l68 -273q0 -2 1 -5l1 -3v-205v-4q-2 -3 -2 -5l-68 -273q0 -5 -1 -7l-69 -136
q-2 -3 -7 -9l-136 -136q-3 -3 -14 -9l-201 -68h-2h-2q-3 -2 -10 -2h-5h-126h-5q-7 0 -11 2h-1l-203 68q-10 5 -14 9l-137 136q-5 5 -6 9l-69 136q-2 2 -1 7l-69 273v5zM307 481l67 -264l63 -128l130 -130l124 -61h120l124 61l130 130l63 128l67 264v198l-67 265l-63 128
l-130 129l-124 62h-120l-124 -62l-130 -129l-63 -128l-67 -265v-198zM377 1427v3v3v4v3v2l2 2v1l2 2v3l3 2v2l2 2q2 2 2 3l1 2h2l4 1l339 342q5 5 17 5t21 -5l339 -342h2l2 -1l1 -2l4 -2q2 0 3.5 -3.5t1.5 -5t1 -3t1 -3.5h1v-4v-3v-2v-1v-4v-3l-1 -2v-2l-2 -3l-2 -2v-1
q0 -2 -3 -6l-2 -1h-2l-1 -2l-2 -2q-2 -2 -3 -1q-7 -3 -14 -4h-3h-4q-2 0 -2 1t-1 1h-4h-1l-2 2h-2l-324 266l-326 -266l-2 -2h-5q-2 0 -5 -1l-3 -1h-4h-3h-2l-2 2h-3l-3 2l-2 1l-2 2l-2 2l-1 1l-4 2l-1 4l-2 3v2l-2 1v2z" />
    <glyph glyph-name="Otilde" unicode="&#xd5;" horiz-adv-x="1501" 
d="M104 1434q0 -14 10 -24t23.5 -10t24 10t10.5 24v128l60 120l119 59h120l126 -63l271 -203q3 -3 5 -3l137 -69q7 -3 15 -3h137q9 0 15 3l137 69q14 7 17 20l68 203v2q2 3 2 10v5v132q0 14 -10.5 24t-24 10t-24 -10.5t-10.5 -23.5v-128l-59 -120l-120 -60h-119l-126 64
l-272 203q-3 3 -5 3l-137 68q-7 3 -15 4h-136q-9 0 -16 -4l-136 -68q-14 -7 -17 -20l-69 -203v-2q-2 -3 -1 -10v-6v-131zM171 478v205v3q2 3 1 5l69 273q0 5 1 7l69 137q2 3 6 8l137 137q3 3 14 8l201 67v1h3l2 2h2h2h1h2h2h5h126h5q7 0 10 -2h2l203 -68q10 -5 14 -8
l136 -137q5 -5 7 -8l69 -137q2 -2 1 -7l68 -273q0 -2 1 -5l1 -3v-205v-4q-2 -3 -2 -5l-68 -273q0 -5 -1 -7l-69 -136q-2 -3 -7 -9l-136 -136q-3 -3 -14 -9l-201 -68h-2h-2q-3 -2 -10 -2h-5h-126h-5q-7 0 -11 2h-1l-203 68q-10 5 -14 9l-137 136q-5 5 -6 9l-69 136q-2 2 -1 7
l-69 273v5zM307 481l67 -264l63 -128l130 -130l124 -61h120l124 61l130 130l63 128l67 264v198l-67 265l-63 128l-130 129l-124 62h-120l-124 -62l-130 -129l-63 -128l-67 -265v-198z" />
    <glyph glyph-name="Ugrave" unicode="&#xd9;" horiz-adv-x="1638" 
d="M102 1297q0 14 10.5 24t24.5 10h199h5h5h58h6h5h199q14 0 24.5 -10t10.5 -24t-10.5 -24t-24.5 -10h-170v-985l65 -191l126 -128l124 -61h123l191 64l125 125l65 191v985h-171q-14 0 -24 10t-10 24t10.5 24t23.5 10h200h5h5h200q14 0 24 -10t10 -24t-10 -24t-24 -10h-171
v-990q0 -7 -2 -10l-68 -205q-5 -10 -8 -14l-137 -136q-3 -3 -13 -9l-205 -68q-3 -2 -11 -2h-131h-5q-7 0 -10 2h-2l-203 68q-10 5 -14 9l-136 136q-3 3 -9 14l-68 205q-2 3 -2 10v990h-170q-14 0 -24.5 10t-10.5 24zM581 1777q0 14 10 24l65 65q10 13 27 13h3q17 0 26 -15
l338 -406l2 -2l1 -3q3 -3 4 -7l2 -2v-3v-6v-1v-4v-3l-2 -2v-1v-2l-2 -2v-2l-2 -1l-1 -2v-2l-2 -1h-2l-5 -6h-2v-1h-1l-2 -2h-3l-2 -2h-2h-1h-2h-4h-3h-3h-2l-2 2q-5 0 -7 2l-1 1l-4 2v2l-1 2l-408 339q-12 9 -12 26zM666 1779l92 -77l-77 92z" />
    <glyph glyph-name="Uacute" unicode="&#xda;" horiz-adv-x="1638" 
d="M102 1297q0 14 10.5 24t24.5 10h199h5h5h58h6h5h199q14 0 24.5 -10t10.5 -24t-10.5 -24t-24.5 -10h-170v-985l65 -191l126 -128l124 -61h123l191 64l125 125l65 191v985h-171q-14 0 -24 10t-10 24t10.5 24t23.5 10h200h5h5h200q14 0 24 -10t10 -24t-10 -24t-24 -10h-171
v-990q0 -7 -2 -10l-68 -205q-5 -10 -8 -14l-137 -136q-3 -3 -13 -9l-205 -68q-3 -2 -11 -2h-131h-5q-7 0 -10 2h-2l-203 68q-10 5 -14 9l-136 136q-3 3 -9 14l-68 205q-2 3 -2 10v990h-170q-14 0 -24.5 10t-10.5 24zM581 1430q0 -2 0.5 -1.5t0.5 -1.5v-2v-1v-2l2 -2l2 -2v-1
l1 -2v-2l4 -1l5 -6h2v-1h1l2 -2h4l1 -2h2h2h1h4h3h4h1l2 2q5 0 7 2l2 1l3 2v2l2 2l408 339q12 9 12 26q0 14 -11 24l-63 65q-10 13 -27 13h-4q-19 0 -27 -15l-338 -406l-2 -2l-1 -3q-3 -3 -4 -7l-1 -2v-3v-6v-1v-4zM883 1702l77 92l15 -15z" />
    <glyph glyph-name="Ucircumflex" unicode="&#xdb;" horiz-adv-x="1638" 
d="M102 1297q0 14 10.5 24t24.5 10h199h5h5h58h6h5h199q14 0 24.5 -10t10.5 -24t-10.5 -24t-24.5 -10h-170v-985l65 -191l126 -128l124 -61h123l191 64l125 125l65 191v985h-171q-14 0 -24 10t-10 24t10.5 24t23.5 10h200h5h5h200q14 0 24 -10t10 -24t-10 -24t-24 -10h-171
v-990q0 -7 -2 -10l-68 -205q-5 -10 -8 -14l-137 -136q-3 -3 -13 -9l-205 -68q-3 -2 -11 -2h-131h-5q-7 0 -10 2h-2l-203 68q-10 5 -14 9l-136 136q-3 3 -9 14l-68 205q-2 3 -2 10v990h-170q-14 0 -24.5 10t-10.5 24zM443 1427v3v3v4v3v2l2 2v1l2 2v3l3 2v2l2 2q2 2 2 3l1 2
h2l4 1l339 342q5 5 17 5t21 -5l339 -342h2l2 -1l1 -2l4 -2q2 0 3.5 -3.5t1.5 -5t1 -3t1 -3.5h1v-4v-3v-2v-1v-4v-3l-1 -2v-2l-2 -3l-2 -2v-1q0 -2 -3 -6l-2 -1h-2l-1 -2l-2 -2q-2 -2 -3 -1q-7 -3 -14 -4h-3h-4q-2 0 -2 1t-1 1h-4h-1l-2 2h-2l-324 266l-326 -266l-2 -2h-5
q-2 0 -5 -1l-3 -1h-4h-3h-2l-2 2h-3l-3 2l-2 1l-2 2l-2 2l-1 1l-4 2l-1 4l-2 3v2l-2 1v2z" />
    <glyph glyph-name="Yacute" unicode="&#xdd;" horiz-adv-x="1501" 
d="M34 1297q0 14 10.5 24t23.5 10h132h5h5h58h5h5h200q14 0 24 -10t10 -24t-10 -24t-24 -10h-143l416 -654l416 654h-211q-14 0 -24 10t-10 24t10 24t24 10h268h5h5h131q14 0 24 -10t10 -24t-10 -24t-24 -10h-117l-463 -727v-638h171q14 0 24 -10.5t10 -24t-10.5 -24
t-23.5 -10.5h-200h-5h-5h-58h-5h-5h-200q-14 0 -24 10.5t-10 24t10 24t24 10.5h171v638l-463 727h-118q-14 0 -24 10t-10 24zM888 1428q0 -2 0.5 -1.5t0.5 -1.5v-2v-1v-2l2 -2l2 -2v-1l1 -2v-2l4 -1l5 -6h2v-1h1l2 -2h4l1 -2h2h2h1h4h3h4h1l2 2q5 0 7 2l2 1l3 2v2l2 2
l408 339q12 9 12 26q0 14 -11 24l-63 65q-10 13 -27 13h-4q-19 0 -27 -15l-338 -406l-2 -2l-1 -3q-3 -3 -4 -7l-1 -2v-3v-6v-1v-4zM1190 1700l77 92l15 -15z" />
    <glyph glyph-name="agrave" unicode="&#xe0;" horiz-adv-x="1501" 
d="M171 68q0 -9 3 -15l68 -137q7 -14 21 -17l203 -68h2q3 -2 10 -2h5h200q9 0 15 4l137 68q3 2 8 7l104 102l46 -94q7 -9 16 -15l134 -67q7 -5 18 -5h5h63q14 0 24 10.5t10 24t-10.5 24t-23.5 10.5h-55l-54 54l-62 125v469q0 9 -3 15l-67 134q-3 10 -12 15l-65 65q-5 5 -8 7
l-137 68q-7 3 -15 3h-273q-9 0 -15 -3l-137 -68q-3 -2 -9 -7l-68 -68q-10 -10 -10 -24v-69q0 -14 10 -24t24 -10h68q14 0 24 10.5t10 23.5v69q0 22 -22 32l9 9l124 61h256l125 -61l55 -55v-109l-52 -50l-396 -66h-1h-2l-3 -2h-4l-201 -68q-14 -3 -21 -17l-68 -137
q-3 -7 -3 -15v-137zM307 77v119l60 120l121 61l405 67q12 3 18 10l11 10v-382l-123 -123l-125 -61h-188l-119 59zM444 1366q0 14 10 24l65 65q10 13 27 13h3q17 0 26 -15l338 -406l2 -2l1 -3q3 -3 4 -7l2 -2v-3v-6v-1v-4v-3l-2 -2v-1v-2l-2 -2v-2l-2 -1l-1 -2v-2l-2 -1h-2
l-5 -6h-2v-1h-1l-2 -2h-3l-2 -2h-2h-1h-2h-4h-3h-3h-2l-2 2q-5 0 -7 2l-1 1l-4 2v2l-1 2l-408 339q-12 9 -12 26zM529 1368l92 -77l-77 92z" />
    <glyph glyph-name="aacute" unicode="&#xe1;" horiz-adv-x="1501" 
d="M171 68q0 -9 3 -15l68 -137q7 -14 21 -17l203 -68h2q3 -2 10 -2h5h200q9 0 15 4l137 68q3 2 8 7l104 102l46 -94q7 -9 16 -15l134 -67q7 -5 18 -5h5h63q14 0 24 10.5t10 24t-10.5 24t-23.5 10.5h-55l-54 54l-62 125v469q0 9 -3 15l-67 134q-3 10 -12 15l-65 65q-5 5 -8 7
l-137 68q-7 3 -15 3h-273q-9 0 -15 -3l-137 -68q-3 -2 -9 -7l-68 -68q-10 -10 -10 -24v-69q0 -14 10 -24t24 -10h68q14 0 24 10.5t10 23.5v69q0 22 -22 32l9 9l124 61h256l125 -61l55 -55v-109l-52 -50l-396 -66h-1h-2l-3 -2h-4l-201 -68q-14 -3 -21 -17l-68 -137
q-3 -7 -3 -15v-137zM307 77v119l60 120l121 61l405 67q12 3 18 10l11 10v-382l-123 -123l-125 -61h-188l-119 59zM376 1019q0 -2 0.5 -1.5t0.5 -1.5v-2v-1v-2l2 -2l2 -2v-1l1 -2v-2l4 -1l5 -6h2v-1h1l2 -2h4l1 -2h2h2h1h4h3h4h1l2 2q5 0 7 2l2 1l3 2v2l2 2l408 339
q12 9 12 26q0 14 -11 24l-63 65q-10 13 -27 13h-4q-19 0 -27 -15l-338 -406l-2 -2l-1 -3q-3 -3 -4 -7l-1 -2v-3v-6v-1v-4zM678 1291l77 92l15 -15z" />
    <glyph glyph-name="acircumflex" unicode="&#xe2;" horiz-adv-x="1501" 
d="M171 68q0 -9 3 -15l68 -137q7 -14 21 -17l203 -68h2q3 -2 10 -2h5h200q9 0 15 4l137 68q3 2 8 7l104 102l46 -94q7 -9 16 -15l134 -67q7 -5 18 -5h5h63q14 0 24 10.5t10 24t-10.5 24t-23.5 10.5h-55l-54 54l-62 125v469q0 9 -3 15l-67 134q-3 10 -12 15l-65 65q-5 5 -8 7
l-137 68q-7 3 -15 3h-273q-9 0 -15 -3l-137 -68q-3 -2 -9 -7l-68 -68q-10 -10 -10 -24v-69q0 -14 10 -24t24 -10h68q14 0 24 10.5t10 23.5v69q0 22 -22 32l9 9l124 61h256l125 -61l55 -55v-109l-52 -50l-396 -66h-1h-2l-3 -2h-4l-201 -68q-14 -3 -21 -17l-68 -137
q-3 -7 -3 -15v-137zM238 1018v3v3v4v3v2l2 2v1l2 2v3l3 2v2l2 2q2 2 2 3l1 2h2l4 1l339 342q5 5 17 5t21 -5l339 -342h2l2 -1l1 -2l4 -2q2 0 3.5 -3.5t1.5 -5t1 -3t1 -3.5h1v-4v-3v-2v-1v-4v-3l-1 -2v-2l-2 -3l-2 -2v-1q0 -2 -3 -6l-2 -1h-2l-1 -2l-2 -2q-2 -2 -3 -1
q-7 -3 -14 -4h-3h-4q-2 0 -2 1t-1 1h-4h-1l-2 2h-2l-324 266l-326 -266l-2 -2h-5q-2 0 -5 -1l-3 -1h-4h-3h-2l-2 2h-3l-3 2l-2 1l-2 2l-2 2l-1 1l-4 2l-1 4l-2 3v2l-2 1v2zM307 77v119l60 120l121 61l405 67q12 3 18 10l11 10v-382l-123 -123l-125 -61h-188l-119 59z" />
    <glyph glyph-name="atilde" unicode="&#xe3;" horiz-adv-x="1501" 
d="M-34 956q0 -14 10 -24t23.5 -10t24 10t10.5 24v128l60 120l119 59h120l126 -63l271 -203q3 -3 5 -3l137 -69q7 -3 15 -3h137q9 0 15 3l137 69q14 7 17 20l68 203v2q2 3 2 10v5v132q0 14 -10.5 24t-24 10t-24 -10.5t-10.5 -23.5v-128l-59 -120l-120 -60h-119l-126 64
l-272 203q-3 3 -5 3l-137 68q-7 3 -15 4h-136q-9 0 -16 -4l-136 -68q-14 -7 -17 -20l-69 -203v-2q-2 -3 -1 -10v-6v-131zM171 68q0 -9 3 -15l68 -137q7 -14 21 -17l203 -68h2q3 -2 10 -2h5h200q9 0 15 4l137 68q3 2 8 7l104 102l46 -94q7 -9 16 -15l134 -67q7 -5 18 -5h5h63
q14 0 24 10.5t10 24t-10.5 24t-23.5 10.5h-55l-54 54l-62 125v469q0 9 -3 15l-67 134q-3 10 -12 15l-65 65q-5 5 -8 7l-137 68q-7 3 -15 3h-273q-9 0 -15 -3l-137 -68q-3 -2 -9 -7l-68 -68q-10 -10 -10 -24v-69q0 -14 10 -24t24 -10h68q14 0 24 10.5t10 23.5v69q0 22 -22 32
l9 9l124 61h256l125 -61l55 -55v-109l-52 -50l-396 -66h-1h-2l-3 -2h-4l-201 -68q-14 -3 -21 -17l-68 -137q-3 -7 -3 -15v-137zM307 77v119l60 120l121 61l405 67q12 3 18 10l11 10v-382l-123 -123l-125 -61h-188l-119 59z" />
    <glyph glyph-name="egrave" unicode="&#xe8;" horiz-adv-x="1228" 
d="M171 273v137q0 7 1 10l69 205q5 10 8 13l137 137q3 3 13 8l202 69h3q3 1 10 1h6h199q9 0 16 -3l131 -67q7 -2 15 -10l67 -66q5 -5 7 -9l68 -137q3 -7 3 -15v-136q0 -14 -10 -24.5t-24 -10.5h-63h-5h-5h-712v-97l65 -191l126 -128l125 -61h123l191 64l131 130q10 10 24 10
t24 -10t10 -23.5t-10 -24.5l-136 -136q-3 -3 -14 -9l-205 -68q-3 -2 -10 -2h-131h-6q-7 0 -10 2h-2l-203 68q-10 5 -13 9l-137 136q-3 3 -8 14l-69 205q-2 3 -1 10zM321 444h669v162l-60 119l-119 60h-188l-125 -61l-126 -128zM509 1366q0 14 10 24l65 65q10 13 27 13h3
q17 0 26 -15l338 -406l2 -2l1 -3q3 -3 4 -7l2 -2v-3v-6v-1v-4v-3l-2 -2v-1v-2l-2 -2v-2l-2 -1l-1 -2v-2l-2 -1h-2l-5 -6h-2v-1h-1l-2 -2h-3l-2 -2h-2h-1h-2h-4h-3h-3h-2l-2 2q-5 0 -7 2l-1 1l-4 2v2l-1 2l-408 339q-12 9 -12 26zM594 1368l92 -77l-77 92z" />
    <glyph glyph-name="eacute" unicode="&#xe9;" horiz-adv-x="1228" 
d="M171 273v137q0 7 1 10l69 205q5 10 8 13l137 137q3 3 13 8l202 69h3q3 1 10 1h6h199q9 0 16 -3l131 -67q7 -2 15 -10l67 -66q5 -5 7 -9l68 -137q3 -7 3 -15v-136q0 -14 -10 -24.5t-24 -10.5h-63h-5h-5h-712v-97l65 -191l126 -128l125 -61h123l191 64l131 130q10 10 24 10
t24 -10t10 -23.5t-10 -24.5l-136 -136q-3 -3 -14 -9l-205 -68q-3 -2 -10 -2h-131h-6q-7 0 -10 2h-2l-203 68q-10 5 -13 9l-137 136q-3 3 -8 14l-69 205q-2 3 -1 10zM321 444h669v162l-60 119l-119 60h-188l-125 -61l-126 -128zM441 1019q0 -2 0.5 -1.5t0.5 -1.5v-2v-1v-2
l2 -2l2 -2v-1l1 -2v-2l4 -1l5 -6h2v-1h1l2 -2h4l1 -2h2h2h1h4h3h4h1l2 2q5 0 7 2l2 1l3 2v2l2 2l408 339q12 9 12 26q0 14 -11 24l-63 65q-10 13 -27 13h-4q-19 0 -27 -15l-338 -406l-2 -2l-1 -3q-3 -3 -4 -7l-1 -2v-3v-6v-1v-4zM743 1291l77 92l15 -15z" />
    <glyph glyph-name="ecircumflex" unicode="&#xea;" horiz-adv-x="1228" 
d="M171 273v137q0 7 1 10l69 205q5 10 8 13l137 137q3 3 13 8l202 69h3q3 1 10 1h6h199q9 0 16 -3l131 -67q7 -2 15 -10l67 -66q5 -5 7 -9l68 -137q3 -7 3 -15v-136q0 -14 -10 -24.5t-24 -10.5h-63h-5h-5h-712v-97l65 -191l126 -128l125 -61h123l191 64l131 130q10 10 24 10
t24 -10t10 -23.5t-10 -24.5l-136 -136q-3 -3 -14 -9l-205 -68q-3 -2 -10 -2h-131h-6q-7 0 -10 2h-2l-203 68q-10 5 -13 9l-137 136q-3 3 -8 14l-69 205q-2 3 -1 10zM303 1018v3v3v4v3v2l2 2v1l2 2v3l3 2v2l2 2q2 2 2 3l1 2h2l4 1l339 342q5 5 17 5t21 -5l339 -342h2l2 -1
l1 -2l4 -2q2 0 3.5 -3.5t1.5 -5t1 -3t1 -3.5h1v-4v-3v-2v-1v-4v-3l-1 -2v-2l-2 -3l-2 -2v-1q0 -2 -3 -6l-2 -1h-2l-1 -2l-2 -2q-2 -2 -3 -1q-7 -3 -14 -4h-3h-4q-2 0 -2 1t-1 1h-4h-1l-2 2h-2l-324 266l-326 -266l-2 -2h-5q-2 0 -5 -1l-3 -1h-4h-3h-2l-2 2h-3l-3 2l-2 1
l-2 2l-2 2l-1 1l-4 2l-1 4l-2 3v2l-2 1v2zM321 444h669v162l-60 119l-119 60h-188l-125 -61l-126 -128z" />
    <glyph glyph-name="igrave" unicode="&#xec;" horiz-adv-x="819" 
d="M101 1366q0 14 10 24l65 65q10 13 27 13h3q17 0 26 -15l338 -406l2 -2l1 -3q3 -3 4 -7l2 -2v-3v-6v-1v-4v-3l-2 -2v-1v-2l-2 -2v-2l-2 -1l-1 -2v-2l-2 -1h-2l-5 -6h-2v-1h-1l-2 -2h-3l-2 -2h-2h-1h-2h-4h-3h-3h-2l-2 2q-5 0 -7 2l-1 1l-4 2v2l-1 2l-408 339q-12 9 -12 26
zM102 -136.5q0 13.5 10.5 24t24.5 10.5h170v887h-170q-14 0 -24.5 10.5t-10.5 24t10.5 23.5t24.5 10h199h5h5h58h6q10 0 20 -6h2l1 -2v-2l2 -2q9 -9 9 -22v-5v-916h170q14 0 24.5 -10.5t10.5 -24t-10.5 -24t-24.5 -10.5h-199h-5h-6h-58h-5h-5h-199q-14 0 -24.5 10.5
t-10.5 24zM186 1368l92 -77l-77 92zM239 1229q0 -14 10 -24l68 -68q10 -10 24 -10.5t24 10.5l68 68q10 10 10.5 23.5t-10.5 24.5l-63 63l-1 2q-9 10 -21 13h-5h-2h-3h-3q-14 -3 -21 -13l-65 -65q-10 -10 -10 -24zM321 1229l20 20l21 -20l-21 -21z" />
    <glyph glyph-name="iacute" unicode="&#xed;" horiz-adv-x="819" 
d="M101 950q0 -2 0.5 -1.5t0.5 -1.5v-2v-1v-2l2 -2l2 -2v-1l1 -2v-2l4 -1l5 -6h2v-1h1l2 -2h4l1 -2h2h2h1h4h3h4h1l2 2q5 0 7 2l2 1l3 2v2l2 2l408 339q12 9 12 26q0 14 -11 24l-63 65q-10 13 -27 13h-4q-19 0 -27 -15l-338 -406l-2 -2l-1 -3q-3 -3 -4 -7l-1 -2v-3v-6v-1v-4
zM102 -136.5q0 13.5 10.5 24t24.5 10.5h170v887h-170q-14 0 -24.5 10.5t-10.5 24t10.5 23.5t24.5 10h199h5h5h58h6q10 0 20 -6h2l1 -2v-2l2 -2q9 -9 9 -22v-5v-916h170q14 0 24.5 -10.5t10.5 -24t-10.5 -24t-24.5 -10.5h-199h-5h-6h-58h-5h-5h-199q-14 0 -24.5 10.5
t-10.5 24zM239 1229q0 -14 10 -24l68 -68q10 -10 24 -10.5t24 10.5l68 68q10 10 10.5 23.5t-10.5 24.5l-63 63l-1 2q-9 10 -21 13h-5h-2h-3h-3q-14 -3 -21 -13l-65 -65q-10 -10 -10 -24zM321 1229l20 20l21 -20l-21 -21zM403 1222l77 92l15 -15z" />
    <glyph glyph-name="icircumflex" unicode="&#xee;" horiz-adv-x="819" 
d="M-36 1018v3v3v4v3v2l2 2v1l2 2v3l3 2v2l2 2q2 2 2 3l1 2h2l4 1l339 342q5 5 17 5t21 -5l339 -342h2l2 -1l1 -2l4 -2q2 0 3.5 -3.5t1.5 -5t1 -3t1 -3.5h1v-4v-3v-2v-1v-4v-3l-1 -2v-2l-2 -3l-2 -2v-1q0 -2 -3 -6l-2 -1h-2l-1 -2l-2 -2q-2 -2 -3 -1q-7 -3 -14 -4h-3h-4
q-2 0 -2 1t-1 1h-4h-1l-2 2h-2l-324 266l-326 -266l-2 -2h-5q-2 0 -5 -1l-3 -1h-4h-3h-2l-2 2h-3l-3 2l-2 1l-2 2l-2 2l-1 1l-4 2l-1 4l-2 3v2l-2 1v2zM102 -136.5q0 13.5 10.5 24t24.5 10.5h170v887h-170q-14 0 -24.5 10.5t-10.5 24t10.5 23.5t24.5 10h199h5h5h58h6
q10 0 20 -6h2l1 -2v-2l2 -2q9 -9 9 -22v-5v-916h170q14 0 24.5 -10.5t10.5 -24t-10.5 -24t-24.5 -10.5h-199h-5h-6h-58h-5h-5h-199q-14 0 -24.5 10.5t-10.5 24zM239 1229q0 -14 10 -24l68 -68q10 -10 24 -10.5t24 10.5l68 68q10 10 10.5 23.5t-10.5 24.5l-63 63l-1 2
q-9 10 -21 13h-5h-2h-3h-3q-14 -3 -21 -13l-65 -65q-10 -10 -10 -24zM321 1229l20 20l21 -20l-21 -21z" />
    <glyph glyph-name="ntilde" unicode="&#xf1;" horiz-adv-x="1501" 
d="M102 -136.5q0 13.5 10.5 24t24.5 10.5h170v887h-170q-14 0 -24.5 10.5t-10.5 24t10.5 23.5t24.5 10h199h5h5h58h6q10 0 20 -6h2l1 -2v-2l2 -2q9 -9 9 -22v-5v-118l78 79q3 3 14 8l205 69q3 2 10 1h131h5q7 0 11 -1h1l204 -69q14 -3 20 -17l68 -136q3 -7 4 -16v-716h170
q14 0 24 -10.5t10 -24t-10 -24t-24 -10.5h-199h-5h-6h-58h-5h-5h-200q-14 0 -24 10.5t-10 24t10.5 24t23.5 10.5h171v708l-60 119l-119 60h-123l-191 -65l-121 -119v-703h170q14 0 24.5 -10.5t10.5 -24t-10.5 -24t-24.5 -10.5h-199h-5h-6h-58h-5h-5h-199q-14 0 -24.5 10.5
t-10.5 24zM103 957q0 -14 10 -24t23.5 -10t24 10t10.5 24v128l60 120l119 59h120l126 -63l271 -203q3 -3 5 -3l137 -69q7 -3 15 -3h137q9 0 15 3l137 69q14 7 17 20l68 203v2q2 3 2 10v5v132q0 14 -10.5 24t-24 10t-24 -10.5t-10.5 -23.5v-128l-59 -120l-120 -60h-119
l-126 64l-272 203q-3 3 -5 3l-137 68q-7 3 -15 4h-136q-9 0 -16 -4l-136 -68q-14 -7 -17 -20l-69 -203v-2q-2 -3 -1 -10v-6v-131z" />
    <glyph glyph-name="ograve" unicode="&#xf2;" 
d="M171 273v137q0 7 1 10l69 205q5 10 8 13l137 137q3 3 13 8l202 67v2h3l2 1h2h1h2h2h1h6h126h5q7 0 10 -1h2l203 -69q10 -5 14 -8l136 -137q3 -3 9 -13l68 -205q2 -3 2 -10v-137q0 -7 -2 -10l-68 -205q-5 -10 -9 -14l-136 -136q-3 -3 -14 -9l-201 -68h-2h-2q-3 -2 -10 -2
h-5h-126h-6q-7 0 -10 2h-2l-203 68q-10 5 -13 9l-137 136q-3 3 -8 14l-69 205q-2 3 -1 10zM307 278l65 -191l126 -128l125 -61h119l125 61l126 128l65 191v126l-65 192l-126 128l-125 61h-119l-125 -61l-126 -128l-65 -192v-126zM446 1366q0 14 10 24l65 65q10 13 27 13h3
q17 0 26 -15l338 -406l2 -2l1 -3q3 -3 4 -7l2 -2v-3v-6v-1v-4v-3l-2 -2v-1v-2l-2 -2v-2l-2 -1l-1 -2v-2l-2 -1h-2l-5 -6h-2v-1h-1l-2 -2h-3l-2 -2h-2h-1h-2h-4h-3h-3h-2l-2 2q-5 0 -7 2l-1 1l-4 2v2l-1 2l-408 339q-12 9 -12 26zM531 1368l92 -77l-77 92z" />
    <glyph glyph-name="oacute" unicode="&#xf3;" 
d="M171 273v137q0 7 1 10l69 205q5 10 8 13l137 137q3 3 13 8l202 67v2h3l2 1h2h1h2h2h1h6h126h5q7 0 10 -1h2l203 -69q10 -5 14 -8l136 -137q3 -3 9 -13l68 -205q2 -3 2 -10v-137q0 -7 -2 -10l-68 -205q-5 -10 -9 -14l-136 -136q-3 -3 -14 -9l-201 -68h-2h-2q-3 -2 -10 -2
h-5h-126h-6q-7 0 -10 2h-2l-203 68q-10 5 -13 9l-137 136q-3 3 -8 14l-69 205q-2 3 -1 10zM307 278l65 -191l126 -128l125 -61h119l125 61l126 128l65 191v126l-65 192l-126 128l-125 61h-119l-125 -61l-126 -128l-65 -192v-126zM446 1019q0 -2 0.5 -1.5t0.5 -1.5v-2v-1v-2
l2 -2l2 -2v-1l1 -2v-2l4 -1l5 -6h2v-1h1l2 -2h4l1 -2h2h2h1h4h3h4h1l2 2q5 0 7 2l2 1l3 2v2l2 2l408 339q12 9 12 26q0 14 -11 24l-63 65q-10 13 -27 13h-4q-19 0 -27 -15l-338 -406l-2 -2l-1 -3q-3 -3 -4 -7l-1 -2v-3v-6v-1v-4zM748 1291l77 92l15 -15z" />
    <glyph glyph-name="ocircumflex" unicode="&#xf4;" 
d="M171 273v137q0 7 1 10l69 205q5 10 8 13l137 137q3 3 13 8l202 67v2h3l2 1h2h1h2h2h1h6h126h5q7 0 10 -1h2l203 -69q10 -5 14 -8l136 -137q3 -3 9 -13l68 -205q2 -3 2 -10v-137q0 -7 -2 -10l-68 -205q-5 -10 -9 -14l-136 -136q-3 -3 -14 -9l-201 -68h-2h-2q-3 -2 -10 -2
h-5h-126h-6q-7 0 -10 2h-2l-203 68q-10 5 -13 9l-137 136q-3 3 -8 14l-69 205q-2 3 -1 10zM307 278l65 -191l126 -128l125 -61h119l125 61l126 128l65 191v126l-65 192l-126 128l-125 61h-119l-125 -61l-126 -128l-65 -192v-126zM308 1086v3v3v4v3v2l2 2v1l2 2v3l3 2v2l2 2
q2 2 2 3l1 2h2l4 1l339 342q5 5 17 5t21 -5l339 -342h2l2 -1l1 -2l4 -2q2 0 3.5 -3.5t1.5 -5t1 -3t1 -3.5h1v-4v-3v-2v-1v-4v-3l-1 -2v-2l-2 -3l-2 -2v-1q0 -2 -3 -6l-2 -1h-2l-1 -2l-2 -2q-2 -2 -3 -1q-7 -3 -14 -4h-3h-4q-2 0 -2 1t-1 1h-4h-1l-2 2h-2l-324 266l-326 -266
l-2 -2h-5q-2 0 -5 -1l-3 -1h-4h-3h-2l-2 2h-3l-3 2l-2 1l-2 2l-2 2l-1 1l-4 2l-1 4l-2 3v2l-2 1v2z" />
    <glyph glyph-name="otilde" unicode="&#xf5;" 
d="M36 1024q0 -14 10 -24t23.5 -10t24 10t10.5 24v128l60 120l119 59h120l126 -63l271 -203q3 -3 5 -3l137 -69q7 -3 15 -3h137q9 0 15 3l137 69q14 7 17 20l68 203v2q2 3 2 10v5v132q0 14 -10.5 24t-24 10t-24 -10.5t-10.5 -23.5v-128l-59 -120l-120 -60h-119l-126 64
l-272 203q-3 3 -5 3l-137 68q-7 3 -15 4h-136q-9 0 -16 -4l-136 -68q-14 -7 -17 -20l-69 -203v-2q-2 -3 -1 -10v-6v-131zM171 273v137q0 7 1 10l69 205q5 10 8 13l137 137q3 3 13 8l202 67v2h3l2 1h2h1h2h2h1h6h126h5q7 0 10 -1h2l203 -69q10 -5 14 -8l136 -137q3 -3 9 -13
l68 -205q2 -3 2 -10v-137q0 -7 -2 -10l-68 -205q-5 -10 -9 -14l-136 -136q-3 -3 -14 -9l-201 -68h-2h-2q-3 -2 -10 -2h-5h-126h-6q-7 0 -10 2h-2l-203 68q-10 5 -13 9l-137 136q-3 3 -8 14l-69 205q-2 3 -1 10zM307 278l65 -191l126 -128l125 -61h119l125 61l126 128l65 191
v126l-65 192l-126 128l-125 61h-119l-125 -61l-126 -128l-65 -192v-126z" />
    <glyph glyph-name="ugrave" unicode="&#xf9;" horiz-adv-x="1501" 
d="M102 819.5q0 13.5 10.5 23.5t24.5 10h199h5h5h58h6q10 0 20 -6h2l1 -2v-2l2 -2q9 -9 9 -22v-5v-737l59 -120l120 -59h123l191 64l121 120v703h-171q-14 0 -24 10.5t-10 24t10.5 23.5t23.5 10h200h5h5h58h6q10 0 20 -6h2l1 -2v-2l2 -2q9 -9 9 -22v-5v-916h170
q14 0 24 -10.5t10 -24t-10 -24t-24 -10.5h-199h-5h-6h-58h-5q-10 0 -20 7h-2l-2 2v2h-1v1q-9 9 -9 22v6v117l-78 -78q-3 -3 -14 -9l-205 -68q-3 -2 -10 -2h-131h-6q-7 0 -10 2h-2l-203 68q-14 3 -20 17l-68 137q-3 7 -4 15v717h-170q-14 0 -24.5 10.5t-10.5 24zM512 1367
q0 14 10 24l65 65q10 13 27 13h3q17 0 26 -15l338 -406l2 -2l1 -3q3 -3 4 -7l2 -2v-3v-6v-1v-4v-3l-2 -2v-1v-2l-2 -2v-2l-2 -1l-1 -2v-2l-2 -1h-2l-5 -6h-2v-1h-1l-2 -2h-3l-2 -2h-2h-1h-2h-4h-3h-3h-2l-2 2q-5 0 -7 2l-1 1l-4 2v2l-1 2l-408 339q-12 9 -12 26zM597 1369
l92 -77l-77 92z" />
    <glyph glyph-name="uacute" unicode="&#xfa;" horiz-adv-x="1501" 
d="M102 819.5q0 13.5 10.5 23.5t24.5 10h199h5h5h58h6q10 0 20 -6h2l1 -2v-2l2 -2q9 -9 9 -22v-5v-737l59 -120l120 -59h123l191 64l121 120v703h-171q-14 0 -24 10.5t-10 24t10.5 23.5t23.5 10h200h5h5h58h6q10 0 20 -6h2l1 -2v-2l2 -2q9 -9 9 -22v-5v-916h170
q14 0 24 -10.5t10 -24t-10 -24t-24 -10.5h-199h-5h-6h-58h-5q-10 0 -20 7h-2l-2 2v2h-1v1q-9 9 -9 22v6v117l-78 -78q-3 -3 -14 -9l-205 -68q-3 -2 -10 -2h-131h-6q-7 0 -10 2h-2l-203 68q-14 3 -20 17l-68 137q-3 7 -4 15v717h-170q-14 0 -24.5 10.5t-10.5 24zM512 1020
q0 -2 0.5 -1.5t0.5 -1.5v-2v-1v-2l2 -2l2 -2v-1l1 -2v-2l4 -1l5 -6h2v-1h1l2 -2h4l1 -2h2h2h1h4h3h4h1l2 2q5 0 7 2l2 1l3 2v2l2 2l408 339q12 9 12 26q0 14 -11 24l-63 65q-10 13 -27 13h-4q-19 0 -27 -15l-338 -406l-2 -2l-1 -3q-3 -3 -4 -7l-1 -2v-3v-6v-1v-4zM814 1292
l77 92l15 -15z" />
    <glyph glyph-name="ucircumflex" unicode="&#xfb;" horiz-adv-x="1501" 
d="M102 819.5q0 13.5 10.5 23.5t24.5 10h199h5h5h58h6q10 0 20 -6h2l1 -2v-2l2 -2q9 -9 9 -22v-5v-737l59 -120l120 -59h123l191 64l121 120v703h-171q-14 0 -24 10.5t-10 24t10.5 23.5t23.5 10h200h5h5h58h6q10 0 20 -6h2l1 -2v-2l2 -2q9 -9 9 -22v-5v-916h170
q14 0 24 -10.5t10 -24t-10 -24t-24 -10.5h-199h-5h-6h-58h-5q-10 0 -20 7h-2l-2 2v2h-1v1q-9 9 -9 22v6v117l-78 -78q-3 -3 -14 -9l-205 -68q-3 -2 -10 -2h-131h-6q-7 0 -10 2h-2l-203 68q-14 3 -20 17l-68 137q-3 7 -4 15v717h-170q-14 0 -24.5 10.5t-10.5 24zM307 1018v3
v3v4v3v2l2 2v1l2 2v3l3 2v2l2 2q2 2 2 3l1 2h2l4 1l339 342q5 5 17 5t21 -5l339 -342h2l2 -1l1 -2l4 -2q2 0 3.5 -3.5t1.5 -5t1 -3t1 -3.5h1v-4v-3v-2v-1v-4v-3l-1 -2v-2l-2 -3l-2 -2v-1q0 -2 -3 -6l-2 -1h-2l-1 -2l-2 -2q-2 -2 -3 -1q-7 -3 -14 -4h-3h-4q-2 0 -2 1t-1 1h-4
h-1l-2 2h-2l-324 266l-326 -266l-2 -2h-5q-2 0 -5 -1l-3 -1h-4h-3h-2l-2 2h-3l-3 2l-2 1l-2 2l-2 2l-1 1l-4 2l-1 4l-2 3v2l-2 1v2z" />
    <glyph glyph-name="yacute" unicode="&#xfd;" horiz-adv-x="1228" 
d="M102 819.5q0 13.5 10.5 23.5t24.5 10h131h3h7h58h5h5h200q14 0 24 -10t10 -23.5t-10 -24t-24 -10.5h-153l319 -766l329 766h-222q-14 0 -24 10.5t-10 24t10.5 23.5t23.5 10h268h5h5h132q14 0 24 -10t10 -23.5t-10.5 -24t-23.5 -10.5h-115l-399 -930v-2q-2 -2 -2 -5t-1 -5
l-135 -268q-2 -3 -7 -8l-137 -137q-5 -5 -8 -7l-137 -68q-7 -3 -15 -4h-68q-14 0 -24 11l-68 68q-10 10 -10.5 24t10.5 24l68 68q10 10 23.5 10t24.5 -10l68 -68q10 -10 10 -24q0 -7 -3 -14l85 41l130 130l126 254l-394 920h-114q-14 0 -24.5 10.5t-10.5 24zM184 -546l21 20
l44 -44q7 -7 17 -10h-1h-47zM676 -34h7h6l-6 -15zM854 950q0 -2 0.5 -1.5t0.5 -1.5v-2v-1v-2l2 -2l2 -2v-1l1 -2v-2l4 -1l5 -6h2v-1h1l2 -2h4l1 -2h2h2h1h4h3h4h1l2 2q5 0 7 2l2 1l3 2v2l2 2l408 339q12 9 12 26q0 14 -11 24l-63 65q-10 13 -27 13h-4q-19 0 -27 -15
l-338 -406l-2 -2l-1 -3q-3 -3 -4 -7l-1 -2v-3v-6v-1v-4zM1156 1222l77 92l15 -15z" />
    <glyph glyph-name="uni2000" unicode="&#x2000;" horiz-adv-x="939" 
 />
    <glyph glyph-name="uni2001" unicode="&#x2001;" horiz-adv-x="1879" 
 />
    <glyph glyph-name="uni2002" unicode="&#x2002;" horiz-adv-x="939" 
 />
    <glyph glyph-name="uni2003" unicode="&#x2003;" horiz-adv-x="1879" 
 />
    <glyph glyph-name="uni2004" unicode="&#x2004;" horiz-adv-x="626" 
 />
    <glyph glyph-name="uni2005" unicode="&#x2005;" horiz-adv-x="469" 
 />
    <glyph glyph-name="uni2006" unicode="&#x2006;" horiz-adv-x="313" 
 />
    <glyph glyph-name="uni2007" unicode="&#x2007;" horiz-adv-x="313" 
 />
    <glyph glyph-name="uni2008" unicode="&#x2008;" horiz-adv-x="234" 
 />
    <glyph glyph-name="uni2009" unicode="&#x2009;" horiz-adv-x="375" 
 />
    <glyph glyph-name="uni200A" unicode="&#x200a;" horiz-adv-x="104" 
 />
    <glyph glyph-name="uni2010" unicode="&#x2010;" horiz-adv-x="1774" 
d="M239 478q0 -14 10 -24t24 -10h1229q14 0 24 10t10 24t-10 24t-24 10h-1229q-14 0 -24 -10t-10 -24z" />
    <glyph glyph-name="uni2011" unicode="&#x2011;" horiz-adv-x="1774" 
d="M239 478q0 -14 10 -24t24 -10h1229q14 0 24 10t10 24t-10 24t-24 10h-1229q-14 0 -24 -10t-10 -24z" />
    <glyph glyph-name="figuredash" unicode="&#x2012;" horiz-adv-x="1774" 
d="M239 478q0 -14 10 -24t24 -10h1229q14 0 24 10t10 24t-10 24t-24 10h-1229q-14 0 -24 -10t-10 -24z" />
    <glyph glyph-name="endash" unicode="&#x2013;" horiz-adv-x="1501" 
d="M239 478q0 -14 8 -24t19 -10h970q11 0 19 10t8 24t-8 24t-19 10h-970q-11 0 -19 -10t-8 -24z" />
    <glyph glyph-name="emdash" unicode="&#x2014;" horiz-adv-x="2525" 
d="M239 478q0 -14 16 -24t38 -10h1940q22 0 38 10t16 24t-16 24t-38 10h-1940q-22 0 -38 -10t-16 -24z" />
    <glyph glyph-name="uni202F" unicode="&#x202f;" horiz-adv-x="375" 
 />
    <glyph glyph-name="uni205F" unicode="&#x205f;" horiz-adv-x="469" 
 />
    <glyph glyph-name="uni25FC" unicode="&#x25fc;" horiz-adv-x="853" 
d="M0 0v853h853v-853h-853z" />
  </font>
</defs>
</svg>
